<svg enable-background="new 0 0 277.1 23.1" viewBox="0 0 277.1 23.1" xmlns="http://www.w3.org/2000/svg"><g fill="#fff"><path d="m107.2 22.8-2.9-9.5c-.2-.6-.5-1.9-1-3.9h-.1c-.4 1.7-.7 3-1 4l-3 9.4h-2.8l-4.4-16.1h2.5c1 4 1.8 7.1 2.4 9.2s.9 3.5.9 4.3c.1-.6.3-1.3.5-2.2s.4-1.6.6-2.1l2.9-9.2h2.6l2.9 9.2c.5 1.7.9 3.1 1.1 4.2h.1c0-.4.1-.9.3-1.6s1.2-4.7 3.1-11.8h2.5l-4.4 16.1z"/><path d="m124.2 23.1c-2.4 0-4.2-.7-5.6-2.2s-2.1-3.5-2.1-6c0-2.6.6-4.6 1.9-6.2s3-2.3 5.1-2.3c2 0 3.6.7 4.8 2s1.8 3.1 1.8 5.2v1.5h-11.1c0 1.9.5 3.3 1.4 4.3s2.2 1.5 3.8 1.5c1.7 0 3.4-.4 5.1-1.1v2.2c-.9.4-1.7.6-2.4.8s-1.6.3-2.7.3zm-.6-14.7c-1.3 0-2.3.4-3.1 1.3s-1.2 2-1.4 3.5h8.4c0-1.5-.3-2.7-1-3.5s-1.7-1.3-2.9-1.3z"/><path d="m141.7 6.4c2.1 0 3.7.7 4.9 2.2 1.2 1.4 1.8 3.5 1.8 6.1s-.6 4.7-1.8 6.1c-1.2 1.5-2.8 2.2-4.9 2.2-1 0-2-.2-2.9-.6s-1.6-1-2.2-1.8h-.2l-.5 2.1h-1.7v-22.7h2.4v5.5c0 1.2 0 2.4-.1 3.3h.1c1.2-1.6 2.9-2.4 5.1-2.4zm-.3 2.1c-1.7 0-2.9.5-3.6 1.4s-1.1 2.6-1.1 4.8.4 3.9 1.1 4.8 2 1.5 3.6 1.5c1.5 0 2.6-.5 3.3-1.6s1.1-2.7 1.1-4.7c0-2.1-.4-3.6-1.1-4.7s-1.8-1.5-3.3-1.5z"/><path d="m178.9 22.8-.5-2.3h-.1c-.8 1-1.6 1.7-2.4 2s-1.8.5-3 .5c-1.6 0-2.8-.4-3.7-1.2s-1.4-2-1.4-3.5c0-3.2 2.6-4.9 7.8-5.1l2.7-.1v-1c0-1.3-.3-2.2-.8-2.8s-1.4-.9-2.6-.9c-1.3 0-2.9.4-4.5 1.2l-.7-1.9c.8-.4 1.7-.8 2.6-1s1.9-.4 2.8-.4c1.9 0 3.3.4 4.3 1.3.9.8 1.4 2.2 1.4 4.1v11zm-5.5-1.8c1.5 0 2.7-.4 3.6-1.2s1.3-2 1.3-3.5v-1.5l-2.4.1c-1.9.1-3.3.4-4.2.9s-1.3 1.4-1.3 2.5c0 .9.3 1.5.8 2s1.3.7 2.2.7z"/><path d="m193.1 6.4c.7 0 1.4.1 1.9.2l-.3 2.3c-.7-.1-1.2-.2-1.8-.2-1.3 0-2.4.5-3.3 1.6s-1.4 2.4-1.4 3.9v8.6h-2.4v-16.1h2l.3 3h.1c.6-1 1.3-1.9 2.2-2.4s1.7-.9 2.7-.9z"/><path d="m203.2 21c.4 0 .8 0 1.2-.1s.7-.1 1-.2v1.9c-.3.1-.7.2-1.2.3s-1 .1-1.4.1c-3.1 0-4.7-1.6-4.7-4.9v-9.6h-2.3v-1.2l2.3-1 1-3.4h1.4v3.7h4.7v1.9h-4.7v9.4c0 1 .2 1.7.7 2.2s1.2.9 2 .9z"/><path d="m208.4 2.4c0-.6.1-1 .4-1.2s.6-.4 1-.4.7.1 1 .4.4.7.4 1.2-.1 1-.4 1.2-.6.4-1 .4-.8-.1-1-.4-.4-.7-.4-1.2zm2.6 20.4h-2.4v-16.1h2.4z"/><path d="m226.5 18.4c0 1.5-.6 2.6-1.7 3.5s-2.7 1.2-4.7 1.2c-2.1 0-3.8-.3-5-1v-2.3c.8.4 1.6.7 2.5.9s1.7.3 2.6.3c1.3 0 2.2-.2 2.9-.6s1-1 1-1.9c0-.6-.3-1.2-.8-1.6s-1.6-1-3.2-1.6c-1.5-.6-2.6-1-3.2-1.5-.6-.4-1.1-.9-1.4-1.4s-.5-1.2-.5-1.9c0-1.3.5-2.3 1.6-3.1s2.5-1.1 4.4-1.1c1.7 0 3.4.4 5.1 1.1l-.9 2c-1.6-.7-3.1-1-4.4-1-1.2 0-2 .2-2.6.5s-.9.9-.9 1.5c0 .4.1.8.3 1.1s.6.6 1.1.9 1.4.7 2.8 1.2c1.9.7 3.2 1.4 3.9 2.1.8.7 1.1 1.6 1.1 2.7z"/><path d="m240.3 22.8-.5-2.3h-.1c-.8 1-1.6 1.7-2.4 2s-1.8.5-3 .5c-1.6 0-2.8-.4-3.7-1.2s-1.4-2-1.4-3.5c0-3.2 2.6-4.9 7.8-5.1l2.7-.1v-1c0-1.3-.3-2.2-.8-2.8s-1.4-.9-2.6-.9c-1.3 0-2.9.4-4.5 1.2l-.7-1.9c.8-.4 1.7-.8 2.6-1s1.9-.4 2.8-.4c1.9 0 3.3.4 4.3 1.3.9.8 1.4 2.2 1.4 4.1v11zm-5.4-1.8c1.5 0 2.7-.4 3.6-1.2s1.3-2 1.3-3.5v-1.5l-2.4.1c-1.9.1-3.3.4-4.2.9s-1.3 1.4-1.3 2.5c0 .9.3 1.5.8 2s1.2.7 2.2.7z"/><path d="m258.1 22.8v-10.4c0-1.3-.3-2.3-.9-2.9s-1.5-1-2.8-1c-1.7 0-2.9.5-3.7 1.4s-1.2 2.4-1.2 4.5v8.4h-2.4v-16.1h2l.4 2.2h.1c.5-.8 1.2-1.4 2.1-1.8s1.9-.7 3-.7c1.9 0 3.4.5 4.4 1.4s1.5 2.4 1.5 4.5v10.5z"/><path d="m275.9 18.4c0 1.5-.6 2.6-1.7 3.5s-2.7 1.2-4.7 1.2c-2.1 0-3.8-.3-5-1v-2.3c.8.4 1.6.7 2.5.9s1.7.3 2.6.3c1.3 0 2.2-.2 2.9-.6s1-1 1-1.9c0-.6-.3-1.2-.8-1.6s-1.6-1-3.2-1.6c-1.5-.6-2.6-1-3.2-1.5-.6-.4-1.1-.9-1.4-1.4s-.5-1.2-.5-1.9c0-1.3.5-2.3 1.6-3.1s2.5-1.1 4.4-1.1c1.7 0 3.4.4 5.1 1.1l-.9 2c-1.6-.7-3.1-1-4.4-1-1.2 0-2 .2-2.6.5s-.9.9-.9 1.5c0 .4.1.8.3 1.1s.6.6 1.1.9 1.4.7 2.8 1.2c1.9.7 3.2 1.4 3.9 2.1.8.7 1.1 1.6 1.1 2.7z"/><path d="m9.3 23.1h-2.5v-20.9h-6.8v-2.2h16.1v2.2h-6.8z"/><path d="m26.2 6.5c.7 0 1.4.1 1.9.2l-.3 2.3c-.7-.1-1.2-.2-1.8-.2-1.3 0-2.4.5-3.3 1.6s-1.4 2.4-1.4 3.9v8.6h-2.4v-16.2h2l.3 3h.1c.6-1 1.3-1.9 2.2-2.4s1.7-.8 2.7-.8z"/><path d="m33.4 6.7v10.4c0 1.3.3 2.3.9 2.9s1.5 1 2.8 1c1.7 0 2.9-.5 3.7-1.4s1.2-2.4 1.2-4.5v-8.4h2.4v16.1h-2l-.4-2.2h-.1c-.5.8-1.2 1.4-2.1 1.8s-1.9.6-3 .6c-2 0-3.4-.5-4.4-1.4s-1.4-2.3-1.4-4.4v-10.5z"/><path d="m56.4 23.1c-2.4 0-4.2-.7-5.6-2.2-1.4-1.4-2.1-3.5-2.1-6 0-2.6.6-4.6 1.9-6.2 1.3-1.5 3-2.3 5.1-2.3 2 0 3.6.7 4.8 2s1.8 3.1 1.8 5.2v1.5h-11.1c0 1.9.5 3.3 1.4 4.3s2.2 1.5 3.8 1.5c1.7 0 3.4-.4 5.1-1.1v2.2c-.9.4-1.7.6-2.4.8s-1.7.3-2.7.3zm-.7-14.6c-1.3 0-2.3.4-3.1 1.3-.8.8-1.2 2-1.4 3.5h8.4c0-1.5-.3-2.7-1-3.5s-1.6-1.3-2.9-1.3z"/></g><path d="m77.1.1-8.6 23h-1.7l8.6-23z" fill="#fee04a"/><path d="m78.8.1-8.6 23h-1.7l8.6-23z" fill="#fee04a"/><path d="m87.4.1-8.6 23h-1.7l8.6-23z" fill="#fee04a"/><path d="m89.1.1-8.6 23h-1.7l8.6-23z" fill="#fee04a"/><path d="m163.3.1-8.6 23h-1.7l8.6-23z" fill="#fee04a"/><path d="m165 .1-8.6 23h-1.7l8.6-23z" fill="#fee04a"/></svg>