<svg enable-background="new 0 0 481.9 481.9" viewBox="0 0 481.9 481.9" xmlns="http://www.w3.org/2000/svg" xmlns:xlink="http://www.w3.org/1999/xlink"><linearGradient id="a" gradientUnits="userSpaceOnUse" x1="147.5818" x2="406.4519" y1="424.0299" y2="267.7884"><stop offset="0" stop-color="#fcee39"/><stop offset="1" stop-color="#f37b3d"/></linearGradient><linearGradient id="b" gradientUnits="userSpaceOnUse" x1="202.3268" x2="438.6057" y1="48.8557" y2="255.7111"><stop offset="0" stop-color="#ef5a6b"/><stop offset=".57" stop-color="#f26f4e"/><stop offset="1" stop-color="#f37b3d"/></linearGradient><linearGradient id="c" gradientUnits="userSpaceOnUse" x1="217.3346" x2="77.3025" y1="236.361" y2="148.9103"><stop offset="0" stop-color="#7c59a4"/><stop offset=".3852" stop-color="#af4c92"/><stop offset=".7654" stop-color="#dc4183"/><stop offset=".957" stop-color="#ed3d7d"/></linearGradient><linearGradient id="d" gradientUnits="userSpaceOnUse" x1="214.7325" x2="78.0215" y1="38.2441" y2="151.1553"><stop offset="0" stop-color="#ef5a6b"/><stop offset=".364" stop-color="#ee4e72"/><stop offset="1" stop-color="#ed3d7d"/></linearGradient><path d="m434.2 263.2c2.9-2.7 4.6-6.2 5-10.6.4-8.6-6-15.5-14.5-16.1-3.9-.4-7.9 1.3-10.9 3.7l-276.8 151.4c-6.2 2.7-11.9 7.2-15.5 13.6-9.5 15.9-4.3 36.3 11.9 45.9 11.2 6.6 24.8 6 35.3-.6.6-.6 1.7-1 2.3-1.7l257.5-181c1.3-1 5-3.5 5.7-4.6z" fill="url(#a)"/><path d="m434.8 241.1-210.6-206.7c-4.6-5-11.2-8.3-18.8-8.3-14.2 0-25.4 11.6-25.4 25.4 0 7 2.7 12.8 7 17.5 1.3 1.3 2.7 2.3 3.9 3.3l222.5 190.5c2.7 2.3 6 3.9 9.9 4.3 8.6.4 15.5-6 16.1-14.5.1-4.2-1.6-8.5-4.6-11.5z" fill="url(#b)"/><path d="m231.1 222.6c-.4 0-130.1-102.3-132.7-104-2-1-3.9-2-6-2.9-19.2-7.2-40.3 2.7-47.5 21.8-6.2 16.8.6 35.3 15.2 44.2 2.3 1.3 4.3 2.3 6.6 2.9 1.3.6 149.9 62 149.9 62 6 2.7 12.8 1 16.8-3.9 4.9-6.3 4-15.2-2.3-20.1z" fill="url(#c)"/><path d="m205.4 26.1c-5.6 0-10.9 2-15.2 5l-131.5 88.5c-.4.4-.6.4-.6.6h-.4c-5.6 3.9-10.3 9.9-12.8 16.8-7.2 19.2 2.7 40.7 21.8 47.5 11.9 4.6 24.8 2.3 34.3-4.6 2.3-1.7 4.3-3.3 6-5.3l114.3-103c6-4.6 9.9-11.9 9.9-20.1-.1-13.8-11.7-25.4-25.8-25.4z" fill="url(#d)"/><path d="m156.8 149.6h168.4v168.4h-168.4z"/><g fill="#fff"><path d="m171.3 286.4h63v10.6h-63z"/><path d="m170.7 193.9 5-4.6c1.3 1.7 2.7 2.7 4.3 2.7 2 0 2.9-1.3 2.9-3.9v-17.5h7.6v17.4c0 3.3-1 6-2.7 7.6s-4.3 2.7-7.6 2.7c-4.9.2-7.6-1.8-9.5-4.4z"/><path d="m192.2 170.7h22.1v6.2h-14.5v4.3h13.2v6h-13.2v4.3h14.9v6.6h-22.1z"/><path d="m224.2 177.3h-8.3v-6.6h24.1v6.6h-8.3v20.9h-7.6z"/><path d="m171.3 204.4h14.2c3.3 0 6 1 7.6 2.3 1 1 1.7 2.7 1.7 4.6 0 3.3-1.7 5-4.3 6.2 3.3 1 5.3 2.9 5.3 6.6 0 4.6-3.9 7.6-10.3 7.6h-14.2zm15.9 8.6c0-1.7-1.3-2.3-3.3-2.3h-5v5h4.6c2.3-.4 3.7-1 3.7-2.7zm-2.6 7.9h-6v5h6c2.3 0 3.7-1 3.7-2.7-.1-1.6-1.5-2.3-3.7-2.3z"/><path d="m197.1 204.4h12.8c4.3 0 7 1 8.9 2.9 1.7 1.7 2.3 3.7 2.3 6.2 0 4.3-2.3 7-5.6 8.6l6.6 9.5h-8.6l-5.6-8.3h-3.3v8.3h-7.6zm12.5 13.2c2.7 0 3.9-1.3 3.9-3.3 0-2.3-1.7-3.3-3.9-3.3h-5v6.6z"/><path d="m230.1 204.4h7.2l11.6 27.7h-8.3l-2-5h-10.6l-2 5h-7.9zm6.6 16.5-2.9-7.6-2.9 7.6z"/><path d="m249.9 204.4h7.6v27.4h-7.6z"/><path d="m259.5 204.4h7l11.2 14.5v-14.5h7.6v27.4h-6.6l-11.7-14.9v15.2h-7.6v-27.7z"/><path d="m285.9 227.9 4.3-5c2.7 2.3 5.6 3.3 8.9 3.3 2 0 3.3-.6 3.3-2 0-1.3-1-1.7-4.6-2.7-6-1.3-10.3-2.9-10.3-8.6 0-5 3.9-8.9 10.6-8.9 4.6 0 8.3 1.3 11.2 3.7l-3.9 5.3c-2.7-1.7-5.3-2.7-7.6-2.7-2 0-2.7.6-2.7 1.7 0 1.3 1 1.7 4.6 2.7 6.2 1.3 10.3 3.3 10.3 8.6 0 5.6-4.3 8.9-11.2 8.9-5 .3-9.6-1.4-12.9-4.3z"/></g></svg>