<svg viewBox="0 0 453.54 135.68" xmlns="http://www.w3.org/2000/svg"><g transform="translate(-14.17 -173.1)"><g fill="#1a1a1a"><path d="m199.39 230.94a10.54 10.54 0 0 1 -3 8q-3 2.89-8.31 2.89h-14.08v16.11l-3.81.06v-37.86l18.86-.07a9.81 9.81 0 0 1 7.56 2.89q2.72 2.89 2.72 8m-3.85.14q0-8-7.63-8l-13.85-.02v15.76h13.2q8.34 0 8.34-7.76"/><path d="m227 245.55q0 6.06-3.17 9.47-3.54 3.81-10.32 3.81a16.36 16.36 0 0 1 -5.65-.89 11.14 11.14 0 0 1 -4.19-2.86 13.74 13.74 0 0 1 -3.27-9.53q0-5.92 3.17-9.4 3.51-3.88 9.94-3.88 6.81 0 10.28 3.78 3.2 3.4 3.2 9.5m-3.3 0q0-10.59-10.18-10.59a8.88 8.88 0 0 0 -9.16 6.16 14 14 0 0 0 -.65 4.43 11.41 11.41 0 0 0 2.52 7.76q2.55 2.86 7.29 2.86 5.24 0 7.8-3a8.2 8.2 0 0 0 1.8-3.24 15.28 15.28 0 0 0 .58-4.43"/><path d="m253.64 251.1q0 7.66-11.47 7.66a27.37 27.37 0 0 1 -5.92-.54 9.33 9.33 0 0 1 -3.88-1.77 6.41 6.41 0 0 1 -1.84-2.42 12 12 0 0 1 -.89-3.78l3.54-.06a5.21 5.21 0 0 0 1.87 4.43q2 1.7 7.12 1.7 8 0 8-4.8a3.84 3.84 0 0 0 -2.69-3.85 62.31 62.31 0 0 0 -6.5-1.09 36.18 36.18 0 0 1 -7.39-1.57 5.46 5.46 0 0 1 -3.17-5.41 6.36 6.36 0 0 1 2.83-5.69 11.81 11.81 0 0 1 3.47-1.19 24.07 24.07 0 0 1 4.87-.44q11 0 11 8.27h-3.37q0-5.82-7.76-5.82a11.52 11.52 0 0 0 -5.89 1.19 3.9 3.9 0 0 0 -1.94 3.61q0 2.28 2.62 3.27a43.06 43.06 0 0 0 7 1.23 21.72 21.72 0 0 1 6.78 1.5 5.67 5.67 0 0 1 3.51 5.55"/><path d="m269.08 258c-.54.11-1 .19-1.46.24a5.91 5.91 0 0 1 -.89.07q-3.47 0-5-1.19t-1.53-4.26v-17.16h-4.2v-2.55h4.19v-8.21h3.23v8.24l5.65-.06v2.59l-5.65-.06v16.72a3.33 3.33 0 0 0 .82 2.59 4.74 4.74 0 0 0 3 .71 2.8 2.8 0 0 0 .68-.06l1.12-.24v2.59"/><path d="m295.56 257.19q0 11.3-12.7 11.3-6.64 0-9.43-2.18-2.42-1.87-3-6l3.34-.06a6.76 6.76 0 0 0 2.11 4.22q2 1.6 6.84 1.6 5.11 0 7.32-2.32a9 9 0 0 0 2.25-6.57v-4.43q-3.06 4.8-10.39 4.8-6.09 0-9.43-3.34a11.08 11.08 0 0 1 -2.35-4 16.87 16.87 0 0 1 -.78-5.35q0-6 3.17-9.16 3.34-3.47 9.67-3.47a12.54 12.54 0 0 1 7 1.8 22.63 22.63 0 0 1 3.06 3.3v-4.29h3.23v24.07m-3.23-12.39a10 10 0 0 0 -2.49-7.12q-2.45-2.69-7.22-2.69a9.1 9.1 0 0 0 -9.94 9.94q0 10 10.18 10a10.49 10.49 0 0 0 3.92-.68 8.94 8.94 0 0 0 3-2q2.52-2.62 2.52-7.49"/><path d="m314.39 235.67a15.17 15.17 0 0 0 -2.72-.27q-8 0-8 10.45v12.09h-3.23v-24.75l3.23-.06v4.46h.17a7.56 7.56 0 0 1 2.59-3.95 10.51 10.51 0 0 1 5.79-1.29h1.29a3.78 3.78 0 0 1 .89.06v3.27"/><path d="m341 246.23h-23.07a10.18 10.18 0 0 0 2.35 6.95q2.72 3.13 7.8 3.13 7.18 0 9-6.44h3.51a11 11 0 0 1 -3.71 6.2 12.12 12.12 0 0 1 -3.92 2 14.93 14.93 0 0 1 -4.83.75q-6.57 0-10.18-3.95-3.34-3.54-3.34-9.57t3.47-9.47q3.47-3.51 9.77-3.51a16.08 16.08 0 0 1 5.89 1 10.14 10.14 0 0 1 4.22 3q3.1 3.61 3.1 9.91m-3.4-2.25a8.93 8.93 0 0 0 -2.76-6.4 9.35 9.35 0 0 0 -7-2.83 11 11 0 0 0 -4 .68 8.83 8.83 0 0 0 -3.17 2 11.89 11.89 0 0 0 -2.76 6.54h19.71"/></g><path d="m383.39 247.91q0 13.33-18 13.33-10.76 0-15.71-4.58-4-3.76-4-11.45h4.83q0 12.39 14.93 12.39 7.16 0 10.35-2.58 2.7-2.21 2.7-7t-3.68-6.67q-2.09-1-10.18-2.58-10.18-1.84-13.21-3.72-4.38-2.74-4.38-9.24 0-6.13 3.72-9.08 4-3.27 13.74-3.27 17.59 0 17.59 13.95h-4.87q0-10.43-13-10.43-6.54 0-9.57 2.09a7.87 7.87 0 0 0 -2.86 6.58 6.63 6.63 0 0 0 3.68 6.42q2 1.06 11.53 2.94 9 1.64 12.15 3.76 4.29 2.66 4.29 9.12" fill="#316192"/><path d="m431.19 261.12-2.94 3.19-7.12-5.93a17.3 17.3 0 0 1 -5.48 2.17 34.43 34.43 0 0 1 -7.57.74q-11.08 0-17.5-6.59t-6.38-17.38q0-11 6.34-17.46t17.46-6.47a28.19 28.19 0 0 1 10.18 1.72 19.45 19.45 0 0 1 7.61 5.24q5.89 6.38 5.89 17a28.27 28.27 0 0 1 -1.8 10.47 19.08 19.08 0 0 1 -5.56 7.65l6.87 5.68m-4.13-23.8a25.18 25.18 0 0 0 -1.27-8.3 17.09 17.09 0 0 0 -3.93-6.42q-5-5.6-13.82-5.6t-13.95 5.36q-5.24 5.36-5.24 15 0 9.24 5.28 14.81t13.87 5.45a21 21 0 0 0 7.61-1.31 18.28 18.28 0 0 0 6.09-3.89q5.32-5.56 5.32-15.13" fill="#316192"/><path d="m467.68 260.06-32.92.06v-45.48l4.54-.08v41.72h28.42v3.8" fill="#316192"/><path d="m145.43 254.38a6.68 6.68 0 0 0 -5.54-4.46 12.69 12.69 0 0 0 -4.42.24 39.75 39.75 0 0 1 -6.82.9 131.44 131.44 0 0 0 13.91-33.06c4.62-17.88 2.15-26-.73-29.7-7.63-9.75-18.76-15-32.19-15.15a57 57 0 0 0 -16.73 2.34 62.31 62.31 0 0 0 -9.79-.9 31.81 31.81 0 0 0 -17 4.2 77.72 77.72 0 0 0 -12-3c-11.77-1.93-21.26-.43-28.2 4.48-8.4 5.94-12.3 16.25-11.58 30.65.23 4.57 2.79 18.49 6.81 31.68a109.41 109.41 0 0 0 7.34 18.72c3.62 6.86 7.5 10.9 11.85 12.35 2.44.81 6.87 1.38 11.53-2.5a10.08 10.08 0 0 0 2.42 2.09 16.13 16.13 0 0 0 4.57 1.93 24.56 24.56 0 0 0 16-1c0 .83.05 1.62.07 2.31 0 1.11.06 2.2.1 3.22.28 6.89.75 12.25 2.13 16 .08.21.18.52.29.85a19.26 19.26 0 0 0 4.8 8.46 14.32 14.32 0 0 0 10.13 3.77 22.76 22.76 0 0 0 4.73-.53c5.06-1.08 10.81-2.74 15-8.66 3.93-5.6 5.84-14 6.19-27.31l.13-1.08.08-.7.93.08h.24a36.64 36.64 0 0 0 15.2-2.6c3.06-1.42 12.86-6.59 10.55-13.58"/><path d="m136.62 255.74c-15.33 3.16-16.38-2-16.38-2 16.18-24 22.95-54.49 17.11-61.95-15.93-20.35-43.49-10.72-44-10.47h-.15a54.66 54.66 0 0 0 -10.2-1.07c-6.93-.11-12.19 1.82-16.19 4.84 0 0-49.18-20.26-46.89 25.48.49 9.73 13.95 73.62 30 54.33 5.87-7.06 11.54-13 11.54-13a14.88 14.88 0 0 0 9.72 2.48l.27-.23a10.71 10.71 0 0 0 .11 2.75c-4.14 4.62-2.92 5.43-11.19 7.13s-3.45 4.79-.24 5.6c3.89 1 12.89 2.35 19-6.16l-.24 1c1.62 1.3 2.76 8.44 2.57 14.92s-.32 10.92 1 14.4 2.55 11.29 13.42 9c9.08-1.95 13.79-7 14.44-15.4.46-6 1.52-5.1 1.58-10.44l.84-2.53c1-8.11.15-10.72 5.75-9.51l1.36.12a31 31 0 0 0 12.67-2.13c6.81-3.16 10.85-8.44 4.13-7.05" fill="#336791"/><path d="m69.71 214.93a4.75 4.75 0 0 0 -3.26.46 1.2 1.2 0 0 0 -.5.8 2.33 2.33 0 0 0 .56 1.52 4.27 4.27 0 0 0 2.71 1.69 3.09 3.09 0 0 0 .43 0c1.67 0 3.19-1.3 3.33-2.26.17-1.2-1.58-2-3.27-2.24m45.75 0c-.13-.94-1.81-1.21-3.4-1s-3.13.94-3 1.89a3.23 3.23 0 0 0 3 2h.4a3.87 3.87 0 0 0 2.18-1.2 2.41 2.41 0 0 0 .82-1.66" fill="#fff"/><path d="m141.72 255.38c-.58-1.77-2.47-2.34-5.59-1.69-9.28 1.91-12.6.59-13.69-.21a127.57 127.57 0 0 0 16.35-36.66 69.65 69.65 0 0 0 2.42-15.76c.08-4.88-.75-8.46-2.47-10.65-6.91-8.82-17-13.56-29.31-13.69a50.22 50.22 0 0 0 -16.94 2.67 42.24 42.24 0 0 0 -9.53-1.22 27.54 27.54 0 0 0 -16.34 4.5 72.93 72.93 0 0 0 -13.28-3.48c-10.76-1.73-19.3-.42-25.4 3.9-7.28 5.16-10.64 14.37-10 27.39.22 4.38 2.72 17.86 6.65 30.76 5.19 17 10.82 26.6 16.75 28.58a7.5 7.5 0 0 0 2.38.39c2.16 0 4.82-1 7.58-4.29q5-6.06 10.44-11.81a16.82 16.82 0 0 0 7.51 2v.21q-.68.81-1.32 1.64c-1.81 2.3-2.19 2.78-8 4-1.66.34-6.08 1.25-6.14 4.35-.07 3.38 5.22 4.8 5.82 5a24.93 24.93 0 0 0 6.05.78 17.61 17.61 0 0 0 12.12-4.52c-.1 12.05.4 23.93 1.85 27.54 1.19 3 4.08 10.2 13.22 10.2a21.21 21.21 0 0 0 4.44-.5c9.54-2 13.69-6.26 15.29-15.56.86-5 2.33-16.84 3-23.2a18.7 18.7 0 0 0 5.38.66 32 32 0 0 0 12.21-2.33c3.45-1.6 9.67-5.53 8.54-8.95zm-22.73-43a38.61 38.61 0 0 1 -.56 5.37 49.57 49.57 0 0 0 -.68 6.3 47.77 47.77 0 0 0 .5 7.12c.57 4.75 1.16 9.64-1.11 14.47a18.81 18.81 0 0 1 -1-2.07c-.28-.68-.89-1.78-1.74-3.3-3.3-5.91-11-19.76-7.07-25.41 1.18-1.68 4.17-3.41 11.67-2.48zm-9.09-31.84c11 .24 19.69 4.36 25.85 12.22 4.72 6-.48 33.49-15.53 57.18l-.46-.58-.19-.24c3.89-6.42 3.13-12.78 2.45-18.42a44.16 44.16 0 0 1 -.47-6.55 46.38 46.38 0 0 1 .63-5.84 36.9 36.9 0 0 0 .59-7.23 3 3 0 0 0 .06-1c-.24-2.6-3.21-10.38-9.26-17.42a41.72 41.72 0 0 0 -14.72-11.07 49.65 49.65 0 0 1 11-1zm-61.52 83c-3 3.66-5.14 3-5.83 2.72-4.5-1.5-9.72-11-14.32-26.09-4-13-6.31-26.17-6.49-29.84-.58-11.63 2.24-19.74 8.38-24.1 10-7.09 26.44-2.85 33-.69l-.29.28c-10.83 10.9-10.54 29.6-10.51 30.75 0 .44 0 1.07.09 1.92a77.38 77.38 0 0 1 -.41 15.63 19.77 19.77 0 0 0 5.21 16.55q.64.67 1.35 1.27c-1.86 2-5.89 6.39-10.19 11.56zm11.62-15.54a16 16 0 0 1 -4.19-13.39 80.9 80.9 0 0 0 .42-16.38c0-.46-.05-.86-.07-1.18 1.58-1.4 8.92-5.34 14.16-4.14 2.39.55 3.84 2.17 4.45 5 3.13 14.48.41 20.52-1.77 25.37-.45 1-.87 1.94-1.24 2.92l-.28.76a49.52 49.52 0 0 0 -1.79 5.37 13.51 13.51 0 0 1 -9.69-4.33zm.55 19.53a8.4 8.4 0 0 1 -2.55-1.05 12.37 12.37 0 0 1 2.7-.8c6.87-1.41 7.93-2.41 10.25-5.36.53-.68 1.13-1.44 2-2.37 1.24-1.39 1.81-1.16 2.84-.73a4 4 0 0 1 2 2.54 2.83 2.83 0 0 1 -.24 2.38c-4.92 6.79-11.97 6.7-17.04 5.43zm36 33.47c-8.41 1.8-11.38-2.49-13.35-7.39-1.27-3.17-1.89-17.44-1.45-33.21a1.9 1.9 0 0 0 -.08-.6 8 8 0 0 0 -.23-1.11 7.7 7.7 0 0 0 -4.18-5 5.89 5.89 0 0 0 -3.84-.47 46.45 46.45 0 0 1 1.66-5l.28-.76c.32-.86.72-1.74 1.14-2.68 2.28-5.07 5.41-12 2-27.73-1.27-5.88-5.52-8.75-12-8.09a27.59 27.59 0 0 0 -9.15 2.85l-1 .56c.49-5.93 2.35-17 9.3-24 4.35-4.37 10.13-6.53 17.23-6.37a36.67 36.67 0 0 1 28 13.39 42.52 42.52 0 0 1 7.67 13.15c-7.09-.72-11.91.68-14.35 4.17-5.32 7.6 2.91 22.35 6.86 29.44.73 1.3 1.35 2.42 1.55 2.9a26.32 26.32 0 0 0 4.17 6.72c.37.47.73.92 1 1.31-2.15.62-6 2-5.65 9.2-.28 3.59-2.3 20.38-3.32 26.31-1.35 7.84-4.24 10.76-12.35 12.5zm35.09-40.16a27.69 27.69 0 0 1 -9.36 1.95c-3.85.18-5.82-.43-6.28-.81-.22-4.45 1.44-4.92 3.2-5.41.28-.08.54-.15.8-.24a6.56 6.56 0 0 0 .53.39c3.1 2 8.62 2.27 16.43.65h.09a21 21 0 0 1 -5.41 3.49z" fill="#fff"/></g></svg>