<svg version="1.1" id="svg2" xmlns:cc="http://creativecommons.org/ns#" xmlns:dc="http://purl.org/dc/elements/1.1/" xmlns:rdf="http://www.w3.org/1999/02/22-rdf-syntax-ns#" xmlns:svg="http://www.w3.org/2000/svg" xmlns="http://www.w3.org/2000/svg" xmlns:xlink="http://www.w3.org/1999/xlink" x="0" y="0" viewBox="0 0 481.9 481.9" xml:space="preserve" enable-background="new 0 0 481.9 481.9"><style type="text/css">.st0{fill:#4dba87}.st1{fill:#435466}</style><g><g id="g10" transform="matrix(1.3333333,0,0,-1.3333333,0,400)"><g id="g12" transform="translate(178.0626,235.0086)"><path id="path14" class="st0" d="M-58.9-69.2l-12.4-21.4l-12.3,21.4h-41.2l53.6-93l53.6,92.9L-58.9-69.2L-58.9-69.2z"/></g><g id="g16" transform="translate(178.0626,235.0086)"><path id="path18" class="st1" d="M-58.9-69.2l-12.4-21.4l-12.3,21.4h-19.8l32.1-55.7l32.1,55.7H-58.9L-58.9-69.2z"/></g></g><g><path class="st1" d="M261.5,209.3h6l-17.4,48.2h-5.6l-17.2-48.2h5.9l11.1,31.2c1.3,3.6,2.3,7,3,10.5c0.8-3.6,1.8-7.1,3.1-10.6 L261.5,209.3z"/><path class="st1" d="M278.5,221.4v23.5c0,2.9,0.7,5.1,2,6.6c1.4,1.5,3.4,2.1,6.3,2.1c3.8,0,6.5-1,8.3-3.1 c1.7-2.1,2.7-5.4,2.7-10.1v-19h5.5v36.2h-4.5l-0.8-4.9h-0.3c-1.1,1.8-2.7,3.2-4.6,4.1c-2,0.9-4.3,1.5-6.8,1.5 c-4.4,0-7.7-1-9.9-3.2c-2.2-2.1-3.3-5.4-3.3-10v-23.7H278.5z"/><path class="st1" d="M330,258.2c-5.3,0-9.6-1.6-12.7-4.9c-3.1-3.3-4.6-7.8-4.6-13.5c0-5.8,1.5-10.5,4.3-13.9 c2.8-3.4,6.7-5.1,11.6-5.1c4.5,0,8.1,1.5,10.7,4.5c2.7,3,3.9,6.9,3.9,11.8v3.4h-24.9c0.1,4.3,1.2,7.5,3.3,9.7 c2.1,2.2,4.9,3.3,8.6,3.3c3.9,0,7.7-0.8,11.6-2.4v4.9c-2,0.9-3.8,1.5-5.5,1.8C334.6,258,332.4,258.2,330,258.2z M328.5,225.4 c-2.9,0-5.2,0.9-6.9,2.8c-1.7,1.9-2.7,4.5-3.1,7.9h18.9c0-3.4-0.8-6.1-2.3-8C333.6,226.3,331.4,225.4,328.5,225.4z"/><path class="st1" d="M351.8,254.1c0-1.5,0.3-2.6,1-3.3c0.7-0.8,1.6-1.1,2.9-1.1s2.2,0.3,3,1.1c0.7,0.8,1,1.9,1,3.3 c0,1.5-0.3,2.6-1.1,3.3c-0.7,0.8-1.7,1.1-3,1.1c-1.1,0-2.1-0.3-2.8-1C352.2,256.8,351.8,255.6,351.8,254.1z"/><path class="st1" d="M366.2,273.8c-2.1,0-3.8-0.3-5.1-0.9v-4.5c1.5,0.4,3,0.7,4.5,0.7c1.7,0,3-0.4,3.8-1.4 c0.8-0.9,1.2-2.4,1.2-4.3v-42.1h5.5v41.7C376.1,270.2,372.8,273.8,366.2,273.8z M370.1,211.7c0-1.3,0.3-2.1,0.9-2.7 s1.4-0.9,2.3-0.9c0.9,0,1.6,0.3,2.3,0.9c0.6,0.6,0.9,1.5,0.9,2.7s-0.3,2.1-0.9,2.7s-1.4,0.9-2.3,0.9s-1.7-0.3-2.3-0.9 C370.5,213.8,370.1,212.9,370.1,211.7z"/><path class="st1" d="M411,247.7c0,3.3-1.3,6-3.8,7.8c-2.5,1.8-6,2.7-10.5,2.7c-4.8,0-8.6-0.8-11.2-2.3v-5.1 c1.7,0.9,3.6,1.5,5.6,2.1c2,0.5,3.9,0.8,5.7,0.8c2.8,0,5.1-0.4,6.6-1.4s2.3-2.3,2.3-4.2c0-1.4-0.6-2.6-1.8-3.6s-3.6-2.1-7.1-3.5 c-3.3-1.3-5.7-2.3-7.2-3.3c-1.5-0.9-2.5-2-3.2-3.2s-1-2.6-1-4.3c0-2.9,1.2-5.2,3.6-6.9c2.4-1.7,5.7-2.6,9.9-2.6 c3.9,0,7.7,0.8,11.4,2.4l-2,4.5c-3.6-1.5-6.9-2.2-9.9-2.2c-2.6,0-4.5,0.4-5.8,1.2c-1.3,0.8-2,2-2,3.3c0,0.9,0.3,1.8,0.8,2.5 c0.5,0.7,1.3,1.4,2.4,2c1.1,0.6,3.2,1.5,6.3,2.7c4.3,1.5,7.2,3.2,8.7,4.7C410.3,243.4,411,245.3,411,247.7z"/></g></g></svg>