<svg enable-background="new 0 0 288 288" viewBox="0 0 288 288" xmlns="http://www.w3.org/2000/svg" xmlns:xlink="http://www.w3.org/1999/xlink"><clipPath id="a"><path d="m-43.6-43.6h375.2v375.2h-375.2z" transform="matrix(.9372 -.3487 .3487 .9372 -41.1747 59.2511)"/></clipPath><path d="m0 0h288v288h-288z" fill="#fee04a"/><g clip-path="url(#a)" fill="#fff"><path d="m392.3 264.1h3.1v13.4h-3.1z" transform="matrix(.4161 -.9093 .9093 .4161 -16.2667 516.2594)"/><path d="m332.8 251.1h65.5v13.4h-65.5z" transform="matrix(.4161 -.9093 .9093 .4161 -20.9633 482.8581)"/><path d="m273.4 238.1h127.8v13.4h-127.8z" transform="matrix(.4161 -.9093 .9093 .4161 -25.6112 449.6218)"/><path d="m213.8 225.2h190.2v13.4h-190.2z" transform="matrix(.4161 -.9093 .9093 .4161 -30.4804 416.3175)"/><path d="m154.3 212.1h252.5v13.4h-252.5z" transform="matrix(.4161 -.9093 .9093 .4161 -35.1287 382.8125)"/><path d="m94.7 199.2h314.9v13.4h-314.9z" transform="matrix(.4161 -.9093 .9093 .4161 -39.9958 349.5147)"/><path d="m35.3 186.2h377.2v13.4h-377.2z" transform="matrix(.4161 -.9093 .9093 .4161 -44.6566 316.1663)"/><path d="m-24.2 173.2h439.6v13.4h-439.6z" transform="matrix(.4161 -.9093 .9093 .4161 -49.3236 282.8881)"/><path d="m-83.7 160.3h501.8v13.4h-501.8z" transform="matrix(.4161 -.9093 .9093 .4161 -54.2278 249.5337)"/><path d="m-143.2 147.3h564.2v13.4h-564.2z" transform="matrix(.4161 -.9093 .9093 .4161 -58.9016 216.2614)"/><path d="m-140.4 134.3h501.8v13.4h-501.8z" transform="matrix(.4161 -.9093 .9093 .4161 -63.6547 182.7735)"/><path d="m-137.6 121.2h439.6v13.4h-439.6z" transform="matrix(.4161 -.9093 .9093 .4161 -68.3603 149.4341)"/><path d="m-134.8 108.4h377.2v13.4h-377.2z" transform="matrix(.4161 -.9093 .9093 .4161 -73.2327 116.1468)"/><path d="m-131.9 95.4h314.9v13.4h-314.9z" transform="matrix(.4161 -.9093 .9093 .4161 -77.887 82.8041)"/><path d="m-129.1 82.5h252.5v13.4h-252.5z" transform="matrix(.4161 -.9093 .9093 .4161 -82.7516 49.5272)"/><path d="m-126.4 69.4h190.2v13.4h-190.2z" transform="matrix(.4161 -.9093 .9093 .4161 -87.5179 16.0043)"/><path d="m-123.5 56.5h127.8v13.4h-127.8z" transform="matrix(.4161 -.9093 .9093 .4161 -92.2794 -17.2872)"/><path d="m-120.7 43.5h65.5v13.4h-65.5z" transform="matrix(.4161 -.9093 .9093 .4161 -97.0483 -50.6368)"/><path d="m-117.8 30.6h3.1v13.4h-3.1z" transform="matrix(.4161 -.9093 .9093 .4161 -101.7994 -83.9231)"/></g></svg>