<svg enable-background="new 0 0 1133.9 1133.9" viewBox="0 0 1133.9 1133.9" xmlns="http://www.w3.org/2000/svg"><g fill="#fafafa"><ellipse cx="483.8" cy="-716.7" rx=".7" ry="1.3" transform="matrix(.5334 -.8459 .8459 .5334 831.9578 74.7972)"/><ellipse cx="455" cy="-671" rx=".7" ry="1.3" transform="matrix(.5334 -.8459 .8459 .5334 779.8682 71.7451)"/><ellipse cx="397.3" cy="-579.6" rx=".7" ry="1.3" transform="matrix(.5334 -.8459 .8459 .5334 675.6887 65.6409)"/><ellipse cx="368.5" cy="-533.9" rx=".7" ry="1.3" transform="matrix(.5334 -.8459 .8459 .5334 623.599 62.5888)"/><ellipse cx="311" cy="-442.7" rx=".7" ry="1.3" transform="matrix(.5334 -.8459 .8459 .5334 519.5156 56.4902)"/><ellipse cx="282.1" cy="-397" rx=".7" ry="1.3" transform="matrix(.5334 -.8459 .8459 .5334 467.4258 53.4381)"/><ellipse cx="224.5" cy="-305.6" rx=".7" ry="1.3" transform="matrix(.5334 -.8459 .8459 .5334 363.2464 47.3339)"/><ellipse cx="195.8" cy="-260" rx=".7" ry="1.3" transform="matrix(.5334 -.8459 .8459 .5334 311.2527 44.2875)"/><ellipse cx="138.1" cy="-168.6" rx=".7" ry="1.3" transform="matrix(.5334 -.8459 .8459 .5334 207.0732 38.1833)"/><ellipse cx="109.3" cy="-122.9" rx=".7" ry="1.3" transform="matrix(.5334 -.8459 .8459 .5334 154.9835 35.1312)"/><ellipse cx="51.8" cy="-31.6" rx=".7" ry="1.3" transform="matrix(.5334 -.8459 .8459 .5334 50.9 29.0326)"/><ellipse cx="23" cy="14.1" rx=".7" ry="1.3" transform="matrix(.5334 -.8459 .8459 .5334 -1.1897 25.9805)"/><ellipse cx="-34.7" cy="105.4" rx=".7" ry="1.3" transform="matrix(.5334 -.8459 .8459 .5334 -105.3691 19.8763)"/><ellipse cx="-63.4" cy="151.1" rx=".7" ry="1.3" transform="matrix(.5334 -.8459 .8459 .5334 -157.3628 16.8299)"/><ellipse cx="-121" cy="242.4" rx=".7" ry="1.3" transform="matrix(.5334 -.8459 .8459 .5334 -261.5422 10.7257)"/><ellipse cx="-149.9" cy="288.1" rx=".7" ry="1.3" transform="matrix(.5334 -.8459 .8459 .5334 -313.632 7.6736)"/><ellipse cx="-207.4" cy="379.4" rx=".7" ry="1.3" transform="matrix(.5334 -.8459 .8459 .5334 -417.7155 1.575)"/><ellipse cx="-236.2" cy="425.1" rx=".7" ry="1.3" transform="matrix(.5334 -.8459 .8459 .5334 -469.8052 -1.4771)"/><ellipse cx="-293.9" cy="516.5" rx=".7" ry="1.3" transform="matrix(.5334 -.8459 .8459 .5334 -573.9846 -7.5813)"/><ellipse cx="-322.6" cy="562.1" rx=".7" ry="1.3" transform="matrix(.5334 -.8459 .8459 .5334 -625.9783 -10.6277)"/><ellipse cx="-380.2" cy="653.5" rx=".7" ry="1.3" transform="matrix(.5334 -.8459 .8459 .5334 -730.1577 -16.7319)"/><ellipse cx="-409.1" cy="699.1" rx=".7" ry="1.3" transform="matrix(.5334 -.8459 .8459 .5334 -782.2475 -19.784)"/><ellipse cx="-466.6" cy="790.4" rx=".7" ry="1.3" transform="matrix(.5334 -.8459 .8459 .5334 -886.3309 -25.8826)"/><ellipse cx="-495.4" cy="836.1" rx=".7" ry="1.3" transform="matrix(.5334 -.8459 .8459 .5334 -938.4207 -28.9347)"/><ellipse cx="-553.1" cy="927.5" rx=".7" ry="1.3" transform="matrix(.5334 -.8459 .8459 .5334 -1042.6001 -35.0389)"/><ellipse cx="-581.9" cy="973.2" rx=".7" ry="1.3" transform="matrix(.5334 -.8459 .8459 .5334 -1094.6897 -38.091)"/><ellipse cx="-639.4" cy="1064.5" rx=".7" ry="1.3" transform="matrix(.5334 -.8459 .8459 .5334 -1198.7732 -44.1895)"/><ellipse cx="-668.3" cy="1110.2" rx=".7" ry="1.3" transform="matrix(.5334 -.8459 .8459 .5334 -1250.8629 -47.2416)"/><ellipse cx="573.3" cy="-692.1" rx=".7" ry="1.3" transform="matrix(.5334 -.8459 .8459 .5334 852.9368 161.9604)"/><ellipse cx="515.6" cy="-600.8" rx=".7" ry="1.3" transform="matrix(.5334 -.8459 .8459 .5334 748.7574 155.8562)"/><ellipse cx="486.9" cy="-555.2" rx=".7" ry="1.3" transform="matrix(.5334 -.8459 .8459 .5334 696.7636 152.8097)"/><ellipse cx="429.3" cy="-463.8" rx=".7" ry="1.3" transform="matrix(.5334 -.8459 .8459 .5334 592.5842 146.7056)"/><ellipse cx="400.5" cy="-418.1" rx=".7" ry="1.3" transform="matrix(.5334 -.8459 .8459 .5334 540.4945 143.6535)"/><ellipse cx="342.9" cy="-326.8" rx=".7" ry="1.3" transform="matrix(.5334 -.8459 .8459 .5334 436.411 137.5549)"/><ellipse cx="314.1" cy="-281.1" rx=".7" ry="1.3" transform="matrix(.5334 -.8459 .8459 .5334 384.3213 134.5028)"/><ellipse cx="256.5" cy="-189.7" rx=".7" ry="1.3" transform="matrix(.5334 -.8459 .8459 .5334 280.1419 128.3986)"/><ellipse cx="227.6" cy="-144" rx=".7" ry="1.3" transform="matrix(.5334 -.8459 .8459 .5334 228.0522 125.3465)"/><ellipse cx="170.1" cy="-52.7" rx=".7" ry="1.3" transform="matrix(.5334 -.8459 .8459 .5334 123.9688 119.248)"/><ellipse cx="141.3" cy="-7.1" rx=".7" ry="1.3" transform="matrix(.5334 -.8459 .8459 .5334 71.879 116.1959)"/><ellipse cx="83.7" cy="84.2" rx=".7" ry="1.3" transform="matrix(.5334 -.8459 .8459 .5334 -32.2045 110.0973)"/><ellipse cx="54.9" cy="129.9" rx=".7" ry="1.3" transform="matrix(.5334 -.8459 .8459 .5334 -84.2942 107.0452)"/><ellipse cx="-2.7" cy="221.3" rx=".7" ry="1.3" transform="matrix(.5334 -.8459 .8459 .5334 -188.4736 100.941)"/><ellipse cx="-31.6" cy="267" rx=".7" ry="1.3" transform="matrix(.5334 -.8459 .8459 .5334 -240.5633 97.8889)"/><ellipse cx="-89.1" cy="358.3" rx=".7" ry="1.3" transform="matrix(.5334 -.8459 .8459 .5334 -344.6468 91.7904)"/><ellipse cx="-117.9" cy="404" rx=".7" ry="1.3" transform="matrix(.5334 -.8459 .8459 .5334 -396.7365 88.7383)"/><ellipse cx="-175.6" cy="495.4" rx=".7" ry="1.3" transform="matrix(.5334 -.8459 .8459 .5334 -500.9159 82.6341)"/><ellipse cx="-204.3" cy="541" rx=".7" ry="1.3" transform="matrix(.5334 -.8459 .8459 .5334 -552.9096 79.5876)"/><ellipse cx="-261.9" cy="632.3" rx=".7" ry="1.3" transform="matrix(.5334 -.8459 .8459 .5334 -657.0891 73.4834)"/><ellipse cx="-290.7" cy="678" rx=".7" ry="1.3" transform="matrix(.5334 -.8459 .8459 .5334 -709.1788 70.4313)"/><ellipse cx="-348.3" cy="769.3" rx=".7" ry="1.3" transform="matrix(.5334 -.8459 .8459 .5334 -813.2623 64.3327)"/><ellipse cx="-377.1" cy="815" rx=".7" ry="1.3" transform="matrix(.5334 -.8459 .8459 .5334 -865.352 61.2807)"/><ellipse cx="-434.8" cy="906.4" rx=".7" ry="1.3" transform="matrix(.5334 -.8459 .8459 .5334 -969.5314 55.1765)"/><ellipse cx="-463.5" cy="952" rx=".7" ry="1.3" transform="matrix(.5334 -.8459 .8459 .5334 -1021.5251 52.13)"/><ellipse cx="-521.1" cy="1043.4" rx=".7" ry="1.3" transform="matrix(.5334 -.8459 .8459 .5334 -1125.7046 46.0258)"/><ellipse cx="-549.9" cy="1089.1" rx=".7" ry="1.3" transform="matrix(.5334 -.8459 .8459 .5334 -1177.7944 42.9737)"/><ellipse cx="-607.5" cy="1180.3" rx=".7" ry="1.3" transform="matrix(.5334 -.8459 .8459 .5334 -1281.8778 36.8751)"/><ellipse cx="634" cy="-622" rx=".7" ry="1.3" transform="matrix(.5334 -.8459 .8459 .5334 821.9221 246.0772)"/><ellipse cx="605.2" cy="-576.3" rx=".7" ry="1.3" transform="matrix(.5334 -.8459 .8459 .5334 769.8323 243.0251)"/><ellipse cx="547.6" cy="-484.9" rx=".7" ry="1.3" transform="matrix(.5334 -.8459 .8459 .5334 665.6529 236.9209)"/><ellipse cx="518.8" cy="-439.2" rx=".7" ry="1.3" transform="matrix(.5334 -.8459 .8459 .5334 613.5632 233.8688)"/><ellipse cx="461.2" cy="-347.9" rx=".7" ry="1.3" transform="matrix(.5334 -.8459 .8459 .5334 509.4797 227.7702)"/><ellipse cx="432.4" cy="-302.2" rx=".7" ry="1.3" transform="matrix(.5334 -.8459 .8459 .5334 457.39 224.7181)"/><ellipse cx="374.8" cy="-210.8" rx=".7" ry="1.3" transform="matrix(.5334 -.8459 .8459 .5334 353.2106 218.614)"/><ellipse cx="346" cy="-165.2" rx=".7" ry="1.3" transform="matrix(.5334 -.8459 .8459 .5334 301.2169 215.5675)"/><ellipse cx="288.4" cy="-73.9" rx=".7" ry="1.3" transform="matrix(.5334 -.8459 .8459 .5334 197.0374 209.4633)"/><ellipse cx="259.6" cy="-28.2" rx=".7" ry="1.3" transform="matrix(.5334 -.8459 .8459 .5334 144.9477 206.4112)"/><ellipse cx="202" cy="63.1" rx=".7" ry="1.3" transform="matrix(.5334 -.8459 .8459 .5334 40.8642 200.3126)"/><ellipse cx="173.2" cy="108.8" rx=".7" ry="1.3" transform="matrix(.5334 -.8459 .8459 .5334 -11.2255 197.2605)"/><ellipse cx="115.6" cy="200.2" rx=".7" ry="1.3" transform="matrix(.5334 -.8459 .8459 .5334 -115.4049 191.1563)"/><ellipse cx="86.8" cy="245.8" rx=".7" ry="1.3" transform="matrix(.5334 -.8459 .8459 .5334 -167.3987 188.1099)"/><ellipse cx="29.2" cy="337.2" rx=".7" ry="1.3" transform="matrix(.5334 -.8459 .8459 .5334 -271.578 182.0057)"/><ellipse cx=".4" cy="382.9" rx=".7" ry="1.3" transform="matrix(.5334 -.8459 .8459 .5334 -323.6678 178.9536)"/><ellipse cx="-57.2" cy="474.1" rx=".7" ry="1.3" transform="matrix(.5334 -.8459 .8459 .5334 -427.7513 172.855)"/><ellipse cx="-86" cy="519.8" rx=".7" ry="1.3" transform="matrix(.5334 -.8459 .8459 .5334 -479.841 169.8029)"/><ellipse cx="-143.6" cy="611.2" rx=".7" ry="1.3" transform="matrix(.5334 -.8459 .8459 .5334 -584.0204 163.6987)"/><ellipse cx="-172.4" cy="656.8" rx=".7" ry="1.3" transform="matrix(.5334 -.8459 .8459 .5334 -636.0142 160.6523)"/><ellipse cx="-230" cy="748.2" rx=".7" ry="1.3" transform="matrix(.5334 -.8459 .8459 .5334 -740.1935 154.5481)"/><ellipse cx="-258.8" cy="793.9" rx=".7" ry="1.3" transform="matrix(.5334 -.8459 .8459 .5334 -792.2833 151.496)"/><ellipse cx="-316.4" cy="885.2" rx=".7" ry="1.3" transform="matrix(.5334 -.8459 .8459 .5334 -896.3668 145.3974)"/><ellipse cx="-345.2" cy="930.9" rx=".7" ry="1.3" transform="matrix(.5334 -.8459 .8459 .5334 -948.4565 142.3453)"/><ellipse cx="-402.8" cy="1022.2" rx=".7" ry="1.3" transform="matrix(.5334 -.8459 .8459 .5334 -1052.6359 136.2411)"/><ellipse cx="-431.6" cy="1067.9" rx=".7" ry="1.3" transform="matrix(.5334 -.8459 .8459 .5334 -1104.7256 133.1891)"/><ellipse cx="-489.2" cy="1159.2" rx=".7" ry="1.3" transform="matrix(.5334 -.8459 .8459 .5334 -1208.8091 127.0905)"/><ellipse cx="-518" cy="1204.9" rx=".7" ry="1.3" transform="matrix(.5334 -.8459 .8459 .5334 -1260.8988 124.0384)"/><ellipse cx="723.5" cy="-597.4" rx=".7" ry="1.3" transform="matrix(.5334 -.8459 .8459 .5334 842.901 333.2404)"/><ellipse cx="665.9" cy="-506" rx=".7" ry="1.3" transform="matrix(.5334 -.8459 .8459 .5334 738.7216 327.1362)"/><ellipse cx="637.1" cy="-460.4" rx=".7" ry="1.3" transform="matrix(.5334 -.8459 .8459 .5334 686.7278 324.0898)"/><ellipse cx="579.5" cy="-369" rx=".7" ry="1.3" transform="matrix(.5334 -.8459 .8459 .5334 582.5484 317.9856)"/><ellipse cx="550.7" cy="-323.3" rx=".7" ry="1.3" transform="matrix(.5334 -.8459 .8459 .5334 530.4587 314.9335)"/><ellipse cx="493.1" cy="-232.1" rx=".7" ry="1.3" transform="matrix(.5334 -.8459 .8459 .5334 426.3752 308.8349)"/><ellipse cx="464.3" cy="-186.4" rx=".7" ry="1.3" transform="matrix(.5334 -.8459 .8459 .5334 374.2855 305.7828)"/><ellipse cx="406.7" cy="-95" rx=".7" ry="1.3" transform="matrix(.5334 -.8459 .8459 .5334 270.1061 299.6786)"/><ellipse cx="377.9" cy="-49.3" rx=".7" ry="1.3" transform="matrix(.5334 -.8459 .8459 .5334 218.0164 296.6265)"/><ellipse cx="320.3" cy="42" rx=".7" ry="1.3" transform="matrix(.5334 -.8459 .8459 .5334 113.9329 290.528)"/><ellipse cx="291.5" cy="87.7" rx=".7" ry="1.3" transform="matrix(.5334 -.8459 .8459 .5334 61.8432 287.4759)"/><ellipse cx="233.9" cy="179" rx=".7" ry="1.3" transform="matrix(.5334 -.8459 .8459 .5334 -42.2403 281.3773)"/><ellipse cx="205.1" cy="224.7" rx=".7" ry="1.3" transform="matrix(.5334 -.8459 .8459 .5334 -94.33 278.3252)"/><ellipse cx="147.5" cy="316" rx=".7" ry="1.3" transform="matrix(.5334 -.8459 .8459 .5334 -198.5094 272.221)"/><ellipse cx="118.7" cy="361.7" rx=".7" ry="1.3" transform="matrix(.5334 -.8459 .8459 .5334 -250.5991 269.1689)"/><ellipse cx="61.1" cy="453" rx=".7" ry="1.3" transform="matrix(.5334 -.8459 .8459 .5334 -354.6826 263.0704)"/><ellipse cx="32.3" cy="498.7" rx=".7" ry="1.3" transform="matrix(.5334 -.8459 .8459 .5334 -406.7723 260.0183)"/><ellipse cx="-25.3" cy="590.1" rx=".7" ry="1.3" transform="matrix(.5334 -.8459 .8459 .5334 -510.9517 253.9141)"/><ellipse cx="-54.1" cy="635.7" rx=".7" ry="1.3" transform="matrix(.5334 -.8459 .8459 .5334 -562.9454 250.8676)"/><ellipse cx="-111.7" cy="727.1" rx=".7" ry="1.3" transform="matrix(.5334 -.8459 .8459 .5334 -667.1249 244.7634)"/><ellipse cx="-140.5" cy="772.8" rx=".7" ry="1.3" transform="matrix(.5334 -.8459 .8459 .5334 -719.2146 241.7113)"/><ellipse cx="-198.1" cy="864.1" rx=".7" ry="1.3" transform="matrix(.5334 -.8459 .8459 .5334 -823.298 235.6128)"/><ellipse cx="-226.9" cy="909.7" rx=".7" ry="1.3" transform="matrix(.5334 -.8459 .8459 .5334 -875.3878 232.5607)"/><ellipse cx="-284.5" cy="1001.1" rx=".7" ry="1.3" transform="matrix(.5334 -.8459 .8459 .5334 -979.5672 226.4565)"/><ellipse cx="-313.3" cy="1046.7" rx=".7" ry="1.3" transform="matrix(.5334 -.8459 .8459 .5334 -1031.5609 223.41)"/><ellipse cx="-370.9" cy="1138.1" rx=".7" ry="1.3" transform="matrix(.5334 -.8459 .8459 .5334 -1135.7405 217.3058)"/><ellipse cx="-399.7" cy="1183.8" rx=".7" ry="1.3" transform="matrix(.5334 -.8459 .8459 .5334 -1187.8302 214.2537)"/><ellipse cx="-457.3" cy="1275.1" rx=".7" ry="1.3" transform="matrix(.5334 -.8459 .8459 .5334 -1291.9137 208.1552)"/><ellipse cx="784.2" cy="-527.2" rx=".7" ry="1.3" transform="matrix(.5334 -.8459 .8459 .5334 811.8862 417.3572)"/><ellipse cx="755.4" cy="-481.5" rx=".7" ry="1.3" transform="matrix(.5334 -.8459 .8459 .5334 759.7965 414.3051)"/><ellipse cx="697.8" cy="-390.2" rx=".7" ry="1.3" transform="matrix(.5334 -.8459 .8459 .5334 655.6171 408.2009)"/><ellipse cx="669" cy="-344.5" rx=".7" ry="1.3" transform="matrix(.5334 -.8459 .8459 .5334 603.5274 405.1488)"/><ellipse cx="611.4" cy="-253.2" rx=".7" ry="1.3" transform="matrix(.5334 -.8459 .8459 .5334 499.4439 399.0503)"/><ellipse cx="582.6" cy="-207.5" rx=".7" ry="1.3" transform="matrix(.5334 -.8459 .8459 .5334 447.3542 395.9982)"/><ellipse cx="525" cy="-116.1" rx=".7" ry="1.3" transform="matrix(.5334 -.8459 .8459 .5334 343.1748 389.894)"/><ellipse cx="496.2" cy="-70.5" rx=".7" ry="1.3" transform="matrix(.5334 -.8459 .8459 .5334 291.181 386.8475)"/><ellipse cx="438.6" cy="20.9" rx=".7" ry="1.3" transform="matrix(.5334 -.8459 .8459 .5334 187.0016 380.7433)"/><ellipse cx="409.8" cy="66.6" rx=".7" ry="1.3" transform="matrix(.5334 -.8459 .8459 .5334 134.9119 377.6912)"/><ellipse cx="352.2" cy="157.9" rx=".7" ry="1.3" transform="matrix(.5334 -.8459 .8459 .5334 30.8284 371.5927)"/><ellipse cx="323.4" cy="203.5" rx=".7" ry="1.3" transform="matrix(.5334 -.8459 .8459 .5334 -21.2613 368.5406)"/><ellipse cx="265.8" cy="294.9" rx=".7" ry="1.3" transform="matrix(.5334 -.8459 .8459 .5334 -125.4407 362.4364)"/><ellipse cx="237" cy="340.5" rx=".7" ry="1.3" transform="matrix(.5334 -.8459 .8459 .5334 -177.4345 359.3899)"/><ellipse cx="179.4" cy="431.9" rx=".7" ry="1.3" transform="matrix(.5334 -.8459 .8459 .5334 -281.6139 353.2857)"/><ellipse cx="150.6" cy="477.6" rx=".7" ry="1.3" transform="matrix(.5334 -.8459 .8459 .5334 -333.7036 350.2336)"/><ellipse cx="93" cy="568.9" rx=".7" ry="1.3" transform="matrix(.5334 -.8459 .8459 .5334 -437.7871 344.135)"/><ellipse cx="64.2" cy="614.6" rx=".7" ry="1.3" transform="matrix(.5334 -.8459 .8459 .5334 -489.8768 341.0829)"/><ellipse cx="6.6" cy="705.9" rx=".7" ry="1.3" transform="matrix(.5334 -.8459 .8459 .5334 -594.0562 334.9788)"/><ellipse cx="-22.2" cy="751.6" rx=".7" ry="1.3" transform="matrix(.5334 -.8459 .8459 .5334 -646.05 331.9323)"/><ellipse cx="-79.8" cy="842.9" rx=".7" ry="1.3" transform="matrix(.5334 -.8459 .8459 .5334 -750.2294 325.8281)"/><ellipse cx="-108.6" cy="888.6" rx=".7" ry="1.3" transform="matrix(.5334 -.8459 .8459 .5334 -802.3191 322.776)"/><ellipse cx="-166.2" cy="979.9" rx=".7" ry="1.3" transform="matrix(.5334 -.8459 .8459 .5334 -906.4026 316.6774)"/><ellipse cx="-195" cy="1025.6" rx=".7" ry="1.3" transform="matrix(.5334 -.8459 .8459 .5334 -958.4924 313.6253)"/><ellipse cx="-252.6" cy="1117" rx=".7" ry="1.3" transform="matrix(.5334 -.8459 .8459 .5334 -1062.6718 307.5211)"/><ellipse cx="-281.4" cy="1162.7" rx=".7" ry="1.3" transform="matrix(.5334 -.8459 .8459 .5334 -1114.7614 304.4691)"/><ellipse cx="-339" cy="1254" rx=".7" ry="1.3" transform="matrix(.5334 -.8459 .8459 .5334 -1218.8448 298.3705)"/><ellipse cx="-367.8" cy="1299.7" rx=".7" ry="1.3" transform="matrix(.5334 -.8459 .8459 .5334 -1270.9346 295.3184)"/><ellipse cx="873.7" cy="-502.7" rx=".7" ry="1.3" transform="matrix(.5334 -.8459 .8459 .5334 832.8652 504.5204)"/><ellipse cx="816.1" cy="-411.3" rx=".7" ry="1.3" transform="matrix(.5334 -.8459 .8459 .5334 728.6858 498.4163)"/><ellipse cx="787.4" cy="-365.7" rx=".7" ry="1.3" transform="matrix(.5334 -.8459 .8459 .5334 676.692 495.3698)"/><ellipse cx="729.7" cy="-274.3" rx=".7" ry="1.3" transform="matrix(.5334 -.8459 .8459 .5334 572.5126 489.2656)"/><ellipse cx="700.9" cy="-228.6" rx=".7" ry="1.3" transform="matrix(.5334 -.8459 .8459 .5334 520.4229 486.2135)"/><ellipse cx="643.4" cy="-137.3" rx=".7" ry="1.3" transform="matrix(.5334 -.8459 .8459 .5334 416.3394 480.1149)"/><ellipse cx="614.5" cy="-91.6" rx=".7" ry="1.3" transform="matrix(.5334 -.8459 .8459 .5334 364.2497 477.0628)"/><ellipse cx="556.9" cy="-.3" rx=".7" ry="1.3" transform="matrix(.5334 -.8459 .8459 .5334 260.0703 470.9586)"/><ellipse cx="528.1" cy="45.4" rx=".7" ry="1.3" transform="matrix(.5334 -.8459 .8459 .5334 207.9806 467.9066)"/><ellipse cx="470.5" cy="136.7" rx=".7" ry="1.3" transform="matrix(.5334 -.8459 .8459 .5334 103.8971 461.808)"/><ellipse cx="441.7" cy="182.4" rx=".7" ry="1.3" transform="matrix(.5334 -.8459 .8459 .5334 51.8074 458.7559)"/><ellipse cx="384.2" cy="273.7" rx=".7" ry="1.3" transform="matrix(.5334 -.8459 .8459 .5334 -52.2761 452.6573)"/><ellipse cx="355.3" cy="319.4" rx=".7" ry="1.3" transform="matrix(.5334 -.8459 .8459 .5334 -104.3658 449.6052)"/><ellipse cx="297.7" cy="410.8" rx=".7" ry="1.3" transform="matrix(.5334 -.8459 .8459 .5334 -208.5453 443.501)"/><ellipse cx="268.9" cy="456.5" rx=".7" ry="1.3" transform="matrix(.5334 -.8459 .8459 .5334 -260.6349 440.4489)"/><ellipse cx="211.3" cy="547.8" rx=".7" ry="1.3" transform="matrix(.5334 -.8459 .8459 .5334 -364.7184 434.3504)"/><ellipse cx="182.5" cy="593.4" rx=".7" ry="1.3" transform="matrix(.5334 -.8459 .8459 .5334 -416.8081 431.2983)"/><ellipse cx="124.9" cy="684.8" rx=".7" ry="1.3" transform="matrix(.5334 -.8459 .8459 .5334 -520.9875 425.1941)"/><ellipse cx="96.1" cy="730.4" rx=".7" ry="1.3" transform="matrix(.5334 -.8459 .8459 .5334 -572.9813 422.1476)"/><ellipse cx="38.5" cy="821.8" rx=".7" ry="1.3" transform="matrix(.5334 -.8459 .8459 .5334 -677.1608 416.0434)"/><ellipse cx="9.7" cy="867.5" rx=".7" ry="1.3" transform="matrix(.5334 -.8459 .8459 .5334 -729.2504 412.9913)"/><ellipse cx="-47.9" cy="958.8" rx=".7" ry="1.3" transform="matrix(.5334 -.8459 .8459 .5334 -833.3339 406.8928)"/><ellipse cx="-76.7" cy="1004.5" rx=".7" ry="1.3" transform="matrix(.5334 -.8459 .8459 .5334 -885.4236 403.8407)"/><ellipse cx="-134.3" cy="1095.9" rx=".7" ry="1.3" transform="matrix(.5334 -.8459 .8459 .5334 -989.603 397.7365)"/><ellipse cx="-163" cy="1141.5" rx=".7" ry="1.3" transform="matrix(.5334 -.8459 .8459 .5334 -1041.5968 394.69)"/><ellipse cx="-220.7" cy="1232.8" rx=".7" ry="1.3" transform="matrix(.5334 -.8459 .8459 .5334 -1145.7762 388.5858)"/><ellipse cx="-249.5" cy="1278.5" rx=".7" ry="1.3" transform="matrix(.5334 -.8459 .8459 .5334 -1197.866 385.5337)"/><ellipse cx="-307" cy="1369.8" rx=".7" ry="1.3" transform="matrix(.5334 -.8459 .8459 .5334 -1301.9495 379.4352)"/><ellipse cx="934.5" cy="-432.5" rx=".7" ry="1.3" transform="matrix(.5334 -.8459 .8459 .5334 801.8504 588.6372)"/><ellipse cx="905.7" cy="-386.8" rx=".7" ry="1.3" transform="matrix(.5334 -.8459 .8459 .5334 749.7607 585.5851)"/><ellipse cx="848" cy="-295.4" rx=".7" ry="1.3" transform="matrix(.5334 -.8459 .8459 .5334 645.5813 579.4809)"/><ellipse cx="819.2" cy="-249.7" rx=".7" ry="1.3" transform="matrix(.5334 -.8459 .8459 .5334 593.4916 576.4288)"/><ellipse cx="761.7" cy="-158.4" rx=".7" ry="1.3" transform="matrix(.5334 -.8459 .8459 .5334 489.4081 570.3303)"/><ellipse cx="732.8" cy="-112.8" rx=".7" ry="1.3" transform="matrix(.5334 -.8459 .8459 .5334 437.3184 567.2782)"/><ellipse cx="675.2" cy="-21.4" rx=".7" ry="1.3" transform="matrix(.5334 -.8459 .8459 .5334 333.1389 561.174)"/><ellipse cx="646.5" cy="24.2" rx=".7" ry="1.3" transform="matrix(.5334 -.8459 .8459 .5334 281.1452 558.1275)"/><ellipse cx="588.8" cy="115.6" rx=".7" ry="1.3" transform="matrix(.5334 -.8459 .8459 .5334 176.9658 552.0233)"/><ellipse cx="560" cy="161.3" rx=".7" ry="1.3" transform="matrix(.5334 -.8459 .8459 .5334 124.8761 548.9713)"/><ellipse cx="502.5" cy="252.6" rx=".7" ry="1.3" transform="matrix(.5334 -.8459 .8459 .5334 20.7926 542.8727)"/><ellipse cx="473.7" cy="298.3" rx=".7" ry="1.3" transform="matrix(.5334 -.8459 .8459 .5334 -31.2971 539.8206)"/><ellipse cx="416" cy="389.7" rx=".7" ry="1.3" transform="matrix(.5334 -.8459 .8459 .5334 -135.4765 533.7164)"/><ellipse cx="387.3" cy="435.3" rx=".7" ry="1.3" transform="matrix(.5334 -.8459 .8459 .5334 -187.4703 530.6699)"/><ellipse cx="329.6" cy="526.6" rx=".7" ry="1.3" transform="matrix(.5334 -.8459 .8459 .5334 -291.6497 524.5657)"/><ellipse cx="300.8" cy="572.3" rx=".7" ry="1.3" transform="matrix(.5334 -.8459 .8459 .5334 -343.7394 521.5136)"/><ellipse cx="243.3" cy="663.6" rx=".7" ry="1.3" transform="matrix(.5334 -.8459 .8459 .5334 -447.8229 515.415)"/><ellipse cx="214.5" cy="709.3" rx=".7" ry="1.3" transform="matrix(.5334 -.8459 .8459 .5334 -499.9127 512.363)"/><ellipse cx="156.8" cy="800.7" rx=".7" ry="1.3" transform="matrix(.5334 -.8459 .8459 .5334 -604.092 506.2588)"/><ellipse cx="128.1" cy="846.3" rx=".7" ry="1.3" transform="matrix(.5334 -.8459 .8459 .5334 -656.0858 503.2123)"/><ellipse cx="70.5" cy="937.7" rx=".7" ry="1.3" transform="matrix(.5334 -.8459 .8459 .5334 -760.2652 497.1081)"/><ellipse cx="41.6" cy="983.4" rx=".7" ry="1.3" transform="matrix(.5334 -.8459 .8459 .5334 -812.3549 494.056)"/><ellipse cx="-15.9" cy="1074.7" rx=".7" ry="1.3" transform="matrix(.5334 -.8459 .8459 .5334 -916.4384 487.9575)"/><ellipse cx="-44.7" cy="1120.3" rx=".7" ry="1.3" transform="matrix(.5334 -.8459 .8459 .5334 -968.5281 484.9054)"/><ellipse cx="-102.4" cy="1211.7" rx=".7" ry="1.3" transform="matrix(.5334 -.8459 .8459 .5334 -1072.7075 478.8012)"/><ellipse cx="-131.2" cy="1257.4" rx=".7" ry="1.3" transform="matrix(.5334 -.8459 .8459 .5334 -1124.7972 475.7491)"/><ellipse cx="-188.7" cy="1348.7" rx=".7" ry="1.3" transform="matrix(.5334 -.8459 .8459 .5334 -1228.8806 469.6505)"/><ellipse cx="-217.6" cy="1394.4" rx=".7" ry="1.3" transform="matrix(.5334 -.8459 .8459 .5334 -1280.9705 466.5984)"/><ellipse cx="1024" cy="-407.9" rx=".7" ry="1.3" transform="matrix(.5334 -.8459 .8459 .5334 822.8294 675.8005)"/><ellipse cx="966.3" cy="-316.5" rx=".7" ry="1.3" transform="matrix(.5334 -.8459 .8459 .5334 718.65 669.6963)"/><ellipse cx="937.6" cy="-270.9" rx=".7" ry="1.3" transform="matrix(.5334 -.8459 .8459 .5334 666.6562 666.6498)"/><ellipse cx="880" cy="-179.6" rx=".7" ry="1.3" transform="matrix(.5334 -.8459 .8459 .5334 562.4767 660.5456)"/><ellipse cx="851.2" cy="-133.9" rx=".7" ry="1.3" transform="matrix(.5334 -.8459 .8459 .5334 510.3871 657.4935)"/><ellipse cx="793.6" cy="-42.6" rx=".7" ry="1.3" transform="matrix(.5334 -.8459 .8459 .5334 406.3036 651.395)"/><ellipse cx="764.8" cy="3.1" rx=".7" ry="1.3" transform="matrix(.5334 -.8459 .8459 .5334 354.2139 648.3428)"/><ellipse cx="707.2" cy="94.5" rx=".7" ry="1.3" transform="matrix(.5334 -.8459 .8459 .5334 250.0345 642.2386)"/><ellipse cx="678.3" cy="140.2" rx=".7" ry="1.3" transform="matrix(.5334 -.8459 .8459 .5334 197.9448 639.1866)"/><ellipse cx="620.8" cy="231.5" rx=".7" ry="1.3" transform="matrix(.5334 -.8459 .8459 .5334 93.8613 633.088)"/><ellipse cx="592" cy="277.2" rx=".7" ry="1.3" transform="matrix(.5334 -.8459 .8459 .5334 41.7715 630.0359)"/><ellipse cx="534.4" cy="368.4" rx=".7" ry="1.3" transform="matrix(.5334 -.8459 .8459 .5334 -62.3119 623.9373)"/><ellipse cx="505.6" cy="414.1" rx=".7" ry="1.3" transform="matrix(.5334 -.8459 .8459 .5334 -114.4016 620.8853)"/><ellipse cx="448" cy="505.5" rx=".7" ry="1.3" transform="matrix(.5334 -.8459 .8459 .5334 -218.5811 614.7811)"/><ellipse cx="419.1" cy="551.2" rx=".7" ry="1.3" transform="matrix(.5334 -.8459 .8459 .5334 -270.6707 611.7289)"/><ellipse cx="361.6" cy="642.5" rx=".7" ry="1.3" transform="matrix(.5334 -.8459 .8459 .5334 -374.7542 605.6304)"/><ellipse cx="332.8" cy="688.2" rx=".7" ry="1.3" transform="matrix(.5334 -.8459 .8459 .5334 -426.844 602.5783)"/><ellipse cx="275.1" cy="779.6" rx=".7" ry="1.3" transform="matrix(.5334 -.8459 .8459 .5334 -531.0233 596.4741)"/><ellipse cx="246.4" cy="825.2" rx=".7" ry="1.3" transform="matrix(.5334 -.8459 .8459 .5334 -583.0171 593.4276)"/><ellipse cx="188.8" cy="916.5" rx=".7" ry="1.3" transform="matrix(.5334 -.8459 .8459 .5334 -687.1966 587.3234)"/><ellipse cx="159.9" cy="962.2" rx=".7" ry="1.3" transform="matrix(.5334 -.8459 .8459 .5334 -739.2862 584.2714)"/><ellipse cx="102.4" cy="1053.5" rx=".7" ry="1.3" transform="matrix(.5334 -.8459 .8459 .5334 -843.3697 578.1728)"/><ellipse cx="73.6" cy="1099.2" rx=".7" ry="1.3" transform="matrix(.5334 -.8459 .8459 .5334 -895.4595 575.1207)"/><ellipse cx="15.9" cy="1190.6" rx=".7" ry="1.3" transform="matrix(.5334 -.8459 .8459 .5334 -999.6389 569.0165)"/><ellipse cx="-12.8" cy="1236.2" rx=".7" ry="1.3" transform="matrix(.5334 -.8459 .8459 .5334 -1051.6326 565.97)"/><ellipse cx="-70.4" cy="1327.6" rx=".7" ry="1.3" transform="matrix(.5334 -.8459 .8459 .5334 -1155.8121 559.8658)"/><ellipse cx="-99.2" cy="1373.3" rx=".7" ry="1.3" transform="matrix(.5334 -.8459 .8459 .5334 -1207.9019 556.8137)"/><ellipse cx="-156.8" cy="1464.6" rx=".7" ry="1.3" transform="matrix(.5334 -.8459 .8459 .5334 -1311.9854 550.7152)"/><ellipse cx="1084.7" cy="-337.8" rx=".7" ry="1.3" transform="matrix(.5334 -.8459 .8459 .5334 791.8146 759.9172)"/><ellipse cx="1055.9" cy="-292.1" rx=".7" ry="1.3" transform="matrix(.5334 -.8459 .8459 .5334 739.7249 756.8651)"/><ellipse cx="998.3" cy="-200.7" rx=".7" ry="1.3" transform="matrix(.5334 -.8459 .8459 .5334 635.5455 750.7609)"/><ellipse cx="969.5" cy="-155" rx=".7" ry="1.3" transform="matrix(.5334 -.8459 .8459 .5334 583.4557 747.7089)"/><ellipse cx="911.9" cy="-63.7" rx=".7" ry="1.3" transform="matrix(.5334 -.8459 .8459 .5334 479.3723 741.6103)"/><ellipse cx="883.1" cy="-18" rx=".7" ry="1.3" transform="matrix(.5334 -.8459 .8459 .5334 427.2826 738.5582)"/><ellipse cx="825.5" cy="73.4" rx=".7" ry="1.3" transform="matrix(.5334 -.8459 .8459 .5334 323.1031 732.454)"/><ellipse cx="796.7" cy="119" rx=".7" ry="1.3" transform="matrix(.5334 -.8459 .8459 .5334 271.1094 729.4075)"/><ellipse cx="739.1" cy="210.3" rx=".7" ry="1.3" transform="matrix(.5334 -.8459 .8459 .5334 166.9299 723.3033)"/><ellipse cx="710.3" cy="256" rx=".7" ry="1.3" transform="matrix(.5334 -.8459 .8459 .5334 114.8403 720.2512)"/><ellipse cx="652.7" cy="347.3" rx=".7" ry="1.3" transform="matrix(.5334 -.8459 .8459 .5334 10.7568 714.1526)"/><ellipse cx="623.9" cy="393" rx=".7" ry="1.3" transform="matrix(.5334 -.8459 .8459 .5334 -41.3329 711.1006)"/><ellipse cx="566.3" cy="484.4" rx=".7" ry="1.3" transform="matrix(.5334 -.8459 .8459 .5334 -145.5124 704.9964)"/><ellipse cx="537.5" cy="530" rx=".7" ry="1.3" transform="matrix(.5334 -.8459 .8459 .5334 -197.5061 701.9499)"/><ellipse cx="479.9" cy="621.4" rx=".7" ry="1.3" transform="matrix(.5334 -.8459 .8459 .5334 -301.6855 695.8457)"/><ellipse cx="451.1" cy="667.1" rx=".7" ry="1.3" transform="matrix(.5334 -.8459 .8459 .5334 -353.7752 692.7936)"/><ellipse cx="393.5" cy="758.4" rx=".7" ry="1.3" transform="matrix(.5334 -.8459 .8459 .5334 -457.8587 686.6951)"/><ellipse cx="364.7" cy="804" rx=".7" ry="1.3" transform="matrix(.5334 -.8459 .8459 .5334 -509.9485 683.6429)"/><ellipse cx="307.1" cy="895.4" rx=".7" ry="1.3" transform="matrix(.5334 -.8459 .8459 .5334 -614.1279 677.5388)"/><ellipse cx="278.3" cy="941" rx=".7" ry="1.3" transform="matrix(.5334 -.8459 .8459 .5334 -666.1216 674.4923)"/><ellipse cx="220.7" cy="1032.4" rx=".7" ry="1.3" transform="matrix(.5334 -.8459 .8459 .5334 -770.301 668.3881)"/><ellipse cx="191.9" cy="1078.1" rx=".7" ry="1.3" transform="matrix(.5334 -.8459 .8459 .5334 -822.3907 665.3361)"/><ellipse cx="134.3" cy="1169.4" rx=".7" ry="1.3" transform="matrix(.5334 -.8459 .8459 .5334 -926.4742 659.2375)"/><ellipse cx="105.5" cy="1215.1" rx=".7" ry="1.3" transform="matrix(.5334 -.8459 .8459 .5334 -978.564 656.1854)"/><ellipse cx="47.9" cy="1306.5" rx=".7" ry="1.3" transform="matrix(.5334 -.8459 .8459 .5334 -1082.7434 650.0812)"/><ellipse cx="19.1" cy="1352.1" rx=".7" ry="1.3" transform="matrix(.5334 -.8459 .8459 .5334 -1134.833 647.0291)"/><ellipse cx="-38.5" cy="1443.4" rx=".7" ry="1.3" transform="matrix(.5334 -.8459 .8459 .5334 -1238.9165 640.9305)"/><ellipse cx="-67.3" cy="1489.1" rx=".7" ry="1.3" transform="matrix(.5334 -.8459 .8459 .5334 -1291.0062 637.8784)"/><ellipse cx="1174.2" cy="-313.2" rx=".7" ry="1.3" transform="matrix(.5334 -.8459 .8459 .5334 812.7936 847.0804)"/><ellipse cx="1116.6" cy="-221.8" rx=".7" ry="1.3" transform="matrix(.5334 -.8459 .8459 .5334 708.6141 840.9763)"/><ellipse cx="1087.8" cy="-176.2" rx=".7" ry="1.3" transform="matrix(.5334 -.8459 .8459 .5334 656.6204 837.9298)"/><ellipse cx="1030.2" cy="-84.8" rx=".7" ry="1.3" transform="matrix(.5334 -.8459 .8459 .5334 552.441 831.8256)"/><ellipse cx="1001.4" cy="-39.1" rx=".7" ry="1.3" transform="matrix(.5334 -.8459 .8459 .5334 500.3513 828.7735)"/><ellipse cx="943.8" cy="52.2" rx=".7" ry="1.3" transform="matrix(.5334 -.8459 .8459 .5334 396.2678 822.6749)"/><ellipse cx="915" cy="97.8" rx=".7" ry="1.3" transform="matrix(.5334 -.8459 .8459 .5334 344.178 819.6229)"/><ellipse cx="857.4" cy="189.2" rx=".7" ry="1.3" transform="matrix(.5334 -.8459 .8459 .5334 239.9987 813.5187)"/><ellipse cx="828.6" cy="234.9" rx=".7" ry="1.3" transform="matrix(.5334 -.8459 .8459 .5334 187.909 810.4666)"/><ellipse cx="771" cy="326.2" rx=".7" ry="1.3" transform="matrix(.5334 -.8459 .8459 .5334 83.8255 804.368)"/><ellipse cx="742.2" cy="371.9" rx=".7" ry="1.3" transform="matrix(.5334 -.8459 .8459 .5334 31.7357 801.3159)"/><ellipse cx="684.6" cy="463.2" rx=".7" ry="1.3" transform="matrix(.5334 -.8459 .8459 .5334 -72.3477 795.2173)"/><ellipse cx="655.8" cy="508.9" rx=".7" ry="1.3" transform="matrix(.5334 -.8459 .8459 .5334 -124.4374 792.1653)"/><ellipse cx="598.2" cy="600.3" rx=".7" ry="1.3" transform="matrix(.5334 -.8459 .8459 .5334 -228.6169 786.061)"/><ellipse cx="569.4" cy="645.9" rx=".7" ry="1.3" transform="matrix(.5334 -.8459 .8459 .5334 -280.7065 783.009)"/><ellipse cx="511.8" cy="737.2" rx=".7" ry="1.3" transform="matrix(.5334 -.8459 .8459 .5334 -384.79 776.9104)"/><ellipse cx="483" cy="782.9" rx=".7" ry="1.3" transform="matrix(.5334 -.8459 .8459 .5334 -436.8798 773.8583)"/><ellipse cx="425.4" cy="874.3" rx=".7" ry="1.3" transform="matrix(.5334 -.8459 .8459 .5334 -541.0591 767.7542)"/><ellipse cx="396.6" cy="919.9" rx=".7" ry="1.3" transform="matrix(.5334 -.8459 .8459 .5334 -593.0529 764.7076)"/><ellipse cx="339" cy="1011.3" rx=".7" ry="1.3" transform="matrix(.5334 -.8459 .8459 .5334 -697.2324 758.6035)"/><ellipse cx="310.2" cy="1057" rx=".7" ry="1.3" transform="matrix(.5334 -.8459 .8459 .5334 -749.322 755.5514)"/><ellipse cx="252.6" cy="1148.3" rx=".7" ry="1.3" transform="matrix(.5334 -.8459 .8459 .5334 -853.4055 749.4528)"/><ellipse cx="223.8" cy="1194" rx=".7" ry="1.3" transform="matrix(.5334 -.8459 .8459 .5334 -905.4952 746.4007)"/><ellipse cx="166.2" cy="1285.3" rx=".7" ry="1.3" transform="matrix(.5334 -.8459 .8459 .5334 -1009.6747 740.2965)"/><ellipse cx="137.4" cy="1330.9" rx=".7" ry="1.3" transform="matrix(.5334 -.8459 .8459 .5334 -1061.6683 737.2501)"/><ellipse cx="79.8" cy="1422.3" rx=".7" ry="1.3" transform="matrix(.5334 -.8459 .8459 .5334 -1165.8479 731.1459)"/><ellipse cx="51" cy="1468" rx=".7" ry="1.3" transform="matrix(.5334 -.8459 .8459 .5334 -1217.9376 728.0938)"/><ellipse cx="-6.6" cy="1559.3" rx=".7" ry="1.3" transform="matrix(.5334 -.8459 .8459 .5334 -1322.0211 721.9952)"/><ellipse cx="1234.9" cy="-243" rx=".7" ry="1.3" transform="matrix(.5334 -.8459 .8459 .5334 781.7787 931.1972)"/><ellipse cx="1206.1" cy="-197.3" rx=".7" ry="1.3" transform="matrix(.5334 -.8459 .8459 .5334 729.6891 928.1451)"/><ellipse cx="1148.5" cy="-105.9" rx=".7" ry="1.3" transform="matrix(.5334 -.8459 .8459 .5334 625.5096 922.041)"/><ellipse cx="1119.7" cy="-60.3" rx=".7" ry="1.3" transform="matrix(.5334 -.8459 .8459 .5334 573.4199 918.9888)"/><ellipse cx="1062.1" cy="31" rx=".7" ry="1.3" transform="matrix(.5334 -.8459 .8459 .5334 469.3365 912.8903)"/><ellipse cx="1033.3" cy="76.7" rx=".7" ry="1.3" transform="matrix(.5334 -.8459 .8459 .5334 417.2468 909.8382)"/><ellipse cx="975.7" cy="168.1" rx=".7" ry="1.3" transform="matrix(.5334 -.8459 .8459 .5334 313.0673 903.734)"/><ellipse cx="946.9" cy="213.7" rx=".7" ry="1.3" transform="matrix(.5334 -.8459 .8459 .5334 261.0736 900.6876)"/><ellipse cx="889.3" cy="305.1" rx=".7" ry="1.3" transform="matrix(.5334 -.8459 .8459 .5334 156.8941 894.5834)"/><ellipse cx="860.5" cy="350.8" rx=".7" ry="1.3" transform="matrix(.5334 -.8459 .8459 .5334 104.8044 891.5312)"/><ellipse cx="802.9" cy="442.1" rx=".7" ry="1.3" transform="matrix(.5334 -.8459 .8459 .5334 .721 885.4327)"/><ellipse cx="774.1" cy="487.8" rx=".7" ry="1.3" transform="matrix(.5334 -.8459 .8459 .5334 -51.3687 882.3806)"/><ellipse cx="716.5" cy="579.1" rx=".7" ry="1.3" transform="matrix(.5334 -.8459 .8459 .5334 -155.5482 876.2764)"/><ellipse cx="687.7" cy="624.7" rx=".7" ry="1.3" transform="matrix(.5334 -.8459 .8459 .5334 -207.5419 873.2299)"/><ellipse cx="630.1" cy="716.1" rx=".7" ry="1.3" transform="matrix(.5334 -.8459 .8459 .5334 -311.7213 867.1257)"/><ellipse cx="601.3" cy="761.8" rx=".7" ry="1.3" transform="matrix(.5334 -.8459 .8459 .5334 -363.8111 864.0737)"/><ellipse cx="543.7" cy="853.1" rx=".7" ry="1.3" transform="matrix(.5334 -.8459 .8459 .5334 -467.8945 857.9751)"/><ellipse cx="514.9" cy="898.8" rx=".7" ry="1.3" transform="matrix(.5334 -.8459 .8459 .5334 -519.9843 854.923)"/><ellipse cx="457.3" cy="990.2" rx=".7" ry="1.3" transform="matrix(.5334 -.8459 .8459 .5334 -624.1637 848.8188)"/><ellipse cx="428.5" cy="1035.8" rx=".7" ry="1.3" transform="matrix(.5334 -.8459 .8459 .5334 -676.1574 845.7723)"/><ellipse cx="370.9" cy="1127.1" rx=".7" ry="1.3" transform="matrix(.5334 -.8459 .8459 .5334 -780.3368 839.6682)"/><ellipse cx="342.1" cy="1172.8" rx=".7" ry="1.3" transform="matrix(.5334 -.8459 .8459 .5334 -832.4266 836.616)"/><ellipse cx="284.5" cy="1264.1" rx=".7" ry="1.3" transform="matrix(.5334 -.8459 .8459 .5334 -936.51 830.5175)"/><ellipse cx="255.7" cy="1309.8" rx=".7" ry="1.3" transform="matrix(.5334 -.8459 .8459 .5334 -988.5998 827.4654)"/><ellipse cx="198.1" cy="1401.2" rx=".7" ry="1.3" transform="matrix(.5334 -.8459 .8459 .5334 -1092.7792 821.3612)"/><ellipse cx="169.3" cy="1446.9" rx=".7" ry="1.3" transform="matrix(.5334 -.8459 .8459 .5334 -1144.8688 818.3091)"/><ellipse cx="111.7" cy="1538.2" rx=".7" ry="1.3" transform="matrix(.5334 -.8459 .8459 .5334 -1248.9523 812.2105)"/><ellipse cx="82.9" cy="1583.9" rx=".7" ry="1.3" transform="matrix(.5334 -.8459 .8459 .5334 -1301.042 809.1584)"/><ellipse cx="1324.4" cy="-218.4" rx=".7" ry="1.3" transform="matrix(.5334 -.8459 .8459 .5334 802.7578 1018.3605)"/><ellipse cx="1266.8" cy="-127.1" rx=".7" ry="1.3" transform="matrix(.5334 -.8459 .8459 .5334 698.5783 1012.2563)"/><ellipse cx="1238.1" cy="-81.5" rx=".7" ry="1.3" transform="matrix(.5334 -.8459 .8459 .5334 646.5845 1009.2098)"/><ellipse cx="1180.4" cy="9.9" rx=".7" ry="1.3" transform="matrix(.5334 -.8459 .8459 .5334 542.4052 1003.1057)"/><ellipse cx="1151.6" cy="55.6" rx=".7" ry="1.3" transform="matrix(.5334 -.8459 .8459 .5334 490.3155 1000.0535)"/><ellipse cx="1094" cy="146.9" rx=".7" ry="1.3" transform="matrix(.5334 -.8459 .8459 .5334 386.232 993.955)"/><ellipse cx="1065.2" cy="192.6" rx=".7" ry="1.3" transform="matrix(.5334 -.8459 .8459 .5334 334.1422 990.9029)"/><ellipse cx="1007.6" cy="284" rx=".7" ry="1.3" transform="matrix(.5334 -.8459 .8459 .5334 229.9628 984.7987)"/><ellipse cx="978.8" cy="329.6" rx=".7" ry="1.3" transform="matrix(.5334 -.8459 .8459 .5334 177.8732 981.7466)"/><ellipse cx="921.2" cy="420.9" rx=".7" ry="1.3" transform="matrix(.5334 -.8459 .8459 .5334 73.7897 975.648)"/><ellipse cx="892.4" cy="466.6" rx=".7" ry="1.3" transform="matrix(.5334 -.8459 .8459 .5334 21.6999 972.5959)"/><ellipse cx="834.9" cy="557.9" rx=".7" ry="1.3" transform="matrix(.5334 -.8459 .8459 .5334 -82.3836 966.4974)"/><ellipse cx="806" cy="603.6" rx=".7" ry="1.3" transform="matrix(.5334 -.8459 .8459 .5334 -134.4733 963.4453)"/><ellipse cx="748.4" cy="695" rx=".7" ry="1.3" transform="matrix(.5334 -.8459 .8459 .5334 -238.6527 957.3411)"/><ellipse cx="719.6" cy="740.7" rx=".7" ry="1.3" transform="matrix(.5334 -.8459 .8459 .5334 -290.7423 954.289)"/><ellipse cx="662" cy="832" rx=".7" ry="1.3" transform="matrix(.5334 -.8459 .8459 .5334 -394.8258 948.1904)"/><ellipse cx="633.2" cy="877.7" rx=".7" ry="1.3" transform="matrix(.5334 -.8459 .8459 .5334 -446.9156 945.1383)"/><ellipse cx="575.6" cy="969" rx=".7" ry="1.3" transform="matrix(.5334 -.8459 .8459 .5334 -551.095 939.0341)"/><ellipse cx="546.8" cy="1014.6" rx=".7" ry="1.3" transform="matrix(.5334 -.8459 .8459 .5334 -603.0887 935.9877)"/><ellipse cx="489.2" cy="1106" rx=".7" ry="1.3" transform="matrix(.5334 -.8459 .8459 .5334 -707.2682 929.8835)"/><ellipse cx="460.4" cy="1151.7" rx=".7" ry="1.3" transform="matrix(.5334 -.8459 .8459 .5334 -759.3578 926.8314)"/><ellipse cx="402.8" cy="1243" rx=".7" ry="1.3" transform="matrix(.5334 -.8459 .8459 .5334 -863.4413 920.7328)"/><ellipse cx="374" cy="1288.7" rx=".7" ry="1.3" transform="matrix(.5334 -.8459 .8459 .5334 -915.5311 917.6807)"/><ellipse cx="316.4" cy="1380.1" rx=".7" ry="1.3" transform="matrix(.5334 -.8459 .8459 .5334 -1019.7104 911.5765)"/><ellipse cx="287.7" cy="1425.7" rx=".7" ry="1.3" transform="matrix(.5334 -.8459 .8459 .5334 -1071.7042 908.5301)"/><ellipse cx="230" cy="1517" rx=".7" ry="1.3" transform="matrix(.5334 -.8459 .8459 .5334 -1175.8837 902.4258)"/><ellipse cx="201.2" cy="1562.7" rx=".7" ry="1.3" transform="matrix(.5334 -.8459 .8459 .5334 -1227.9735 899.3738)"/><ellipse cx="143.6" cy="1654" rx=".7" ry="1.3" transform="matrix(.5334 -.8459 .8459 .5334 -1332.0569 893.2752)"/><ellipse cx="1385.2" cy="-148.3" rx=".7" ry="1.3" transform="matrix(.5334 -.8459 .8459 .5334 771.743 1102.4773)"/><ellipse cx="1356.4" cy="-102.6" rx=".7" ry="1.3" transform="matrix(.5334 -.8459 .8459 .5334 719.6533 1099.4252)"/><ellipse cx="1298.7" cy="-11.2" rx=".7" ry="1.3" transform="matrix(.5334 -.8459 .8459 .5334 615.4738 1093.3209)"/><ellipse cx="1269.9" cy="34.5" rx=".7" ry="1.3" transform="matrix(.5334 -.8459 .8459 .5334 563.3842 1090.2689)"/><ellipse cx="1212.4" cy="125.8" rx=".7" ry="1.3" transform="matrix(.5334 -.8459 .8459 .5334 459.3006 1084.1703)"/><ellipse cx="1183.5" cy="171.5" rx=".7" ry="1.3" transform="matrix(.5334 -.8459 .8459 .5334 407.2109 1081.1182)"/><ellipse cx="1125.9" cy="262.8" rx=".7" ry="1.3" transform="matrix(.5334 -.8459 .8459 .5334 303.0315 1075.014)"/><ellipse cx="1097.2" cy="308.4" rx=".7" ry="1.3" transform="matrix(.5334 -.8459 .8459 .5334 251.0378 1071.9675)"/><ellipse cx="1039.5" cy="399.8" rx=".7" ry="1.3" transform="matrix(.5334 -.8459 .8459 .5334 146.8583 1065.8634)"/><ellipse cx="1010.7" cy="445.5" rx=".7" ry="1.3" transform="matrix(.5334 -.8459 .8459 .5334 94.7686 1062.8113)"/><ellipse cx="953.2" cy="536.8" rx=".7" ry="1.3" transform="matrix(.5334 -.8459 .8459 .5334 -9.3149 1056.7126)"/><ellipse cx="924.3" cy="582.5" rx=".7" ry="1.3" transform="matrix(.5334 -.8459 .8459 .5334 -61.4045 1053.6606)"/><ellipse cx="866.7" cy="673.9" rx=".7" ry="1.3" transform="matrix(.5334 -.8459 .8459 .5334 -165.584 1047.5564)"/><ellipse cx="838" cy="719.5" rx=".7" ry="1.3" transform="matrix(.5334 -.8459 .8459 .5334 -217.5777 1044.5099)"/><ellipse cx="780.3" cy="810.8" rx=".7" ry="1.3" transform="matrix(.5334 -.8459 .8459 .5334 -321.7571 1038.4058)"/><ellipse cx="751.5" cy="856.5" rx=".7" ry="1.3" transform="matrix(.5334 -.8459 .8459 .5334 -373.8469 1035.3536)"/><ellipse cx="694" cy="947.8" rx=".7" ry="1.3" transform="matrix(.5334 -.8459 .8459 .5334 -477.9304 1029.2551)"/><ellipse cx="665.2" cy="993.5" rx=".7" ry="1.3" transform="matrix(.5334 -.8459 .8459 .5334 -530.0201 1026.203)"/><ellipse cx="607.5" cy="1084.9" rx=".7" ry="1.3" transform="matrix(.5334 -.8459 .8459 .5334 -634.1995 1020.0988)"/><ellipse cx="578.8" cy="1130.5" rx=".7" ry="1.3" transform="matrix(.5334 -.8459 .8459 .5334 -686.1932 1017.0524)"/><ellipse cx="521.1" cy="1221.9" rx=".7" ry="1.3" transform="matrix(.5334 -.8459 .8459 .5334 -790.3726 1010.9482)"/><ellipse cx="492.3" cy="1267.6" rx=".7" ry="1.3" transform="matrix(.5334 -.8459 .8459 .5334 -842.4623 1007.8961)"/><ellipse cx="434.8" cy="1358.9" rx=".7" ry="1.3" transform="matrix(.5334 -.8459 .8459 .5334 -946.5458 1001.7975)"/><ellipse cx="406" cy="1404.5" rx=".7" ry="1.3" transform="matrix(.5334 -.8459 .8459 .5334 -998.6356 998.7454)"/><ellipse cx="348.3" cy="1495.9" rx=".7" ry="1.3" transform="matrix(.5334 -.8459 .8459 .5334 -1102.8149 992.6412)"/><ellipse cx="319.5" cy="1541.6" rx=".7" ry="1.3" transform="matrix(.5334 -.8459 .8459 .5334 -1154.9047 989.5891)"/><ellipse cx="262" cy="1632.9" rx=".7" ry="1.3" transform="matrix(.5334 -.8459 .8459 .5334 -1258.9882 983.4905)"/><ellipse cx="233.1" cy="1678.6" rx=".7" ry="1.3" transform="matrix(.5334 -.8459 .8459 .5334 -1311.0779 980.4385)"/><ellipse cx="1474.7" cy="-123.7" rx=".7" ry="1.3" transform="matrix(.5334 -.8459 .8459 .5334 792.7219 1189.6405)"/><ellipse cx="1417" cy="-32.3" rx=".7" ry="1.3" transform="matrix(.5334 -.8459 .8459 .5334 688.5425 1183.5363)"/><ellipse cx="1388.3" cy="13.3" rx=".7" ry="1.3" transform="matrix(.5334 -.8459 .8459 .5334 636.5488 1180.4899)"/><ellipse cx="1330.7" cy="104.6" rx=".7" ry="1.3" transform="matrix(.5334 -.8459 .8459 .5334 532.3693 1174.3856)"/><ellipse cx="1301.9" cy="150.3" rx=".7" ry="1.3" transform="matrix(.5334 -.8459 .8459 .5334 480.2796 1171.3335)"/><ellipse cx="1244.3" cy="241.6" rx=".7" ry="1.3" transform="matrix(.5334 -.8459 .8459 .5334 376.1961 1165.235)"/><ellipse cx="1215.5" cy="287.3" rx=".7" ry="1.3" transform="matrix(.5334 -.8459 .8459 .5334 324.1064 1162.1829)"/><ellipse cx="1157.8" cy="378.7" rx=".7" ry="1.3" transform="matrix(.5334 -.8459 .8459 .5334 219.927 1156.0787)"/><ellipse cx="1129" cy="424.4" rx=".7" ry="1.3" transform="matrix(.5334 -.8459 .8459 .5334 167.8373 1153.0266)"/><ellipse cx="1071.5" cy="515.7" rx=".7" ry="1.3" transform="matrix(.5334 -.8459 .8459 .5334 63.7539 1146.928)"/><ellipse cx="1042.7" cy="561.4" rx=".7" ry="1.3" transform="matrix(.5334 -.8459 .8459 .5334 11.6641 1143.876)"/><ellipse cx="985.1" cy="652.7" rx=".7" ry="1.3" transform="matrix(.5334 -.8459 .8459 .5334 -92.4194 1137.7773)"/><ellipse cx="956.3" cy="698.3" rx=".7" ry="1.3" transform="matrix(.5334 -.8459 .8459 .5334 -144.5091 1134.7253)"/><ellipse cx="898.7" cy="789.7" rx=".7" ry="1.3" transform="matrix(.5334 -.8459 .8459 .5334 -248.6885 1128.6211)"/><ellipse cx="869.8" cy="835.4" rx=".7" ry="1.3" transform="matrix(.5334 -.8459 .8459 .5334 -300.7782 1125.569)"/><ellipse cx="812.3" cy="926.7" rx=".7" ry="1.3" transform="matrix(.5334 -.8459 .8459 .5334 -404.8616 1119.4705)"/><ellipse cx="783.5" cy="972.4" rx=".7" ry="1.3" transform="matrix(.5334 -.8459 .8459 .5334 -456.9514 1116.4183)"/><ellipse cx="725.8" cy="1063.8" rx=".7" ry="1.3" transform="matrix(.5334 -.8459 .8459 .5334 -561.1308 1110.3142)"/><ellipse cx="697.1" cy="1109.4" rx=".7" ry="1.3" transform="matrix(.5334 -.8459 .8459 .5334 -613.1245 1107.2677)"/><ellipse cx="639.5" cy="1200.8" rx=".7" ry="1.3" transform="matrix(.5334 -.8459 .8459 .5334 -717.304 1101.1635)"/><ellipse cx="610.6" cy="1246.4" rx=".7" ry="1.3" transform="matrix(.5334 -.8459 .8459 .5334 -769.3937 1098.1115)"/><ellipse cx="553.1" cy="1337.7" rx=".7" ry="1.3" transform="matrix(.5334 -.8459 .8459 .5334 -873.4771 1092.0128)"/><ellipse cx="524.3" cy="1383.4" rx=".7" ry="1.3" transform="matrix(.5334 -.8459 .8459 .5334 -925.5669 1088.9607)"/><ellipse cx="466.6" cy="1474.8" rx=".7" ry="1.3" transform="matrix(.5334 -.8459 .8459 .5334 -1029.7463 1082.8566)"/><ellipse cx="437.9" cy="1520.4" rx=".7" ry="1.3" transform="matrix(.5334 -.8459 .8459 .5334 -1081.74 1079.8101)"/><ellipse cx="380.3" cy="1611.8" rx=".7" ry="1.3" transform="matrix(.5334 -.8459 .8459 .5334 -1185.9196 1073.7059)"/><ellipse cx="351.4" cy="1657.5" rx=".7" ry="1.3" transform="matrix(.5334 -.8459 .8459 .5334 -1238.0093 1070.6538)"/><ellipse cx="293.9" cy="1748.8" rx=".7" ry="1.3" transform="matrix(.5334 -.8459 .8459 .5334 -1342.0928 1064.5552)"/><ellipse cx="1535.4" cy="-53.5" rx=".7" ry="1.3" transform="matrix(.5334 -.8459 .8459 .5334 761.7072 1273.7572)"/><ellipse cx="1506.6" cy="-7.9" rx=".7" ry="1.3" transform="matrix(.5334 -.8459 .8459 .5334 709.6174 1270.7052)"/><ellipse cx="1449" cy="83.5" rx=".7" ry="1.3" transform="matrix(.5334 -.8459 .8459 .5334 605.438 1264.601)"/><ellipse cx="1420.2" cy="129.2" rx=".7" ry="1.3" transform="matrix(.5334 -.8459 .8459 .5334 553.3483 1261.5488)"/><ellipse cx="1362.6" cy="220.5" rx=".7" ry="1.3" transform="matrix(.5334 -.8459 .8459 .5334 449.2648 1255.4503)"/><ellipse cx="1333.8" cy="266.2" rx=".7" ry="1.3" transform="matrix(.5334 -.8459 .8459 .5334 397.1751 1252.3982)"/><ellipse cx="1276.2" cy="357.6" rx=".7" ry="1.3" transform="matrix(.5334 -.8459 .8459 .5334 292.9957 1246.2941)"/><ellipse cx="1247.4" cy="403.2" rx=".7" ry="1.3" transform="matrix(.5334 -.8459 .8459 .5334 241.002 1243.2476)"/><ellipse cx="1189.8" cy="494.6" rx=".7" ry="1.3" transform="matrix(.5334 -.8459 .8459 .5334 136.8225 1237.1434)"/><ellipse cx="1161" cy="540.2" rx=".7" ry="1.3" transform="matrix(.5334 -.8459 .8459 .5334 84.7328 1234.0913)"/><ellipse cx="1103.4" cy="631.5" rx=".7" ry="1.3" transform="matrix(.5334 -.8459 .8459 .5334 -19.3507 1227.9927)"/><ellipse cx="1074.6" cy="677.2" rx=".7" ry="1.3" transform="matrix(.5334 -.8459 .8459 .5334 -71.4404 1224.9407)"/><ellipse cx="1017" cy="768.6" rx=".7" ry="1.3" transform="matrix(.5334 -.8459 .8459 .5334 -175.6198 1218.8364)"/><ellipse cx="988.2" cy="814.2" rx=".7" ry="1.3" transform="matrix(.5334 -.8459 .8459 .5334 -227.6135 1215.7899)"/><ellipse cx="930.6" cy="905.6" rx=".7" ry="1.3" transform="matrix(.5334 -.8459 .8459 .5334 -331.7929 1209.6858)"/><ellipse cx="901.8" cy="951.3" rx=".7" ry="1.3" transform="matrix(.5334 -.8459 .8459 .5334 -383.8827 1206.6337)"/><ellipse cx="844.2" cy="1042.6" rx=".7" ry="1.3" transform="matrix(.5334 -.8459 .8459 .5334 -487.9662 1200.5352)"/><ellipse cx="815.4" cy="1088.3" rx=".7" ry="1.3" transform="matrix(.5334 -.8459 .8459 .5334 -540.0559 1197.483)"/><ellipse cx="757.8" cy="1179.6" rx=".7" ry="1.3" transform="matrix(.5334 -.8459 .8459 .5334 -644.2353 1191.3788)"/><ellipse cx="729" cy="1225.2" rx=".7" ry="1.3" transform="matrix(.5334 -.8459 .8459 .5334 -696.2291 1188.3324)"/><ellipse cx="671.4" cy="1316.6" rx=".7" ry="1.3" transform="matrix(.5334 -.8459 .8459 .5334 -800.4084 1182.2281)"/><ellipse cx="642.6" cy="1362.3" rx=".7" ry="1.3" transform="matrix(.5334 -.8459 .8459 .5334 -852.4982 1179.176)"/><ellipse cx="585" cy="1453.6" rx=".7" ry="1.3" transform="matrix(.5334 -.8459 .8459 .5334 -956.5817 1173.0775)"/><ellipse cx="556.2" cy="1499.3" rx=".7" ry="1.3" transform="matrix(.5334 -.8459 .8459 .5334 -1008.6714 1170.0254)"/><ellipse cx="498.6" cy="1590.7" rx=".7" ry="1.3" transform="matrix(.5334 -.8459 .8459 .5334 -1112.8508 1163.9213)"/><ellipse cx="469.8" cy="1636.4" rx=".7" ry="1.3" transform="matrix(.5334 -.8459 .8459 .5334 -1164.9404 1160.8691)"/><ellipse cx="412.2" cy="1727.6" rx=".7" ry="1.3" transform="matrix(.5334 -.8459 .8459 .5334 -1269.0239 1154.7705)"/><ellipse cx="383.4" cy="1773.3" rx=".7" ry="1.3" transform="matrix(.5334 -.8459 .8459 .5334 -1321.1136 1151.7185)"/><ellipse cx="1624.9" cy="-29" rx=".7" ry="1.3" transform="matrix(.5334 -.8459 .8459 .5334 782.6861 1360.9205)"/><ellipse cx="1567.3" cy="62.4" rx=".7" ry="1.3" transform="matrix(.5334 -.8459 .8459 .5334 678.5067 1354.8163)"/><ellipse cx="1538.5" cy="108" rx=".7" ry="1.3" transform="matrix(.5334 -.8459 .8459 .5334 626.5129 1351.7699)"/><ellipse cx="1480.9" cy="199.4" rx=".7" ry="1.3" transform="matrix(.5334 -.8459 .8459 .5334 522.3335 1345.6656)"/><ellipse cx="1452.1" cy="245.1" rx=".7" ry="1.3" transform="matrix(.5334 -.8459 .8459 .5334 470.2438 1342.6135)"/><ellipse cx="1394.5" cy="336.4" rx=".7" ry="1.3" transform="matrix(.5334 -.8459 .8459 .5334 366.1603 1336.515)"/><ellipse cx="1365.7" cy="382.1" rx=".7" ry="1.3" transform="matrix(.5334 -.8459 .8459 .5334 314.0706 1333.4629)"/><ellipse cx="1308.1" cy="473.4" rx=".7" ry="1.3" transform="matrix(.5334 -.8459 .8459 .5334 209.8912 1327.3588)"/><ellipse cx="1279.3" cy="519.1" rx=".7" ry="1.3" transform="matrix(.5334 -.8459 .8459 .5334 157.8015 1324.3066)"/><ellipse cx="1221.7" cy="610.4" rx=".7" ry="1.3" transform="matrix(.5334 -.8459 .8459 .5334 53.718 1318.208)"/><ellipse cx="1192.9" cy="656.1" rx=".7" ry="1.3" transform="matrix(.5334 -.8459 .8459 .5334 1.6283 1315.156)"/><ellipse cx="1135.3" cy="747.4" rx=".7" ry="1.3" transform="matrix(.5334 -.8459 .8459 .5334 -102.4552 1309.0574)"/><ellipse cx="1106.5" cy="793.1" rx=".7" ry="1.3" transform="matrix(.5334 -.8459 .8459 .5334 -154.5449 1306.0052)"/><ellipse cx="1048.9" cy="884.5" rx=".7" ry="1.3" transform="matrix(.5334 -.8459 .8459 .5334 -258.7243 1299.9011)"/><ellipse cx="1020.1" cy="930.2" rx=".7" ry="1.3" transform="matrix(.5334 -.8459 .8459 .5334 -310.814 1296.849)"/><ellipse cx="962.5" cy="1021.4" rx=".7" ry="1.3" transform="matrix(.5334 -.8459 .8459 .5334 -414.8975 1290.7505)"/><ellipse cx="933.7" cy="1067.1" rx=".7" ry="1.3" transform="matrix(.5334 -.8459 .8459 .5334 -466.9872 1287.6984)"/><ellipse cx="876.1" cy="1158.5" rx=".7" ry="1.3" transform="matrix(.5334 -.8459 .8459 .5334 -571.1666 1281.5941)"/><ellipse cx="847.3" cy="1204.1" rx=".7" ry="1.3" transform="matrix(.5334 -.8459 .8459 .5334 -623.1603 1278.5477)"/><ellipse cx="789.7" cy="1295.5" rx=".7" ry="1.3" transform="matrix(.5334 -.8459 .8459 .5334 -727.3398 1272.4435)"/><ellipse cx="760.9" cy="1341.2" rx=".7" ry="1.3" transform="matrix(.5334 -.8459 .8459 .5334 -779.4294 1269.3914)"/><ellipse cx="703.3" cy="1432.5" rx=".7" ry="1.3" transform="matrix(.5334 -.8459 .8459 .5334 -883.5129 1263.2928)"/><ellipse cx="674.5" cy="1478.2" rx=".7" ry="1.3" transform="matrix(.5334 -.8459 .8459 .5334 -935.6027 1260.2407)"/><ellipse cx="616.9" cy="1569.5" rx=".7" ry="1.3" transform="matrix(.5334 -.8459 .8459 .5334 -1039.7821 1254.1366)"/><ellipse cx="588.1" cy="1615.1" rx=".7" ry="1.3" transform="matrix(.5334 -.8459 .8459 .5334 -1091.7759 1251.0901)"/><ellipse cx="530.5" cy="1706.5" rx=".7" ry="1.3" transform="matrix(.5334 -.8459 .8459 .5334 -1195.9553 1244.9858)"/><ellipse cx="501.7" cy="1752.2" rx=".7" ry="1.3" transform="matrix(.5334 -.8459 .8459 .5334 -1248.045 1241.9338)"/><ellipse cx="444.1" cy="1843.5" rx=".7" ry="1.3" transform="matrix(.5334 -.8459 .8459 .5334 -1352.1285 1235.8352)"/><ellipse cx="1685.6" cy="41.2" rx=".7" ry="1.3" transform="matrix(.5334 -.8459 .8459 .5334 751.6713 1445.0372)"/><ellipse cx="1656.8" cy="86.9" rx=".7" ry="1.3" transform="matrix(.5334 -.8459 .8459 .5334 699.5816 1441.9852)"/><ellipse cx="1599.2" cy="178.3" rx=".7" ry="1.3" transform="matrix(.5334 -.8459 .8459 .5334 595.4022 1435.881)"/><ellipse cx="1570.4" cy="223.9" rx=".7" ry="1.3" transform="matrix(.5334 -.8459 .8459 .5334 543.3125 1432.8289)"/><ellipse cx="1512.8" cy="315.2" rx=".7" ry="1.3" transform="matrix(.5334 -.8459 .8459 .5334 439.229 1426.7303)"/><ellipse cx="1484" cy="360.9" rx=".7" ry="1.3" transform="matrix(.5334 -.8459 .8459 .5334 387.1393 1423.6782)"/><ellipse cx="1426.4" cy="452.3" rx=".7" ry="1.3" transform="matrix(.5334 -.8459 .8459 .5334 282.9599 1417.5741)"/><ellipse cx="1397.6" cy="497.9" rx=".7" ry="1.3" transform="matrix(.5334 -.8459 .8459 .5334 230.9661 1414.5276)"/><ellipse cx="1340" cy="589.3" rx=".7" ry="1.3" transform="matrix(.5334 -.8459 .8459 .5334 126.7867 1408.4233)"/><ellipse cx="1311.2" cy="635" rx=".7" ry="1.3" transform="matrix(.5334 -.8459 .8459 .5334 74.697 1405.3713)"/><ellipse cx="1253.6" cy="726.3" rx=".7" ry="1.3" transform="matrix(.5334 -.8459 .8459 .5334 -29.3865 1399.2727)"/><ellipse cx="1224.8" cy="772" rx=".7" ry="1.3" transform="matrix(.5334 -.8459 .8459 .5334 -81.4762 1396.2206)"/><ellipse cx="1167.2" cy="863.3" rx=".7" ry="1.3" transform="matrix(.5334 -.8459 .8459 .5334 -185.6556 1390.1165)"/><ellipse cx="1138.4" cy="908.9" rx=".7" ry="1.3" transform="matrix(.5334 -.8459 .8459 .5334 -237.6494 1387.0699)"/><ellipse cx="1080.8" cy="1000.3" rx=".7" ry="1.3" transform="matrix(.5334 -.8459 .8459 .5334 -341.8287 1380.9658)"/><ellipse cx="1052" cy="1046" rx=".7" ry="1.3" transform="matrix(.5334 -.8459 .8459 .5334 -393.9185 1377.9137)"/><ellipse cx="994.4" cy="1137.3" rx=".7" ry="1.3" transform="matrix(.5334 -.8459 .8459 .5334 -498.002 1371.8151)"/><ellipse cx="965.6" cy="1183" rx=".7" ry="1.3" transform="matrix(.5334 -.8459 .8459 .5334 -550.0917 1368.7631)"/><ellipse cx="908" cy="1274.4" rx=".7" ry="1.3" transform="matrix(.5334 -.8459 .8459 .5334 -654.2711 1362.6588)"/><ellipse cx="879.2" cy="1320" rx=".7" ry="1.3" transform="matrix(.5334 -.8459 .8459 .5334 -706.2648 1359.6124)"/><ellipse cx="821.6" cy="1411.4" rx=".7" ry="1.3" transform="matrix(.5334 -.8459 .8459 .5334 -810.4443 1353.5082)"/><ellipse cx="792.8" cy="1457" rx=".7" ry="1.3" transform="matrix(.5334 -.8459 .8459 .5334 -862.534 1350.4561)"/><ellipse cx="735.2" cy="1548.3" rx=".7" ry="1.3" transform="matrix(.5334 -.8459 .8459 .5334 -966.6175 1344.3575)"/><ellipse cx="706.4" cy="1594" rx=".7" ry="1.3" transform="matrix(.5334 -.8459 .8459 .5334 -1018.7072 1341.3054)"/><ellipse cx="648.8" cy="1685.4" rx=".7" ry="1.3" transform="matrix(.5334 -.8459 .8459 .5334 -1122.8866 1335.2013)"/><ellipse cx="620" cy="1731.1" rx=".7" ry="1.3" transform="matrix(.5334 -.8459 .8459 .5334 -1174.9763 1332.1492)"/><ellipse cx="562.4" cy="1822.4" rx=".7" ry="1.3" transform="matrix(.5334 -.8459 .8459 .5334 -1279.0597 1326.0505)"/><ellipse cx="533.6" cy="1868.1" rx=".7" ry="1.3" transform="matrix(.5334 -.8459 .8459 .5334 -1331.1495 1322.9985)"/><ellipse cx="1775.1" cy="65.8" rx=".7" ry="1.3" transform="matrix(.5334 -.8459 .8459 .5334 772.6503 1532.2006)"/><ellipse cx="1717.5" cy="157.1" rx=".7" ry="1.3" transform="matrix(.5334 -.8459 .8459 .5334 668.4709 1526.0963)"/><ellipse cx="1688.8" cy="202.7" rx=".7" ry="1.3" transform="matrix(.5334 -.8459 .8459 .5334 616.4771 1523.0498)"/><ellipse cx="1631.1" cy="294.1" rx=".7" ry="1.3" transform="matrix(.5334 -.8459 .8459 .5334 512.2977 1516.9457)"/><ellipse cx="1602.3" cy="339.8" rx=".7" ry="1.3" transform="matrix(.5334 -.8459 .8459 .5334 460.208 1513.8936)"/><ellipse cx="1544.7" cy="431.1" rx=".7" ry="1.3" transform="matrix(.5334 -.8459 .8459 .5334 356.1245 1507.795)"/><ellipse cx="1515.9" cy="476.8" rx=".7" ry="1.3" transform="matrix(.5334 -.8459 .8459 .5334 304.0348 1504.7429)"/><ellipse cx="1458.3" cy="568.2" rx=".7" ry="1.3" transform="matrix(.5334 -.8459 .8459 .5334 199.8554 1498.6387)"/><ellipse cx="1429.5" cy="613.9" rx=".7" ry="1.3" transform="matrix(.5334 -.8459 .8459 .5334 147.7657 1495.5867)"/><ellipse cx="1371.9" cy="705.1" rx=".7" ry="1.3" transform="matrix(.5334 -.8459 .8459 .5334 43.6822 1489.488)"/><ellipse cx="1343.1" cy="750.8" rx=".7" ry="1.3" transform="matrix(.5334 -.8459 .8459 .5334 -8.4075 1486.4359)"/><ellipse cx="1285.6" cy="842.1" rx=".7" ry="1.3" transform="matrix(.5334 -.8459 .8459 .5334 -112.491 1480.3374)"/><ellipse cx="1256.7" cy="887.8" rx=".7" ry="1.3" transform="matrix(.5334 -.8459 .8459 .5334 -164.5807 1477.2853)"/><ellipse cx="1199.1" cy="979.2" rx=".7" ry="1.3" transform="matrix(.5334 -.8459 .8459 .5334 -268.7602 1471.1812)"/><ellipse cx="1170.3" cy="1024.9" rx=".7" ry="1.3" transform="matrix(.5334 -.8459 .8459 .5334 -320.8498 1468.129)"/><ellipse cx="1112.7" cy="1116.2" rx=".7" ry="1.3" transform="matrix(.5334 -.8459 .8459 .5334 -424.9333 1462.0305)"/><ellipse cx="1083.9" cy="1161.9" rx=".7" ry="1.3" transform="matrix(.5334 -.8459 .8459 .5334 -477.023 1458.9784)"/><ellipse cx="1026.3" cy="1253.2" rx=".7" ry="1.3" transform="matrix(.5334 -.8459 .8459 .5334 -581.2024 1452.8741)"/><ellipse cx="997.5" cy="1298.9" rx=".7" ry="1.3" transform="matrix(.5334 -.8459 .8459 .5334 -633.1962 1449.8278)"/><ellipse cx="939.9" cy="1390.2" rx=".7" ry="1.3" transform="matrix(.5334 -.8459 .8459 .5334 -737.3757 1443.7235)"/><ellipse cx="911.1" cy="1435.9" rx=".7" ry="1.3" transform="matrix(.5334 -.8459 .8459 .5334 -789.4653 1440.6714)"/><ellipse cx="853.5" cy="1527.2" rx=".7" ry="1.3" transform="matrix(.5334 -.8459 .8459 .5334 -893.5488 1434.5729)"/><ellipse cx="824.7" cy="1572.9" rx=".7" ry="1.3" transform="matrix(.5334 -.8459 .8459 .5334 -945.6385 1431.5208)"/><ellipse cx="767.1" cy="1664.3" rx=".7" ry="1.3" transform="matrix(.5334 -.8459 .8459 .5334 -1049.8179 1425.4166)"/><ellipse cx="738.3" cy="1709.9" rx=".7" ry="1.3" transform="matrix(.5334 -.8459 .8459 .5334 -1101.8116 1422.3701)"/><ellipse cx="680.7" cy="1801.3" rx=".7" ry="1.3" transform="matrix(.5334 -.8459 .8459 .5334 -1205.9912 1416.2659)"/><ellipse cx="651.9" cy="1846.9" rx=".7" ry="1.3" transform="matrix(.5334 -.8459 .8459 .5334 -1258.0809 1413.2139)"/><ellipse cx="594.3" cy="1938.2" rx=".7" ry="1.3" transform="matrix(.5334 -.8459 .8459 .5334 -1362.1644 1407.1152)"/></g></svg>