<svg enable-background="new 0 0 1133.9 1133.9" viewBox="0 0 1133.9 1133.9" xmlns="http://www.w3.org/2000/svg"><g fill="#363636"><ellipse cx="471.7" cy="-715" rx=".7" ry="1.3" transform="matrix(.5334 -.8459 .8459 .5334 824.9305 65.3534)"/><ellipse cx="442.8" cy="-669.4" rx=".7" ry="1.3" transform="matrix(.5334 -.8459 .8459 .5334 772.848 62.2332)"/><ellipse cx="385.2" cy="-577.9" rx=".7" ry="1.3" transform="matrix(.5334 -.8459 .8459 .5334 668.5297 56.192)"/><ellipse cx="356.4" cy="-532.2" rx=".7" ry="1.3" transform="matrix(.5334 -.8459 .8459 .5334 616.4417 53.1681)"/><ellipse cx="298.8" cy="-441" rx=".7" ry="1.3" transform="matrix(.5334 -.8459 .8459 .5334 512.4334 47.0043)"/><ellipse cx="269.9" cy="-395.3" rx=".7" ry="1.3" transform="matrix(.5334 -.8459 .8459 .5334 460.3053 43.8962)"/><ellipse cx="212.4" cy="-303.9" rx=".7" ry="1.3" transform="matrix(.5334 -.8459 .8459 .5334 356.1291 37.8486)"/><ellipse cx="183.7" cy="-258.3" rx=".7" ry="1.3" transform="matrix(.5334 -.8459 .8459 .5334 304.2153 34.8508)"/><ellipse cx="126" cy="-166.8" rx=".7" ry="1.3" transform="matrix(.5334 -.8459 .8459 .5334 199.9027 28.7132)"/><ellipse cx="97.2" cy="-121.1" rx=".7" ry="1.3" transform="matrix(.5334 -.8459 .8459 .5334 147.8146 25.6894)"/><ellipse cx="39.7" cy="-29.9" rx=".7" ry="1.3" transform="matrix(.5334 -.8459 .8459 .5334 43.813 19.6678)"/><ellipse cx="10.9" cy="15.8" rx=".7" ry="1.3" transform="matrix(.5334 -.8459 .8459 .5334 -8.2694 16.5475)"/><ellipse cx="-46.8" cy="107.2" rx=".7" ry="1.3" transform="matrix(.5334 -.8459 .8459 .5334 -112.4979 10.3698)"/><ellipse cx="-75.4" cy="152.9" rx=".7" ry="1.3" transform="matrix(.5334 -.8459 .8459 .5334 -164.5016 7.5087)"/><ellipse cx="-133.1" cy="244.1" rx=".7" ry="1.3" transform="matrix(.5334 -.8459 .8459 .5334 -268.5878 1.3244)"/><ellipse cx="-162" cy="289.9" rx=".7" ry="1.3" transform="matrix(.5334 -.8459 .8459 .5334 -320.8124 -1.7893)"/><ellipse cx="-219.5" cy="381.1" rx=".7" ry="1.3" transform="matrix(.5334 -.8459 .8459 .5334 -424.8142 -7.811)"/><ellipse cx="-248.3" cy="426.8" rx=".7" ry="1.3" transform="matrix(.5334 -.8459 .8459 .5334 -476.9023 -10.8348)"/><ellipse cx="-305.9" cy="518.2" rx=".7" ry="1.3" transform="matrix(.5334 -.8459 .8459 .5334 -581.1184 -16.9666)"/><ellipse cx="-334.7" cy="563.9" rx=".7" ry="1.3" transform="matrix(.5334 -.8459 .8459 .5334 -633.1288 -19.9701)"/><ellipse cx="-392.2" cy="655.3" rx=".7" ry="1.3" transform="matrix(.5334 -.8459 .8459 .5334 -737.3048 -26.0177)"/><ellipse cx="-421.2" cy="701" rx=".7" ry="1.3" transform="matrix(.5334 -.8459 .8459 .5334 -789.4452 -29.1716)"/><ellipse cx="-478.7" cy="792.2" rx=".7" ry="1.3" transform="matrix(.5334 -.8459 .8459 .5334 -893.4414 -35.2896)"/><ellipse cx="-507.5" cy="837.9" rx=".7" ry="1.3" transform="matrix(.5334 -.8459 .8459 .5334 -945.5292 -38.3135)"/><ellipse cx="-565.1" cy="929.4" rx=".7" ry="1.3" transform="matrix(.5334 -.8459 .8459 .5334 -1049.8477 -44.3546)"/><ellipse cx="-593.9" cy="975" rx=".7" ry="1.3" transform="matrix(.5334 -.8459 .8459 .5334 -1101.8337 -47.4691)"/><ellipse cx="-651.5" cy="1066.3" rx=".7" ry="1.3" transform="matrix(.5334 -.8459 .8459 .5334 -1205.932 -53.4965)"/><ellipse cx="-680.3" cy="1112" rx=".7" ry="1.3" transform="matrix(.5334 -.8459 .8459 .5334 -1258.0657 -56.508)"/><ellipse cx="561.2" cy="-690.5" rx=".7" ry="1.3" transform="matrix(.5334 -.8459 .8459 .5334 845.8972 152.4755)"/><ellipse cx="503.4" cy="-599.1" rx=".7" ry="1.3" transform="matrix(.5334 -.8459 .8459 .5334 741.6686 146.2978)"/><ellipse cx="474.7" cy="-553.5" rx=".7" ry="1.3" transform="matrix(.5334 -.8459 .8459 .5334 689.6586 143.2944)"/><ellipse cx="417.1" cy="-462.1" rx=".7" ry="1.3" transform="matrix(.5334 -.8459 .8459 .5334 585.4824 137.2466)"/><ellipse cx="388.4" cy="-416.4" rx=".7" ry="1.3" transform="matrix(.5334 -.8459 .8459 .5334 533.4908 134.2284)"/><ellipse cx="330.8" cy="-325.1" rx=".7" ry="1.3" transform="matrix(.5334 -.8459 .8459 .5334 429.3525 128.117)"/><ellipse cx="302" cy="-279.4" rx=".7" ry="1.3" transform="matrix(.5334 -.8459 .8459 .5334 377.2644 125.0931)"/><ellipse cx="244.4" cy="-188.1" rx=".7" ry="1.3" transform="matrix(.5334 -.8459 .8459 .5334 273.0941 118.949)"/><ellipse cx="215.5" cy="-142.2" rx=".7" ry="1.3" transform="matrix(.5334 -.8459 .8459 .5334 220.8638 115.9318)"/><ellipse cx="158.1" cy="-51" rx=".7" ry="1.3" transform="matrix(.5334 -.8459 .8459 .5334 116.8619 109.9102)"/><ellipse cx="129.1" cy="-5.3" rx=".7" ry="1.3" transform="matrix(.5334 -.8459 .8459 .5334 64.7673 106.744)"/><ellipse cx="71.6" cy="85.9" rx=".7" ry="1.3" transform="matrix(.5334 -.8459 .8459 .5334 -39.2746 100.6383)"/><ellipse cx="42.8" cy="131.6" rx=".7" ry="1.3" transform="matrix(.5334 -.8459 .8459 .5334 -91.3626 97.6144)"/><ellipse cx="-14.8" cy="223" rx=".7" ry="1.3" transform="matrix(.5334 -.8459 .8459 .5334 -195.5387 91.5667)"/><ellipse cx="-43.7" cy="268.8" rx=".7" ry="1.3" transform="matrix(.5334 -.8459 .8459 .5334 -247.7634 88.453)"/><ellipse cx="-101.2" cy="360.1" rx=".7" ry="1.3" transform="matrix(.5334 -.8459 .8459 .5334 -351.7652 82.4314)"/><ellipse cx="-130" cy="405.8" rx=".7" ry="1.3" transform="matrix(.5334 -.8459 .8459 .5334 -403.8532 79.4076)"/><ellipse cx="-187.6" cy="497.1" rx=".7" ry="1.3" transform="matrix(.5334 -.8459 .8459 .5334 -508.0695 73.2757)"/><ellipse cx="-216.3" cy="542.8" rx=".7" ry="1.3" transform="matrix(.5334 -.8459 .8459 .5334 -560.0796 70.2724)"/><ellipse cx="-274" cy="634" rx=".7" ry="1.3" transform="matrix(.5334 -.8459 .8459 .5334 -664.1658 64.088)"/><ellipse cx="-302.8" cy="679.7" rx=".7" ry="1.3" transform="matrix(.5334 -.8459 .8459 .5334 -716.2538 61.0642)"/><ellipse cx="-360.4" cy="771.1" rx=".7" ry="1.3" transform="matrix(.5334 -.8459 .8459 .5334 -820.3922 54.9527)"/><ellipse cx="-389.2" cy="816.8" rx=".7" ry="1.3" transform="matrix(.5334 -.8459 .8459 .5334 -872.4803 51.9288)"/><ellipse cx="-446.8" cy="908.2" rx=".7" ry="1.3" transform="matrix(.5334 -.8459 .8459 .5334 -976.6967 45.7971)"/><ellipse cx="-475.6" cy="953.8" rx=".7" ry="1.3" transform="matrix(.5334 -.8459 .8459 .5334 -1028.7068 42.7937)"/><ellipse cx="-533.1" cy="1045.1" rx=".7" ry="1.3" transform="matrix(.5334 -.8459 .8459 .5334 -1132.7864 36.7516)"/><ellipse cx="-561.9" cy="1090.8" rx=".7" ry="1.3" transform="matrix(.5334 -.8459 .8459 .5334 -1184.8743 33.7276)"/><ellipse cx="-619.6" cy="1182.1" rx=".7" ry="1.3" transform="matrix(.5334 -.8459 .8459 .5334 -1289.0193 27.474)"/><ellipse cx="621.8" cy="-620.2" rx=".7" ry="1.3" transform="matrix(.5334 -.8459 .8459 .5334 814.7956 236.5606)"/><ellipse cx="593.1" cy="-574.6" rx=".7" ry="1.3" transform="matrix(.5334 -.8459 .8459 .5334 762.804 233.5423)"/><ellipse cx="535.5" cy="-483.2" rx=".7" ry="1.3" transform="matrix(.5334 -.8459 .8459 .5334 658.6279 227.4947)"/><ellipse cx="506.6" cy="-437.6" rx=".7" ry="1.3" transform="matrix(.5334 -.8459 .8459 .5334 606.5456 224.3744)"/><ellipse cx="449.1" cy="-346.2" rx=".7" ry="1.3" transform="matrix(.5334 -.8459 .8459 .5334 502.4016 218.3594)"/><ellipse cx="420.3" cy="-300.5" rx=".7" ry="1.3" transform="matrix(.5334 -.8459 .8459 .5334 450.3135 215.3356)"/><ellipse cx="362.7" cy="-209.1" rx=".7" ry="1.3" transform="matrix(.5334 -.8459 .8459 .5334 346.1431 209.1914)"/><ellipse cx="333.9" cy="-163.5" rx=".7" ry="1.3" transform="matrix(.5334 -.8459 .8459 .5334 294.087 206.2004)"/><ellipse cx="276.3" cy="-72.2" rx=".7" ry="1.3" transform="matrix(.5334 -.8459 .8459 .5334 190.0008 200.0159)"/><ellipse cx="247.5" cy="-26.5" rx=".7" ry="1.3" transform="matrix(.5334 -.8459 .8459 .5334 137.9129 196.9921)"/><ellipse cx="189.9" cy="64.8" rx=".7" ry="1.3" transform="matrix(.5334 -.8459 .8459 .5334 33.7744 190.8807)"/><ellipse cx="161.1" cy="110.5" rx=".7" ry="1.3" transform="matrix(.5334 -.8459 .8459 .5334 -18.3136 187.8568)"/><ellipse cx="103.5" cy="201.9" rx=".7" ry="1.3" transform="matrix(.5334 -.8459 .8459 .5334 -122.4897 181.8092)"/><ellipse cx="74.7" cy="247.6" rx=".7" ry="1.3" transform="matrix(.5334 -.8459 .8459 .5334 -174.5401 178.7216)"/><ellipse cx="17.2" cy="339" rx=".7" ry="1.3" transform="matrix(.5334 -.8459 .8459 .5334 -278.7162 172.674)"/><ellipse cx="-11.6" cy="384.7" rx=".7" ry="1.3" transform="matrix(.5334 -.8459 .8459 .5334 -330.8042 169.65)"/><ellipse cx="-69.3" cy="475.8" rx=".7" ry="1.3" transform="matrix(.5334 -.8459 .8459 .5334 -434.8527 163.4019)"/><ellipse cx="-98.1" cy="521.5" rx=".7" ry="1.3" transform="matrix(.5334 -.8459 .8459 .5334 -486.9407 160.378)"/><ellipse cx="-155.7" cy="612.9" rx=".7" ry="1.3" transform="matrix(.5334 -.8459 .8459 .5334 -591.1168 154.3304)"/><ellipse cx="-184.5" cy="658.6" rx=".7" ry="1.3" transform="matrix(.5334 -.8459 .8459 .5334 -643.1671 151.2428)"/><ellipse cx="-242.1" cy="750" rx=".7" ry="1.3" transform="matrix(.5334 -.8459 .8459 .5334 -747.3433 145.1952)"/><ellipse cx="-270.9" cy="795.7" rx=".7" ry="1.3" transform="matrix(.5334 -.8459 .8459 .5334 -799.4312 142.1713)"/><ellipse cx="-328.4" cy="886.9" rx=".7" ry="1.3" transform="matrix(.5334 -.8459 .8459 .5334 -903.4731 136.0655)"/><ellipse cx="-357.2" cy="932.6" rx=".7" ry="1.3" transform="matrix(.5334 -.8459 .8459 .5334 -955.5612 133.0417)"/><ellipse cx="-414.9" cy="1024" rx=".7" ry="1.3" transform="matrix(.5334 -.8459 .8459 .5334 -1059.7438 126.8517)"/><ellipse cx="-443.7" cy="1069.7" rx=".7" ry="1.3" transform="matrix(.5334 -.8459 .8459 .5334 -1111.832 123.8278)"/><ellipse cx="-501.3" cy="1161" rx=".7" ry="1.3" transform="matrix(.5334 -.8459 .8459 .5334 -1215.9703 117.7163)"/><ellipse cx="-530.1" cy="1206.7" rx=".7" ry="1.3" transform="matrix(.5334 -.8459 .8459 .5334 -1268.0583 114.6926)"/><ellipse cx="711.4" cy="-595.7" rx=".7" ry="1.3" transform="matrix(.5334 -.8459 .8459 .5334 835.8531 323.7847)"/><ellipse cx="653.8" cy="-504.3" rx=".7" ry="1.3" transform="matrix(.5334 -.8459 .8459 .5334 731.677 317.7371)"/><ellipse cx="625" cy="-458.7" rx=".7" ry="1.3" transform="matrix(.5334 -.8459 .8459 .5334 679.6265 314.6494)"/><ellipse cx="567.4" cy="-367.3" rx=".7" ry="1.3" transform="matrix(.5334 -.8459 .8459 .5334 575.4506 308.6018)"/><ellipse cx="538.6" cy="-321.6" rx=".7" ry="1.3" transform="matrix(.5334 -.8459 .8459 .5334 523.3681 305.4815)"/><ellipse cx="481" cy="-230.4" rx=".7" ry="1.3" transform="matrix(.5334 -.8459 .8459 .5334 419.314 299.3298)"/><ellipse cx="452.2" cy="-184.7" rx=".7" ry="1.3" transform="matrix(.5334 -.8459 .8459 .5334 367.226 296.306)"/><ellipse cx="394.6" cy="-93.3" rx=".7" ry="1.3" transform="matrix(.5334 -.8459 .8459 .5334 263.0498 290.2584)"/><ellipse cx="365.8" cy="-47.6" rx=".7" ry="1.3" transform="matrix(.5334 -.8459 .8459 .5334 210.9619 287.2345)"/><ellipse cx="308.2" cy="43.7" rx=".7" ry="1.3" transform="matrix(.5334 -.8459 .8459 .5334 106.8234 281.123)"/><ellipse cx="279.4" cy="89.4" rx=".7" ry="1.3" transform="matrix(.5334 -.8459 .8459 .5334 54.7355 278.0992)"/><ellipse cx="221.8" cy="180.8" rx=".7" ry="1.3" transform="matrix(.5334 -.8459 .8459 .5334 -49.403 271.9878)"/><ellipse cx="193" cy="226.5" rx=".7" ry="1.3" transform="matrix(.5334 -.8459 .8459 .5334 -101.491 268.9639)"/><ellipse cx="135.4" cy="317.7" rx=".7" ry="1.3" transform="matrix(.5334 -.8459 .8459 .5334 -205.5772 262.7795)"/><ellipse cx="106.6" cy="363.4" rx=".7" ry="1.3" transform="matrix(.5334 -.8459 .8459 .5334 -257.6653 259.7558)"/><ellipse cx="49" cy="454.8" rx=".7" ry="1.3" transform="matrix(.5334 -.8459 .8459 .5334 -361.8037 253.6443)"/><ellipse cx="20.2" cy="500.5" rx=".7" ry="1.3" transform="matrix(.5334 -.8459 .8459 .5334 -413.8918 250.6204)"/><ellipse cx="-37.4" cy="591.9" rx=".7" ry="1.3" transform="matrix(.5334 -.8459 .8459 .5334 -518.0677 244.5727)"/><ellipse cx="-66.2" cy="637.5" rx=".7" ry="1.3" transform="matrix(.5334 -.8459 .8459 .5334 -570.1182 241.4853)"/><ellipse cx="-123.7" cy="728.9" rx=".7" ry="1.3" transform="matrix(.5334 -.8459 .8459 .5334 -674.2941 235.4375)"/><ellipse cx="-152.5" cy="774.5" rx=".7" ry="1.3" transform="matrix(.5334 -.8459 .8459 .5334 -726.2858 232.4193)"/><ellipse cx="-210.1" cy="865.8" rx=".7" ry="1.3" transform="matrix(.5334 -.8459 .8459 .5334 -830.4243 226.3079)"/><ellipse cx="-239" cy="911.5" rx=".7" ry="1.3" transform="matrix(.5334 -.8459 .8459 .5334 -882.5189 223.1417)"/><ellipse cx="-296.6" cy="1002.9" rx=".7" ry="1.3" transform="matrix(.5334 -.8459 .8459 .5334 -986.6949 217.094)"/><ellipse cx="-325.4" cy="1048.5" rx=".7" ry="1.3" transform="matrix(.5334 -.8459 .8459 .5334 -1038.7452 214.0064)"/><ellipse cx="-383" cy="1139.9" rx=".7" ry="1.3" transform="matrix(.5334 -.8459 .8459 .5334 -1142.9211 207.9587)"/><ellipse cx="-411.8" cy="1185.6" rx=".7" ry="1.3" transform="matrix(.5334 -.8459 .8459 .5334 -1195.0093 204.9349)"/><ellipse cx="-469.3" cy="1276.9" rx=".7" ry="1.3" transform="matrix(.5334 -.8459 .8459 .5334 -1299.0511 198.829)"/><ellipse cx="772.1" cy="-525.5" rx=".7" ry="1.3" transform="matrix(.5334 -.8459 .8459 .5334 804.7637 407.9157)"/><ellipse cx="743.3" cy="-479.8" rx=".7" ry="1.3" transform="matrix(.5334 -.8459 .8459 .5334 752.6757 404.8919)"/><ellipse cx="685.7" cy="-388.5" rx=".7" ry="1.3" transform="matrix(.5334 -.8459 .8459 .5334 648.5894 398.7075)"/><ellipse cx="656.9" cy="-342.8" rx=".7" ry="1.3" transform="matrix(.5334 -.8459 .8459 .5334 596.5014 395.6837)"/><ellipse cx="599.3" cy="-251.5" rx=".7" ry="1.3" transform="matrix(.5334 -.8459 .8459 .5334 492.363 389.5722)"/><ellipse cx="570.5" cy="-205.8" rx=".7" ry="1.3" transform="matrix(.5334 -.8459 .8459 .5334 440.2749 386.5483)"/><ellipse cx="512.9" cy="-114.4" rx=".7" ry="1.3" transform="matrix(.5334 -.8459 .8459 .5334 336.0989 380.5008)"/><ellipse cx="484.1" cy="-68.8" rx=".7" ry="1.3" transform="matrix(.5334 -.8459 .8459 .5334 284.0486 377.4131)"/><ellipse cx="426.5" cy="22.6" rx=".7" ry="1.3" transform="matrix(.5334 -.8459 .8459 .5334 179.8725 371.3654)"/><ellipse cx="397.8" cy="68.3" rx=".7" ry="1.3" transform="matrix(.5334 -.8459 .8459 .5334 127.7845 368.3416)"/><ellipse cx="340.2" cy="159.6" rx=".7" ry="1.3" transform="matrix(.5334 -.8459 .8459 .5334 23.7424 362.2357)"/><ellipse cx="311.3" cy="205.2" rx=".7" ry="1.3" transform="matrix(.5334 -.8459 .8459 .5334 -28.3522 359.0696)"/><ellipse cx="253.7" cy="296.6" rx=".7" ry="1.3" transform="matrix(.5334 -.8459 .8459 .5334 -132.5282 353.0219)"/><ellipse cx="224.9" cy="342.3" rx=".7" ry="1.3" transform="matrix(.5334 -.8459 .8459 .5334 -184.5786 349.9343)"/><ellipse cx="167.3" cy="433.7" rx=".7" ry="1.3" transform="matrix(.5334 -.8459 .8459 .5334 -288.7546 343.8867)"/><ellipse cx="138.5" cy="479.4" rx=".7" ry="1.3" transform="matrix(.5334 -.8459 .8459 .5334 -340.8427 340.8628)"/><ellipse cx="81" cy="570.6" rx=".7" ry="1.3" transform="matrix(.5334 -.8459 .8459 .5334 -444.8846 334.757)"/><ellipse cx="52.2" cy="616.3" rx=".7" ry="1.3" transform="matrix(.5334 -.8459 .8459 .5334 -496.9726 331.7333)"/><ellipse cx="-5.5" cy="707.7" rx=".7" ry="1.3" transform="matrix(.5334 -.8459 .8459 .5334 -601.1553 325.5432)"/><ellipse cx="-34.2" cy="753.4" rx=".7" ry="1.3" transform="matrix(.5334 -.8459 .8459 .5334 -653.1991 322.5979)"/><ellipse cx="-91.9" cy="844.7" rx=".7" ry="1.3" transform="matrix(.5334 -.8459 .8459 .5334 -757.3818 316.4079)"/><ellipse cx="-120.7" cy="890.4" rx=".7" ry="1.3" transform="matrix(.5334 -.8459 .8459 .5334 -809.4697 313.384)"/><ellipse cx="-178.3" cy="981.7" rx=".7" ry="1.3" transform="matrix(.5334 -.8459 .8459 .5334 -913.6082 307.2727)"/><ellipse cx="-207.1" cy="1027.4" rx=".7" ry="1.3" transform="matrix(.5334 -.8459 .8459 .5334 -965.6962 304.2487)"/><ellipse cx="-264.6" cy="1118.7" rx=".7" ry="1.3" transform="matrix(.5334 -.8459 .8459 .5334 -1069.7758 298.2068)"/><ellipse cx="-293.4" cy="1164.4" rx=".7" ry="1.3" transform="matrix(.5334 -.8459 .8459 .5334 -1121.8638 295.1829)"/><ellipse cx="-351" cy="1255.8" rx=".7" ry="1.3" transform="matrix(.5334 -.8459 .8459 .5334 -1226.0022 289.0715)"/><ellipse cx="-379.8" cy="1301.5" rx=".7" ry="1.3" transform="matrix(.5334 -.8459 .8459 .5334 -1278.0902 286.0477)"/><ellipse cx="861.6" cy="-501" rx=".7" ry="1.3" transform="matrix(.5334 -.8459 .8459 .5334 825.8146 494.9976)"/><ellipse cx="804" cy="-409.6" rx=".7" ry="1.3" transform="matrix(.5334 -.8459 .8459 .5334 721.6383 488.9498)"/><ellipse cx="775.2" cy="-364" rx=".7" ry="1.3" transform="matrix(.5334 -.8459 .8459 .5334 669.6339 485.8501)"/><ellipse cx="717.6" cy="-272.6" rx=".7" ry="1.3" transform="matrix(.5334 -.8459 .8459 .5334 565.412 479.8146)"/><ellipse cx="688.8" cy="-226.9" rx=".7" ry="1.3" transform="matrix(.5334 -.8459 .8459 .5334 513.324 476.7907)"/><ellipse cx="631.3" cy="-135.7" rx=".7" ry="1.3" transform="matrix(.5334 -.8459 .8459 .5334 409.3279 470.6728)"/><ellipse cx="602.4" cy="-89.8" rx=".7" ry="1.3" transform="matrix(.5334 -.8459 .8459 .5334 357.0976 467.6556)"/><ellipse cx="544.8" cy="1.4" rx=".7" ry="1.3" transform="matrix(.5334 -.8459 .8459 .5334 253.0114 461.4712)"/><ellipse cx="516" cy="47.1" rx=".7" ry="1.3" transform="matrix(.5334 -.8459 .8459 .5334 200.9233 458.4473)"/><ellipse cx="458.4" cy="138.4" rx=".7" ry="1.3" transform="matrix(.5334 -.8459 .8459 .5334 96.7849 452.3358)"/><ellipse cx="429.6" cy="184.1" rx=".7" ry="1.3" transform="matrix(.5334 -.8459 .8459 .5334 44.6969 449.312)"/><ellipse cx="372.1" cy="275.4" rx=".7" ry="1.3" transform="matrix(.5334 -.8459 .8459 .5334 -59.3048 443.2904)"/><ellipse cx="343.2" cy="321.2" rx=".7" ry="1.3" transform="matrix(.5334 -.8459 .8459 .5334 -111.5295 440.1768)"/><ellipse cx="285.6" cy="412.6" rx=".7" ry="1.3" transform="matrix(.5334 -.8459 .8459 .5334 -215.7055 434.129)"/><ellipse cx="256.9" cy="458.3" rx=".7" ry="1.3" transform="matrix(.5334 -.8459 .8459 .5334 -267.7937 431.1052)"/><ellipse cx="199.3" cy="549.5" rx=".7" ry="1.3" transform="matrix(.5334 -.8459 .8459 .5334 -371.8356 424.9994)"/><ellipse cx="170.4" cy="595.2" rx=".7" ry="1.3" transform="matrix(.5334 -.8459 .8459 .5334 -423.9303 421.8333)"/><ellipse cx="112.8" cy="686.6" rx=".7" ry="1.3" transform="matrix(.5334 -.8459 .8459 .5334 -528.1063 415.7857)"/><ellipse cx="84.1" cy="732.3" rx=".7" ry="1.3" transform="matrix(.5334 -.8459 .8459 .5334 -580.1623 412.7943)"/><ellipse cx="26.4" cy="823.6" rx=".7" ry="1.3" transform="matrix(.5334 -.8459 .8459 .5334 -684.3326 406.6502)"/><ellipse cx="-2.4" cy="869.3" rx=".7" ry="1.3" transform="matrix(.5334 -.8459 .8459 .5334 -736.4207 403.6265)"/><ellipse cx="-59.9" cy="960.5" rx=".7" ry="1.3" transform="matrix(.5334 -.8459 .8459 .5334 -840.4627 397.5207)"/><ellipse cx="-88.7" cy="1006.2" rx=".7" ry="1.3" transform="matrix(.5334 -.8459 .8459 .5334 -892.5508 394.4969)"/><ellipse cx="-146.3" cy="1097.6" rx=".7" ry="1.3" transform="matrix(.5334 -.8459 .8459 .5334 -996.7269 388.4492)"/><ellipse cx="-175" cy="1143.1" rx=".7" ry="1.3" transform="matrix(.5334 -.8459 .8459 .5334 -1048.6348 385.3551)"/><ellipse cx="-232.7" cy="1234.7" rx=".7" ry="1.3" transform="matrix(.5334 -.8459 .8459 .5334 -1152.9655 379.2681)"/><ellipse cx="-261.6" cy="1280.3" rx=".7" ry="1.3" transform="matrix(.5334 -.8459 .8459 .5334 -1205.0477 376.1477)"/><ellipse cx="-319" cy="1371.6" rx=".7" ry="1.3" transform="matrix(.5334 -.8459 .8459 .5334 -1309.0496 370.1262)"/><ellipse cx="922.3" cy="-430.9" rx=".7" ry="1.3" transform="matrix(.5334 -.8459 .8459 .5334 794.8675 579.1219)"/><ellipse cx="893.6" cy="-385.2" rx=".7" ry="1.3" transform="matrix(.5334 -.8459 .8459 .5334 742.7795 576.0981)"/><ellipse cx="835.9" cy="-293.7" rx=".7" ry="1.3" transform="matrix(.5334 -.8459 .8459 .5334 638.4611 570.0569)"/><ellipse cx="807.1" cy="-248" rx=".7" ry="1.3" transform="matrix(.5334 -.8459 .8459 .5334 586.3731 567.0332)"/><ellipse cx="749.6" cy="-156.8" rx=".7" ry="1.3" transform="matrix(.5334 -.8459 .8459 .5334 482.377 560.9152)"/><ellipse cx="720.7" cy="-111.1" rx=".7" ry="1.3" transform="matrix(.5334 -.8459 .8459 .5334 430.2364 557.7612)"/><ellipse cx="663.1" cy="-19.7" rx=".7" ry="1.3" transform="matrix(.5334 -.8459 .8459 .5334 326.0605 551.7134)"/><ellipse cx="634.4" cy="25.9" rx=".7" ry="1.3" transform="matrix(.5334 -.8459 .8459 .5334 274.1467 548.7158)"/><ellipse cx="576.7" cy="117.4" rx=".7" ry="1.3" transform="matrix(.5334 -.8459 .8459 .5334 169.834 542.5783)"/><ellipse cx="547.9" cy="163.1" rx=".7" ry="1.3" transform="matrix(.5334 -.8459 .8459 .5334 117.7459 539.5544)"/><ellipse cx="490.4" cy="254.3" rx=".7" ry="1.3" transform="matrix(.5334 -.8459 .8459 .5334 13.7498 533.4364)"/><ellipse cx="461.6" cy="300" rx=".7" ry="1.3" transform="matrix(.5334 -.8459 .8459 .5334 -38.3382 530.4125)"/><ellipse cx="404" cy="391.4" rx=".7" ry="1.3" transform="matrix(.5334 -.8459 .8459 .5334 -142.5601 524.3771)"/><ellipse cx="375.2" cy="437" rx=".7" ry="1.3" transform="matrix(.5334 -.8459 .8459 .5334 -194.5646 521.2773)"/><ellipse cx="317.5" cy="528.4" rx=".7" ry="1.3" transform="matrix(.5334 -.8459 .8459 .5334 -298.7931 515.0995)"/><ellipse cx="288.7" cy="574.1" rx=".7" ry="1.3" transform="matrix(.5334 -.8459 .8459 .5334 -350.8812 512.0757)"/><ellipse cx="231.2" cy="665.3" rx=".7" ry="1.3" transform="matrix(.5334 -.8459 .8459 .5334 -454.8828 506.0541)"/><ellipse cx="202.5" cy="711" rx=".7" ry="1.3" transform="matrix(.5334 -.8459 .8459 .5334 -506.9709 503.0302)"/><ellipse cx="144.8" cy="802.4" rx=".7" ry="1.3" transform="matrix(.5334 -.8459 .8459 .5334 -611.1873 496.8984)"/><ellipse cx="116.1" cy="848.1" rx=".7" ry="1.3" transform="matrix(.5334 -.8459 .8459 .5334 -663.1974 493.895)"/><ellipse cx="58.4" cy="939.4" rx=".7" ry="1.3" transform="matrix(.5334 -.8459 .8459 .5334 -767.3678 487.7508)"/><ellipse cx="29.6" cy="985.2" rx=".7" ry="1.3" transform="matrix(.5334 -.8459 .8459 .5334 -819.5016 484.7393)"/><ellipse cx="-27.8" cy="1076.4" rx=".7" ry="1.3" transform="matrix(.5334 -.8459 .8459 .5334 -923.5034 478.7176)"/><ellipse cx="-56.8" cy="1122" rx=".7" ry="1.3" transform="matrix(.5334 -.8459 .8459 .5334 -975.5981 475.5515)"/><ellipse cx="-114.5" cy="1213.5" rx=".7" ry="1.3" transform="matrix(.5334 -.8459 .8459 .5334 -1079.9108 469.4138)"/><ellipse cx="-143.2" cy="1259.1" rx=".7" ry="1.3" transform="matrix(.5334 -.8459 .8459 .5334 -1131.9025 466.3957)"/><ellipse cx="-200.7" cy="1350.5" rx=".7" ry="1.3" transform="matrix(.5334 -.8459 .8459 .5334 -1236.0005 460.3685)"/><ellipse cx="-229.6" cy="1396.2" rx=".7" ry="1.3" transform="matrix(.5334 -.8459 .8459 .5334 -1288.1288 457.2605)"/><ellipse cx="1011.9" cy="-406.3" rx=".7" ry="1.3" transform="matrix(.5334 -.8459 .8459 .5334 815.8284 666.3405)"/><ellipse cx="954.2" cy="-314.8" rx=".7" ry="1.3" transform="matrix(.5334 -.8459 .8459 .5334 711.51 660.2994)"/><ellipse cx="925.5" cy="-269.3" rx=".7" ry="1.3" transform="matrix(.5334 -.8459 .8459 .5334 659.6021 657.2052)"/><ellipse cx="867.9" cy="-177.9" rx=".7" ry="1.3" transform="matrix(.5334 -.8459 .8459 .5334 555.4139 651.1116)"/><ellipse cx="839.1" cy="-132.3" rx=".7" ry="1.3" transform="matrix(.5334 -.8459 .8459 .5334 503.4278 647.997)"/><ellipse cx="781.5" cy="-40.9" rx=".7" ry="1.3" transform="matrix(.5334 -.8459 .8459 .5334 399.2836 641.9819)"/><ellipse cx="752.7" cy="4.8" rx=".7" ry="1.3" transform="matrix(.5334 -.8459 .8459 .5334 347.1958 638.9583)"/><ellipse cx="695.1" cy="96.1" rx=".7" ry="1.3" transform="matrix(.5334 -.8459 .8459 .5334 243.0254 632.8141)"/><ellipse cx="666.2" cy="142" rx=".7" ry="1.3" transform="matrix(.5334 -.8459 .8459 .5334 190.7949 629.7968)"/><ellipse cx="608.7" cy="233.2" rx=".7" ry="1.3" transform="matrix(.5334 -.8459 .8459 .5334 86.7988 623.6788)"/><ellipse cx="579.9" cy="278.9" rx=".7" ry="1.3" transform="matrix(.5334 -.8459 .8459 .5334 34.7109 620.6549)"/><ellipse cx="522.3" cy="370.1" rx=".7" ry="1.3" transform="matrix(.5334 -.8459 .8459 .5334 -69.3433 614.5033)"/><ellipse cx="493.5" cy="415.8" rx=".7" ry="1.3" transform="matrix(.5334 -.8459 .8459 .5334 -121.4314 611.4794)"/><ellipse cx="436" cy="507.2" rx=".7" ry="1.3" transform="matrix(.5334 -.8459 .8459 .5334 -225.6075 605.4316)"/><ellipse cx="407" cy="553" rx=".7" ry="1.3" transform="matrix(.5334 -.8459 .8459 .5334 -277.8321 602.3182)"/><ellipse cx="349.6" cy="644.2" rx=".7" ry="1.3" transform="matrix(.5334 -.8459 .8459 .5334 -381.8338 596.2965)"/><ellipse cx="320.7" cy="689.9" rx=".7" ry="1.3" transform="matrix(.5334 -.8459 .8459 .5334 -433.9162 593.1761)"/><ellipse cx="263.1" cy="781.3" rx=".7" ry="1.3" transform="matrix(.5334 -.8459 .8459 .5334 -538.1381 587.1407)"/><ellipse cx="234.4" cy="827" rx=".7" ry="1.3" transform="matrix(.5334 -.8459 .8459 .5334 -590.1484 584.1375)"/><ellipse cx="176.7" cy="918.2" rx=".7" ry="1.3" transform="matrix(.5334 -.8459 .8459 .5334 -694.2344 577.953)"/><ellipse cx="147.8" cy="964" rx=".7" ry="1.3" transform="matrix(.5334 -.8459 .8459 .5334 -746.4592 574.8394)"/><ellipse cx="90.3" cy="1055.3" rx=".7" ry="1.3" transform="matrix(.5334 -.8459 .8459 .5334 -850.461 568.8178)"/><ellipse cx="61.6" cy="1101" rx=".7" ry="1.3" transform="matrix(.5334 -.8459 .8459 .5334 -902.549 565.7938)"/><ellipse cx="3.9" cy="1192.4" rx=".7" ry="1.3" transform="matrix(.5334 -.8459 .8459 .5334 -1006.7652 559.6619)"/><ellipse cx="-24.8" cy="1238" rx=".7" ry="1.3" transform="matrix(.5334 -.8459 .8459 .5334 -1058.7754 556.6586)"/><ellipse cx="-82.4" cy="1329.3" rx=".7" ry="1.3" transform="matrix(.5334 -.8459 .8459 .5334 -1162.855 550.6165)"/><ellipse cx="-111.2" cy="1375" rx=".7" ry="1.3" transform="matrix(.5334 -.8459 .8459 .5334 -1214.9374 547.4961)"/><ellipse cx="-168.7" cy="1466.3" rx=".7" ry="1.3" transform="matrix(.5334 -.8459 .8459 .5334 -1319.0814 541.4812)"/><ellipse cx="1072.5" cy="-336.1" rx=".7" ry="1.3" transform="matrix(.5334 -.8459 .8459 .5334 784.7269 750.4255)"/><ellipse cx="1043.8" cy="-290.4" rx=".7" ry="1.3" transform="matrix(.5334 -.8459 .8459 .5334 732.7353 747.4074)"/><ellipse cx="986.2" cy="-199.1" rx=".7" ry="1.3" transform="matrix(.5334 -.8459 .8459 .5334 628.5649 741.2632)"/><ellipse cx="957.4" cy="-153.4" rx=".7" ry="1.3" transform="matrix(.5334 -.8459 .8459 .5334 576.4768 738.2393)"/><ellipse cx="899.8" cy="-62" rx=".7" ry="1.3" transform="matrix(.5334 -.8459 .8459 .5334 472.3328 732.2245)"/><ellipse cx="871" cy="-16.4" rx=".7" ry="1.3" transform="matrix(.5334 -.8459 .8459 .5334 420.2504 729.1041)"/><ellipse cx="813.4" cy="75" rx=".7" ry="1.3" transform="matrix(.5334 -.8459 .8459 .5334 316.0744 723.0564)"/><ellipse cx="784.7" cy="120.7" rx=".7" ry="1.3" transform="matrix(.5334 -.8459 .8459 .5334 264.0184 720.0654)"/><ellipse cx="727" cy="212" rx=".7" ry="1.3" transform="matrix(.5334 -.8459 .8459 .5334 159.9322 713.8809)"/><ellipse cx="698.2" cy="257.7" rx=".7" ry="1.3" transform="matrix(.5334 -.8459 .8459 .5334 107.8441 710.8572)"/><ellipse cx="640.6" cy="349" rx=".7" ry="1.3" transform="matrix(.5334 -.8459 .8459 .5334 3.7059 704.7457)"/><ellipse cx="611.8" cy="394.7" rx=".7" ry="1.3" transform="matrix(.5334 -.8459 .8459 .5334 -48.3823 701.7218)"/><ellipse cx="554.2" cy="486.1" rx=".7" ry="1.3" transform="matrix(.5334 -.8459 .8459 .5334 -152.5527 695.5776)"/><ellipse cx="525.4" cy="531.7" rx=".7" ry="1.3" transform="matrix(.5334 -.8459 .8459 .5334 -204.6088 692.5866)"/><ellipse cx="467.9" cy="623.1" rx=".7" ry="1.3" transform="matrix(.5334 -.8459 .8459 .5334 -308.7848 686.5389)"/><ellipse cx="439" cy="668.8" rx=".7" ry="1.3" transform="matrix(.5334 -.8459 .8459 .5334 -360.8672 683.4186)"/><ellipse cx="381.5" cy="760.1" rx=".7" ry="1.3" transform="matrix(.5334 -.8459 .8459 .5334 -464.915 677.4093)"/><ellipse cx="352.6" cy="805.7" rx=".7" ry="1.3" transform="matrix(.5334 -.8459 .8459 .5334 -517.0093 674.2431)"/><ellipse cx="295.1" cy="897.1" rx=".7" ry="1.3" transform="matrix(.5334 -.8459 .8459 .5334 -621.1855 668.1954)"/><ellipse cx="266.2" cy="942.8" rx=".7" ry="1.3" transform="matrix(.5334 -.8459 .8459 .5334 -673.2358 665.1078)"/><ellipse cx="208.7" cy="1034.2" rx=".7" ry="1.3" transform="matrix(.5334 -.8459 .8459 .5334 -777.4119 659.0601)"/><ellipse cx="179.9" cy="1079.9" rx=".7" ry="1.3" transform="matrix(.5334 -.8459 .8459 .5334 -829.5001 656.0363)"/><ellipse cx="122.3" cy="1171.1" rx=".7" ry="1.3" transform="matrix(.5334 -.8459 .8459 .5334 -933.542 649.9305)"/><ellipse cx="93.5" cy="1216.8" rx=".7" ry="1.3" transform="matrix(.5334 -.8459 .8459 .5334 -985.6299 646.9065)"/><ellipse cx="35.9" cy="1308.2" rx=".7" ry="1.3" transform="matrix(.5334 -.8459 .8459 .5334 -1089.8003 640.7625)"/><ellipse cx="7" cy="1353.9" rx=".7" ry="1.3" transform="matrix(.5334 -.8459 .8459 .5334 -1141.9006 637.6929)"/><ellipse cx="-50.6" cy="1445.2" rx=".7" ry="1.3" transform="matrix(.5334 -.8459 .8459 .5334 -1246.0391 631.5815)"/><ellipse cx="-79.3" cy="1490.9" rx=".7" ry="1.3" transform="matrix(.5334 -.8459 .8459 .5334 -1298.1271 628.5575)"/><ellipse cx="1162.1" cy="-311.5" rx=".7" ry="1.3" transform="matrix(.5334 -.8459 .8459 .5334 805.7844 837.6498)"/><ellipse cx="1104.5" cy="-220.2" rx=".7" ry="1.3" transform="matrix(.5334 -.8459 .8459 .5334 701.6138 831.5054)"/><ellipse cx="1075.7" cy="-174.5" rx=".7" ry="1.3" transform="matrix(.5334 -.8459 .8459 .5334 649.5579 828.5145)"/><ellipse cx="1018.1" cy="-83.1" rx=".7" ry="1.3" transform="matrix(.5334 -.8459 .8459 .5334 545.3874 822.3703)"/><ellipse cx="989.3" cy="-37.4" rx=".7" ry="1.3" transform="matrix(.5334 -.8459 .8459 .5334 493.2994 819.3466)"/><ellipse cx="931.8" cy="53.9" rx=".7" ry="1.3" transform="matrix(.5334 -.8459 .8459 .5334 389.1554 813.3315)"/><ellipse cx="902.9" cy="99.5" rx=".7" ry="1.3" transform="matrix(.5334 -.8459 .8459 .5334 337.1572 810.1709)"/><ellipse cx="845.3" cy="190.9" rx=".7" ry="1.3" transform="matrix(.5334 -.8459 .8459 .5334 232.9811 804.1234)"/><ellipse cx="816.5" cy="236.5" rx=".7" ry="1.3" transform="matrix(.5334 -.8459 .8459 .5334 180.8986 801.0031)"/><ellipse cx="758.9" cy="327.9" rx=".7" ry="1.3" transform="matrix(.5334 -.8459 .8459 .5334 76.7547 794.9881)"/><ellipse cx="730.2" cy="373.6" rx=".7" ry="1.3" transform="matrix(.5334 -.8459 .8459 .5334 24.6667 791.9641)"/><ellipse cx="672.6" cy="465" rx=".7" ry="1.3" transform="matrix(.5334 -.8459 .8459 .5334 -79.4716 785.8528)"/><ellipse cx="643.8" cy="510.7" rx=".7" ry="1.3" transform="matrix(.5334 -.8459 .8459 .5334 -131.5599 782.8289)"/><ellipse cx="586.2" cy="601.9" rx=".7" ry="1.3" transform="matrix(.5334 -.8459 .8459 .5334 -235.6336 776.6904)"/><ellipse cx="557.3" cy="647.6" rx=".7" ry="1.3" transform="matrix(.5334 -.8459 .8459 .5334 -287.7339 773.6208)"/><ellipse cx="499.7" cy="738.9" rx=".7" ry="1.3" transform="matrix(.5334 -.8459 .8459 .5334 -391.8725 767.5093)"/><ellipse cx="470.9" cy="784.6" rx=".7" ry="1.3" transform="matrix(.5334 -.8459 .8459 .5334 -443.9603 764.4854)"/><ellipse cx="413.4" cy="876" rx=".7" ry="1.3" transform="matrix(.5334 -.8459 .8459 .5334 -548.1366 758.4377)"/><ellipse cx="384.5" cy="921.7" rx=".7" ry="1.3" transform="matrix(.5334 -.8459 .8459 .5334 -600.1868 755.3503)"/><ellipse cx="327" cy="1013.1" rx=".7" ry="1.3" transform="matrix(.5334 -.8459 .8459 .5334 -704.3629 749.3024)"/><ellipse cx="298.2" cy="1058.7" rx=".7" ry="1.3" transform="matrix(.5334 -.8459 .8459 .5334 -756.3545 746.2843)"/><ellipse cx="240.6" cy="1150" rx=".7" ry="1.3" transform="matrix(.5334 -.8459 .8459 .5334 -860.493 740.173)"/><ellipse cx="211.9" cy="1195.7" rx=".7" ry="1.3" transform="matrix(.5334 -.8459 .8459 .5334 -912.5809 737.149)"/><ellipse cx="154.2" cy="1287.1" rx=".7" ry="1.3" transform="matrix(.5334 -.8459 .8459 .5334 -1016.7636 730.9591)"/><ellipse cx="125.3" cy="1332.7" rx=".7" ry="1.3" transform="matrix(.5334 -.8459 .8459 .5334 -1068.8141 727.8715)"/><ellipse cx="67.8" cy="1424.1" rx=".7" ry="1.3" transform="matrix(.5334 -.8459 .8459 .5334 -1172.99 721.8238)"/><ellipse cx="39" cy="1469.8" rx=".7" ry="1.3" transform="matrix(.5334 -.8459 .8459 .5334 -1225.078 718.7998)"/><ellipse cx="-18.6" cy="1561" rx=".7" ry="1.3" transform="matrix(.5334 -.8459 .8459 .5334 -1329.12 712.6942)"/><ellipse cx="1222.8" cy="-241.3" rx=".7" ry="1.3" transform="matrix(.5334 -.8459 .8459 .5334 774.6951 921.7807)"/><ellipse cx="1194.1" cy="-195.6" rx=".7" ry="1.3" transform="matrix(.5334 -.8459 .8459 .5334 722.6069 918.7568)"/><ellipse cx="1136.4" cy="-104.2" rx=".7" ry="1.3" transform="matrix(.5334 -.8459 .8459 .5334 618.4365 912.6127)"/><ellipse cx="1107.6" cy="-58.6" rx=".7" ry="1.3" transform="matrix(.5334 -.8459 .8459 .5334 566.4327 909.5486)"/><ellipse cx="1050" cy="32.7" rx=".7" ry="1.3" transform="matrix(.5334 -.8459 .8459 .5334 462.2942 903.4373)"/><ellipse cx="1021.2" cy="78.4" rx=".7" ry="1.3" transform="matrix(.5334 -.8459 .8459 .5334 410.2064 900.4135)"/><ellipse cx="963.7" cy="169.8" rx=".7" ry="1.3" transform="matrix(.5334 -.8459 .8459 .5334 306.0302 894.3657)"/><ellipse cx="934.8" cy="215.4" rx=".7" ry="1.3" transform="matrix(.5334 -.8459 .8459 .5334 253.9798 891.2781)"/><ellipse cx="877.3" cy="306.8" rx=".7" ry="1.3" transform="matrix(.5334 -.8459 .8459 .5334 149.8037 885.2303)"/><ellipse cx="848.5" cy="352.5" rx=".7" ry="1.3" transform="matrix(.5334 -.8459 .8459 .5334 97.7158 882.2065)"/><ellipse cx="790.9" cy="443.8" rx=".7" ry="1.3" transform="matrix(.5334 -.8459 .8459 .5334 -6.3263 876.1008)"/><ellipse cx="762.1" cy="489.5" rx=".7" ry="1.3" transform="matrix(.5334 -.8459 .8459 .5334 -58.4142 873.077)"/><ellipse cx="704.4" cy="580.8" rx=".7" ry="1.3" transform="matrix(.5334 -.8459 .8459 .5334 -162.5969 866.887)"/><ellipse cx="675.6" cy="626.5" rx=".7" ry="1.3" transform="matrix(.5334 -.8459 .8459 .5334 -214.6473 863.7994)"/><ellipse cx="618" cy="717.9" rx=".7" ry="1.3" transform="matrix(.5334 -.8459 .8459 .5334 -318.8233 857.7517)"/><ellipse cx="589.3" cy="763.6" rx=".7" ry="1.3" transform="matrix(.5334 -.8459 .8459 .5334 -370.9114 854.7277)"/><ellipse cx="531.7" cy="854.8" rx=".7" ry="1.3" transform="matrix(.5334 -.8459 .8459 .5334 -474.9533 848.6221)"/><ellipse cx="502.9" cy="900.5" rx=".7" ry="1.3" transform="matrix(.5334 -.8459 .8459 .5334 -527.0413 845.5981)"/><ellipse cx="445.4" cy="991.9" rx=".7" ry="1.3" transform="matrix(.5334 -.8459 .8459 .5334 -631.2175 839.5505)"/><ellipse cx="416.5" cy="1037.5" rx=".7" ry="1.3" transform="matrix(.5334 -.8459 .8459 .5334 -683.2678 836.463)"/><ellipse cx="358.8" cy="1128.9" rx=".7" ry="1.3" transform="matrix(.5334 -.8459 .8459 .5334 -787.4505 830.2729)"/><ellipse cx="330" cy="1174.6" rx=".7" ry="1.3" transform="matrix(.5334 -.8459 .8459 .5334 -839.5386 827.2492)"/><ellipse cx="272.4" cy="1265.9" rx=".7" ry="1.3" transform="matrix(.5334 -.8459 .8459 .5334 -943.6769 821.1376)"/><ellipse cx="243.7" cy="1311.5" rx=".7" ry="1.3" transform="matrix(.5334 -.8459 .8459 .5334 -995.6685 818.1195)"/><ellipse cx="186.1" cy="1402.9" rx=".7" ry="1.3" transform="matrix(.5334 -.8459 .8459 .5334 -1099.8445 812.0717)"/><ellipse cx="157.3" cy="1448.6" rx=".7" ry="1.3" transform="matrix(.5334 -.8459 .8459 .5334 -1151.9326 809.0481)"/><ellipse cx="99.7" cy="1540" rx=".7" ry="1.3" transform="matrix(.5334 -.8459 .8459 .5334 -1256.071 802.9365)"/><ellipse cx="71" cy="1585.7" rx=".7" ry="1.3" transform="matrix(.5334 -.8459 .8459 .5334 -1308.1591 799.9128)"/><ellipse cx="1312.4" cy="-216.7" rx=".7" ry="1.3" transform="matrix(.5334 -.8459 .8459 .5334 795.6559 1008.9993)"/><ellipse cx="1254.7" cy="-125.4" rx=".7" ry="1.3" transform="matrix(.5334 -.8459 .8459 .5334 691.5698 1002.8149)"/><ellipse cx="1225.9" cy="-79.8" rx=".7" ry="1.3" transform="matrix(.5334 -.8459 .8459 .5334 639.5653 999.715)"/><ellipse cx="1168.3" cy="11.6" rx=".7" ry="1.3" transform="matrix(.5334 -.8459 .8459 .5334 535.3433 993.6797)"/><ellipse cx="1139.5" cy="57.3" rx=".7" ry="1.3" transform="matrix(.5334 -.8459 .8459 .5334 483.2552 990.6558)"/><ellipse cx="1081.9" cy="148.6" rx=".7" ry="1.3" transform="matrix(.5334 -.8459 .8459 .5334 379.1168 984.5444)"/><ellipse cx="1053.2" cy="194.3" rx=".7" ry="1.3" transform="matrix(.5334 -.8459 .8459 .5334 327.0288 981.5204)"/><ellipse cx="995.6" cy="285.7" rx=".7" ry="1.3" transform="matrix(.5334 -.8459 .8459 .5334 222.9492 975.4784)"/><ellipse cx="966.7" cy="331.3" rx=".7" ry="1.3" transform="matrix(.5334 -.8459 .8459 .5334 170.8545 972.3123)"/><ellipse cx="909.1" cy="422.6" rx=".7" ry="1.3" transform="matrix(.5334 -.8459 .8459 .5334 66.7163 966.2009)"/><ellipse cx="880.3" cy="468.3" rx=".7" ry="1.3" transform="matrix(.5334 -.8459 .8459 .5334 14.6283 963.1771)"/><ellipse cx="822.8" cy="559.5" rx=".7" ry="1.3" transform="matrix(.5334 -.8459 .8459 .5334 -89.3679 957.059)"/><ellipse cx="793.9" cy="605.4" rx=".7" ry="1.3" transform="matrix(.5334 -.8459 .8459 .5334 -141.5982 954.0417)"/><ellipse cx="736.4" cy="696.8" rx=".7" ry="1.3" transform="matrix(.5334 -.8459 .8459 .5334 -245.7743 947.9941)"/><ellipse cx="707.6" cy="742.4" rx=".7" ry="1.3" transform="matrix(.5334 -.8459 .8459 .5334 -297.7659 944.9759)"/><ellipse cx="650" cy="833.7" rx=".7" ry="1.3" transform="matrix(.5334 -.8459 .8459 .5334 -401.9043 938.8644)"/><ellipse cx="621.2" cy="879.4" rx=".7" ry="1.3" transform="matrix(.5334 -.8459 .8459 .5334 -453.9923 935.8406)"/><ellipse cx="563.5" cy="970.7" rx=".7" ry="1.3" transform="matrix(.5334 -.8459 .8459 .5334 -558.175 929.6505)"/><ellipse cx="534.7" cy="1016.4" rx=".7" ry="1.3" transform="matrix(.5334 -.8459 .8459 .5334 -610.2253 926.563)"/><ellipse cx="477.1" cy="1107.8" rx=".7" ry="1.3" transform="matrix(.5334 -.8459 .8459 .5334 -714.4014 920.5153)"/><ellipse cx="448.4" cy="1153.5" rx=".7" ry="1.3" transform="matrix(.5334 -.8459 .8459 .5334 -766.4894 917.4914)"/><ellipse cx="390.8" cy="1244.7" rx=".7" ry="1.3" transform="matrix(.5334 -.8459 .8459 .5334 -870.5314 911.3858)"/><ellipse cx="362" cy="1290.4" rx=".7" ry="1.3" transform="matrix(.5334 -.8459 .8459 .5334 -922.6193 908.3617)"/><ellipse cx="304.5" cy="1381.8" rx=".7" ry="1.3" transform="matrix(.5334 -.8459 .8459 .5334 -1026.7955 902.3142)"/><ellipse cx="275.7" cy="1427.3" rx=".7" ry="1.3" transform="matrix(.5334 -.8459 .8459 .5334 -1078.7036 899.22)"/><ellipse cx="217.9" cy="1518.8" rx=".7" ry="1.3" transform="matrix(.5334 -.8459 .8459 .5334 -1183.0284 893.0366)"/><ellipse cx="189.1" cy="1564.5" rx=".7" ry="1.3" transform="matrix(.5334 -.8459 .8459 .5334 -1235.1165 890.0126)"/><ellipse cx="131.6" cy="1655.8" rx=".7" ry="1.3" transform="matrix(.5334 -.8459 .8459 .5334 -1339.1584 883.9069)"/><ellipse cx="1373.1" cy="-146.7" rx=".7" ry="1.3" transform="matrix(.5334 -.8459 .8459 .5334 764.7986 1092.9869)"/><ellipse cx="1344.3" cy="-101" rx=".7" ry="1.3" transform="matrix(.5334 -.8459 .8459 .5334 712.7107 1089.9631)"/><ellipse cx="1286.7" cy="-9.5" rx=".7" ry="1.3" transform="matrix(.5334 -.8459 .8459 .5334 608.3923 1083.922)"/><ellipse cx="1257.9" cy="36.2" rx=".7" ry="1.3" transform="matrix(.5334 -.8459 .8459 .5334 556.3042 1080.8982)"/><ellipse cx="1200.3" cy="127.4" rx=".7" ry="1.3" transform="matrix(.5334 -.8459 .8459 .5334 452.3083 1074.7802)"/><ellipse cx="1171.5" cy="173.2" rx=".7" ry="1.3" transform="matrix(.5334 -.8459 .8459 .5334 400.1743 1071.7684)"/><ellipse cx="1113.8" cy="264.5" rx=".7" ry="1.3" transform="matrix(.5334 -.8459 .8459 .5334 295.9918 1065.5785)"/><ellipse cx="1085.1" cy="310" rx=".7" ry="1.3" transform="matrix(.5334 -.8459 .8459 .5334 244.0835 1062.4844)"/><ellipse cx="1027.4" cy="401.5" rx=".7" ry="1.3" transform="matrix(.5334 -.8459 .8459 .5334 139.7653 1056.4431)"/><ellipse cx="998.6" cy="447.2" rx=".7" ry="1.3" transform="matrix(.5334 -.8459 .8459 .5334 87.6772 1053.4194)"/><ellipse cx="941.1" cy="538.4" rx=".7" ry="1.3" transform="matrix(.5334 -.8459 .8459 .5334 -16.3188 1047.3014)"/><ellipse cx="912.3" cy="584.2" rx=".7" ry="1.3" transform="matrix(.5334 -.8459 .8459 .5334 -68.4529 1044.2898)"/><ellipse cx="854.7" cy="675.6" rx=".7" ry="1.3" transform="matrix(.5334 -.8459 .8459 .5334 -172.6288 1038.2421)"/><ellipse cx="825.9" cy="721.2" rx=".7" ry="1.3" transform="matrix(.5334 -.8459 .8459 .5334 -224.6333 1035.1423)"/><ellipse cx="768.2" cy="812.6" rx=".7" ry="1.3" transform="matrix(.5334 -.8459 .8459 .5334 -328.8618 1028.9645)"/><ellipse cx="739.4" cy="858.3" rx=".7" ry="1.3" transform="matrix(.5334 -.8459 .8459 .5334 -380.9498 1025.9407)"/><ellipse cx="682" cy="949.5" rx=".7" ry="1.3" transform="matrix(.5334 -.8459 .8459 .5334 -484.9516 1019.9191)"/><ellipse cx="653.1" cy="995.2" rx=".7" ry="1.3" transform="matrix(.5334 -.8459 .8459 .5334 -537.034 1016.7988)"/><ellipse cx="595.5" cy="1086.6" rx=".7" ry="1.3" transform="matrix(.5334 -.8459 .8459 .5334 -641.256 1010.7633)"/><ellipse cx="566.8" cy="1132.2" rx=".7" ry="1.3" transform="matrix(.5334 -.8459 .8459 .5334 -693.2662 1007.76)"/><ellipse cx="509.1" cy="1223.6" rx=".7" ry="1.3" transform="matrix(.5334 -.8459 .8459 .5334 -797.4825 1001.6281)"/><ellipse cx="480.3" cy="1269.3" rx=".7" ry="1.3" transform="matrix(.5334 -.8459 .8459 .5334 -849.5706 998.6042)"/><ellipse cx="422.8" cy="1360.5" rx=".7" ry="1.3" transform="matrix(.5334 -.8459 .8459 .5334 -953.5666 992.4863)"/><ellipse cx="394" cy="1406.2" rx=".7" ry="1.3" transform="matrix(.5334 -.8459 .8459 .5334 -1005.6667 989.4165)"/><ellipse cx="336.3" cy="1497.6" rx=".7" ry="1.3" transform="matrix(.5334 -.8459 .8459 .5334 -1109.8832 983.2847)"/><ellipse cx="307.5" cy="1543.3" rx=".7" ry="1.3" transform="matrix(.5334 -.8459 .8459 .5334 -1161.9709 980.2607)"/><ellipse cx="250" cy="1634.7" rx=".7" ry="1.3" transform="matrix(.5334 -.8459 .8459 .5334 -1266.0692 974.2336)"/><ellipse cx="221.1" cy="1680.4" rx=".7" ry="1.3" transform="matrix(.5334 -.8459 .8459 .5334 -1318.1975 971.1254)"/><ellipse cx="1462.6" cy="-122.1" rx=".7" ry="1.3" transform="matrix(.5334 -.8459 .8459 .5334 785.7598 1180.2054)"/><ellipse cx="1405" cy="-30.6" rx=".7" ry="1.3" transform="matrix(.5334 -.8459 .8459 .5334 681.4415 1174.1644)"/><ellipse cx="1376.2" cy="14.9" rx=".7" ry="1.3" transform="matrix(.5334 -.8459 .8459 .5334 629.5333 1171.0703)"/><ellipse cx="1318.5" cy="106.3" rx=".7" ry="1.3" transform="matrix(.5334 -.8459 .8459 .5334 525.3506 1164.8801)"/><ellipse cx="1289.8" cy="151.9" rx=".7" ry="1.3" transform="matrix(.5334 -.8459 .8459 .5334 473.3592 1161.8619)"/><ellipse cx="1232.3" cy="243.3" rx=".7" ry="1.3" transform="matrix(.5334 -.8459 .8459 .5334 369.2151 1155.847)"/><ellipse cx="1203.4" cy="288.9" rx=".7" ry="1.3" transform="matrix(.5334 -.8459 .8459 .5334 317.1327 1152.7267)"/><ellipse cx="1145.8" cy="380.5" rx=".7" ry="1.3" transform="matrix(.5334 -.8459 .8459 .5334 212.8143 1146.6857)"/><ellipse cx="1117" cy="426.2" rx=".7" ry="1.3" transform="matrix(.5334 -.8459 .8459 .5334 160.7262 1143.6617)"/><ellipse cx="1059.4" cy="517.4" rx=".7" ry="1.3" transform="matrix(.5334 -.8459 .8459 .5334 56.7302 1137.5438)"/><ellipse cx="1030.6" cy="563.1" rx=".7" ry="1.3" transform="matrix(.5334 -.8459 .8459 .5334 4.6421 1134.5198)"/><ellipse cx="973.1" cy="654.3" rx=".7" ry="1.3" transform="matrix(.5334 -.8459 .8459 .5334 -99.3998 1128.4141)"/><ellipse cx="944.3" cy="700" rx=".7" ry="1.3" transform="matrix(.5334 -.8459 .8459 .5334 -151.5001 1125.3444)"/><ellipse cx="886.6" cy="791.3" rx=".7" ry="1.3" transform="matrix(.5334 -.8459 .8459 .5334 -255.6705 1119.2003)"/><ellipse cx="857.7" cy="837.2" rx=".7" ry="1.3" transform="matrix(.5334 -.8459 .8459 .5334 -307.9008 1116.1831)"/><ellipse cx="800.2" cy="928.4" rx=".7" ry="1.3" transform="matrix(.5334 -.8459 .8459 .5334 -411.8971 1110.0651)"/><ellipse cx="771.4" cy="974.1" rx=".7" ry="1.3" transform="matrix(.5334 -.8459 .8459 .5334 -463.985 1107.0411)"/><ellipse cx="713.8" cy="1065.5" rx=".7" ry="1.3" transform="matrix(.5334 -.8459 .8459 .5334 -568.207 1101.0057)"/><ellipse cx="685.1" cy="1111" rx=".7" ry="1.3" transform="matrix(.5334 -.8459 .8459 .5334 -620.1151 1097.9116)"/><ellipse cx="627.5" cy="1202.4" rx=".7" ry="1.3" transform="matrix(.5334 -.8459 .8459 .5334 -724.2911 1091.8639)"/><ellipse cx="598.5" cy="1248.2" rx=".7" ry="1.3" transform="matrix(.5334 -.8459 .8459 .5334 -776.528 1088.7042)"/><ellipse cx="541.1" cy="1339.4" rx=".7" ry="1.3" transform="matrix(.5334 -.8459 .8459 .5334 -880.5297 1082.6826)"/><ellipse cx="512.3" cy="1385.1" rx=".7" ry="1.3" transform="matrix(.5334 -.8459 .8459 .5334 -932.6177 1079.6589)"/><ellipse cx="454.6" cy="1476.5" rx=".7" ry="1.3" transform="matrix(.5334 -.8459 .8459 .5334 -1036.834 1073.527)"/><ellipse cx="425.9" cy="1522.2" rx=".7" ry="1.3" transform="matrix(.5334 -.8459 .8459 .5334 -1088.8442 1070.5238)"/><ellipse cx="368.3" cy="1613.4" rx=".7" ry="1.3" transform="matrix(.5334 -.8459 .8459 .5334 -1192.9181 1064.385)"/><ellipse cx="339.4" cy="1659.3" rx=".7" ry="1.3" transform="matrix(.5334 -.8459 .8459 .5334 -1245.1484 1061.3678)"/><ellipse cx="282" cy="1750.5" rx=".7" ry="1.3" transform="matrix(.5334 -.8459 .8459 .5334 -1349.1501 1055.3463)"/><ellipse cx="1523.3" cy="-51.9" rx=".7" ry="1.3" transform="matrix(.5334 -.8459 .8459 .5334 754.6704 1264.3365)"/><ellipse cx="1494.5" cy="-6.3" rx=".7" ry="1.3" transform="matrix(.5334 -.8459 .8459 .5334 702.6665 1261.2723)"/><ellipse cx="1436.9" cy="85.1" rx=".7" ry="1.3" transform="matrix(.5334 -.8459 .8459 .5334 598.4962 1255.1282)"/><ellipse cx="1408.1" cy="130.8" rx=".7" ry="1.3" transform="matrix(.5334 -.8459 .8459 .5334 546.408 1252.1044)"/><ellipse cx="1350.5" cy="222.1" rx=".7" ry="1.3" transform="matrix(.5334 -.8459 .8459 .5334 442.2697 1245.9929)"/><ellipse cx="1321.7" cy="267.8" rx=".7" ry="1.3" transform="matrix(.5334 -.8459 .8459 .5334 390.1817 1242.9692)"/><ellipse cx="1264.1" cy="359.2" rx=".7" ry="1.3" transform="matrix(.5334 -.8459 .8459 .5334 286.0055 1236.9214)"/><ellipse cx="1235.3" cy="404.9" rx=".7" ry="1.3" transform="matrix(.5334 -.8459 .8459 .5334 233.9553 1233.834)"/><ellipse cx="1177.7" cy="496.3" rx=".7" ry="1.3" transform="matrix(.5334 -.8459 .8459 .5334 129.7792 1227.7861)"/><ellipse cx="1148.9" cy="541.8" rx=".7" ry="1.3" transform="matrix(.5334 -.8459 .8459 .5334 77.781 1224.6256)"/><ellipse cx="1091.4" cy="633.2" rx=".7" ry="1.3" transform="matrix(.5334 -.8459 .8459 .5334 -26.3629 1218.6107)"/><ellipse cx="1062.6" cy="678.9" rx=".7" ry="1.3" transform="matrix(.5334 -.8459 .8459 .5334 -78.4511 1215.5868)"/><ellipse cx="1004.9" cy="770.2" rx=".7" ry="1.3" transform="matrix(.5334 -.8459 .8459 .5334 -182.6215 1209.4426)"/><ellipse cx="976.2" cy="815.9" rx=".7" ry="1.3" transform="matrix(.5334 -.8459 .8459 .5334 -234.6775 1206.4515)"/><ellipse cx="918.5" cy="907.3" rx=".7" ry="1.3" transform="matrix(.5334 -.8459 .8459 .5334 -338.8479 1200.3074)"/><ellipse cx="889.7" cy="953" rx=".7" ry="1.3" transform="matrix(.5334 -.8459 .8459 .5334 -390.9359 1197.2836)"/><ellipse cx="832.2" cy="1044.2" rx=".7" ry="1.3" transform="matrix(.5334 -.8459 .8459 .5334 -494.9779 1191.1777)"/><ellipse cx="803.4" cy="1089.9" rx=".7" ry="1.3" transform="matrix(.5334 -.8459 .8459 .5334 -547.066 1188.1539)"/><ellipse cx="745.8" cy="1181.3" rx=".7" ry="1.3" transform="matrix(.5334 -.8459 .8459 .5334 -651.2542 1182.0604)"/><ellipse cx="717" cy="1227" rx=".7" ry="1.3" transform="matrix(.5334 -.8459 .8459 .5334 -703.3046 1178.9727)"/><ellipse cx="659.4" cy="1318.4" rx=".7" ry="1.3" transform="matrix(.5334 -.8459 .8459 .5334 -807.4807 1172.9252)"/><ellipse cx="630.6" cy="1364.1" rx=".7" ry="1.3" transform="matrix(.5334 -.8459 .8459 .5334 -859.5687 1169.9014)"/><ellipse cx="573" cy="1455.3" rx=".7" ry="1.3" transform="matrix(.5334 -.8459 .8459 .5334 -963.6107 1163.7954)"/><ellipse cx="544.3" cy="1501" rx=".7" ry="1.3" transform="matrix(.5334 -.8459 .8459 .5334 -1015.6987 1160.7717)"/><ellipse cx="486.6" cy="1592.4" rx=".7" ry="1.3" transform="matrix(.5334 -.8459 .8459 .5334 -1119.869 1154.6274)"/><ellipse cx="457.8" cy="1638.1" rx=".7" ry="1.3" transform="matrix(.5334 -.8459 .8459 .5334 -1171.9572 1151.6038)"/><ellipse cx="400.2" cy="1729.4" rx=".7" ry="1.3" transform="matrix(.5334 -.8459 .8459 .5334 -1276.1078 1145.4464)"/><ellipse cx="371.4" cy="1775.1" rx=".7" ry="1.3" transform="matrix(.5334 -.8459 .8459 .5334 -1328.1958 1142.4226)"/><ellipse cx="1612.8" cy="-27.4" rx=".7" ry="1.3" transform="matrix(.5334 -.8459 .8459 .5334 775.7213 1351.4182)"/><ellipse cx="1555.2" cy="64" rx=".7" ry="1.3" transform="matrix(.5334 -.8459 .8459 .5334 671.5453 1345.3707)"/><ellipse cx="1526.5" cy="109.7" rx=".7" ry="1.3" transform="matrix(.5334 -.8459 .8459 .5334 619.4891 1342.3794)"/><ellipse cx="1468.8" cy="201" rx=".7" ry="1.3" transform="matrix(.5334 -.8459 .8459 .5334 515.3188 1336.2354)"/><ellipse cx="1440" cy="246.7" rx=".7" ry="1.3" transform="matrix(.5334 -.8459 .8459 .5334 463.2307 1333.2114)"/><ellipse cx="1382.4" cy="338.1" rx=".7" ry="1.3" transform="matrix(.5334 -.8459 .8459 .5334 359.0923 1327.1)"/><ellipse cx="1353.7" cy="383.7" rx=".7" ry="1.3" transform="matrix(.5334 -.8459 .8459 .5334 307.1008 1324.0818)"/><ellipse cx="1296" cy="475" rx=".7" ry="1.3" transform="matrix(.5334 -.8459 .8459 .5334 202.918 1317.8918)"/><ellipse cx="1267.2" cy="520.7" rx=".7" ry="1.3" transform="matrix(.5334 -.8459 .8459 .5334 150.8301 1314.868)"/><ellipse cx="1209.7" cy="612.1" rx=".7" ry="1.3" transform="matrix(.5334 -.8459 .8459 .5334 46.686 1308.853)"/><ellipse cx="1180.8" cy="657.8" rx=".7" ry="1.3" transform="matrix(.5334 -.8459 .8459 .5334 -5.3964 1305.7327)"/><ellipse cx="1123.3" cy="749.1" rx=".7" ry="1.3" transform="matrix(.5334 -.8459 .8459 .5334 -109.5403 1299.7178)"/><ellipse cx="1094.5" cy="794.8" rx=".7" ry="1.3" transform="matrix(.5334 -.8459 .8459 .5334 -161.6283 1296.6938)"/><ellipse cx="1036.9" cy="886.1" rx=".7" ry="1.3" transform="matrix(.5334 -.8459 .8459 .5334 -265.7025 1290.5554)"/><ellipse cx="1008.1" cy="931.8" rx=".7" ry="1.3" transform="matrix(.5334 -.8459 .8459 .5334 -317.7905 1287.5316)"/><ellipse cx="950.5" cy="1023.1" rx=".7" ry="1.3" transform="matrix(.5334 -.8459 .8459 .5334 -421.9411 1281.3744)"/><ellipse cx="921.7" cy="1068.8" rx=".7" ry="1.3" transform="matrix(.5334 -.8459 .8459 .5334 -474.0291 1278.3505)"/><ellipse cx="864" cy="1160.2" rx=".7" ry="1.3" transform="matrix(.5334 -.8459 .8459 .5334 -578.1995 1272.2063)"/><ellipse cx="835.3" cy="1205.9" rx=".7" ry="1.3" transform="matrix(.5334 -.8459 .8459 .5334 -630.2557 1269.2152)"/><ellipse cx="777.7" cy="1297.3" rx=".7" ry="1.3" transform="matrix(.5334 -.8459 .8459 .5334 -734.4315 1263.1675)"/><ellipse cx="748.9" cy="1342.8" rx=".7" ry="1.3" transform="matrix(.5334 -.8459 .8459 .5334 -786.4175 1260.053)"/><ellipse cx="691.4" cy="1434.2" rx=".7" ry="1.3" transform="matrix(.5334 -.8459 .8459 .5334 -890.5616 1254.038)"/><ellipse cx="662.6" cy="1479.9" rx=".7" ry="1.3" transform="matrix(.5334 -.8459 .8459 .5334 -942.6495 1251.0139)"/><ellipse cx="604.9" cy="1571.3" rx=".7" ry="1.3" transform="matrix(.5334 -.8459 .8459 .5334 -1046.8323 1244.8241)"/><ellipse cx="576.1" cy="1616.9" rx=".7" ry="1.3" transform="matrix(.5334 -.8459 .8459 .5334 -1098.8827 1241.7365)"/><ellipse cx="518.5" cy="1708.3" rx=".7" ry="1.3" transform="matrix(.5334 -.8459 .8459 .5334 -1203.0586 1235.6887)"/><ellipse cx="489.7" cy="1754" rx=".7" ry="1.3" transform="matrix(.5334 -.8459 .8459 .5334 -1255.1467 1232.6648)"/><ellipse cx="432.1" cy="1845.2" rx=".7" ry="1.3" transform="matrix(.5334 -.8459 .8459 .5334 -1359.1886 1226.5592)"/><ellipse cx="1673.6" cy="42.9" rx=".7" ry="1.3" transform="matrix(.5334 -.8459 .8459 .5334 744.6262 1435.6456)"/><ellipse cx="1644.8" cy="88.6" rx=".7" ry="1.3" transform="matrix(.5334 -.8459 .8459 .5334 692.5382 1432.6218)"/><ellipse cx="1587.1" cy="179.9" rx=".7" ry="1.3" transform="matrix(.5334 -.8459 .8459 .5334 588.3677 1426.4777)"/><ellipse cx="1558.4" cy="225.6" rx=".7" ry="1.3" transform="matrix(.5334 -.8459 .8459 .5334 536.364 1423.4136)"/><ellipse cx="1500.7" cy="316.9" rx=".7" ry="1.3" transform="matrix(.5334 -.8459 .8459 .5334 432.2256 1417.3022)"/><ellipse cx="1472" cy="362.6" rx=".7" ry="1.3" transform="matrix(.5334 -.8459 .8459 .5334 380.1376 1414.2784)"/><ellipse cx="1414.3" cy="453.9" rx=".7" ry="1.3" transform="matrix(.5334 -.8459 .8459 .5334 275.9671 1408.1343)"/><ellipse cx="1385.6" cy="499.6" rx=".7" ry="1.3" transform="matrix(.5334 -.8459 .8459 .5334 223.9111 1405.1431)"/><ellipse cx="1327.9" cy="591" rx=".7" ry="1.3" transform="matrix(.5334 -.8459 .8459 .5334 119.7407 1398.999)"/><ellipse cx="1299.1" cy="636.7" rx=".7" ry="1.3" transform="matrix(.5334 -.8459 .8459 .5334 67.6526 1395.9751)"/><ellipse cx="1241.7" cy="728" rx=".7" ry="1.3" transform="matrix(.5334 -.8459 .8459 .5334 -36.395 1389.9658)"/><ellipse cx="1212.8" cy="773.6" rx=".7" ry="1.3" transform="matrix(.5334 -.8459 .8459 .5334 -88.4773 1386.8457)"/><ellipse cx="1155.2" cy="865" rx=".7" ry="1.3" transform="matrix(.5334 -.8459 .8459 .5334 -192.6657 1380.7518)"/><ellipse cx="1126.3" cy="910.6" rx=".7" ry="1.3" transform="matrix(.5334 -.8459 .8459 .5334 -244.716 1377.6644)"/><ellipse cx="1068.8" cy="1002" rx=".7" ry="1.3" transform="matrix(.5334 -.8459 .8459 .5334 -348.8921 1371.6168)"/><ellipse cx="1040" cy="1047.7" rx=".7" ry="1.3" transform="matrix(.5334 -.8459 .8459 .5334 -400.9801 1368.5929)"/><ellipse cx="982.4" cy="1139" rx=".7" ry="1.3" transform="matrix(.5334 -.8459 .8459 .5334 -505.0221 1362.4872)"/><ellipse cx="953.6" cy="1184.7" rx=".7" ry="1.3" transform="matrix(.5334 -.8459 .8459 .5334 -557.11 1359.4633)"/><ellipse cx="896" cy="1276" rx=".7" ry="1.3" transform="matrix(.5334 -.8459 .8459 .5334 -661.2805 1353.3191)"/><ellipse cx="867.3" cy="1321.7" rx=".7" ry="1.3" transform="matrix(.5334 -.8459 .8459 .5334 -713.3366 1350.328)"/><ellipse cx="809.7" cy="1413.1" rx=".7" ry="1.3" transform="matrix(.5334 -.8459 .8459 .5334 -817.5126 1344.2803)"/><ellipse cx="780.8" cy="1458.8" rx=".7" ry="1.3" transform="matrix(.5334 -.8459 .8459 .5334 -869.6072 1341.1141)"/><ellipse cx="723.2" cy="1550.1" rx=".7" ry="1.3" transform="matrix(.5334 -.8459 .8459 .5334 -973.7457 1335.0027)"/><ellipse cx="694.4" cy="1595.7" rx=".7" ry="1.3" transform="matrix(.5334 -.8459 .8459 .5334 -1025.7372 1331.9845)"/><ellipse cx="636.9" cy="1687.1" rx=".7" ry="1.3" transform="matrix(.5334 -.8459 .8459 .5334 -1129.9133 1325.9368)"/><ellipse cx="608.1" cy="1732.8" rx=".7" ry="1.3" transform="matrix(.5334 -.8459 .8459 .5334 -1182.0012 1322.9128)"/><ellipse cx="550.5" cy="1824.1" rx=".7" ry="1.3" transform="matrix(.5334 -.8459 .8459 .5334 -1286.1396 1316.8016)"/><ellipse cx="521.7" cy="1869.8" rx=".7" ry="1.3" transform="matrix(.5334 -.8459 .8459 .5334 -1338.2277 1313.7776)"/><ellipse cx="1763" cy="67.5" rx=".7" ry="1.3" transform="matrix(.5334 -.8459 .8459 .5334 765.5928 1522.7677)"/><ellipse cx="1705.5" cy="158.8" rx=".7" ry="1.3" transform="matrix(.5334 -.8459 .8459 .5334 661.501 1516.6799)"/><ellipse cx="1676.6" cy="204.3" rx=".7" ry="1.3" transform="matrix(.5334 -.8459 .8459 .5334 609.4965 1513.5802)"/><ellipse cx="1619.1" cy="295.8" rx=".7" ry="1.3" transform="matrix(.5334 -.8459 .8459 .5334 505.2745 1507.5447)"/><ellipse cx="1590.3" cy="341.5" rx=".7" ry="1.3" transform="matrix(.5334 -.8459 .8459 .5334 453.1867 1504.5209)"/><ellipse cx="1532.7" cy="432.8" rx=".7" ry="1.3" transform="matrix(.5334 -.8459 .8459 .5334 349.0481 1498.4094)"/><ellipse cx="1503.9" cy="478.5" rx=".7" ry="1.3" transform="matrix(.5334 -.8459 .8459 .5334 296.9602 1495.3855)"/><ellipse cx="1446.3" cy="569.8" rx=".7" ry="1.3" transform="matrix(.5334 -.8459 .8459 .5334 192.8863 1489.2471)"/><ellipse cx="1417.5" cy="615.5" rx=".7" ry="1.3" transform="matrix(.5334 -.8459 .8459 .5334 140.7981 1486.2231)"/><ellipse cx="1359.8" cy="706.8" rx=".7" ry="1.3" transform="matrix(.5334 -.8459 .8459 .5334 36.6476 1480.0659)"/><ellipse cx="1331.1" cy="752.5" rx=".7" ry="1.3" transform="matrix(.5334 -.8459 .8459 .5334 -15.4405 1477.042)"/><ellipse cx="1273.5" cy="843.7" rx=".7" ry="1.3" transform="matrix(.5334 -.8459 .8459 .5334 -119.4366 1470.9241)"/><ellipse cx="1244.7" cy="889.6" rx=".7" ry="1.3" transform="matrix(.5334 -.8459 .8459 .5334 -171.667 1467.9067)"/><ellipse cx="1187.1" cy="981" rx=".7" ry="1.3" transform="matrix(.5334 -.8459 .8459 .5334 -275.843 1461.8589)"/><ellipse cx="1158.4" cy="1026.6" rx=".7" ry="1.3" transform="matrix(.5334 -.8459 .8459 .5334 -327.8347 1458.8409)"/><ellipse cx="1100.8" cy="1117.9" rx=".7" ry="1.3" transform="matrix(.5334 -.8459 .8459 .5334 -431.9731 1452.7294)"/><ellipse cx="1072" cy="1163.6" rx=".7" ry="1.3" transform="matrix(.5334 -.8459 .8459 .5334 -484.0611 1449.7057)"/><ellipse cx="1014.3" cy="1254.9" rx=".7" ry="1.3" transform="matrix(.5334 -.8459 .8459 .5334 -588.2436 1443.5156)"/><ellipse cx="985.6" cy="1300.6" rx=".7" ry="1.3" transform="matrix(.5334 -.8459 .8459 .5334 -640.2875 1440.5703)"/><ellipse cx="927.9" cy="1392" rx=".7" ry="1.3" transform="matrix(.5334 -.8459 .8459 .5334 -744.47 1434.3802)"/><ellipse cx="899.1" cy="1437.7" rx=".7" ry="1.3" transform="matrix(.5334 -.8459 .8459 .5334 -796.5582 1431.3564)"/><ellipse cx="841.5" cy="1528.9" rx=".7" ry="1.3" transform="matrix(.5334 -.8459 .8459 .5334 -900.6002 1425.2506)"/><ellipse cx="812.7" cy="1574.6" rx=".7" ry="1.3" transform="matrix(.5334 -.8459 .8459 .5334 -952.6882 1422.2269)"/><ellipse cx="755.2" cy="1666" rx=".7" ry="1.3" transform="matrix(.5334 -.8459 .8459 .5334 -1056.8644 1416.1792)"/><ellipse cx="726.4" cy="1711.7" rx=".7" ry="1.3" transform="matrix(.5334 -.8459 .8459 .5334 -1108.9146 1413.0917)"/><ellipse cx="668.8" cy="1803.1" rx=".7" ry="1.3" transform="matrix(.5334 -.8459 .8459 .5334 -1213.0906 1407.0439)"/><ellipse cx="639.9" cy="1848.7" rx=".7" ry="1.3" transform="matrix(.5334 -.8459 .8459 .5334 -1265.1853 1403.8777)"/><ellipse cx="582.3" cy="1939.9" rx=".7" ry="1.3" transform="matrix(.5334 -.8459 .8459 .5334 -1369.2271 1397.7719)"/></g></svg>