<?xml version="1.0" encoding="iso-8859-1"?>
<!-- Generator: Adobe Illustrator 19.0.0, SVG Export Plug-In . SVG Version: 6.00 Build 0)  -->
<svg version="1.1" id="Layer_1" xmlns="http://www.w3.org/2000/svg" xmlns:xlink="http://www.w3.org/1999/xlink" x="0px" y="0px"
	 viewBox="0 0 490.275 490.275" style="enable-background:new 0 0 490.275 490.275;" xml:space="preserve">
<g>
	<g>
		<g>
			<path d="M134.161,131.59c-0.006,1.692,0.125,2.854,0.171,3.216l15.26-0.982c0.001-0.917-0.031-1.818-0.095-2.705
				c0.078-2.136,0.602-5.859,3.059-8.75c2.65-3.119,7.231-4.807,13.617-5.017l-0.503-15.316
				c-10.74,0.353-19.003,3.767-24.567,10.149c-2.618-2.59-5.813-4.752-9.548-6.425c-8.009-3.589-15.767-3.724-16.625-3.728
				l-0.063,15.324c0.051,0,5.369,0.123,10.422,2.388C130.731,122.182,133.591,125.978,134.161,131.59z"/>
			<path d="M264,12.87v329.476l165.113-79.233L264,12.87z M279,63.921l104.724,158.718c-2.504,2.594-9.389,8.799-18.392,9.314
				c-7.567,0.431-15.374-3.303-23.176-11.105c-16.034-16.034-38.659-19.771-63.156-10.799V63.921z M279,226.586v-0.001
				c13.359-5.982,35.528-11.692,52.32,5.099c10.379,10.379,21.39,15.63,32.763,15.629c0.706,0,1.416-0.021,2.125-0.061
				c11.893-0.68,21.019-7.061,26.09-11.619l14.028,21.261L279,317.994V226.586z"/>
			<path d="M105.727,449.568c-18.856,5.067-32.588,15.058-33.164,15.481l9.064,12.356c0.121-0.088,12.311-8.894,28.485-13.146
				c20.453-5.381,37.716-1.212,51.311,12.382l10.836-10.836C154.667,448.213,131.663,442.597,105.727,449.568z"/>
			<path d="M411.581,436.018l60.851-79.144H78.07l27.795,39.473C43.575,398.042,3.073,416.362,0,417.746v16.431
				c0,0,109.727-49.091,239.379,1.17c39.673,15.384,78.016,20.877,112.87,20.877c84.711-0.008,134.116-26.199,137.783-28.137
				l0.243-16.834C489.658,411.576,458.947,427.519,411.581,436.018z M244.916,421.055c-43.897-17.02-84.467-23.612-119.458-24.675
				c-0.107-0.003-0.212-0.004-0.318-0.007c0.107,0.003,0.212,0.004,0.319,0.007l-16.553-23.507h331.042l-51.071,66.423
				c0,0-0.001,0-0.001,0C347.78,443.793,297.598,441.481,244.916,421.055z M409.879,436.309c-6.322,1.102-12.928,2.068-19.798,2.844
				C396.95,438.376,403.556,437.41,409.879,436.309z"/>
			<path d="M50.979,232.056c-0.006,1.692,0.125,2.854,0.171,3.216l15.26-0.982c0.001-0.917-0.031-1.818-0.095-2.705
				c0.078-2.136,0.602-5.859,3.059-8.75c2.65-3.119,7.231-4.807,13.617-5.017l-0.503-15.316
				c-10.74,0.353-19.003,3.767-24.567,10.149c-2.618-2.59-5.813-4.752-9.548-6.425c-8.009-3.589-15.767-3.724-16.625-3.728
				l-0.063,15.324c0.051,0,5.369,0.123,10.422,2.388C47.549,222.649,50.409,226.444,50.979,232.056z"/>
			<path d="M418.765,163.096c-0.006,1.692,0.125,2.854,0.171,3.216l15.26-0.982c0.001-0.917-0.031-1.818-0.095-2.705
				c0.078-2.136,0.602-5.859,3.059-8.75c2.65-3.119,7.231-4.807,13.617-5.017l-0.503-15.316
				c-10.74,0.353-19.003,3.767-24.567,10.149c-2.618-2.59-5.813-4.752-9.548-6.425c-8.009-3.589-15.767-3.724-16.625-3.728
				l-0.063,15.324c0.051,0,5.369,0.123,10.422,2.388C415.335,153.689,418.195,157.484,418.765,163.096z"/>
			<rect x="336" y="395.873" width="38" height="16"/>
			<path d="M246,341.874L246,341.874V117.51l-99.055,224.364H246z M231,326.873h-60.561L231,190.327V326.873z"/>
		</g>
	</g>
</g>
<g>
</g>
<g>
</g>
<g>
</g>
<g>
</g>
<g>
</g>
<g>
</g>
<g>
</g>
<g>
</g>
<g>
</g>
<g>
</g>
<g>
</g>
<g>
</g>
<g>
</g>
<g>
</g>
<g>
</g>
</svg>
