<svg enable-background="new 0 0 566.9 575.9" viewBox="0 0 566.9 575.9" xmlns="http://www.w3.org/2000/svg"><path d="m88.6 297.5h-27.3v-174.9c0-14.6.5-28.3 1.4-41.3-2.3 2.3-5 4.9-7.9 7.4s-16.2 13.5-40 32.7l-14.8-19.2 65-50.2h23.5z" fill="#3c3c3c"/><g fill="#fee04a"><path d="m265.1 51.9-91.3 245.6h-37.2l91.6-245.6z"/><path d="m371.3 51.9-91.3 245.6h-37.2l91.6-245.6z"/><path d="m566.9 51.9-91.3 245.6h-37.2l91.6-245.6z"/><path d="m385.3 274.1-91.3 245.6h-37.2l91.5-245.6z"/><path d="m467.9 51.9-91.3 245.6h-37.2l91.6-245.6z"/></g><path d="m177.1 520.1-33.8-108c-2.1-6.6-6.1-21.6-11.9-45h-1.4c-4.5 19.5-8.4 34.7-11.8 45.3l-34.7 107.7h-32.2l-50.1-184.1h29.3c11.9 46.2 20.9 81.4 27.2 105.7 6.2 24.2 9.7 40.5 10.6 48.9h1.4c1.3-6.4 3.2-14.7 6-24.7 2.8-10.2 5.1-18.2 7.2-24l33.8-105.7h29.9l33 105.7c6.2 19.3 10.5 35.4 12.7 48.6h1.4c.5-4 1.6-10.3 3.6-18.6 2-8.4 13.6-53.5 35-135.5h28.9l-50.9 184.1h-33.1z" fill="#3c3c3c"/><path d="m507.8 520.5-5.5-26.2h-1.4c-9.1 11.6-18.4 19.3-27.4 23.5-9.1 4-20.5 6.1-34.2 6.1-18.3 0-32.6-4.7-42.9-14.1-10.4-9.4-15.5-22.8-15.5-40.1 0-37.1 29.7-56.7 89.1-58.4l31.2-1v-11.4c0-14.5-3.1-25.1-9.4-32-6.2-6.9-16.2-10.3-29.8-10.3-15.4 0-32.7 4.7-52 14.1l-8.6-21.3c9-5 19-8.8 29.8-11.6s21.6-4.2 32.5-4.2c22 0 38.2 4.9 48.8 14.6s15.8 25.3 15.8 46.8v125.6zm-62.9-19.6c17.3 0 31-4.7 40.9-14.2s14.9-22.9 14.9-40v-16.7l-27.9 1.2c-22.2.8-38.2 4.3-48 10.3-9.8 6.1-14.7 15.6-14.7 28.4 0 10.1 3 17.7 9.1 23 6.2 5.3 14.7 8 25.7 8z" fill="#3c3c3c"/></svg>