<svg height="90.708" viewBox="0 0 90.708 90.708" width="90.708" xmlns="http://www.w3.org/2000/svg"><g fill="#2c2c2c"><path d="m24.484 49.415-.003 1.477-.004.105c-.005.422-.005.855.033 1.291.042.479.087.98.169 1.464l.066.393.054.248.025.111.066.257.025.091.074.235.042.104.169.401.277.542c.066.119.203.194.348.194l.103-.017c.1-.033.186-.1.24-.187.049-.083.078-.215.042-.31-.194-.479-.335-.886-.439-1.274-.107-.401-.177-.811-.252-1.208-.079-.582-.148-1.206-.165-1.827-.017-.587-.017-1.183-.017-1.762v-.364c0-.235-.199-.43-.435-.43-.235 0-.43.194-.43.43m.988-4.665-.095.125c-.115.293-.219.628-.31 1.059-.087.389-.161.781-.236 1.203-.013.059-.017.128.024.194.033.058.091.1.153.116l.065.013.129-.038c.049-.028.104-.091.116-.152.066-.39.141-.782.228-1.208l.104-.496.12-.587c.025-.12-.037-.229-.14-.257l-.058-.008-.104.024m1.13 12.548c-.095.058-.174.157-.198.272-.025.108-.013.216.045.303.21.318.451.624.687.923l.041.045c.256.323.476.574.699.798.074.074.177.116.286.116l.198-.055c.087-.053.153-.141.182-.239.024-.095.021-.228-.042-.312-.248-.325-.508-.648-.761-.958l-.214-.27c-.12-.157-.24-.318-.351-.487-.083-.129-.224-.211-.368-.211-.071 0-.146.021-.211.058m-.022-3.85c-.091.024-.174.087-.224.169-.041.074-.07.189-.037.286.116.31.236.619.359.926l.05.128.07.174.12.256.033.071.107.215.054.104.12.211.058.095c.125.215.249.414.381.596.054.083.116.124.186.148l.083.013.161-.046c.149-.087.199-.284.116-.438-.26-.454-.479-.918-.736-1.468l-.058-.154-.396-1.038c-.042-.112-.091-.178-.17-.224-.058-.037-.124-.054-.19-.054l-.095.013m3.077 6.878c0 .194.165.36.359.36s.36-.166.36-.36-.166-.359-.36-.359c-.194-.001-.359.16-.359.359m40.4-10.591-.181.529-.062.178-.128.332-.067.156c-.462 1.059-.942 2.075-1.421 3.015l-.09.166c-.066.133-.028.284.095.355l.132.032c.095 0 .182-.049.226-.128.137-.252.29-.522.427-.802l.392-.835.269-.626.065-.149.344-.835c.145-.368.29-.761.455-1.276.021-.059.013-.121-.017-.175-.033-.058-.091-.104-.148-.124l-.067-.008c-.104 0-.193.07-.23.178m-2.855 5.625c-.244.416-.484.83-.72 1.252-.091.157-.037.36.119.455l.17.046.091-.013c.079-.024.142-.07.199-.153.248-.359.471-.74.687-1.112l.074-.12c.049-.078.062-.177.037-.268-.024-.097-.079-.175-.161-.22l-.179-.046c-.128 0-.243.065-.31.174m.055-1.769c-.266.472-.525.938-.762 1.39-.046.082-.021.186.062.23l.088.021c.062 0 .119-.033.148-.087.261-.464.517-.918.781-1.377.051-.087.021-.199-.065-.248l-.091-.025c-.067 0-.125.028-.158.086m-1.964 5.051-.277.31-1.332 1.489c-.099.107-.099.26 0 .363.046.046.116.075.188.075.069 0 .132-.029.173-.075.484-.529 1.051-1.165 1.575-1.839l.067-.162-.067-.161c-.041-.042-.104-.066-.169-.066-.063-.001-.121.02-.158.066m-20.033-16.435c-.31 1.133-.711 2.312-1.261 3.71-.038.091-.009.219.037.289.045.083.128.148.228.174l.095.013c.066 0 .137-.017.194-.055.091-.054.136-.128.17-.227.219-.546.467-1.195.683-1.857l.066-.203c.07-.219.145-.446.199-.67l.003-.02.104-.447.095-.546c.017-.091.017-.165-.033-.243-.037-.066-.108-.12-.186-.146l-.083-.009c-.14 0-.268.096-.31.232m.529-4.023c-.074.042-.157.133-.169.224-.05.331-.086.62-.111.886-.03.265-.046.529-.066.793l-.005.07c-.008.091.025.179.096.252.074.083.186.133.289.133.104 0 .207-.041.277-.115.071-.07.108-.157.116-.277.037-.492.078-1.075.136-1.654.017-.17-.132-.323-.277-.359l-.099-.018-.187.05m-1.121-35.148-.165.107c-.208.127-.397.272-.579.434-.203.182-.376.401-.538.616-.14.19-.281.381-.409.578-.276.431-.545.87-.807 1.312-.533.897-1.004 1.832-1.467 2.767-.426.853-.819 1.721-1.212 2.585-.513 1.146-1.034 2.287-1.534 3.44-.476 1.096-.901 2.221-1.266 3.362l-.012-.004-1.129-.625c-.711-.393-1.418-.802-2.122-1.199-.765-.434-1.546-.835-2.328-1.244-.38-.194-.757-.394-1.133-.596-.385-.207-.757-.434-1.154-.612l-.314-.124-.286-.041h-.045c-.149 0-.327.087-.447.152-.132.075-.256.194-.368.303-.215.211-.368.487-.504.757-.146.298-.257.615-.373.926-.116.322-.215.642-.318.969-.07.219-.037.454.058.652-.016.422.194.844.579 1.071.881.525 1.799.977 2.717 1.431.876.435 1.753.853 2.638 1.266 1.675.786 3.342 1.596 5.017 2.386h.004l.029.018.202.099c.985.459 2.002.897 2.981 1.315l.774.33c.752.327 1.526.637 2.274.935l1.53.625.583.248c.674.294 1.368.596 2.063.873l.228.091 1.521.574c.493.19.984.401 1.478.608.818.352 1.642.703 2.46 1.067l1.229.546c.202.091.409.178.624.252.294.1.608.161.877-.025.248-.174.409-.45.57-.702.108-.174.211-.349.303-.529l.156-.381c.037-.095.054-.207.063-.314.004-.083.008-.211-.025-.29l-.145-.31c-.062-.107-.161-.207-.248-.298l-.294-.269c-.33-.285-.678-.55-1.017-.823-.385-.311-.782-.607-1.175-.909-.566-.435-1.137-.865-1.729-1.271-.409-.281-.831-.55-1.244-.822l.38-.601c.276-.418.55-.835.818-1.257.514-.807 1.034-1.608 1.521-2.432 1.01-1.721 1.932-3.486 2.953-5.202.492-.835 1.013-1.649 1.477-2.502.272-.504.542-1.014.744-1.551.096-.248.149-.529.138-.799-.018-.301-.162-.583-.381-.785-.203-.187-.447-.335-.683-.476-.814-.476-1.675-.864-2.52-1.282-.45-.224-.893-.463-1.335-.703-.405-.224-.807-.463-1.224-.666-1.105-.537-2.242-1.008-3.408-1.385-1.104-.355-2.217-.69-3.3-1.113l-.48-.21-.628-.323c-.116-.054-.236-.087-.355-.087-.108 0-.211.025-.311.079m-16.105 12.6-.008.017.003-.021m27.477 13.466-.009.021v-.021m-.148.087-.004-.005.049.041-.049-.036m-5.249.133.133.058zm-14.106-6.993c-.654.413-1.303.844-1.907 1.331-.563.46-1.075.969-1.583 1.489-.505.513-1.001 1.034-1.494 1.563-.479.517-.917 1.075-1.356 1.626-.273.347-.542.697-.803 1.054l.005.002v.004c-.178.244-.356.488-.525.736l-.124.178c-.36.521-.732 1.063-1.071 1.609-.244.396-.492.818-.744 1.257-.488.856-.947 1.729-1.39 2.609-.334.67-.629 1.361-.917 2.047-.268.646-.521 1.307-.732 1.969-.442 1.382-.781 2.791-1.055 4.214-.132.687-.26 1.379-.359 2.072-.106.761-.215 1.521-.261 2.289-.042.731-.062 1.464-.066 2.191l.004.993c.012.359.008.728.042 1.091.041.434.095.86.156 1.291.049.355.132.706.215 1.055.079.343.187.683.29 1.018.1.318.207.637.323.951.139.371.277.749.45 1.106.161.331.318.675.521.982.207.31.414.611.632.914.244.331.509.648.77.968.434.53.88 1.051 1.367 1.534.252.248.517.488.79.716.297.243.599.488.914.71.306.216.612.431.926.638.31.202.629.385.947.566.588.334 1.208.625 1.829.901.724.323 1.456.629 2.191.914.322.124.646.236.972.351.327.113.649.229.976.32 1.39.384 2.796.707 4.223.931.765.12 1.534.235 2.303.33.674.083 1.357.137 2.036.179 1.41.09 2.824.115 4.234.124 1.41.008 2.832-.009 4.243-.133 1.483-.128 2.978-.314 4.416-.704.736-.202 1.443-.513 2.135-.836.611-.285 1.207-.629 1.758-1.021 1.203-.858 2.303-1.868 3.32-2.937.534-.558 1.021-1.148 1.484-1.766.422-.566.827-1.149 1.233-1.725.797-1.138 1.574-2.295 2.299-3.478.363-.592.732-1.187 1.05-1.803.34-.663.649-1.337.923-2.027.26-.636.472-1.288.657-1.947.198-.688.363-1.395.455-2.103.041-.344.065-.684.082-1.025v-.488c-.008-.455-.116-.894-.302-1.303-.069-.161-.166-.306-.276-.441-.112-.133-.244-.241-.39-.332-.095-.065-.215-.107-.318-.148l-.343-.12c-.244-.074-.51-.091-.761-.082-.314.017-.621.091-.906.211l.096-.385c.041-.187.063-.377.09-.563.024-.207.017-.418-.009-.62l-.054-.303c-.029-.12-.092-.239-.145-.352-.17-.347-.479-.582-.831-.719-.219-.092-.451-.112-.683-.125-.256-.021-.521.029-.766.104-.441.137-.831.406-1.187.695-.17.137-.338.298-.483.459l-.103.115-.101-.198c-.136-.228-.376-.4-.604-.533-.401-.24-.923-.244-1.361-.145-.193.041-.384.133-.565.206-.22.091-.418.232-.612.368-.703.513-1.262 1.225-1.733 1.948-.238.372-.476.748-.698 1.138-.207.359-.41.728-.575 1.104-.104.244-.207.487-.289.735-.07.199-.116.401-.166.604-.099.401-.181.802-.26 1.208-.051.268.074.537.351.611.265.075.534-.087.612-.347l.178-.538.145-.389.018-.045.053-.138.281-.731c.493-1.116 1.104-2.184 1.815-3.176.253-.311.551-.666.923-.972.207-.149.389-.261.575-.344l.368-.111h.132l.14.004.079.025.224.132.033.033.013.029.036.124v.231c-.074.381-.21.724-.38 1.133l-.174.277-.069.104-.017.025c-.248.392-.501.798-.716 1.215-.133.257-.248.509-.352.757l-.145.355c-.038.087-.054.178-.059.294 0 .104.025.198.074.285.055.091.116.137.195.194l.024.021c.066.054.161.078.272.078.166 0 .323-.062.405-.164.231-.29.409-.629.584-.96l.099-.186c.207-.381.372-.695.525-1.002l.041-.058.12-.182.062-.091c.414-.616.836-1.253 1.291-1.853.244-.277.513-.563.822-.827.19-.141.376-.253.567-.344l.318-.087.207-.008.132.005.148.041.108.062.041.041.087.149.038.136c.012.153.007.307-.005.476-.046.277-.104.525-.178.762-.083.261-.182.529-.319.876-.107.235-.223.472-.363.729-.244.285-.488.6-.753.959-.211.29-.397.596-.566.868l-.235.401-.116.224-.028.054-.018.037-.045.107-.046.104-.029.198c-.016.194.129.394.273.48.088.049.183.074.286.074s.193-.025.271-.074c.125-.079.212-.178.277-.261l.017-.017.029-.033.013-.012-.009.003c.402-.525.749-1.096 1.101-1.684l.054-.069.025-.037c.396-.505.831-1.038 1.355-1.473.166-.115.311-.202.46-.277.145-.053.284-.086.434-.115l.169-.004.178.004c.174.033.34.074.497.137l.132.078.096.1.169.285c.066.17.112.36.149.584.028.396.012.83-.05 1.363-.169 1.038-.5 2.044-.856 2.995l-.224.574.013-.037.025-.05-.021.05.023-.05c-.322.765-.611 1.369-.904 1.903-.343.619-.736 1.211-1.117 1.781-.822 1.233-1.616 2.354-2.432 3.42l-.024.033-.1.128-.021.025.004-.009.029-.037-.024.034.024-.034-.037.055-.038.049-.016.018-.318.412-.166.212-.078.095.004-.004.033-.041-.029.037.033-.037-.269.347c-.231.306-.472.621-.729.918-.4.472-.789.894-1.182 1.286-.766.77-1.589 1.514-2.457 2.221-.441.331-.868.617-1.298.872-.472.282-.969.514-1.395.704-.723.285-1.319.476-1.89.599-.72.154-1.439.261-1.989.34-1.902.231-3.978.344-6.344.344-.633 0-1.281-.005-1.985-.021-.674-.017-1.459-.036-2.229-.087-.629-.041-1.224-.091-1.808-.156l-.372-.041.034.008.028.004h-.025l.029.004-.293-.042-.293-.036c-1.356-.183-2.726-.438-4.189-.786-1.522-.355-2.982-.938-4.086-1.402-.889-.388-1.637-.728-2.357-1.137-.372-.207-.752-.438-1.199-.732-.298-.193-.583-.413-.86-.624l-.062-.05c-.311-.257-.546-.459-.77-.661-.223-.203-.434-.422-.649-.65-.431-.45-.828-.941-1.216-1.418l-.062-.078c-.194-.257-.451-.597-.687-.96-.145-.224-.27-.446-.373-.633-.09-.161-.165-.326-.239-.487l-.038-.083c-.127-.318-.231-.588-.322-.848-.095-.273-.186-.566-.289-.901l-.017-.063c-.091-.298-.182-.611-.248-.922-.066-.327-.128-.649-.187-.988l-.074-.724c-.017-.281-.029-.567-.037-.856-.017-.475-.004-.963.008-1.431l.008-.327c.013-.463.029-1.017.066-1.575.038-.5.091-1.025.166-1.658.215-1.432.493-2.833.818-4.165.146-.611.327-1.253.579-2.08.079-.264.178-.533.273-.789l.058-.148c.136-.373.277-.737.421-1.105l.046-.106c.298-.675.575-1.286.856-1.865.293-.608.62-1.212.939-1.796l.033-.065c.302-.55.653-1.191 1.025-1.799.365-.592.761-1.195 1.204-1.841.492-.715 1.042-1.48 1.687-2.332l.054-.063c.27-.339.546-.69.835-1.021l1.1-1.244.07-.074c.315-.348.633-.704.964-1.047l.554-.546c.161-.152.335-.294.509-.43l.024-.017c.41-.307.807-.579 1.208-.836h.004l.096-.058c.343-.219.484-.666.269-1.029-.136-.236-.401-.377-.666-.377-.128 0-.257.033-.368.104m30.249 21.836-.028.037zm-18.675-16.873c-.191.053-.36.182-.46.351-.078.133-.106.273-.1.418l.025.174.161.781.033.17.074.446.013.066c.033.318.058.633.078.972.018.265.021.534.025.794l.004.236c.012.72.012 1.386-.009 2.043-.041 1.294-.164 2.572-.318 3.982l-.033.285-.003.021.003-.033-.006.054-.012.129c-.154 1.112-.352 2.328-.608 3.709-.116.642-.248 1.328-.396 2.019-.128.591-.27 1.194-.41 1.778l-.021.087-.161.682-.352 1.468-.012.051c-.062.243.074.504.327.574.116.033.248.017.355-.045.112-.067.169-.161.215-.281.235-.626.434-1.258.628-1.895.194-.628.381-1.257.55-1.895.339-1.27.624-2.551.901-3.837.142-.638.269-1.278.38-1.924.125-.707.22-1.418.303-2.129.078-.708.149-1.415.202-2.118.051-.674.063-1.348.059-2.021-.005-.72-.024-1.439-.079-2.154-.062-.827-.228-1.643-.405-2.445-.074-.343-.414-.562-.753-.562l-.193.024m-3.624 21.412c0 .414.335.748.761.762.993.028 1.998.073 2.974.119l1.191.055c1.365.058 2.762.145 4.151.243.906.07 1.812.133 2.722.19l.509.037.517.037c.343.021.69.041 1.033.07l.141.009c.472.037.965.074 1.448.078.211 0 .409-.148.467-.359.029-.125.013-.26-.054-.377-.066-.116-.17-.193-.294-.227l-.069-.021c-.29-.07-.579-.106-.869-.152l-.959-.157c-.646-.104-1.286-.19-1.932-.277l.082.013c-1.418-.194-2.845-.331-4.271-.48-1.349-.141-2.697-.198-4.049-.248-.786-.029-1.576-.054-2.361-.075l-.401-.012c-.397 0-.74.356-.74.762m11.867 4.093c0 .115.046.23.129.313.095.097.202.113.31.13l.162.02v-.004l.053.009.063.007c.541.08.943.179 1.312.32l.248.136.141.136.012.021v.033l-.008.028-.041.071-.187.173c-.111.075-.235.149-.393.228-.224.029-.456.083-.687.153l-.302.106-.025.01-.256.123c-.149.101-.215.219-.231.418-.013.107.028.211.106.302.092.096.216.157.348.157.182-.004.377-.045.542-.087l.033-.004c.187-.021.364-.033.538-.033l.396.017.239.063.046.024.046.046.012.024.012.058c-.024.116-.062.231-.116.368-.169.359-.393.725-.698 1.146-.302.381-.563.69-.823.964-.301.322-.657.608-.996.881l-.083.07c-.273.194-.518.363-.761.508-.273.166-.559.307-.827.431-.257.099-.533.202-.824.277-.284.074-.595.137-.967.199-.322.032-.707.069-1.108.069-.368 0-.752-.021-1.257-.069l-.157-.025-.137-.017-.327-.066-.156-.033c-.256-.054-.518-.145-.766-.239l-.123-.045-.364-.166c-.211-.104-.426-.219-.657-.348-.187-.1-.364-.219-.539-.326l-.062-.042-.326-.235c-.43-.364-.803-.695-1.134-1.006-.471-.445-.897-.848-1.277-1.311-.128-.173-.236-.33-.335-.492-.107-.178-.194-.364-.265-.525-.099-.239-.186-.487-.265-.74-.086-.272-.132-.558-.181-.848-.029-.173-.19-.343-.327-.421-.107-.063-.236-.096-.36-.096l-.186.024c-.182.05-.335.17-.426.327-.104.174-.104.343-.071.546.079.496.19.956.344 1.397.211.616.425 1.097.682 1.501.298.48.674.915 1.039 1.312.529.587 1.037 1.104 1.546 1.575l.269.228.128.104c.153.129.322.244.488.36l.145.104c.257.178.542.33.819.479l.14.074.29.133.137.062.388.157.021.005.082.031.179.067c.355.104.707.202 1.063.253l.148.02c.203.029.409.059.621.074l.629.033.173.004c.286 0 .587-.016.948-.049.814-.079 1.574-.253 2.262-.518.368-.145.735-.313 1.166-.546.335-.182.653-.425.905-.62.653-.505 1.22-1.05 1.691-1.621.736-.896 1.236-1.667 1.567-2.428l.161-.422c.083-.252.108-.508.066-.765-.025-.133-.066-.261-.124-.381-.063-.115-.136-.215-.232-.33-.064-.084-.161-.149-.243-.199l-.017-.013c.107-.136.17-.276.236-.454l.037-.273-.029-.272c-.066-.216-.178-.394-.343-.555-.142-.14-.319-.256-.551-.355-.228-.1-.463-.174-.703-.224-.45-.091-.922-.148-1.455-.177-.232 0-.426.211-.426.442m2.44 1.088.013-.101-.018.107m-.07-.089.021.021-.021-.025m.029.008.017.041zm.012.174-.021.053.024-.053m-.044.057-.062.079.058-.078m-22.973-25.951c-.195.112-.344.307-.381.497-.124.628-.252 1.372-.26 2.142l.033.389.008.066.066.401c.038.186.116.372.187.529.169.355.45.648.835.872.187.107.397.187.633.236.131.028.277.037.426.049h.062l.335-.037.087-.012c.219-.038.435-.129.621-.216.19-.091.368-.202.579-.368.12-.095.244-.206.376-.347.232-.24.443-.525.608-.827.162-.303.306-.625.426-.964.099-.281.173-.579.231-.926.033-.211-.033-.377-.19-.468-.062-.037-.136-.054-.207-.054-.148 0-.285.078-.359.202l-.216.364-.219.368c-.128.219-.277.422-.393.575l-.029.037-.315.359c-.128.133-.264.261-.438.409-.116.079-.269.187-.442.273l-.356.104h-.062l-.099-.005-.161-.041-.137-.079-.1-.095-.049-.091-.087-.348c-.017-.202-.025-.393-.021-.587l.041-.542.009-.074c.042-.285.095-.579.152-.868.05-.253.025-.455-.082-.637-.108-.183-.29-.327-.5-.385l-.219-.025c-.149 0-.293.038-.422.112m-7.15-.149c-.732.009-1.468.045-2.2.095-1.522.1-3.04.211-4.549.443-.372.054-.736.128-1.1.224-.368.095-.732.214-1.088.338-.368.129-.736.27-1.087.435-.149.07-.298.145-.439.228-.14.079-.268.178-.384.281-.091.079-.17.224-.207.335-.05.148-.071.322-.021.476.075.219.178.413.327.587s.335.314.521.451c.173.132.359.239.546.352.301.182.611.347.926.5.686.335 1.41.596 2.138.819.397.124.798.231 1.2.348.41.119.819.234 1.232.334l1.125.252c.459.104.914.224 1.386.262.335.024.649-.253.736-.559.111-.418-.137-.811-.534-.939l-.281-.078h-.004l-.244-.058-.29-.066-.69-.187-.207-.062c-.591-.161-1.179-.298-1.729-.426l-.811-.179c-.352-.074-.716-.147-1.067-.235-.554-.14-1.112-.313-1.654-.529-.372-.169-.765-.359-1.125-.595l-.153-.1-.004-.004c.459-.178.938-.318 1.307-.418.518-.141.993-.248 1.456-.322 1.087-.133 2.2-.22 3.275-.307l1.005-.083c1.108-.091 2.25-.186 3.387-.211.318-.008.637-.008.959 0l.649.013c.38.009.695-.327.695-.698 0-.385-.314-.687-.695-.695-.596-.012-1.191-.025-1.786-.025l-.525.005m15.244 40.75-.046 1.004c-.021.257-.05.513-.083.77-.09.619-.198 1.236-.301 1.856l-.302 1.856c-.215 1.29-.438 2.581-.608 3.875l-.078.601c-.05.359-.1.716-.158 1.069l-.087.571-.075.405-.223.104-.33.149-.658.28c-.421.183-.831.385-1.236.601-.43.231-.852.463-1.27.707l-.571.339c-.232.145-.451.299-.666.463-.058.063-.1.133-.124.211-.034.124-.017.261.05.373.061.107.165.19.285.223.137.041.244.005.368-.049.22-.096.43-.207.641-.319l-.004-.004.232-.12.335-.17.479-.247.364-.187c.434-.219.885-.446 1.332-.665l.107-.05h.004v.004l.79-.377.409-.215c.215-.12.426-.253.563-.463.054-.086.087-.199.12-.298l.058-.19.12-.446c.07-.277.136-.555.194-.832.265-1.216.508-2.435.76-3.655.128-.629.244-1.261.356-1.89.116-.629.198-1.266.294-1.898.086-.571.165-1.138.228-1.703.058-.563.087-1.121.103-1.688.008-.377-.319-.687-.687-.687-.38 0-.674.313-.686.687m-1.84 12.253c-.231.442-.463.885-.703 1.323l-.062.116c-.182.339-.397.74-.596 1.157-.186.405-.421.91-.595 1.406l-.05.145-.107.294c-.116.327-.215.662-.265 1.001-.025.1-.025.195 0 .294.038.14.132.256.252.331.265.156.596.058.757-.195l.152-.264h-.003c.104-.19.202-.39.293-.584l.219-.435.434-.827.207-.388.798-1.51.571-1.088c.095-.186.132-.384.074-.591-.053-.189-.178-.355-.347-.455-.116-.07-.248-.104-.385-.104-.269 0-.533.128-.662.372m.456-.482c-.384.224-.5.717-.289 1.097.178.318.343.637.488.968l.108.269v.005c.256.656.479 1.323.678 1.942l.091.274.248.78.111.393.108.385.157.472c.091.253.293.438.571.438.174 0 .327-.074.434-.194v-.005c.1-.111.153-.252.161-.401.009-.479-.037-1.001-.152-1.687-.079-.463-.187-.935-.322-1.443l-.058-.207c-.124-.414-.273-.815-.438-1.216-.12-.286-.24-.567-.38-.844-.128-.257-.277-.504-.414-.752-.141-.258-.418-.394-.699-.394-.136 0-.277.032-.401.107m-5.891 3.086h.004l-.038.059c-.104.178-.128.396-.07.603.054.204.177.365.351.459l.484.273.326.224.025.021c.186.145.364.281.52.446.191.194.36.381.518.575l.025.033c.124.166.252.34.364.521l.149.251.224.364c.095.145.223.299.447.36l.149.021c.124 0 .243-.033.363-.065l.141-.038c.231-.05.479-.095.761-.136.306-.034.563-.055.81-.059l.108-.004c.236 0 .476.021.683.041.521.079.934.186 1.298.335l.273.125c.1.045.177.065.261.065l.12-.017c.124-.033.231-.116.294-.227.082-.146.087-.323.012-.48-.041-.083-.107-.157-.19-.198-.311-.17-.625-.323-.956-.456v.005l-.207-.079c-.401-.14-.848-.223-1.287-.231l-.127-.004c-.166 0-.331.004-.505.021-.21.012-.426.053-.637.091l-.095.017-.315.061-.248.059-.318.083-.141-.587c-.065-.231-.149-.455-.26-.666l-.005.005c-.079-.149-.17-.303-.269-.443-.219-.307-.5-.595-.869-.889l-.327-.253-.269-.198c-.178-.129-.385-.224-.575-.331-.124-.065-.26-.1-.393-.1-.248 0-.488.112-.633.327m-2.775-5.253-1.021 1.1-.091.092v.004c-.265.281-.575.611-.869.968-.286.343-.641.769-.939 1.203l-.082.124-.178.257c-.194.289-.377.586-.509.901-.049.091-.074.186-.074.285.004.146.059.285.157.385.215.224.563.211.782.004l.219-.215c.154-.157.298-.322.435-.488l.323-.359.633-.687.302-.323c.388-.412.777-.835 1.158-1.253h.004l.827-.905c.14-.153.228-.335.228-.551-.004-.193-.083-.388-.224-.528-.095-.096-.215-.162-.347-.194-.256-.066-.546-.013-.732.194m.573-.336c-.43.119-.666.562-.563.988.091.352.169.703.224 1.063l.029.285v.005c.074.703.12 1.406.157 2.055l.017.286.038.826.003.414.005.397.024.495c.025.265.17.497.442.566.166.042.335.014.468-.074.12-.083.215-.202.252-.348.132-.458.223-.971.285-1.666.041-.467.062-.95.058-1.476l-.004-.212c-.016-.426-.054-.855-.116-1.281-.045-.306-.087-.612-.153-.914-.058-.277-.132-.554-.202-.831-.071-.282-.302-.488-.576-.559-.132-.037-.277-.037-.413 0m-6.481 1.441.004.003-.05.046c-.145.146-.227.352-.227.567.003.206.082.397.223.528l.397.395.26.301.021.024c.14.187.272.368.388.567.132.235.244.463.347.69l.012.042c.079.192.157.396.22.599l.079.285.12.409c.058.166.145.348.339.468l.14.055c.116.032.245.028.368.028l.146.004c.235.009.487.029.769.059.306.049.558.099.797.152l.108.028c.232.063.455.145.649.22.483.215.856.422 1.17.662l.236.19c.086.069.156.107.235.128l.124.017c.124 0 .252-.054.344-.145.116-.116.165-.29.132-.46-.021-.09-.062-.173-.132-.239-.256-.24-.521-.472-.807-.679l-.182-.132c-.352-.24-.761-.431-1.179-.55l-.12-.037c-.157-.042-.318-.079-.492-.108-.211-.041-.43-.058-.641-.073l-.095-.009-.318-.021-.257-.005h-.327l.017-.604c0-.24-.024-.476-.078-.711v.004c-.038-.165-.083-.335-.145-.501-.128-.352-.327-.706-.607-1.079l-.248-.33-.211-.261c-.137-.166-.315-.314-.472-.464-.104-.094-.228-.161-.356-.197-.24-.063-.5-.018-.699.151m7.505-11.85c-.034.725-.075 1.448-.137 2.168-.054.637-.12 1.273-.182 1.91-.124 1.295-.269 2.58-.417 3.871-.07.596-.135 1.188-.188 1.778-.05.529-.095 1.063-.157 1.592-.029.211-.066.418-.054.633.016.228.148.43.381.496.132.037.277.017.397-.054.124-.07.19-.178.239-.306.104-.281.134-.583.187-.877l.153-.872.318-1.891c.12-.694.232-1.389.322-2.092.087-.633.157-1.267.223-1.898.161-1.482.265-2.965.336-4.454.02-.385-.331-.708-.704-.708-.397 0-.69.323-.707.708"/><path d="m34.454 78.671c-1.043.014-2.083.089-3.125.13-.495.019-.991.032-1.484.061l-.717.063c-.335.033-.658.092-.985.166-.343.078-.587.43-.587.772 0 .215.087.419.236.571l.166.128c.127.074.261.111.405.111l.145.021-.058-.008c.231.029.455.049.687.059.24.007.48 0 .715-.01.496-.007.993-.02 1.489-.036 1.042-.033 2.08-.108 3.126-.12.517-.004.943-.422.943-.942 0-.505-.422-.943-.931-.943h-.013.004z"/></g></svg>