<svg xmlns="http://www.w3.org/2000/svg" viewBox="0 0 1892.92 2003.98">
  <title>scribbble_4</title>
  <path d="M1542.78,641.16c.28.22.81.44.8.66-.08,4.53,2.6,8.31,3.4,12.58.9,4.85,2,9.65,3,14.46a174.49,174.49,0,0,1,3.49,21.64c.69,7.3,1.61,14.59,1.73,21.92a127.56,127.56,0,0,1-5.94,42.14,96.49,96.49,0,0,1-5.28,12.77c-2.12,4.33-4.94,8.45-7.37,12.63-2.16,3.7-5,6.67-7.57,9.89-2.68,3.38-6.34,6-9.79,8.74a64,64,0,0,1-24.18,12.15c-8,2-16.09,3.85-24.37,4.35-16,1-31.89-.1-47.32-4.71-21.78-6.51-41.21-17.49-59.11-31.44-22-17.19-39.09-38.92-55.76-60.94a397,397,0,0,0-44.79-49.37c-15.4-14.49-32.66-26.56-49.34-39.4-8.64-6.65-16.69-14.08-22.06-23.82a54,54,0,0,1-6.73-23.36,147.65,147.65,0,0,1,1.53-33.4c.15-.85,0-1.86,1.16-2.23a.72.72,0,0,0,.39-1.11c-2.43-3.22-1.1-6.86-.92-10.24.46-9.07,1.64-18.06,4.59-26.73.25-.76.27-1.66,1.79-1.93-.84,6.35-3.38,12.28-3.33,18.63,3.2-17.65,9.09-34.16,20.17-49-1.72,1-4.49,4.58-5.86,7.11-2.28,4.21-4.75,8.32-6.85,12.62-1.27,2.57-2,5.43-3,8.11-.25.64-.26,2-1.37,1.61s-.51-1.45-.2-2.13c2.55-5.8,4.61-11.8,7.7-17.36a75.76,75.76,0,0,1,21.3-24.77,65.18,65.18,0,0,1,22.66-11.09c11.16-2.86,21.52-.42,32.07,2.49,8.76,2.42,16.77,6.91,25.67,8.9,7.92,1.77,15.79,1.42,23.8.44,10.94-1.34,20.45-5.91,29.47-11.81,4-2.57,7.78-5.36,11.69-8,1.11-.74,2.22-2.13,3.7-.46a.6.6,0,0,0,.94-.22c.49-1.33-.55-.12-.82-.45-.9-1.1.12-1.46.68-1.86,3.51-2.55,7.06-5,10.6-7.56a243.92,243.92,0,0,1,28.75-18c3.64-1.89,7.24-4.08,11.3-4.8,1.08-.19,3.24-1.83,4.15.77a2.77,2.77,0,0,0,1.13-2.05c.18-1,.92-1.72,1.91-1.08.81.51,1.11.22,1.54-.31,1-1.19,2-2.45,2.67.17,1.15-.41,2.88-.49,3.34-1.3,1.2-2.1,3.24-1.68,4.65-1.53,2,.22,4.56-1.6,6.14,2.09-.43-4.28-.44-4.38,3.58-4.82,18.43-2,36.23,0,53.22,7.93,17.25,8.05,31.4,19.64,41.27,36,3.79,6.29,7.57,12.76,8.47,20.38.2,1.67,1.84,3.2.16,4.92,3.29,3.23,1.89,7.48,1.57,11-.25,2.83,1,6-1.08,8.71-.45.59.17,1,.47,1.41a2.5,2.5,0,0,1-.16,3c-2.25,1.32-1.15,3-1,4.7.32,3-.75,6-1.85,8.67a37.46,37.46,0,0,0-2.68,9c-.14,1,.34,2.32-1.46,2.19-.11,0-.23.22-.35.34,2.5,1.21-.89,3,.46,4.4a.84.84,0,0,1,0,.75c-3,1.81-1.44,5.45-3.16,7.84-1,1.33,0,3.33-.86,4.89-.1.18.1.69,0,.71-2.63.91-1.51,4.18-3.5,5.51-.94.62-.51,1.59-.29,2.46.12.48,1.29-.77.8.4-.81,1.88-.83,3.88-1.28,5.78-.67,2.84-2.24.95-3.59.09,1.07,1.36.45,3.54,2.46,4.31.55.21.2.56.1.85-1.1,3.22-1.46,6.61-2.25,9.9a14.31,14.31,0,0,1-1.81,4.42,2.88,2.88,0,0,0-.37,2.8c.49,1,1.31,1.24-.59,1.48-1.17.15.17,1.29.44,1.88.42.92,1,1.67.43,2.76s-1.67.33-2.56.35c.37,1.12,1.36.79,1.87,1.3s1,.79.47,1.3c-2.43,2.17-.52,4.22-.15,6.46a49.26,49.26,0,0,1,.52,10.37c-.22,4.64,1,9,1.59,13.56.73,5.43,2.47,10.67,3,16.15.2,1.93,1.65,3.81,1.18,5.68-.56,2.21,1.78,3.75.85,5.84-1.1-.47-2-1.48-3.54-1.43a8.11,8.11,0,0,0,.39,1.16c.43.8.35,1.79-.37,2-.93.32-1-.64-1-1.4-.06-1.11-1-.62-1.57-.89-.22.4.12.49.27.69,2.23,3,2.22,3,4.7.44A5,5,0,0,1,1542.78,641.16Zm-12.33-66.47c-1.35,1.31-1.91.76-1.83-.85.12-2.3.49-4.58.71-6.87.56-5.84,2.17-11.52,3.64-17.19.26-1,.39-3.49,2.79-1.86.48-.86,1.87,0,2.24-1.3.5-1.7-1.25-.69-1.33-1.15-.31-1.67-1.91-3.15-1.39-4.77.8-2.49,1.4-5,2.11-7.52.83-2.94,1.88-5.83,2.74-8.76,1.61-5.5,3.24-11,4.7-16.52.74-2.82,1.57-5.61,2.33-8.41s.87-6.06,1.47-9.06a67.39,67.39,0,0,0,.35-23.31c-1.24-8.16-4.7-15.7-9.16-22.71-11.64-18.29-28.22-29.79-49-35.19-13.14-3.41-26.49-2.86-39.8-.76-2.27.36-4.5,1-4.39-2.92-.69,2.56-1.92,3.27-4.24,2.7-1.44-.36-2.8,1.34-4.45.86.31,3-2.16,1-3.11,1.71-.2.16-.56.1-.76.26-1.53,1.22-2,.32-2.32-1.4,0,2.94-1.31,4.22-4,4.06a3.3,3.3,0,0,0-2.81,1.56c-.39,1.79-1.82,2.08-3,2.43a22.73,22.73,0,0,0-6,3c-2.75,1.83-6,3.16-8.58,5.33-1.45,1.21-3.64,1.28-4.75,2.32-1.55,1.46-3.94,1.79-4.94,3.87-.06.12-.53.17-.7.08-1-.53-1.14-.58-1.32.54a1.63,1.63,0,0,1-1.33,1.5c-1.75.27-2.74,2.13-4.72,2a2.32,2.32,0,0,0-2.13,1.45c-1.29,3-4.17,4.46-6.68,6.07-4.62,3-9.15,6.1-13.79,9.05-3.88,2.47-7.73,5.12-11.78,7.19a73.33,73.33,0,0,1-18.17,6.47c-14.48,3.09-28.69,2.75-42.6-2.36-8.75-3.22-17.26-7.12-26.41-9.17-4.25-.94-8.61-2-12.9-1.25-8.49,1.43-16.07,5.16-23.08,10.13-1,.68-1.88,2.54-3.69,1-.55-.45-.56.47-.71.8-2,4.41-6.06,7.23-9.24,10.61a91.53,91.53,0,0,0-6.52,8.58c-3,4-5,8.83-7.37,13.29,0,.09-.27.08-.24.07-1-.45.68-1.11-.63-1.75.32,1.85-2.6,3-.59,5.16a1.71,1.71,0,0,1-1.42,1.94c-.61.09-1.78.72-1.08,1.84s.6,3.42-.24,4.06c-1.16.87-1.14.86-.88,2.09a2.87,2.87,0,0,1,.06,1.33,98,98,0,0,0-2.92,14.58c-.54,3.62-1.77,7.32-.45,11,1.23,3.4.67,6.87.87,10.32.26,4.68-.9,9.24-.89,13.92,0,5.61,1.08,11.12,1.19,16.69.22,11.23,5.06,21,10.38,30.27,3.91,6.79,10.32,12,16.68,16.94,11.07,8.52,22.63,16.41,33.18,25.59,9.86,8.58,19.61,17.27,28.64,26.74,9.4,9.85,19.1,19.46,27.14,30.49a536.17,536.17,0,0,0,37.6,46.3c13.45,14.72,29.31,26.51,46.8,36.18,24.19,13.39,49.85,17.29,76.92,12.67,9.94-1.69,19.75-3.83,28.7-9,22.92-13.2,34.54-34.13,40.25-58.9,3.9-16.92,2.85-34.11.61-51.19-.89-6.75-1-13.62-2.78-20.26-1.17-4.31-1.35-8.83-2.94-13.08-.57-1.52.3-3.68-.45-5-1.35-2.42-1.68-5.11-2.76-7.56-.86-1.93-.06-4.22-.93-6-1.72-3.53-2-7.37-3-11-2.18-7.86-2.48-16-3.71-24-.49-3.17-.12-6.34-.21-9.51-.16-5.87.72-9.29,2.83-13.17a3.69,3.69,0,0,0,.12-1.3c.72.66,1,2,2.49,1.38,1.79-.8,0-1.75.13-2.62.08-.59.49-1.31-.66-1.27-.82,0-1.37.22-1.26,1.24A1.16,1.16,0,0,1,1530.45,574.69Zm-14.11,215.44c4.74-3.87,9.62-7.62,12.39-13.3A123.72,123.72,0,0,1,1516.34,790.13Zm36.15-304.06c.27-.82.85-.32,1.47-.28.87,0,1.44-.59,1.54-1.54.06-.54.24-1.18-.48-1.32-1.27-.26-.63,1-1,1.46-.54.68-1.26.5-1.93.67a.63.63,0,0,0-.34.88C1551.85,486.25,1552.1,486.29,1552.49,486.07Z" style="fill: #2c2c2c"/>
  <path d="M986.43,1407.89a112.79,112.79,0,0,1,14.54-9.36c3.15-1.77,6.43-3.3,9.61-5,1.28-.68,2.29-1,2.87,1.19-.63-2.33.77-2.8,2.14-3.3a54.32,54.32,0,0,0,5.35-2c1.58-.78,2.23-.36,2.35,1.64.61-4,4.16-3.78,6.37-4.92a32.88,32.88,0,0,1,15.17-3.69,8.89,8.89,0,0,0,3-.29c3-1,6-.58,9-.45a80.14,80.14,0,0,1,9,.67c5,.76,10.14.9,15.17,1.91,5.81,1.16,11.63,2.35,17.48,3.3,15.29,2.49,29.91,7.31,44.45,12.41,11.92,4.17,23.72,8.67,35.3,13.69a171.61,171.61,0,0,1,37.79,22.85c12.86,10.09,25.28,20.76,38.6,30.25,7,5,14.28,9.34,21.57,13.78,15.78,9.6,30,21.12,41.81,35.36,7.46,9,13.5,18.91,19.79,28.69,7.58,11.77,15.85,23.05,23.86,34.51a105.94,105.94,0,0,1,13.64,26c2.78,8,4.57,16.24,4.2,24.69-.39,8.85-1.23,17.69-4.79,26a112.17,112.17,0,0,1-5.55,11.14c-2.85,5-6.78,8.89-10.8,12.7-8.1,7.66-17.73,12.81-28.28,16.39a143.45,143.45,0,0,1-22,6,121,121,0,0,1-37.08.69,124.7,124.7,0,0,0-51.79,3.55c-8.47,2.41-16.94,4.93-25.07,8.14-17.29,6.85-34.07,14.9-51,22.65-14.08,6.47-28.33,12.56-43.44,16.37a171,171,0,0,1-23.47,4.39c-12.38,1.32-24.71.24-37-1.72a317.9,317.9,0,0,1-42.13-9.49c-21.8-6.61-39.86-18.64-53.67-36.81-11-14.48-21.47-29.38-29.71-45.62-11-21.67-15.42-44.77-14.17-69.08.61-12.06,1.19-24.12,2.45-36.12,1.47-14.09,3.83-28,8.35-41.53a222.84,222.84,0,0,1,13.88-33.26c8.94-16.94,18.91-33.24,31.25-47.93,6.68-8,13.75-15.6,22.17-21.88,2.94-2.2,5.59-4.78,8.81-6.59.09.9-.31,1.32-1.09,1.87a26.5,26.5,0,0,0-6.6,5.94,2.36,2.36,0,0,0-2.12.8c-2.38,2.41-5,4.59-7.35,7-2.78,2.9-6.06,5.39-8.05,9a12.6,12.6,0,0,0-4.76,5.84c1.65-1.9,4.44-2.92,4.69-5.91a3.7,3.7,0,0,0,2-1.25c2.92-3.18,6-6.16,9.13-9.18,2.13-2.1,5.19-3.35,6.39-6.38,1.11.43,1.65-.5,2.32-1,3.17-2.51,6.31-5.06,9.71-7.26,2-1.32,4-2.73,6-4.1l-.37-.56c-2.66,1.63-5.35,3.21-7.95,4.93C987.74,1408.05,987.26,1408.72,986.43,1407.89Zm-1.61,7.69c-.48-.78.17-1.52.12-2.35-1.14,1.13-3.26,1.15-3.54,3.63,1.32-.68,2.21-1.67,3.5-1.36-1.45,2.19-4.11,3.29-5,6.16-.45,1.56-2.93,1.89-3.78,3.58-2.18-1.61-1.64.3-1.72,1.35s-1,1.49-1.68,2a10.55,10.55,0,0,0-2,2.07c-3.21,3.87-6.62,7.57-9.9,11.39a54.34,54.34,0,0,0-3.76,4.16c-1,1.53-1.92,3.31-3,4.91-4,5.9-8.49,11.57-12,17.79-4.17,7.44-8.52,14.8-12,22.63-2.94,6.61-6.39,13-8.47,20-1.32,4.41-3.64,8.43-4.43,13.08-.94,5.54-2.88,10.86-3.71,16.47-1,7-2.36,14-2.81,21-.63,9.83-1.42,19.65-1.71,29.51-.43,14.76-.08,29.4,3.33,43.84a114.49,114.49,0,0,0,7.48,22.88c8.08,17.09,19,32.43,30.07,47.64,12.16,16.66,27.84,28.37,47.77,34.38a302.34,302.34,0,0,0,43.3,9.39,119.68,119.68,0,0,0,42.73-1.49c18.17-3.86,35.21-10.75,51.9-18.64,21.67-10.23,43.22-20.75,66.05-28.31,14.57-4.83,29.4-8.12,44.81-8.44,8.19-.17,16.3,1,24.42,1.78,20.52,1.9,39.93-2.27,58.68-10.24,9.35-4,17.88-9.28,24.64-17,10.29-11.78,14.08-25.95,14.63-41.16.56-15.76-4.68-29.83-13.53-42.6-11.64-16.79-23.62-33.37-34.43-50.71-11.2-18-26-32.15-43.94-43.27-11.31-7-22.56-14.13-33.28-22.07-10.08-7.47-19.54-15.72-29.41-23.45-10.87-8.51-22-16.7-35-21.83-11-4.35-22-8.51-33.09-12.67-10.56-4-21.45-6.93-32.15-10.51a52.48,52.48,0,0,0-11.24-2.26c-3.58-.35-6.28-2.73-10.32-2.49s-8.51-1.3-12.72-2.56a22.18,22.18,0,0,0-5.49-.39,62.32,62.32,0,0,1-10.76-.61c-3.3-.54-7.29,1.71-9.89-2.39.9,1.35,1,2.66.09,3.65s-2.21.8-3.35.45c-2.14-.65-4.27-.3-6.44-.23-3.29.1-6,2.34-9.33,2.25-1,0-2-.9-3,0-1.58,1.39-3.81,1.14-5.49,1.93-3.12,1.47-6.46.68-9.55,1.74a33.44,33.44,0,0,0-5.9,2.71,13.1,13.1,0,0,1-5.54,2.16c-1.06.07-1.64,1.29-2.78,1.09.13,2.4-2,2-3.31,2.76-1.59.93-3.44,1.26-4.93,2.48C991.22,1411.7,988.39,1414.19,984.82,1415.58ZM1340.3,1682c5.24-1.4,16.62-11.14,17.26-15A78.27,78.27,0,0,1,1340.3,1682Z" style="fill: #2c2c2c"/>
  <g>
    <path d="M1039.46,780.27c-3.76,1.59-6.64,4.44-9.51,7.12-7.63,7.11-14.93,14.58-20.87,23.2-5,7.17-10.13,14.19-14.36,21.84-1.49,2.69-1.55,2.65-4.12,1.14a1.38,1.38,0,0,0-.71-.08,3,3,0,0,1-2.95-4c2-6.63,5-12.78,8.26-18.86a127.09,127.09,0,0,1,21.51-28.89A168.36,168.36,0,0,1,1033,766.93c9.49-7.53,19.17-14.75,30.52-19.32a120.93,120.93,0,0,1,46.91-9c15.13.14,30,3.07,45,3.9,30.11,1.67,55.53-7.7,72.72-34,3.57-5.46,6.41-11.38,9.66-17.05,1.3-2.26,3.15-3.75,6-3.4,2.5.31,4.4,2.8,5.23,6.49.92,4.09,0,8-1.4,11.7a101.63,101.63,0,0,1-11.68,23c-11.1,16.05-26.13,25.7-45.46,29-16.12,2.76-32,1.78-47.83-1.63-11.19-2.4-22.62-2.79-34-3.14-8.76-.27-17.3,1.26-25.75,3.11a44.23,44.23,0,0,0-13.11,5,7.77,7.77,0,0,1-1.5.5c-.58-.82.75-.65.5-1.3-5.19,1.45-9.41,4.78-14.09,7.21-.92.47-.75.12-2.05-.29s-2.66.35-3.35,2c1.1,0,1.63-1.13,3.07-.68-1.61,2-3.7,3.2-5.47,4.66-2.37,2-5.19,3.37-7,6Zm34.7-32.46c-20.74,3.75-56.47,32.25-67.27,50.15,9.9-10.43,19.56-20.56,30.63-29.19S1060.65,752.56,1074.16,747.81Zm101.53-1.55c6-.29,11.83-.93,17.27-3.65C1187.22,743.87,1181.42,744.91,1175.69,746.26Zm21.68,8.71a20.24,20.24,0,0,0,9.24-3.16ZM998.2,810.53a14.12,14.12,0,0,0-2.69,5.2C998.91,815.06,996.61,811.83,998.2,810.53Z" style="fill: #2c2c2c"/>
    <path d="M1114.71,692.56c-1.85-1.46-3.74-2.87-5.55-4.38a6.83,6.83,0,0,1-2.05-3.77,2.25,2.25,0,0,1,.75-2.46c1.09-.84,1.12.36,1.69.77,11,8,22.9,14.73,34.63,21.64a71.92,71.92,0,0,1,7.75,5.49c.77.61,2.13,1.41,1.07,2.9-.89,1.26-2,.94-3.16.47-5.86-2.48-11.25-5.86-16.77-9C1126.75,700.69,1120.75,696.6,1114.71,692.56Z" style="fill: #2c2c2c"/>
    <path d="M1189.05,712.27a6,6,0,0,1-1.47-4.53,239.86,239.86,0,0,1,4.89-25.08c.55-2.18.89-1.43,2.92-.8,4.95,1.52,3.47,5.24,3.49,8.39a48.92,48.92,0,0,1-2.78,16.29c-.47,1.38-.88,2.77-1.29,4.16C1193.67,714.56,1192.68,714.88,1189.05,712.27Z" style="fill: #2c2c2c"/>
    <path d="M1175.35,711.41c-4.46-.58-5.64-4-7.3-7.23-3.1-6-5-12.44-7.17-18.76-.4-1.15-1.26-2.78-.11-3.49s2.41.65,3.45,1.42c1.52,1.15,2,3,2.69,4.65,2.81,6.86,5.46,13.78,8.14,20.7A3.47,3.47,0,0,1,1175.35,711.41Z" style="fill: #2c2c2c"/>
  </g>
  <g>
    <path d="M871.6,1127.38c4.65-4.78,9.44-7.42,15.42-3.09,2.62,1.88,4.36,7.16,3.44,10.54,2.45-2,4.28-2.25,6.39.66,1.74,2.4,4.81,3.79,6.71,6.11,7.65,9.36,14.92,19.06,17.6,31.16.69,3.1-1.47,6.92,2.81,8.88,2.19,8.29,4.42,16.6,4.11,25.29a50.68,50.68,0,0,1-.92,6.2c-1.43,8.73-2.85,17.46-4.37,26.17-.1.59-1,1-1.47,1.57a9.76,9.76,0,0,0-.83,1.72c3.62,1.58.92,4.18.32,5.56-1.8,4.14-4.37,7.95-6.65,11.89-.27.46-.83.89-.83,1.33,0,4.86-1.4,8.8-5.46,12-1.43,1.11-1.58,3.88-3.09,5.54.19,1,.8,2.12.52,3-2.84,8.77-5.82,17.49-8.8,26.35,2.06,3,1.6,11.92-1.2,14.8l1.77.13c.56,2.13.68,4.23,1.61,5.88,4.72,8.41,9.55,16.63,17.32,22.94,8,6.47,15,14.08,22.75,20.81,2.75,2.38,6.42,3.76,9.79,5.35,2,.93,2.9,1.77,1.62,4-3.42,5.92-7.28,7.81-13.41,4.38-8.29-4.64-16.71-9.58-23.64-15.94-8.56-7.86-16-17-23.27-26.17-7.78-9.82-7.83-21.54-6.05-33.3a111.84,111.84,0,0,1,12.37-36.45c7.48-13.91,11.72-28.91,14.44-44.44,2.84-16.26,2.53-32.36-2-48.22-3.47-12.11-8.51-23.52-17.42-32.84-6.47-6.78-12.76-13.72-19.11-20.6A3.69,3.69,0,0,1,871.6,1127.38Zm39.35,49q2.64,15.76,5.29,31.53A66.7,66.7,0,0,0,911,1176.35Zm-13.08,171.52-11.68-21.23A33,33,0,0,0,897.87,1347.87Z" style="fill: #2c2c2c"/>
    <path d="M875.21,1189.24c-3.55,5.66-5,6.3-11,4.61-6.43-1.81-12.78-3.93-19.17-5.89a32.51,32.51,0,0,1-3.16-.82c-1.75-.73-3.41-1.64-5.11-2.48,1.75-1.36,3.32-3.36,5.3-3.91a14.36,14.36,0,0,1,7.64,0C858.11,1183.31,866.41,1186.28,875.21,1189.24Z" style="fill: #2c2c2c"/>
    <path d="M856.07,1247.26c-5,1.27-10,2.73-15.21,3.78-1.11.23-2.52-1-3.79-1.61a16.11,16.11,0,0,1,1.84-3.58,8.92,8.92,0,0,1,3.29-2.32c5.56-2.27,11.17-4.41,16.79-6.55a10.67,10.67,0,0,1,3.17-.78c.73,0,2,.26,2.13.72a3,3,0,0,1-.31,2.56C861.57,1242.05,859,1244.44,856.07,1247.26Z" style="fill: #2c2c2c"/>
    <path d="M961.14,1331.84c-.9,4.35-3,5.71-6.14,5.13a118.73,118.73,0,0,1-12.73-2.79c-1.33-.4-2.21-2.3-3.29-3.52,1.89-1.29,4-3.92,5.63-3.62C950.16,1328.07,955.52,1330.12,961.14,1331.84Z" style="fill: #2c2c2c"/>
    <path d="M965,1301.88c-5.62,7.29-13.71,4.7-20.73,5.84-.64.1-2.27-1.49-2.15-1.82.6-1.66,1.53-4.44,2.54-4.52,6.41-.56,12.87-.51,19.31-.61C964.27,1300.76,964.53,1301.31,965,1301.88Z" style="fill: #2c2c2c"/>
    <path d="M858.86,1210.75c-1.67,1.22-3.2,3.16-5,3.52a133.17,133.17,0,0,1-15.34,1.8c-1.09.08-2.27-1-3.41-1.5.77-1.15,1.32-3,2.33-3.32a82.56,82.56,0,0,1,12.28-2.42c2.85-.33,5.78.09,8.67.17Z" style="fill: #2c2c2c"/>
    <path d="M944.21,1267.19c.14,1.58.43,2.3.21,2.81-2.29,5.25-4.48,10.57-7.13,15.65-.75,1.44-2.89,2.17-4.82,2.68C935.06,1280.65,936.87,1272.79,944.21,1267.19Z" style="fill: #2c2c2c"/>
  </g>
  <path d="M952.66,1012.15c2.19,4.71,6.4,8.34,2.46,13.53-.77,1,.77,1.27,1.08,2,2.8,6.34,2,13.07,2.28,19.7.15,3.34-2,5.46-3.23,8.07-.91,2-2.21,1.38-3.26-.09-1.13,1.79-4,.9-4.79,2.93-.35,1.68.77,2.4,1.62,3.26-.39,2-2.56.64-3.51,2-1.56,2.16-4.13.42-6.06,1.12-4.43,1.62-10.28,1-11.86,7.39a2.82,2.82,0,0,1-3,2c-2.51.22-1-2.44-2.1-3.31-.41-.48-1.08-.41-1.26.41-1.35,6.3-1.32,6.3-9,7l-1.1,3.06c-2.53,1.53-3.14-1.78-5-1.59-10.36,6.82-13,10.09-28.15,10.13l1.74,2c-1.35.79-2,4.51-4.46,1.1a57.81,57.81,0,0,1-5.91,3.59c-4.73,2.17-9.57,3.6-14.06-.29-2.36,1.86-1.9,5.63-5.31,6-1.58.32-2-1.28-3.57-2-2,1.06-4.9,1.31-6,4.57-.68,2-2.61,1.11-4,1.16s-2-2.4-4-1.77c-4.31,3.3-8.47,7.55-14.32,4.83l-5.36,5.37c-4.18,0-7.52-1.87-10.75.68-2.32,1.83-6.74-1.26-9.33,2.18-5.28-1.26-9.92,2.42-15.16,1.92a39.8,39.8,0,0,0-20.14,3.36,3.38,3.38,0,0,1-1.73.32c-8.93-1.06-17.44,2.69-26.42,2.07-6.26-.44-12.68-1-19,1.53-2.68,1.09-7.4,1.46-9-.1-2.89-2.77-6.56,3.12-8.25-1.6-3.1-.07-6.54.65-9.16-.49-1.66-.73-4.6-.71-5.25-3-1-3.54-4.64-4.1-6.6-6.53.72-1.49,1.82-2.69,1.71-4.7-.28-5,1.47-10.76-.52-14.78-2.11-4.28.64-9.29-3.24-12.81-.62-.57-.25-2.43-.06-3.65,1.22-7.72-2.93-15-1.9-22.66-3.72-11.83-3.08-24.57-7.5-36.26.82-9.45-3.57-18.13-4.11-27.48-.22-3.63-.32-8-1.8-11.29-1.78-3.87,0-8.43-2.19-11.21-2.8-3.55,1.11-8.33-3.08-11,.7-5.21-.65-10.24-2.06-15.09-2.3-7.92-.6-16.61-5.07-24.16-1.1-1.86-.72-4.88-.35-7.27.42-2.71-2.06-4.06-2.14-6.73-.3-8.94-3.82-17.5-3.58-26.57-3.82-4.41-.3-10.16-2.68-14.82s-.87-9.72-.91-14.55c0-3.19-2.55-5.39-2.12-8.61a33.34,33.34,0,0,0,0-8.41c-.28-2.21,2.06-4.36,1.29-5.46-1.25-1.78-1.1-3.4-1.21-5.18-7.57-3.46-10.72-9.62-11.31-17.67-.52-7.21.76-14.32,5.87-19,7.14-6.57,13.71-14.05,22.79-18.34a380.11,380.11,0,0,1,38.52-15.66c10.63-3.66,21.14-7.77,31.79-11.45,19.69-6.79,39.42-13.44,59.11-20.21,13.68-4.7,27.3-9.54,41-14.21,4.39-1.51,8.93-2.55,13.33-4,7.67-2.58,15.22-5.53,22.94-8q15.78-5,31.74-9.33a20.37,20.37,0,0,0,7.83-3.82c3.57-2.88,3.71-2.71,8.33.88-.59.66-1.19,1.31-1.87,2.06,2.8,1.69,4,.75,3.81-2.08,1.42-1.64,3.11-.53,4.49-.89,1.42.65.92,2.11,1.33,3.07,2.06,1.45,4.32.11,6.41.94a5,5,0,0,0,4.55,4.31V711l-3.63,3.85c4.58,4.32,7.42,9.08,4.23,15.48,2.34,1.33-1.1,3.69,1.16,5.61,1.08.92.61,4.26.08,6.31-.71,2.7,3,4,1.76,6.61-1.63,1.2-1.64-1.27-2.8-1-2.91,4,2.18,2.85,3,4.44l-1.76,1.93,1.67,2-3.43,3.43c1.86,4.27,4.36,8.52,3.44,13.33-.85,4.49,2.33,8,2.15,12.37-.16,4.07-1.75,8.58,1.61,12.41.62.71,0,2.43.1,3.67.22,2.92-1.45,5.58-.22,8.84,1,2.73.62,6.24.11,9.27-.65,3.87,2.42,6.65,2.18,10.5-.22,3.41-1.94,7.5,1.65,10.49.15.13.06.6,0,.91-1.33,8.94,2.39,17.5,2,26.41-.16,3.48-.72,7,1.53,10.61,1.51,2.44-1.3,6.09,0,9.64.68,1.85,1.77,3.74,2,5.7.23,1.73,1,4-.5,5.32-2.68,2.32,2.44,3.35.61,5.3,2.62,3.25,0,7.3,1.78,10.84s1.32,7.67,2.22,11.3c2.29,9.22,1.6,18.92,4.93,27.91-2.35,4.51,1.09,8.7.71,13.28s.31,9.89,2.5,13.78c1.59,2.82-1.34,4.63,0,5.92,1.89,1.81,0,4.25,1.83,5.91,2.15,1.92.62,4.69,1,7,.24,1.45-.35,2.94,1,4.31C956.28,1007.29,953.68,1009.52,952.66,1012.15Zm-22.86,21.71c-.53-2.45-3.91-2.8-3.24-5.56.82-3.37-1.75-5.56-2.52-8.37-.84-3.06-2.12-6-3.15-9-3.32-9.7-2.42-20.45-7.36-29.77-.39-.73-.1-1.82-.15-2.74-.47-8.35-4.42-16.17-3.75-24.7-4-9.11-2.47-19.28-5.45-28.66-1.13-3.55-.45-7.55-1.81-11.43s0-8.13-1.87-12.37.34-9.27-1.75-14.27c-1.83-4.39-.9-10-2-15.07-1.27-6.11-.18-12.55-1.92-18.91-1.39-5.1,0-10.67-1.84-16.12-1.35-3.92-.76-8.74-.13-13,.67-4.49-2.72-8-2.08-12.37a50.55,50.55,0,0,0,.07-7.49,67.68,67.68,0,0,1,.08-8.43c.3-2.4-1.88-5.52-1.1-6.25,3.4-3.24-1.37-4.72-1-7.39.63-5.23-.8-10.84.45-15.84,1.35-5.39-4.48-9.68-1.15-14.82-1.41-4.86-.93-9.84-1-14.79,0-3.44,0-6.87,0-10.31s-.22-6.93,1.23-10.2c-3-2.68.25-6.66-1.94-9.51-1.52.55-2.34,3.22-4.6,1.15-2.51-2.3-4.9-1.78-7.06.73-.77.9-1.53,2-3,1.72-2.39.3-.9-6.66-5.24-2.75,2,1.54,2.18,4,3.4,5.9-.58.21-1.14.36-1.66.61a37.12,37.12,0,0,1-19.39,3.74c-4.38,4.32-4.38,4.32-5.36,8.91-2,1-4.83-.38-6.41,2l-.65-.69v-4.22c-2,4.77-4.9,2.51-7.19,3.89-.17,1.44-.34,2.92-.51,4.4-1.53.89-3.17,1.44-4.68,2.43-2.62,1.7-5.73,2.7-8.69,3.84-1.18.45-1.62-2.89-3.48-.79-1.16,1.31-3.11,1.36-4.58,2.57-3.36,2.78-7.78,3.93-11.49,6-3.39,1.93-7.1.55-10.19,2.68-7.71,5.32-16.87,7-25.34,10.4-.62-1.75-1-2.84-1.38-3.9-3.25,1.37-2.86,5.34-5.49,7a26.15,26.15,0,0,0-12.51,4.13c-.33.19-1.07-.33-1.61-.53-1.52-2,1.15-2.91,1.1-4.68-1.13-.51-2.23-.72-3.2.41-.11,2.12-.22,4.22-.35,6.64h-9.83c-2.24,1.47-2.9,4.17-5.93,3.81-.84.06-.86-2.24-2.42-1.35-.24.92-.19,2.1-.73,2.55-1.2,1-23.67,8-24.77,8a1.84,1.84,0,0,1-.67-.28l-1.16-3.32c-2.47,1.37.11,4.37-2.15,5.64-1.48-1.66-1.19-4.64-4-5.33-.76,1.26-2.71,1.7-2.52,4l1.67,2.56c-3.1,1.87-6.12-.71-8.92-.26a21.58,21.58,0,0,0-9.21,3.45c-1,1.73.39,3.45-1.06,4.74-1.43-.21-2-2.35-5-1.12a10.75,10.75,0,0,0-1.51,2c-.61,1.13,2.07,2.19,1,2.46-3.07.78-2.53,3.15-3.56,5-1.31,2.4-2,4.62-1.44,6.87.57,2.43-2.37,4.07-.41,7.09,1.43,2.2.63,6.11.22,9.18-1.19,9,1.5,17.63,2.34,26.38.44,4.68,1.51,9.46,1.42,14.26-.09,5.4.25,5.25,1.67,9.94.57,1.86,3.41,3,1.92,5.62-2.06,3.57,1.42,7.11.21,10.71,5.37,9.52,4.44,20.62,7.77,30.56,1.5,4.5.23,9.23,2.13,13.14,3.16,6.54,2.71,13.86,5.29,20.32,1.79,4.47.32,9.32,2,13.21,3.85,8.71,2.84,18.56,7.16,27-1,5.25,2,9.93,2.12,15.15s2.8,10.17,3.27,15.35c.24,2.6,2.76,3.93,2.22,6.72-.44,2.34-.76,5.55.46,7.17,1.82,2.43,1.33,4.73,1.2,7-.15,2.61,2.6,4,2,6.75-1.15,5.8,3.23,11.11,1.81,17,3,3.76.72,8.5,2.1,12.26,1.64,4.5,1.17,8.91,1.73,13.36.66,5.15,1.51,10.48,6.73,13.54,1.21-2.27,3.3-1.92,5-1.64,8.05,1.3,15.71-1.64,23.58-2.27,3.36-.26,7-2.07,10.47-1.41,4.23.79,7.42-2.18,11.44-2.11,5.62.09,11-1.62,16.41-3.24,4.26-1.28,9.08.66,13.18-2.2.76-.54,1.18,2,2.67,1.34.4-1.17.78-2.26,1.17-3.39.83.72,1.94,1.9,2.11,1.78,4-2.89,8.83-3,13.37-4.08,1.65-.4,2.68-2.06,4.62-.32,1.66,1.5,3.17-.78,4.38-1.27,8.45-3.38,17-6.13,26.06-7.12,3-.34,4-2.52,5.94-3.89a4.06,4.06,0,0,0,.66.65c.6.39.84,1.61,2,.47,2.13-2.07,5.77-.93,7.8-3.94,1.78-2.63,6.24.76,8.17-2.72,10.46-1.79,19.59-7,29-11.45,11-5.17,22.38-10,30-15.91C932.75,1041.15,926.39,1037.8,929.8,1033.86Z" style="fill: #2c2c2c"/>
  <path d="M707.2,698.18c-.5-.21-1.07.45-1.25-.39,0-.06-.63.08-.93,0a12.34,12.34,0,0,0-2.82-.61,2.1,2.1,0,0,1-.91-.42,11.16,11.16,0,0,0-3.9-2c-.21,0,0-1-.58-.22-.07.09-.47-.09-.7,0a2.18,2.18,0,0,1-1.72-.37,2.9,2.9,0,0,1-.64-.71,20.27,20.27,0,0,0-1.23-1.88c-1.46-1.71-2.61-3.64-3.92-5.46-.47-.65-.85-1.36-1.3-2a23.88,23.88,0,0,1-1.38-2,24.12,24.12,0,0,0-2-2.91c-.67-.9-1.22-1.89-1.83-2.83-1.26-1.92-2.43-3.91-3.82-5.73a20.69,20.69,0,0,1-1.58-3.25c0-.07,0-.17,0-.26-.89.31-.81-.62-1.07-1-1-1.35-1.92-2.82-2.92-4.21-.3-.41-.29-.42-.12-1.19-.25-.06-.68-.06-.73-.2-.52-1.38-1.84-2.31-2.13-3.82,0-.18-.29-.31-.44-.46s-.48-.38-.52-.6c-.28-1.6-1.59-2.56-2.32-3.88a7.32,7.32,0,0,0-1.44-2.32c-.26-.22-.19-.82-.32-1.51a3.46,3.46,0,0,1-1.85-2.52c0-.12,0-.27-.09-.33-1.61-1.44-1.95-3.71-3.48-5.2-.11-.12,0-.5.06-.8a4,4,0,0,1-2-2.23,31.92,31.92,0,0,0-1.92-3.15,39.38,39.38,0,0,1-2.53-4.3c-.23-.48-.58-.9-.84-1.37s-.23-.93-.63-1.19c-.73-.47-.3-1.58-1.14-2-.15-1-1-1.53-1.33-2.39s-1-1.61-1.27-2.44c-.47-1.36-1.3-2.53-1.89-3.82a11.23,11.23,0,0,0-1.84-3.4c-.66-2.1-2.19-3.74-3-5.74-.4-.94-1-1.78-1.47-2.71a9.47,9.47,0,0,1-.68-1.48c0-.16,0-.42-.14-.49a3.76,3.76,0,0,1-1.39-2.56c-.63-.22-.48-.85-.69-1.29a7.83,7.83,0,0,1-.67-1.28c-.7-2.58-1.8-5-2.43-7.63-.53-2.19-1.7-4.23-2-6.48-.32-2.54-1-5.05-.63-7.67a16.13,16.13,0,0,1,.86-3.6,21.38,21.38,0,0,1,1.62-3.16,5.65,5.65,0,0,1,2.77-2.42,7.36,7.36,0,0,0,1.37-.83,15.8,15.8,0,0,1,2.28-1.25,23.19,23.19,0,0,1,3.14-1.14c1.24-.42,2.51-.08,3.76-.23.16,0,.36.35.43.42.33-.11.61-.31.86-.27a12.69,12.69,0,0,1,1.71.46A7.78,7.78,0,0,1,651,564c.47.26.84.7,1.31.93s1,.15,1.38.39c.64.4.94,1.19,1.69,1.52.27.12.42.51.7.65a10.91,10.91,0,0,1,1.85,1.6c.56.46.6,1.28,1.43,1.57.66.24,1.12,1,1.7,1.45a18.83,18.83,0,0,1,1.86,1.4c1.3,1.33,3,2.19,4.15,3.67.14.17.33.41.5.41,1.16,0,1.61,1.1,2.51,1.49,0,.55.39.42.74.35a.46.46,0,0,1,.43.1,5.57,5.57,0,0,0,2.54,1.47,12.61,12.61,0,0,1,1.9,1.34,8.5,8.5,0,0,0,1.65.95c.56.2.73,1,1.46.88.08.93,1.14.68,1.51,1.22s1.23.43,1.66,1.13c.32.52,1.14.73,1.74,1.08l2,1.14.26-.4c.07.27.79,0,.52.63-.07.16.18.6.4.71.8.44,1.43,1.21,2.36,1.39.66.12.87.65,1.29,1a16.2,16.2,0,0,0,2.67,1.52c.08,0,.28,0,.31,0,.9,1.72,3,1.63,4.25,2.76.62.54,1.2,1.1,1.82,1.67.22-.6.59-.63,1-.33,0-.12.1-.24.06-.32-.28-.66-.41-1.5-.9-1.91-.69-.56-.49-1.42-1.07-2a7.61,7.61,0,0,1-1.06-2.2,13.28,13.28,0,0,0-.94-2.1c-1.07-1.57-1.53-3.45-2.68-5a12.74,12.74,0,0,1-1.09-2.59,3.88,3.88,0,0,0-.76-1.42c-.42-.39-.38-1-.7-1.27s-.43-.76-.62-1.15c-.5-1-1-2.05-1.57-3a28.55,28.55,0,0,1-2.72-5.16l-.88-1.2c-.82-.51-.82-1.51-1.31-2.22s-1.16-1.22-.92-2.17a.43.43,0,0,0-.08-.35,18.4,18.4,0,0,1-3.06-4.93c0-.08,0-.24,0-.25-1.05-.54-.83-1.89-1.66-2.56-.33-1.78-1.7-3.12-2-4.9a1.47,1.47,0,0,0-.32-.55,5.81,5.81,0,0,1-1.19-2.52,2.47,2.47,0,0,0-.67-1.3c-.32-.35-.17-.92-.6-1.35-.58-.57-.58-1.49-1-2.23a36.23,36.23,0,0,1-2.05-4.68,39.87,39.87,0,0,0-1.95-3.93c-.44-.81-.68-1.73-1.14-2.55a17.18,17.18,0,0,0-1.36-2.58,1.44,1.44,0,0,1-.17-.48,7.07,7.07,0,0,0-.88-2.14c-.41-.61-.25-1.55-.95-2.09-.41-1.56-.81-3.13-1.23-4.69a10.55,10.55,0,0,1-.38-3.6,35.6,35.6,0,0,0-.1-3.56,30.12,30.12,0,0,1,.27-5.29c.12-.71,0-1.43.09-2.09a6.06,6.06,0,0,1,2.78-4.42,6.85,6.85,0,0,1,2-.87,26.12,26.12,0,0,0,3-.79,8.53,8.53,0,0,1,3.91-.21c3.16.46,6.25,1.28,8.68,3.59.9-.1,1,.82,1.55,1.2s1,.81,1.55,1.23a1.21,1.21,0,0,1,.31,1.26,2.64,2.64,0,0,1,1.49.8c.75.62.8,1.62,1.62,2.22s1,1.48,1.74,2.07c-.28.85,1,.83.87,1.62.81.29.35,1.44.95,1.65a4.38,4.38,0,0,1,1.52,1.07c.75.66,1,1.77,2,2.24-.2.25-.25.44.11.63,0,0-.2.51.24.68a3.55,3.55,0,0,1,1.82,1.62,11.87,11.87,0,0,1,1.37,2c.19.5.38,1.24.86,1.52s.67.84,1,1.23a2.8,2.8,0,0,1,1,1.5c0,.17.27.36.45.44a1,1,0,0,1,.57.78c.11.45.06,1.08.87,1,.06,0,.16.5.32.72a18.49,18.49,0,0,1,2.22,3.13c.05.1.1.22.19.26.86.42,1.14,1.25,1.6,2,.27.44.4,1.16,1.16,1.34.49.12.12.54,0,.83,1.07.18.78,1.61,1.76,1.9.14,0,.21.36.3.55s.13.53.27.58c.49.18.52.59.71,1s.92.55.9.76c-.06.56.42.65.57,1s.35.81.53,1.21c0,.1.05.25.13.3,1.08.68,1.32,2.12,2.61,2.68-.38.42-.65.73-.95,1.05.1.08.17.18.24.19a12.74,12.74,0,0,1,1.26.22c.19,0,.49.33.47.41-.32,1,.38.88,1,.94l.38,1.46c.63-.1,1,.24.86.71a.75.75,0,0,0,.64,1.1,1,1,0,0,1,1,.93c0,.2.17.49.32.54.85.29,1.05,1.06,1.5,1.69.27.37.26,1,.87,1.17.44.14.77.6,1.15.91a14.09,14.09,0,0,0,1.29,1c.4.27.29.5.15.86,0,.12.33.36.41.59a9.15,9.15,0,0,1,.33,1.18l.87-.63c0,.51-.36,1,.27,1.2.26.09.71.22.29.67.14,0,.32.15.4.09a.94.94,0,0,0,.3-1.32c-.08-.13-.29-.17-.41-.29s0-.21-.07-.35l.55-.39c-.14-.14-.43-.33-.41-.39.24-.53-.41-1-.29-1.22.31-.63,0-1.12-.13-1.64a5.17,5.17,0,0,1-.14-1.8,2.81,2.81,0,0,0-.28-1.41,3.34,3.34,0,0,1-.38-2.61c-.6-.46-.27-1.16-.42-1.74-.22-.8-.71-1.55-.44-2.47.21-.74-.62-1.48-.13-2.27a21.93,21.93,0,0,1-.47-3,27.77,27.77,0,0,1-.59-5.43,32,32,0,0,1,.25-6.25,35.64,35.64,0,0,1,2-8.27c.67-1.71.81-3.71,2.4-5,.09-.08,0-.32.07-.47a6.17,6.17,0,0,1,2.31-3,5.46,5.46,0,0,0,1-.82,2.63,2.63,0,0,1,1.31-.93,8.89,8.89,0,0,0,1.45-.72c.49-.23,1.18-.06,1.46-.73,0-.07.21-.06.32-.1,1.26-.45,2.54-.88,3.79-1.36a12.93,12.93,0,0,1,1.45-.71c.86-.19,1.76-.2,2.62-.37s1.67-.51,2.52-.62a10.06,10.06,0,0,1,2.74,0c1,.15,2-.12,2.86.3s1.86.35,2.61.78,2,.36,2.24,1.55c0,.1.23.19.37.22,1.37.27,2,1.43,2.78,2.37a4.86,4.86,0,0,1,.86,1.94c.14.62.75.08.89.51a3.63,3.63,0,0,0,.33,1,8.25,8.25,0,0,1,1.28,2.44.91.91,0,0,0,.23.42c1,.88,1.23,2.15,1.81,3.25.25.48.74,1,.67,1.44a2.18,2.18,0,0,0,.45,1.4c.66,1.3,1,2.78,2,3.91.32.34.23,1.07.56,1.37s.19.76.49,1.12a3.51,3.51,0,0,1,.95,1.9c.05.65.71,1.07.84,1.78a10.34,10.34,0,0,0,.78,1.79c.24.61.19,1.35.83,1.79.07,0,.06.21.09.32a59.48,59.48,0,0,0,1.92,5.79c1.56,3.54,2.08,7.36,3.21,11,.16.53.14.53.94,1.15-.16-.78-.29-1.41-.45-2.21.27.05.64,0,.68.13a19.21,19.21,0,0,1,.62,2.34c0,.28-.16.59-.24.88-.54-.08-.1-1.27-1-.76.45.5.55,1.2,1.27,1.57s0,1.25.46,1.8c0,0-.08.09-.08.14,0,.71-.27,1.42-.22,2.05s.71,1.15,1.08,1.74a1.67,1.67,0,0,1,.1.54l-.73-.17c.7,1.32,1.6,2.56.7,4.1,1.17.76.52,2,.68,3,0,.23-.43.54-.74.89l1-.11a4.34,4.34,0,0,0,.31,2.34,1.55,1.55,0,0,1,.06.65,4.18,4.18,0,0,0,.24,1.86,4.53,4.53,0,0,1,.09,1,5.45,5.45,0,0,1,.07,1c-.06.47.84.72.32,1.21s.09.9-.16,1.28c-.08.12-.28.15-.75.39h1.11c-.11.18,0,.05.06-.09.66.55.07,1.31.33,1.87.32.71-.28,1.16-.39,1.87l.89.12c.19,1,.68,1.94.25,3.06-.24.61.17,1.47,1,2.67a3.37,3.37,0,0,0-.68-.26,2,2,0,0,0-.53.13l1.38,1.21c-.23.56-.47,1.12.08,1.68.1.11.07.43,0,.62a.81.81,0,0,0,.29,1c.12.09.28.35.25.38-.75.82.69,1.06.47,1.74-.14.4-.25.8-.33,1.07.29.2.53.35.75.53.47.37-.24,1,.32,1.44.36.31.4,1.06.48,1.62.28,2,1.5,3.67,1.85,5.64.75.84.8,1.95,1.15,2.94a16.91,16.91,0,0,0,.81,1.79c.26.54.2,1.16.69,1.69s.33,1.33.66,1.91c.21.38.72.58.25,1.09.54.18.52.69.64,1.11a12.83,12.83,0,0,0,1.41,2.94,2.36,2.36,0,0,1,.38,1.29c0,.46.88.53.35,1.07a4.45,4.45,0,0,1,.8,1.77,5,5,0,0,0,.75,1.64,25.38,25.38,0,0,1,1.6,3.27,9.56,9.56,0,0,0,.79,1.81,2.57,2.57,0,0,1,.27,2.26,1.17,1.17,0,0,0,0,.85l.6-.82c.68.61.09,1.12-.18,1.72.4.26.46.91,1.17.89.14,0,.32.54.41.84a1.3,1.3,0,0,1-.71,1.82c.78,0,1.17.29,1,1,0,.07.38.35.66.38-.42.85.39,1.83-.38,2.76l.83-.41a7.59,7.59,0,0,1,.38,2.69c-.19,1,.56,1.85-.11,2.81l-1.13.4,0,.17,1.06-.08a5.07,5.07,0,0,1-.06,2.19,26.21,26.21,0,0,1-1.79,6.06c-.42,1-1,1.91-1.44,2.86s-.82,1.85-1.32,2.72a20,20,0,0,1-4.63,6.06c-.72,1.47-2.1,2.32-3.28,3.35a60,60,0,0,1-6,4.47c-1.11.74-2.21,1.5-3.36,2.19a19.22,19.22,0,0,0-3.46,2,1.28,1.28,0,0,1-.63.22,4.78,4.78,0,0,0-2.48,1.23,2.28,2.28,0,0,1-.58.3c-.59.28-1.3.15-1.83.79-.33.4-1.21.17-1.58.81,0,.07-.21.07-.32.09-2.34.51-4.43,1.76-6.8,2.17a4,4,0,0,0-2.16.85,1.28,1.28,0,0,1-1.59.14c-.25.56-.81.54-1.28.66-1.33.37-2.69.67-4,1.08-.67.21-1.49.08-2,.84-.26.4-.84-.57-1.17.14-.94.08-1.68.71-2.61.9a13.4,13.4,0,0,0-4,1.1,17.6,17.6,0,0,1-3.67,1.23c-1.31.42-2.68.69-4,1.09a4.37,4.37,0,0,0-1.27.69c-.39.27-1-.38-1.24.31-.51-.06-1.06-.27-1.4.37-.55-.43-.79.29-1.22.32a3.54,3.54,0,0,1-1.32.12,3.17,3.17,0,0,0-1.64.31,18.47,18.47,0,0,1-5.93.77,55.77,55.77,0,0,1-5.78-.14,1.86,1.86,0,0,0-.83.16c-1.92.71-4,.39-5.93.82-.18,0-.41-.14-.62-.17-.37-.06-.74-.07-1.11-.1a5.35,5.35,0,0,0-1.12-.07c-.32,0,0-.87-.61-.35a1.5,1.5,0,0,1-1,.08,14.47,14.47,0,0,1-1.4-.37l-3-.87C706.85,698.69,707,698.45,707.2,698.18Zm-35.76-42.37a9.59,9.59,0,0,1-1-2.13,4.29,4.29,0,0,0-.94-1.91,24.28,24.28,0,0,1-1.74-2.7c-.89-1.47-1.74-3-2.61-4.44-.76-1.31-1.81-2.46-2.12-4-.81-.74-.69-2.06-1.76-2.7-.39-.24-.46-1-.78-1.39-.17-.24.66-.69-.13-.64s0-.47-.25-.58a3.45,3.45,0,0,1-1.68-2.13c-.46-1-1.27-1.85-1.78-2.88a8.78,8.78,0,0,0-1.51-2.46,4.59,4.59,0,0,1-.92-1.7,36.24,36.24,0,0,0-2.49-4.74c-.93-1.72-1.7-3.51-2.65-5.21.2-.55-.83-.77-.39-1.39a12.8,12.8,0,0,1-1-1.23c-.3-.46-.28-1-.63-1.52a40.72,40.72,0,0,1-2.33-4.26c-.51-.95-1-1.94-1.49-2.88a25.48,25.48,0,0,1-1.82-3c-.75-1.95-1.79-3.77-2.55-5.69a27.65,27.65,0,0,1-1.87-5.43,27,27,0,0,0-.82-3.18,4.82,4.82,0,0,0-.53-1.19A5.64,5.64,0,0,1,635,584a18.61,18.61,0,0,0-1.37-5.48c-.07.37-.31.8-.19,1.09.52,1.29.35,2.67.63,4,.84,4,2.48,7.71,3.45,11.65a1.76,1.76,0,0,0,.2.65,29.24,29.24,0,0,1,2.22,4.53c.15.3.18.63.55.79s-.47.78.18.93c.91.21.46,1.36,1.23,1.71.17.08.08.72.13,1.1a.45.45,0,0,0,.14.3c.6.42.61.41.43,1.15.32.26,1,.29.62,1,.64.52.52,1.6,1.45,1.92a.58.58,0,0,1,.22.4c-.37.39,0,.5.19.75s.25.75.48,1a7.76,7.76,0,0,1,1.74,3.29,2.25,2.25,0,0,0,.67,1.11c.28.33.64.6.65,1.11s.71.93.41,1.56c.86.54.91,1.6,1.46,2.3,1.28,1.63,1.59,3.8,3,5.32a17.85,17.85,0,0,0,1.43,2.91c.4.92,1.19,1.66,1.25,2.77a2.47,2.47,0,0,0,.84,1.34c.41.4.2,1,.81,1.43.43.26.45,1.34.86,1.47.81.29-.07,1.11.59,1.28.72,1.64,2.32,2.67,3,4.32.84.17.81,1,1.16,1.53a5.85,5.85,0,0,1,1.09,1.79c.06.26.28.49.36.75s0,.67.16.93c.26.46,1.16.57.76,1.4a16.7,16.7,0,0,1,1.19,1.19c.28.32.4.81.73,1,.67.49.43,1.44,1,1.88s.29,1.45.94,1.89C670.4,654.31,670.48,655.23,671.44,655.81Zm16.11-35.22c.11.55.08.94.26,1.18.62.86,1.3,1.68,2,2.5.17.21.43.35.58.56.42.56.57,1.33,1.26,1.65s.22,1.57,1.34,1.36c.69,1.41,2,2.41,2.72,3.74.46.83,1.33,1.29,1.67,2.14.56,1.43,2.12,2.2,2.45,3.77,0,.07.21.1.29.18a7.21,7.21,0,0,1,1.55,1.8c.34.84,1.32,1.22,1.4,2.18,0,0,.16,0,.25.05l.19-1.28-.74-.07a9.83,9.83,0,0,0-.5-1.41c-.23-.45-.87-.89-.8-1.24.11-.63-.56-.7-.57-1.24,0-.36-.53-.87-.93-1-.69-.27-.18-1.19-.55-1.18-1,0-.42-.81-.74-1.11a12.29,12.29,0,0,1-1-1c-.35-.4-.67-.83-1-1.24s-.64-.73-.92-1.11-.55-.92-.87-1.35a14,14,0,0,0-1-1.06c-.33-.35-.67-.69-1-1.05s-.7-.8-1-1.22-.52-.82-.84-1.17-.77-.62-1.12-1-.7-.8-1.08-1.18S688.11,621.09,687.55,620.59ZM796,665.53a18.93,18.93,0,0,0,2.38-5,15.78,15.78,0,0,0,.1-7.39c-.09-.39.1-1-.11-1.18a1,1,0,0,1-.21-1.33.36.36,0,0,0-.1-.3c-.62-.24-.58-.84-.65-1.3-.21-1.36-1.07-2.43-1.49-3.69a3.72,3.72,0,0,0,0,1.45A10.62,10.62,0,0,1,796,648c.11.51.27,1,.38,1.51a3.76,3.76,0,0,1,.2,1.31c-.05.43.23.74.16,1.2-.12.8.57,1.53.34,2.47s.73,1.72-.12,2.55a.87.87,0,0,1,.54.77,12.43,12.43,0,0,1-1.34,4c-.34.4-.09,1.12-.76,1.32.09.44.17.88.26,1.32C795.72,664.68,795.8,665,796,665.53ZM732.08,548.84c-.82.28-.7.8-.48,1.35a6,6,0,0,1,.44,2.37c-.07.32-.09.5.2.7.8.56-.17.62-.29,1l.83.15a10.12,10.12,0,0,0-.22,2.58c.07.6.63,1,.51,1.56a.68.68,0,0,1-.12.24l-.48-.21c-.21.86.59.46.7.59l.41,1.56-.53.34,1,.79-.64.85a2.58,2.58,0,0,1,.8,2.19c0,.12,0,.34.06.35.87.12.63,1.09,1.17,1.62.55-1.44-.38-2.54-.45-4l.48-.57c-.64-.81-.73-.83-.63-1.37s-.51-.86-.47-1.41a10.84,10.84,0,0,0-.12-1.79c0-.12-.23-.21-.32-.34a.79.79,0,0,1-.19-.43c0-.59.1-1.17.16-1.75-.76-.43-.33-1.13-.41-1.72,0-.19-.23-.35-.35-.53s-.26-.36-.22-.41c.42-.5-.17-1.07,0-1.44.35-.67-.33-1-.31-1.41.1-1.6-.72-3-.93-4.48-.07-.45-.1-.92-.16-1.42-.12,0-.35.05-.4.14-.25.52.45,1.08-.06,1.62,0,0,.29.29.37.48s.16.46.07.58C730.87,547.5,731.46,548.14,732.08,548.84Zm-39.15,26.22-.22.09a9.72,9.72,0,0,1,.32,1.29,13.39,13.39,0,0,1,0,1.6l.51-.75c.41.89.75,1.74,1.18,2.54.7,1.28,1.41,2.55,2,3.88a7.06,7.06,0,0,1,.93,2.1c.86.34.48,1.38,1.15,2s.65,1.48,1,2.22a7.56,7.56,0,0,1,1,2.45c.69.33.41,1.25.82,1.57.65.52.49,1.24.79,1.82.13.23.3.44.44.67a6.44,6.44,0,0,1,.79,1.39,23.46,23.46,0,0,0,1.57,3c.2.42.72.69,1.27,1.19-.06-.42,0-.63-.12-.74a14.35,14.35,0,0,1-1.91-3.52c-.82-2-2.23-3.68-2.68-5.81-.82-.51-.64-1.57-1.25-2.26s-.56-1.71-1.09-2.37-.51-1.34-.9-1.93c-1.53-2.35-2.64-4.93-4-7.38C694,577.09,693.47,576.07,692.93,575.06ZM779,548a9.83,9.83,0,0,1-.57-2.32c0-.79-1.17-1.18-.59-2.07-.82-.41-.56-1.3-.87-2s-.6-1.29-.86-2a14.39,14.39,0,0,0-1.24-3.07c-.5-.7-.44-1.54-.89-2.13a6,6,0,0,1-.92-2.31,5.88,5.88,0,0,0-.66-1.3,9.09,9.09,0,0,0-1.08-1.36c.78-.64-1-1-.15-1.69a5.89,5.89,0,0,0-.5-.6c-.2-.16-.56-.22-.23-.58l-.54-.47-1.07,1.16a4.62,4.62,0,0,0,1.3.54c.63,0,.23.28.16.48.66.2.27.77.42,1.13s.12.74.29,1.06c.29.54.33,1.34,1.26,1.28l-.61.51c.75.3.53.86.43,1.42l1.07-.12c0,.4,0,.72,0,1a1,1,0,0,0,.12.57,7.2,7.2,0,0,1,1.68,2.75,3.94,3.94,0,0,0,.42,1.48,4.4,4.4,0,0,1,.91,2.94c0,.12.07.31.14.33.6.19.68.71.81,1.21.25.94.48,1.9.76,2.84.07.27.43.57.36.74C778.1,548.14,778.77,547.86,779,548Zm-30.22,59.61c0-.83-.59-1.61-.21-2.45-.49-1.37.13-2.85-.4-4.23.42-.66-.2-1.31-.07-1.93.28-1.3-.22-2.58,0-3.87,0-.13-.23-.3-.36-.45a1.78,1.78,0,0,0-.33.46,22.74,22.74,0,0,0-.42,4,14.26,14.26,0,0,0-.07,3.51,52,52,0,0,0,1.3,5.16ZM709.3,682.79a16.73,16.73,0,0,0,1.52,2.47,5.51,5.51,0,0,0,2.07,1.87l-.22,1.35c.69-.85,1.23-.94,1.85-.46.27.21.73.3.83.56.33.77.7.2,1.2.13a14.83,14.83,0,0,1-3.38-3.27,23.13,23.13,0,0,0-3.45-2.75C709.67,682.65,709.51,682.74,709.3,682.79Zm89.41-40.12a5.67,5.67,0,0,1-.82-1.16,19.26,19.26,0,0,0-1.06-2.79c-.46-.92-1-1.82-1.4-2.74-.65-1.38-1.71-2.58-1.91-4.17,0,0-.16,0-.3-.07.13,1.68,1.06,3,1.63,4.52a21.31,21.31,0,0,0,1.3,2.88c.13.24,0,.62,0,1a2.66,2.66,0,0,1,.62.36c.07.06-.12.41,0,.49s.56.25.71.46,0,.5,0,.86ZM745.1,571.41l-.29.06c0,1.61.15,3.22,0,4.82a31,31,0,0,0-.1,4.84,2.16,2.16,0,0,0,1-1.8,13.19,13.19,0,0,0-.09-3.38c.48-.78-.33-1.45-.16-2.28A6.6,6.6,0,0,0,745.1,571.41Z" style="fill: #2c2c2c"/>
  <path d="M529.28,930.32c-2.41.39-4.45.43-6.26,1.11-1,.37-1.72.84-2.31-.17-2.17-3.75-6.67-3.61-9.69-6-3.63-2.81-7.49-2.33-11.9-1.52-7.36,1.36-13.28,5.86-20.24,8a54.88,54.88,0,0,0-10.89,5c-6.39,3.69-13.5,4.44-20.53,5.74-4.85.9-9.29,3.14-14.65,2.11-8.24-1.57-14.8-5.68-20.79-11.15-1.74-1.59-1.45-3.28.17-5.46-3.09,1.71-4,.55-5.32-1.8-3-5.13-6.41-9.91-5.35-16.31a1.68,1.68,0,0,0-.4-1.27c-5.25-5.32-6.07-12.48-7.75-19.2-.56-2.24-.82-3.65-3.31-4.83s-5.32-2.46-6-6c-.51-2.54-2.76-.13-4.39-.87-16.1-7.34-32-5.09-48.15.68a203.74,203.74,0,0,0-20.29,8.66A55.65,55.65,0,0,0,295,899.45c-1.32,1.44-2.47,3-4.6,2.74-2.49-.28-1.62-2.79-2.17-4.16-2-5,.21-8.25,4.1-12s7.13-8.15,11.73-11c11.65-7.23,22.93-15.23,36.83-18,16-3.18,31.47-3.31,46.48,4.62,4.17,2.2,8.87,4,10.91,8,3.15,6.15,6.83,12.18,8.15,19.23s3.92,13.84,8.74,19.43c9.56,11.08,22.05,11.9,35,9,13.17-3,25.06-9.8,37.71-14.34,16.85-6,31-3.2,42.42,9.62a40.24,40.24,0,0,1,9.2,17.59c1.94,8.33,4.28,16.42,10.38,23.1,5.3,5.81,15.39,9.64,22.8,7,8.24-3,16.34-6.3,24.51-9.44a27.08,27.08,0,0,1,9.1-1.8c2.07-.05,3.92,1.21,4,3.23.13,2.28-1.84,1.94-3.42,1.55-1.17-.28-1.78.27-1.94,1.38s.29,1.61,1.56,1.68c3.43.2,3.27,1.72,1.21,3.78-1.57,1.56,0,3.71-1.86,5.91-3.22,3.89-7,6-11.33,7.82a6.09,6.09,0,0,1-1.28.58c-2.74.44-10.7,3.28-13.41,5.32-1.77,1.33-4.15.65-5.77,2.33-.54.57-1.45-.16-1.37-1.17,0-.6.35-1.41-.73-.93-7.26,3.2-9.31,3.59-13.37,2.44s-7.2-4.24-11.4-5.22c-1.35-.31-1.1-2-.78-3.3.23-.89.76-1.89-.45-2.44-.91-.41-2.27-.35-2.6.38-1.35,3.05-2.31,1.35-3.36-.12-2.25-3.19-5.55-6.1-6.49-9.64-1.69-6.36-4.34-12.31-6.36-18.51-.74-2.28-1.22-4.74.81-7C529.52,935.3,528.57,932.86,529.28,930.32ZM386.46,866.17c-10.24-7.5-28.1-10.46-36.64-6.07a133.16,133.16,0,0,1,18.7,1.49C374.64,862.66,380.37,865.13,386.46,866.17ZM571,967.64c-2.18.53-3.85.15-4.87-1.68a1.89,1.89,0,0,0-2.08-1.25c-4.25.19-7.68-1.79-10.69-4.64-.61-.57-1.38-1.78-2.24-.75-.72.85-.25,1.84.72,2.75,3.94,3.68,9.12,5,13.82,7.22C566.67,969.77,569.71,971,571,967.64ZM518.66,911c.64-.42.54-1,0-1.78-1.33-1.75-11.08-5-13.3-4.34a1.55,1.55,0,0,0-.93.86c-.19.71.2,1.1,1,1.21,3.87.53,7.27,2.49,10.89,3.76C517,911,517.6,911.53,518.66,911ZM427,922.46c3.2,2.7,6.77,3,10.53,1.51Z" style="fill: #2c2c2c"/>
  <path d="M177.35,839.33c.11,1.36,1,3.06-1.67,2.1-1.43-.51-2.24,1.83-4.18,2.05a25.74,25.74,0,0,0-4.11,1.12c-.89.29-2-.05-2.34,1.27-.09.41-.38.7-.78.47-2-1.16-3.34.48-4.79,1.27A87.48,87.48,0,0,0,142.86,859a138.46,138.46,0,0,0-19.58,21c-.11.15-.16.39-.3.45-1.29.53.23,4.12-2.77,2.65-4.09-2-5-3.79-3.47-6.83,1.83-3.57,3.82-7.07,5.93-10.48,7.65-12.38,18.34-21.58,30.87-28.64a64.49,64.49,0,0,1,27.38-7.77c7.45-.53,14.9-.65,22.24,1.07a32.87,32.87,0,0,1,7.5,2.34c1.21.61,2.45.92,3.54,1.43,4.23,2,9.1,2.9,12.42,6.74.81.93,2.5.84,3.77,1.69,12,8.07,19.58,19.14,21.85,33.34,2.23,13.86,2.75,27.84-.58,41.7a40.82,40.82,0,0,1-3.64,8.72c-1.64,3.27-3.79,6.32-5,9.84a4.86,4.86,0,0,1-1.14,2.11c-3.39,3-5.76,6.84-9,10a76.69,76.69,0,0,1-11.81,9.37c-3.34,2.2-6.4,4.86-9.63,7.21-3.94,2.88-8.74,4.28-13.36,5.88a79.48,79.48,0,0,1-13.1,2.93c-.73.12-1.33.55-1.88-.32a1,1,0,0,0-.9-.39c-7,2.31-16.25.1-21.86-2.81a60.93,60.93,0,0,1-18.63-14.27,41.31,41.31,0,0,1-8.62-17c-1.22-4.89-2.6-9.73-3.44-14.73-1.17-7,.71-13.15,4.16-19A155.19,155.19,0,0,1,143.46,891c3.44-4.58,8.51-6.5,13.52-8.09a54.88,54.88,0,0,1,18.72-2.5,17,17,0,0,1,11.49,4.83,47.39,47.39,0,0,1,10.15,14.81c2.11,4.62,2.19,9.68,3.15,14.55.23,1.16-.56,2-2,2.08-1.18.09-2.12.58-1.65,2.07h.36c1.14-.1,1.31-2.39,2.74-1.45s.95,2.43.84,3.79A21.11,21.11,0,0,1,194,935.64c-3.55,3.18-6.71,6.73-11.58,8.4-9.83,3.38-14.7.52-21.87-6.12-2.36-2.17-3.07-5.25-4.17-8.12-3.29-8.54,3.14-14.26,10.34-14.34-.77,2.92-4.67,2.33-6,5.36,2.46-.75,4-2.18,5.83-3,.82-.38,2.26-1.37,2.58-.34.38,1.21,2.41,1.71,1,4.12a35.62,35.62,0,0,0-3.94,8.36,3.25,3.25,0,0,0,3.54,4.35A29.39,29.39,0,0,0,188,925.66c3.22-3.17,4.09-7.81,3.73-12.33-.37-4.75-.59-9.56-2.55-14.06-.59-1.35-3.35-6.21-4.56-7.12a5.15,5.15,0,0,0-3.19-1c-.62,0-1.64.66-1.75-.87-.05-.73-1.34-.75-1.39-.17-.17,2-1.67,1.47-2.63,1.53-5.26.31-10.16,2.26-15.25,3.32a6,6,0,0,0-4.57,4.21,4.16,4.16,0,0,1-1.69,2.4c-4.16,2.53-5.29,7-7.26,10.93-1.17,2.36-3.37,4.1-4.19,6.79a26,26,0,0,0-.45,13.31,72.32,72.32,0,0,0,4.36,14.29c3,6.59,8.74,9.85,15.22,12.17,2.52.9,5.4.38,7.73,2.29.37.3,2.53-.88,4-1,14.21-1.37,26.94-6.75,39-14.24,7.73-4.82,13.53-11.37,18.61-18.73,7.72-11.18,10-23.89,10.29-37.08a132.09,132.09,0,0,0-.91-19.87c-1.25-9.48-6.11-16.29-14.5-20.89-3.84-2.1-7.79-4-11.63-6.11-1.55-.83-3.94-2-6.68-1.44-2.38.51-5.2-.84-7.92-.92-2.94-.09-5.82-1.23-8.82-.44-.77.21-1-.05-.52-.83.33-.6-.42-.91-.7-.67-2.44,2.2-5.94.29-8.58,2.42C179.63,842.8,179.13,839.75,177.35,839.33Zm-12.27-3.41c-7.91-.7-32.86,17.61-36.47,25.88C139.3,851.1,150.64,841.33,165.08,835.92Zm26,125c2.31-.72,4.65-1.32,6.91-2.17,9-3.38,16.95-8.73,24.71-14.31.66-.47,2.23-1.82.86-3.54C214.32,950.25,202.63,955.4,191.08,960.94Zm-14.47-24.72c1.17-.36,2.31-.78,3.5-1.07,3.68-.89,6-3.85,9.08-5.74a1.27,1.27,0,0,0,.42-1.7c-.44-.71-1-.2-1.3.2C185.27,931.84,180.72,933.51,176.61,936.22Zm-20.27-49.46a12.42,12.42,0,0,0-7.68,4C151.64,890.2,153.85,888.21,156.34,886.76Zm6-42.17c-1,0-1.7,0-2.39,0a1.93,1.93,0,0,0-1.89,1.21c-.18.31-.29.81.1.92A1.9,1.9,0,0,0,160,846C160.58,845.49,161.61,845.8,162.33,844.59Z" style="fill: #2c2c2c"/>
  <path d="M1701.34,424.31l-.75-.15a.7.7,0,0,1,.63-.74,3.35,3.35,0,0,0,3.1-2.32l-.72-.42c.16-.41.42-.59.83-.48a.7.7,0,0,0,.92-.37l-.2-.94c.41-.18,1.06.28,1.27-.47,0-.45-.61-.09-.69-.46.09-.13.2-.4.28-.39,2,.21,2.39-1.72,3.41-2.71s1.76-2.45,3.18-3c.72-.27.44-1.53,1.66-1.26.48.11,1.18-.72,1.77-1.12.1-.46.18-.91.27-1.36.42-.27,1.63.34,1.13-.95-.38-1,.69-.83.94-1.36.72-1.52,2.17-2.6,2.66-4.28.07-.25.1-.64.26-.71,1.36-.61,1.53-2,2.13-3.24l-.63-1.21a5.36,5.36,0,0,0,2.29-2.63c.78-1.4,1.6-2.93,3.2-3.59.67-.28.49-1.54,1.66-1.21.43.13.66-.7.53-1.06a5.79,5.79,0,0,1,.14-2.62l.79.11c0-1.44,1.36-2.27,1.69-3.59l.26.05.28.06.35-1.52c.84.48.69-.56,1-.64,1.3-.33.52-1.89,1.49-2.38,0,0,0-.39,0-.39-.66,0-.56-.36-.51-.85.07-.75.67-.1.9-.42.39-.55,1.87-3.65,1.81-4.36,0-.4-.09-.67.27-.86,1.09-.56.47-2.34,2-2.66a3.25,3.25,0,0,1,1,0c.31-.68-.67-1-.47-1.69a5.27,5.27,0,0,1,1.13-2c.37-.43.7-.56.37-1.28s.49-1.46.84-2.12a3.82,3.82,0,0,0,.57-2.07c-2.57,3.52-3.36,7.36-5.68,10.48-.58-.1-.4-.64-.33-1.19s.49-.91.73-1.35c.76-1.43,1.84-2.7,2-4.41,1.69-2.13,2.11-4.83,3.23-7.22a23.51,23.51,0,0,0,2.44-8,45.74,45.74,0,0,1,.74-5.25,17,17,0,0,1,1-3.56,4.39,4.39,0,0,0,.42-3.63c.65-4-.19-8,0-12.08a11.54,11.54,0,0,0-.86-4.68c-.44-1.07-.29-2.17-.66-3.23a21.48,21.48,0,0,0-1.58-4.33,33.81,33.81,0,0,0-2.24-4.14c-.52-.67-.6-1.7-1.1-2.15a57,57,0,0,0-5.6-4.3c-2.1-1.45-4.44-1.15-6.76-.66-.16,0-.29.27-.45.29-1.1.1-2.2.17-3.29.25-.25,1.33-1.91.54-2.35,1.57-1.24,0-2,1.07-3.07,1.34-3,.79-5.1,2.93-7.54,4.55a13.51,13.51,0,0,0-3.74,3.83c-.88,1.36-2.14,2.36-3,3.78s-2,2.59-2.67,3.95c-1.15,2.26-2.48,4.43-3.56,6.72a36.43,36.43,0,0,0-2.06,4.67,34.14,34.14,0,0,1-1.72,4.62,4.84,4.84,0,0,0-.28,1.33c-.3,2.52-1.27,4.88-1.53,7.44-.39,3.86-.57,9,1.47,13.86a48.94,48.94,0,0,0,2,4.73c1.09,2,2.85,2.63,5.1,2.35.55-.07,1.18-.17,1.77-.19.34,0,.63-.65,1.25-.62.39,0,.38-.53.46-.91l1.59.25-.28-1.07,2.9-1.94.86.62c.61-1.22-.55-2.8.84-3.84,1.09-.82.94-2.71,2.6-2.92-.24-1.43-.24-1.43,1.3-1.58.66-.86-.13-2.17.71-3s.74-1.89,1.29-2.77a15.19,15.19,0,0,0,1.29-3.08c.53-1.57,1-3.18,1.47-4.77a2.54,2.54,0,0,1,.51-1.19c.64-.68.6-2.55.13-3.48a15,15,0,0,1-1.49-4.18c-.49-.48-1.29-.27-1.91-.52a14.15,14.15,0,0,0-6.58,6.5c.78.36,1.17.26,1.58-.54.28-.54,1.46.24,1.8-.83,1.59,1.13,3.24,1.93,4.07,3.73-.42,2.62-.86,5.27-2.6,7.55a15.25,15.25,0,0,1-4.16,3.9c-.43.21-.82-.05-1.28.12-.76.27-1.5-1.21-2.3-.32s-1.38-.88-2,0c-.85-.32-1.75.09-2.58-.11a33.43,33.43,0,0,1-3.2-1.08c0-1.25-2.22-1-1.77-2.56-1.6,0-.54-1.73-1.39-2.1-1-.46,1.61-1-.11-1.5-.4-.11.21-1.33,0-2.14a3.14,3.14,0,0,1,.57-2c.68-1.3.67-2.88,1.29-4.28.29-.66,1.16-.82,1.08-1.37a5.43,5.43,0,0,1,0-1.8,2.41,2.41,0,0,1,.64-1.1,16.71,16.71,0,0,1,4.7-4.44c1.61-.89,2.91-2.29,4.86-2.65.84-.16,1.66-.26,2.51-.34,2.51-.24,4.93-1,7.49-1.15a8.16,8.16,0,0,1,4.57,1.11c1.11.6,2.22,1.18,3.3,1.85a4,4,0,0,1,1.36,1.15,24.72,24.72,0,0,0,2,2.93c1.51,1.72,2,3.89,2.44,5.95a16.4,16.4,0,0,1-.16,5.17c-.36,3.45-1.87,6.57-3.15,9.71a82.75,82.75,0,0,1-5.77,11.58,47.59,47.59,0,0,1-3.1,4.29c-.09.12-.5,0-.91,0,0,.37.06.81.1,1.24-2.34,1.57-4.45,3.14-6.71,4.44a10.26,10.26,0,0,1-4.3,1.44c-1,.05-1.46.91-2.42.84-2.23-.15-4.48-.11-6.71-.18a29.1,29.1,0,0,1-3.94-.34c-2.35-.43-4.48-1.5-6.74-2.2a2.48,2.48,0,0,1-1.88-1.65c-.19-1-1.78-.86-1.46-2.1-1,.1-1.11-1.33-2.11-1.28.65-1.06.65-1.06-.33-1.55-.11-.85-.22-1.66-.31-2.37-.58-.36-.93.4-1.46-.06-.1-2.1-1.47-3.92-1.81-6.06l.95-.81c.11-.92-.71-.66-1.22-1.07,0-2.61-.4-5.29-.21-8.06.22-3.16,1-6.18,1.52-9.28.23-1.49,1-2.79,1.29-4.31.21-1.31-.35-2.77.65-4-.74-.73.32-1,.45-1.55.18-.71.84-1.2.41-2.14-.36-.78.7-1.35.76-2.15.54-.17.56.66,1.07.55.9-.48.41-1.5.91-2.15l-.91-.24c.7-1.37,1-2.95,2.44-3.85.15-.09.4-.2.41-.32.18-2.15,1.87-3.43,3-5,1-1.27,1.51-2.91,3-3.74.32-1.39,2.19-1.46,2.48-2.88,1.28-.4,1.52-1.89,2.66-2.49a33.09,33.09,0,0,0,3.19-2.1l2-1.36c1.61-1.09,3.59-1.44,5.14-2.71a1.77,1.77,0,0,1,2.39.27c.23-.45-.07-.62-.19-.89,3.37-1.76,7.12-2.16,10.77-2.9a41.62,41.62,0,0,1,7-.74,20.42,20.42,0,0,1,10.93,2.23c1.47.83,2.92,1.66,4.35,2.54s2.58,2.25,4.06,3c1,.5,1.06,1.68,2,2a2.2,2.2,0,0,1,1.42,2c.09.44,1,.73,1.29,1.37,1,2.45,2.51,4.71,3.22,7.32.33,1.22.7,2.43,1,3.64a23.88,23.88,0,0,1,.57,3.74c.21,2.27.87,4.57.31,6.88a4.36,4.36,0,0,0,.12,1.78,60.28,60.28,0,0,1,.24,8.17c.06,3.32-.84,6.56-1.49,9.81-1.23,6.2-3.68,12-5.91,17.86a53.93,53.93,0,0,1-2.86,5.35,9.16,9.16,0,0,0-.48,1.6l-2.29,1.53a10.4,10.4,0,0,1-1.94,6.09c-1,1.52-1.64,3.15-2.48,4.71s-1.64,2.94-2.52,4.38c-.74,1.22-.91,2.78-2.21,3.67.19.88-1.13.13-.87.68s-.1.88-.25,1.33a5.17,5.17,0,0,1-.75,1.33c-1.16,1.78-1.85,3.86-3.1,5.5s-2,3.75-3.36,5.33-1.68,3.81-3.65,4.84c-.06,0,0,.17-.07.26-.77,2.4-3,3.85-4,6.1-.63,1.28-1.93,2.31-2.85,3.53-1.93,2.56-3.88,5.1-5.94,7.54-1.65,1.94-3.23,3.92-5,5.78a64.05,64.05,0,0,0-5.64,6.22,4.5,4.5,0,0,1-1.72,1.26c-.7.35-.69,1.14-1.26,1.62-1,.83-1.85,1.81-2.92,2.59a19.49,19.49,0,0,0-2.64,2.49,23.67,23.67,0,0,1-3.65,3c-.84.61-1.2,1.67-2.21,2.17-.84.42-1.79.85-2,2,0,.12-.29.19-.43.3-2.76,2.11-5.3,4.52-8.33,6.27-.59.34-1.27.61-1.38,1.51-.08.64-.83.07-1.26.45-1.17,1-2.07,2.54-3.93,2.48-.18,1-1.1,1.31-1.79,1.8-1.34.93-2.61,2.2-4.1,2.64a15.63,15.63,0,0,0-3.93,2.12c-1.39.85-2.68,1.89-4.1,2.69-1,.59-2.25.83-3.3,1.53s-1.79,1.86-3.23,1.71c-.22,1.41-1.78.64-2.37,1.46s-1.85.32-2.63,1.06a9.56,9.56,0,0,1-2.71,1.82c-2.47,1.08-4.75,2.58-7.26,3.51a7.38,7.38,0,0,1-4.13.26c-.86.44-.13.84-.22,1.37a6,6,0,0,1-1.93,1,12.08,12.08,0,0,0-3.37,1.24c-1.29.7-2.7,1.67-4.39,1.07-2.39,1.86-5.27,2.48-8.12,3.09-3.2.68-6.44,1.18-9.69,1.62a29.11,29.11,0,0,1-11.25-1c-1.59-.42-1.88-1-1.82-2.59a13,13,0,0,1,4.85,0,5.81,5.81,0,0,0,2.76-.21c3.83-1,7.72-1.78,11.42-3.34a21.35,21.35,0,0,1,5-1.69,7.05,7.05,0,0,0,2-1.13l2.17.42c1.06-.55-.06-1.1.39-1.53,2.84-.51,2.84-.51,3.61-1.61l.82.61c.21-.42,0-1,.83-1.06l.71.53c.37-1,1.19-1.08,2.08-1.38.71-.25,1-1.58,2.07-1.76l.66.61c.43-.85.92-1.57,2.09-1.26s1.87-.53,2.76-.54a.79.79,0,0,0-.24-.9c-.64-.32-.92.85-1.87.21,2-.89,3.21-2.59,5.4-2.95a1.82,1.82,0,0,1,1.56.16.91.91,0,0,0,1.42-.23c-.29-.65-1.09-.16-1.62-.82,1.85-.9,3.17-2.53,5.25-3.07.5-.14.7-1.31,1.37-1.2.89.15,1.34-.4,1.92-.76.78-.47,1.53-1.43,2.27-1.41,1.1,0,.93-1.11,1.66-1.22a.36.36,0,0,0,.23-.15c.42-.68,1.15,0,1.74-.43s.85-1.34,1.32-1.29c.95.1,1-1,1.17-.95,1.08.41.73-.74,1.17-1a2.1,2.1,0,0,1,2.8.17c1.38-.51,1-1.82,1.37-2.82a1.87,1.87,0,0,0,.7.08c.76-.2.54-1.28,1.33-1.51A1.75,1.75,0,0,0,1666,457c.56-.81,1.64-1.46,2.69-.25.23.26.66,0,.82-.4,0-.46-.61-.1-.63-.21,0-.59.07-.95.11-1.5a3,3,0,0,0,2.62-.87c.59.36,1,.84,1.71.77.32-.35-.09-.59-.14-.91.24-.72,1.14-.79,1.6-1.41-.79-.57-1.06.65-1.67.32-.3-.88.67-1.34.71-2.1,1-.15,2,0,2.87-.72s1.88-.77,2-2l.82.62.22,0c-.31-.86.47-1.68.1-2.56.68,0,1,.92,1.82.53-.05-.47.56-.74.67-1.23.21-.89.36-1.79.55-2.72.81-.42,1.41-1.38,2.59-1.15.19-.31-.23-.57-.22-.91s.12-.31.35-.17l1.79,1.15c.37-.22.58-.38.55-.51-.05-1-1.41-.31-1.3-1.35.11-.81.71-.49,1.21-.42.22-.38-.2-.64-.19-1,.41-.72,1.27-1,1.74-1.84a2.92,2.92,0,0,1,2.71-1.44,1,1,0,0,0,1-.69c.18-1.47,1.49-.91,2.28-1.33-.06-.44-.13-.85-.19-1.25l1-.66c-.63-1.45,0-2.31,1.39-2.82l1.35.27c.45-.68-.73-1-.31-1.78C1700.05,426.57,1700.8,425.62,1701.34,424.31Zm-3.11,15.32c2.11-.76,2.83-2.57,4.31-3.49,0-1.15,1.45-1.07,1.74-2.21.19-.73,1.42-1.32,2.21-1.86s.75-1.58,1.52-2.07c1.47-.94,2.35-2.49,3.46-3.76a32.14,32.14,0,0,0,3.19-3.91c1.35-2.12,3.42-3.72,4.78-5.89.85-1.34,1.87-2.58,2.81-3.87a33.56,33.56,0,0,1,2.54-3.44c1-1.09,2.13-2,2.28-3.65,0-.18.38-.35.6-.49.47-.29.92-.57.9-1.22a1.24,1.24,0,0,1,.83-1.26c.55-.23.68-.7.88-1.24a7.53,7.53,0,0,1,1.5-2.91c1.58-1.5,1.8-3.87,3.59-5.18-.27-1.42,1.24-2,1.53-3.26s1.6-2,2-3.13c.86-2.33,3.09-3.94,3.33-6.57,0-.13.22-.25.35-.36,1.48-1.36,1.4-3.68,3-4.94.95-2.93,2.92-5.36,4-8.24,1-.44.31-1.7,1.22-2.23s.56-1.81.93-2.69c.07-.16,0-.37.11-.53a61.93,61.93,0,0,0,3.36-8.67,94.23,94.23,0,0,0,2.83-10.8.6.6,0,0,0-.53-.74.78.78,0,0,0-.66.75c-.11,1-.52,1.89-.69,2.87a28.25,28.25,0,0,1-.92,3.27,50.61,50.61,0,0,1-2.35,7.21c-.91,1.93-1.56,4-2.54,5.85a18.6,18.6,0,0,0-2.22,5.18c-2,1.08-1.3,3.72-3,5,0,1.54-1.13,2.45-1.82,3.63s-.88,2.43-1.58,3.48c-2,3-3.18,6.52-5.67,9.23-.17,2.27-2.15,3.63-2.82,5.7-.56,1.72-2,3.07-2.92,4.69a75.38,75.38,0,0,1-4.52,7.27,41.33,41.33,0,0,1-2.5,3.49,36,36,0,0,0-3.26,4.47,77.82,77.82,0,0,1-5.27,7.08c-2,2.42-3.95,4.83-5.91,7.26-1.81,2.25-3.85,4.29-5.68,6.5C1701.69,435.84,1699.67,437.33,1698.23,439.63Zm-7.12-97.12c-.53,1.55.41,2.93.47,4.45a3.8,3.8,0,0,0,.57-2c-.17-2.28.58-4.41.95-6.6.12-.76.56-1.53.68-2.19s-.17-1.92.3-2.52c.84-1.08.51-2.41,1.12-3.49a31,31,0,0,0,1.38-3.32c.88-2.1,1.23-4.46,3-6.19.38-.38.29-1.23.66-1.66s.38-.94.46-1.89a36.43,36.43,0,0,0-3,4.36c-1.09,2.21-2.09,4.48-3.05,6.75a55.54,55.54,0,0,0-3.47,12.17,3.58,3.58,0,0,1-.79,1.9ZM1722.44,359c1.08,0,.79-.85,1.18-1.17s1.17-.47,1.29-1.26c.25-1.83,1.67-3.12,2.22-4.88s1.77-3.27,2.36-5a4.35,4.35,0,0,1,1.37-2.41c-.31-1.34.67-2.41.76-3.69a40.09,40.09,0,0,1,.74-4c0-.13-.17-.3-.32-.55-.43,0-.81.11-.87.68-.12,1.15-1,2.05-1.06,3.24a15.45,15.45,0,0,1-1,3.52,87.19,87.19,0,0,1-4.75,11.33A16.09,16.09,0,0,0,1722.44,359Z" style="fill: #2c2c2c"/>
  <path d="M1384.21,545.7c2.24-1.71,4-1.11,6.39,2.07s3,7.37,4.22,11.13a54.33,54.33,0,0,1,1.67,6.56c.32,1.63.92,1.81,2.39,1.12,5.33-2.5,10.72-4.88,16.1-7.28a23.19,23.19,0,0,1,3.31-1.25c1.48-.4,3.09-.74,1.73,1.88a5.44,5.44,0,0,1,7.12,5.32c-.05,1.41-.92,1.62-1.7,2.06q-11.32,6.48-22.67,12.88c-3.27,1.84-3,2.29-1.61,5.73a49.55,49.55,0,0,1,2.68,10.84A77,77,0,0,0,1409.6,617c.57,1.23,1.26,2.8,0,3.73-1,.75-2.56,1.69-3.86,0a1.12,1.12,0,0,0-.71-.37c-5.82-.37-7.62-4.84-9.36-9.27a207.33,207.33,0,0,1-6.35-20.39c-.6-2.14-1.11-2.56-3.2-1.44-6.31,3.38-12.56,6.89-18.89,10.23-4.54,2.4-8.75.73-13,0-1.19-.22-2.37-2.37-2.9-3.87s1.09-2.35,2.19-3.09c9.66-6.45,19.3-12.93,29.65-18.25,1.56-.8,1.93-1.47,1.45-3.33-1.85-7.17-3.41-14.41-5-21.65-.35-1.57-.78-3.24.23-4.76.78-1.16,1.65-2.22,3.29-1.91C1385.14,543,1383.49,544.63,1384.21,545.7Z" style="fill: #2c2c2c"/>
  <path d="M390.27,1225.31l2.09-.3c-.45-1.27-2-.4-2.65-2,14.29-.86,27.9-4.42,41.42-8.37s27.19-8,39.45-15.25c0-1.11-.8-1.12-1.32-1.34a40,40,0,0,1-16.35-12.8,185.57,185.57,0,0,1-13.26-19.32c-5.17-8.71-4.55-14.92,1.87-22.75a30.39,30.39,0,0,1,35.46-8.84c11.54,4.7,19.12,13,22.38,25,1.64,6,.6,12.08-1.14,18a73.18,73.18,0,0,1-6.51,15.27c-1.52,2.67-1.56,2.74,1.65,2.89a65,65,0,0,0,24.38-3.33c8.94-3.06,16.81-8,24.3-13.7,12.25-9.29,21.25-21.47,30.23-33.67A344.84,344.84,0,0,0,591.6,1116a206.39,206.39,0,0,0,16.21-35c2.22-6.12,3.92-12.41,6.06-18.56,1-2.78.87-6,1.77-8.92.19-.62.12-1.39.88-1.47s.87.74,1.06,1.33c.25.75.88,1.44.53,2.31-2,4.89-1.05,10.27-2.58,15.26-1.6,5.19-2.84,10.5-4.4,15.7a147.43,147.43,0,0,1-5.78,15.28,215.86,215.86,0,0,1-20.68,37.25c-5.61,8.23-11.23,16.45-17.45,24.2-5.64,7-11.5,13.83-18.71,19.52a134.49,134.49,0,0,1-17.6,12.07,52.32,52.32,0,0,1-15.48,6.12,108.6,108.6,0,0,1-11.76,2c-5.08.43-10.24.94-15.18-.21-4.08-1-7,.73-9.64,3a54.21,54.21,0,0,1-13,8.06c-13.54,6.21-27.8,10.37-42.3,13.71a71.06,71.06,0,0,1-20.84,2C398.38,1229.35,394.05,1228.46,390.27,1225.31ZM487.13,1182a62.63,62.63,0,0,0,5.18-12.26c2.37-7.88,2.22-15.21-4.33-21.29-7.73-7.17-22.54-12.06-34.32-3.75a27.58,27.58,0,0,0-9.89,11.92,6.53,6.53,0,0,0,.47,6.49c2.65,4.12,5.48,8.13,7.89,12.38,5.56,9.78,14.32,14.83,24.84,17.52a3.2,3.2,0,0,0,3.57-1.07A40,40,0,0,0,487.13,1182Zm-40.25,30.91.15.48-11.32,2.91v0Z" style="fill: #2c2c2c"/>
  <path d="M357.83,1263.54l-1.63,1.64-.2-.18a4,4,0,0,0-.37-.32c-1.88,1.59-4.67.38-6.52,2.1-.32-.23-.68-.79-1.08-.47-.72.58-1.34.81-2.07.1a.21.21,0,0,0-.38.12c-.27,1.27-1.14,1-2.1,1.06a12.08,12.08,0,0,0-2.61.86c-2.38.68-4.93.65-7.22,1.67-.74.33-1.19-.9-2.08-.1a2.55,2.55,0,0,1-2.17.66c-.73-.16-1.4.48-2.21.58a3.81,3.81,0,0,0-3.19,2.65l-.39-.39c-1.06.36-1.34.93-.45,1.78l-.77.78-.57-.51c-.94.44-.71,2-1.79,2.1a6.68,6.68,0,0,0-2.38.66c-.88-.38-.09-1.29-.72-1.67-.35.22-.54.79-1.29.35-.08-.67-.4-1.52.42-2.25a5.1,5.1,0,0,0-3.12-.88,2.66,2.66,0,0,1-2.86-1.73c-.37-1.07-2-1-2-2.51.06-.09.26-.37.44-.66a4.48,4.48,0,0,1,3-2.29c2.35-.53,4.54-1.91,6.9-2.33,2-.36,2.16-1.75,2.54-3a14.72,14.72,0,0,0,.53-2.77c.29-2.77,1.3-5.44,1.17-8.26,1.12-1.85.19-4,.84-5.92s-.14-4,.31-5.88c.85-3.48.36-7,.46-10.43s0-6.9,0-10.36.38-7.14-.11-10.62-.26-6.94-.46-10.35l2.27-2.26,1.66,1.66a1.83,1.83,0,0,1,2.37-.71,12.59,12.59,0,0,1,6.32,5.38c2.23,4.1,4.77,8,7.22,12,1.89,3.06,3.9,6,5.95,9a131.41,131.41,0,0,0,8.17,11.1c1.19,1.37,1.87,3.21,3.34,4.29.73.55-.37,1.78,1,1.87.91,0,.78,1.27,1.39,1.75s1,1.45,1.59,2,.61,1.46,1.29,2a7.76,7.76,0,0,1,1.4,1.86,38.5,38.5,0,0,1,2.84,4.56,5.69,5.69,0,0,1-.12,5.7,3.29,3.29,0,0,1-.37.64c-.64.61-.18,1.75-.8,2.11-1.54.91-2.83,2.31-4.58,2.73a8.35,8.35,0,0,0-2.32,1c-.71.41-1.52-.11-2.27.5A1.62,1.62,0,0,1,357.83,1263.54Zm-24-50.16c0,.82-1.61,1.43-.31,2.43a.54.54,0,0,1,0,.51c-1.05,1-.46,2.22-.51,3.33-.09,2.18,0,4.36,0,6.54s.18,4.38-.44,6.6a13.91,13.91,0,0,0-.05,5.15c.21,1.82-.75,3.47-.56,5.22.25,2.43-.91,4.71-.57,7.13a.49.49,0,0,1,0,.27c-1,2.49-.93,5.21-1.62,7.77-.25,1-1,1.88-.36,3,.76.33,1.29-.32,1.93-.44,1.93-.35,3.8-1.1,5.8-1.13.57-1.11,1.77-.3,2.66-.86a6,6,0,0,1,2.93-.71c1,0,1.74-.93,2.77-.6,1-1.09,2.44-.45,3.68-1,2.21-1,4.65-1.43,7-2.22a7.49,7.49,0,0,0,3-1.89,4.82,4.82,0,0,0-.84-3.71,75.93,75.93,0,0,0-5.2-7.91c-3-3.89-5.81-7.94-8.61-12-2.3-3.3-4.51-6.66-6.75-10C336.44,1217,335.5,1214.93,333.83,1213.38Z" style="fill: #2c2c2c"/>
  <path d="M1109.71,1522.3c-.87-1.08-3.09-.41-2.76-2.41.41-2.46,2.51-3,4.48-3.21,3.33-.35,6.69-.43,10-.53,4.26-.13,8.53-.13,12.8-.24,3.36-.09,3.33-.12,2.68-3.55a98.17,98.17,0,0,1-1.9-22.23,42.87,42.87,0,0,1,1.35-9.69,18.47,18.47,0,0,1,2.28-5.23c2.92-4.45,6.85-4.84,11.06-1.58a12.71,12.71,0,0,1,4.62,5.67c.66,1.76.07,2.92-1.4,3.56-2,.87-2.47,2.45-2.74,4.33-1,6.91-.27,13.78.29,20.66.12,1.53.46,3.05.47,4.58,0,2.25,1.2,2.68,3.14,2.53,4.79-.38,9.61-.44,14.29-1.74.49-.14,1-.4,1.47.19.19,1-1.1,1.07-1.32,1.8.71.61,1.29.08,1.88.07.92,0,2.84-1.75,2.11,1.18a2.81,2.81,0,0,1,2.48,2.72c.23,1.42.19,2.56-1.37,3.1-6,2-12.2,2.83-18.38,3.71-1.86.27-2.09.9-1.7,2.42,1.31,5.11,2.41,10.31,7.06,13.71.86.62.86,1.76,1.29,2.65.66,1.35-.47,2-1.11,2.8s-1.44.31-2.23.08c-8.34-2.4-13.06-8.37-16.16-16.07-1.6-4-1.71-3.77-6.18-3.24s-8.85.61-13.27.94a15.85,15.85,0,0,1-10.23-2.9,4.07,4.07,0,0,0-2.4-1.11,1.83,1.83,0,0,1-2-1.44C1108,1522.75,1109.25,1522.78,1109.71,1522.3Z" style="fill: #2c2c2c"/>
</svg>
