<svg viewBox="0 0 1892.92 2003.98" xmlns="http://www.w3.org/2000/svg"><g fill="#2c2c2c"><path d="m1214.44 729.1c-3.76 1.58-6.64 4.44-9.51 7.12-7.62 7.11-14.92 14.57-20.87 23.19-4.94 7.17-10.13 14.2-14.36 21.85-1.48 2.69-1.54 2.65-4.11 1.14a1.4 1.4 0 0 0 -.71-.08 3 3 0 0 1 -3-4.06c2-6.63 5.06-12.77 8.27-18.85a126.75 126.75 0 0 1 21.5-28.89 167.3 167.3 0 0 1 16.25-14.76c9.48-7.54 19.16-14.75 30.51-19.33a121.19 121.19 0 0 1 46.92-9c15.13.14 30 3.08 45 3.91 30.11 1.66 55.53-7.7 72.73-34 3.56-5.45 6.41-11.38 9.66-17 1.29-2.26 3.15-3.74 6-3.39 2.5.31 4.39 2.8 5.22 6.48.92 4.1 0 8-1.4 11.7a100.61 100.61 0 0 1 -11.68 23c-11.1 16.06-26.13 25.71-45.46 29-16.12 2.77-32 1.79-47.83-1.62-11.19-2.4-22.62-2.79-34-3.14-8.75-.27-17.29 1.26-25.75 3.11a44.42 44.42 0 0 0 -13.1 5 7.37 7.37 0 0 1 -1.5.51c-.58-.82.75-.65.49-1.3-5.18 1.45-9.41 4.78-14.09 7.2-.91.48-.75.13-2.05-.28s-2.66.34-3.35 2c1.11 0 1.63-1.13 3.07-.68-1.61 2-3.69 3.19-5.47 4.66-2.36 1.95-5.18 3.36-7 6zm34.71-32.47c-20.74 3.76-56.47 32.26-67.28 50.16 9.91-10.43 19.57-20.56 30.63-29.19s23.14-16.22 36.65-20.97zm101.52-1.54c6-.29 11.83-.93 17.28-3.65-5.75 1.26-11.55 2.29-17.28 3.65zm21.68 8.71a20.2 20.2 0 0 0 9.24-3.16zm-199.17 55.56a13.88 13.88 0 0 0 -2.68 5.2c3.39-.68 1.09-3.91 2.68-5.2z"/><path d="m1289.7 641.38c-1.86-1.45-3.75-2.86-5.55-4.37a6.81 6.81 0 0 1 -2.06-3.77 2.27 2.27 0 0 1 .76-2.47c1.08-.83 1.12.36 1.69.78 11 8.05 22.89 14.72 34.63 21.64a70.42 70.42 0 0 1 7.74 5.49c.78.61 2.13 1.41 1.08 2.89-.9 1.27-2 .95-3.16.47-5.87-2.48-11.25-5.86-16.78-9-6.32-3.52-12.32-7.61-18.35-11.66z"/><path d="m1364 661.1a6.07 6.07 0 0 1 -1.48-4.54 240.88 240.88 0 0 1 4.89-25.08c.55-2.18.9-1.42 2.92-.8 5 1.53 3.47 5.24 3.5 8.4a49 49 0 0 1 -2.79 16.29c-.46 1.37-.88 2.77-1.29 4.16-1.09 3.86-2.09 4.17-5.75 1.57z"/><path d="m1350.33 660.23c-4.45-.57-5.64-4-7.29-7.22-3.1-6-5-12.44-7.18-18.76-.4-1.15-1.26-2.78-.11-3.49s2.42.64 3.45 1.42c1.53 1.14 2 3 2.7 4.64 2.81 6.86 5.45 13.79 8.13 20.7a3.4 3.4 0 0 1 .3 2.71z"/><path d="m1030.65 1078.36c6.64-.56 12 .58 13.68 7.76.74 3.14-1.4 8.27-4.31 10.22 3.18.08 4.71 1.11 4.4 4.69-.25 3 1.16 6 1.07 9-.35 12.08-1.21 24.17-7.1 35.07-1.51 2.79-5.65 4.27-3.69 8.55-3.78 7.71-7.53 15.44-13.46 21.81a49.15 49.15 0 0 1 -4.76 4.08c-6.79 5.66-13.58 11.33-20.44 16.93-.46.37-1.43 0-2.13.21a10.39 10.39 0 0 0 -1.76.76c1.7 3.57-2 3.76-3.4 4.41-4.07 2-8.51 3.15-12.81 4.63-.5.17-1.21.13-1.5.47-3.14 3.69-6.82 5.72-12 5.45-1.82-.09-3.74 1.91-6 2.17-.5.88-.78 2.12-1.54 2.58-7.88 4.76-15.85 9.4-23.9 14.14-.44 3.65-6.6 10.06-10.61 10.4l1.26 1.26c-1 2-2.26 3.64-2.64 5.49-1.93 9.46-3.67 18.83-1.93 28.69 1.78 10.1 2.11 20.45 3.57 30.62.52 3.6 2.39 7 3.89 10.45.89 2 1 3.24-1.39 4.08-6.46 2.23-10.61 1.14-13-5.47-3.22-8.93-6.35-18.18-7.43-27.53-1.32-11.55-.95-23.36-.44-35 .55-12.52 8.18-21.41 17.23-29.14a112 112 0 0 1 33.22-19.44c14.76-5.61 27.79-14.17 40-24.13 12.8-10.43 23.11-22.8 30-37.76 5.31-11.43 9-23.35 8.35-36.23-.46-9.36-.66-18.72-1-28.09a3.28 3.28 0 0 1 .57-1.13zm-2.33 62.78-16.65 27.3a66.74 66.74 0 0 0 16.65-27.3zm-122.21 121.06 5.08-23.69a33 33 0 0 0 -5.08 23.69z"/><path d="m992.87 1127.48c-6.39 2-7.9 1.49-11.34-3.73-3.68-5.58-7.09-11.34-10.64-17-.57-.92-1.38-1.72-1.86-2.69-.83-1.7-1.5-3.48-2.23-5.22 2.21.12 4.71-.36 6.57.51a14.39 14.39 0 0 1 5.75 5c4.71 7.45 9.04 15.13 13.75 23.13z"/><path d="m940.41 1158.8c-4.57-2.29-9.38-4.52-14-7.11-1-.56-1.22-2.43-1.8-3.7a15.75 15.75 0 0 1 3.73-1.5 9 9 0 0 1 4 .4c5.69 1.93 11.33 4 17 6a11.27 11.27 0 0 1 2.91 1.49c.58.45 1.31 1.48 1.14 1.94a3 3 0 0 1 -1.91 1.73c-3.48.4-7.03.51-11.07.75z"/><path d="m964.42 1291.52c-3.52 2.7-6 2.38-8-.14a119.15 119.15 0 0 1 -7.8-10.45c-.74-1.17-.16-3.19-.18-4.81 2.27.26 5.62-.32 6.63 1 3.53 4.36 6.23 9.42 9.35 14.4z"/><path d="m987 1271.43c-9 1.83-13.44-5.42-19.49-9.16-.55-.34-.74-2.61-.43-2.79 1.54-.86 4.06-2.35 4.88-1.75 5.2 3.78 10.06 8 15 12.19.18.16.04.75.04 1.51z"/><path d="m966.42 1133c-2.06-.17-4.48.3-6.11-.64a130.41 130.41 0 0 1 -12.77-8.68c-.88-.65-1.08-2.21-1.6-3.36 1.33-.37 3-1.44 3.93-1a82.28 82.28 0 0 1 10.87 6.22c2.37 1.61 4.31 3.85 6.45 5.8z"/><path d="m994 1231.57c-.93 1.29-1.18 2-1.68 2.26-5.17 2.48-10.31 5.06-15.64 7.17-1.51.59-3.6-.26-5.4-1.13 6.96-4.12 13.47-8.87 22.72-8.3z"/><path d="m1127.65 961c2.18 4.71 6.4 8.33 2.45 13.53-.77 1 .77 1.27 1.08 2 2.8 6.33 2 13.06 2.28 19.7.15 3.34-2 5.46-3.22 8.07-.91 2-2.21 1.38-3.26-.1-1.14 1.8-4 .91-4.79 2.94-.35 1.68.76 2.4 1.61 3.26-.39 2-2.56.64-3.5 1.95-1.57 2.16-4.14.42-6.06 1.12-4.43 1.61-10.28 1-11.86 7.39a2.82 2.82 0 0 1 -3 2c-2.52.22-1-2.45-2.1-3.32-.41-.48-1.09-.4-1.26.41-1.35 6.3-1.32 6.31-9 7.06l-1.1 3.06c-2.54 1.53-3.14-1.79-5-1.59-10.36 6.82-13 10.09-28.15 10.12l1.74 2c-1.35.79-2 4.52-4.45 1.11a57.15 57.15 0 0 1 -5.92 3.58c-4.73 2.17-9.56 3.61-14.06-.28-2.36 1.85-1.9 5.62-5.3 6-1.58.32-2-1.28-3.57-2-2 1.06-4.91 1.31-6 4.57-.67 2-2.61 1.1-4 1.16s-2-2.4-4-1.77c-4.31 3.3-8.48 7.54-14.33 4.83l-5.36 5.36c-4.18 0-7.51-1.86-10.74.69-2.32 1.83-6.75-1.26-9.33 2.18-5.29-1.26-9.92 2.42-15.17 1.92a39.69 39.69 0 0 0 -20.14 3.36 3.47 3.47 0 0 1 -1.73.32c-8.92-1.06-17.43 2.69-26.41 2.06-6.27-.44-12.69-1-19 1.53-2.68 1.09-7.41 1.46-9-.1-2.88-2.77-6.55 3.13-8.25-1.59-3.09-.07-6.53.65-9.16-.5-1.66-.72-4.59-.7-5.25-3-1-3.54-4.63-4.1-6.6-6.53.72-1.49 1.82-2.69 1.71-4.71-.27-5 1.47-10.76-.51-14.78-2.12-4.27.63-9.29-3.24-12.81-.62-.56-.26-2.43-.06-3.65 1.22-7.71-2.94-15-1.9-22.65-3.73-11.84-3.09-24.57-7.51-36.26.83-9.45-3.56-18.13-4.11-27.48-.21-3.64-.31-8.05-1.8-11.3-1.77-3.86 0-8.43-2.19-11.2-2.8-3.55 1.11-8.34-3.07-11 .69-5.21-.66-10.24-2.07-15.09-2.29-7.93-.59-16.61-5.06-24.16-1.11-1.86-.72-4.88-.35-7.27.42-2.72-2.06-4.06-2.15-6.73-.29-8.94-3.81-17.5-3.58-26.57-3.82-4.41-.3-10.16-2.68-14.82s-.87-9.73-.9-14.56c0-3.18-2.55-5.39-2.12-8.6a33 33 0 0 0 0-8.42c-.27-2.2 2.06-4.36 1.29-5.45-1.25-1.79-1.09-3.41-1.21-5.18-7.57-3.46-10.72-9.63-11.3-17.67-.53-7.21.75-14.33 5.86-19 7.14-6.57 13.71-14.06 22.8-18.34a380.88 380.88 0 0 1 38.41-15.87c10.63-3.66 21.15-7.78 31.8-11.45 19.68-6.79 39.42-13.45 59.11-20.22 13.67-4.69 27.29-9.53 41-14.21 4.39-1.5 8.93-2.55 13.33-4 7.67-2.57 15.23-5.52 22.94-7.95q15.78-5 31.74-9.34a20.28 20.28 0 0 0 7.83-3.81c3.57-2.88 3.71-2.71 8.33.88l-1.86 2.06c2.79 1.69 4 .74 3.8-2.08 1.43-1.64 3.11-.54 4.49-.9 1.42.66.92 2.11 1.33 3.08 2.06 1.44 4.32.11 6.42.93a5 5 0 0 0 4.55 4.32v22.56l-3.64 3.84c4.58 4.33 7.42 9.09 4.24 15.49 2.33 1.32-1.1 3.69 1.15 5.6 1.08.92.62 4.27.08 6.32-.7 2.7 3 4 1.76 6.61-1.63 1.2-1.64-1.28-2.79-1-2.92 4 2.18 2.85 3 4.43-.6.67-1.2 1.32-1.75 1.94l1.66 2c-1.21 1.21-2.31 2.32-3.43 3.43 1.86 4.26 4.36 8.51 3.45 13.32-.86 4.5 2.32 8 2.15 12.37-.16 4.08-1.76 8.58 1.61 12.42.61.7 0 2.43.1 3.67.21 2.92-1.46 5.58-.23 8.84 1 2.73.62 6.23.11 9.27-.65 3.87 2.43 6.64 2.18 10.5-.21 3.41-1.94 7.5 1.65 10.48.15.13.06.61 0 .91-1.34 9 2.39 17.5 2 26.41-.16 3.49-.72 7 1.52 10.62 1.52 2.44-1.29 6.09 0 9.63.67 1.86 1.76 3.75 2 5.71.22 1.72 1 4-.5 5.31-2.69 2.33 2.43 3.36.6 5.31 2.62 3.25 0 7.3 1.78 10.84s1.32 7.66 2.22 11.29c2.29 9.23 1.61 18.93 4.93 27.92-2.35 4.5 1.09 8.7.71 13.28s.32 9.89 2.51 13.77c1.59 2.83-1.35 4.64 0 5.93 1.89 1.81 0 4.24 1.83 5.91 2.15 1.92.63 4.68 1 7 .24 1.45-.35 2.94 1 4.31 2.56 2.64-.05 4.87-1.06 7.52zm-22.87 21.7c-.53-2.44-3.9-2.79-3.23-5.55.81-3.37-1.76-5.57-2.53-8.37-.84-3.06-2.11-6-3.14-9-3.32-9.7-2.42-20.44-7.36-29.76-.39-.74-.1-1.83-.15-2.75-.48-8.35-4.43-16.17-3.75-24.69-4-9.12-2.47-19.28-5.46-28.66-1.13-3.56-.45-7.56-1.81-11.44s0-8.12-1.87-12.37.34-9.26-1.74-14.27c-1.83-4.38-.91-9.95-2-15.06-1.28-6.11-.19-12.55-1.93-18.91-1.39-5.1 0-10.67-1.84-16.13-1.34-3.91-.76-8.73-.12-13 .66-4.49-2.73-8-2.08-12.38a52 52 0 0 0 .06-7.49 67.52 67.52 0 0 1 .08-8.42c.31-2.41-1.87-5.52-1.1-6.26 3.4-3.23-1.36-4.72-1-7.38.63-5.24-.8-10.85.45-15.85 1.35-5.38-4.48-9.68-1.15-14.81-1.41-4.86-.93-9.85-1-14.79 0-3.44 0-6.88 0-10.32s-.22-6.92 1.23-10.2c-3-2.67.26-6.65-1.94-9.51-1.52.56-2.34 3.23-4.6 1.15-2.51-2.3-4.9-1.78-7 .73-.78.91-1.53 2-3 1.73-2.38.29-.89-6.66-5.24-2.76 2 1.54 2.18 4 3.41 5.9-.58.21-1.14.37-1.67.61a37.12 37.12 0 0 1 -19.39 3.75c-4.37 4.32-4.37 4.32-5.36 8.91-2 1-4.83-.39-6.4 2l-.65-.69v-4.22c-2 4.77-4.91 2.51-7.19 3.88-.17 1.45-.35 2.92-.52 4.4-1.53.89-3.17 1.45-4.68 2.43-2.62 1.71-5.72 2.7-8.69 3.84-1.17.46-1.61-2.88-3.48-.78-1.16 1.3-3.11 1.35-4.58 2.57-3.36 2.77-7.78 3.92-11.48 6-3.4 1.92-7.11.55-10.19 2.67-7.71 5.33-16.87 7-25.35 10.41l-1.42-3.86c-3.25 1.38-2.86 5.34-5.48 7a26.1 26.1 0 0 0 -12.52 4.12c-.32.19-1.06-.33-1.61-.52-1.52-2 1.15-2.91 1.1-4.68-1.13-.52-2.22-.72-3.2.41-.11 2.12-.22 4.22-.35 6.63h-9.86c-2.25 1.48-2.9 4.17-5.93 3.81-.84.07-.86-2.24-2.43-1.34-.24.92-.18 2.1-.73 2.55-1.19 1-23.66 8-24.77 8a1.88 1.88 0 0 1 -.66-.28c-.38-1.09-.77-2.18-1.17-3.32-2.47 1.36.11 4.37-2.15 5.63-1.47-1.66-1.19-4.64-4-5.32-.76 1.26-2.72 1.7-2.52 4 .44.67 1 1.6 1.67 2.55-3.1 1.88-6.13-.71-8.93-.26a21.46 21.46 0 0 0 -9.21 3.46c-1 1.73.39 3.44-1.06 4.74-1.43-.22-2-2.36-5-1.12a10.22 10.22 0 0 0 -1.5 2c-.62 1.14 2.06 2.2 1 2.46-3.08.79-2.53 3.15-3.57 5-1.31 2.39-2 4.62-1.43 6.86.57 2.43-2.38 4.08-.41 7.1 1.43 2.19.62 6.11.21 9.18-1.19 9 1.51 17.63 2.34 26.38.45 4.68 1.51 9.46 1.43 14.26-.1 5.4.25 5.24 1.67 9.93.56 1.87 3.4 3 1.91 5.62-2.05 3.57 1.42 7.12.22 10.72 5.37 9.51 4.43 20.62 7.76 30.55 1.51 4.5.24 9.24 2.13 13.15 3.16 6.54 2.72 13.86 5.29 20.32 1.79 4.47.32 9.31 2 13.21 3.85 8.71 2.85 18.56 7.16 27-1 5.26 2 9.93 2.12 15.16s2.81 10.17 3.28 15.34c.23 2.6 2.75 3.93 2.22 6.73-.45 2.34-.77 5.54.45 7.17 1.82 2.42 1.34 4.73 1.2 7-.15 2.61 2.6 4 2 6.74-1.15 5.81 3.24 11.12 1.81 17 3 3.76.73 8.5 2.1 12.27 1.65 4.5 1.17 8.91 1.74 13.35.66 5.16 1.5 10.48 6.72 13.55 1.22-2.28 3.31-1.92 5-1.65 8.05 1.31 15.72-1.63 23.58-2.26 3.36-.27 7-2.08 10.48-1.42 4.22.8 7.41-2.17 11.43-2.11 5.63.09 11-1.61 16.42-3.23 4.25-1.28 9.07.66 13.17-2.21.77-.53 1.18 2.06 2.68 1.34l1.16-3.39c.83.72 1.94 1.91 2.11 1.79 4-2.9 8.83-3 13.37-4.08 1.66-.41 2.69-2.06 4.62-.32 1.66 1.49 3.17-.79 4.39-1.27 8.44-3.39 17-6.13 26.06-7.13 3-.33 4-2.51 5.93-3.88a5.78 5.78 0 0 0 .66.65c.6.39.85 1.61 2 .47 2.13-2.08 5.78-.93 7.8-3.94 1.78-2.63 6.24.76 8.17-2.73 10.46-1.79 19.6-7 29-11.44 11-5.18 22.37-10 30-15.92 4.74-5.38-1.62-8.76 1.79-12.7z"/><path d="m882.18 647c-.49-.21-1.07.44-1.25-.39 0-.07-.63.07-.92 0a12.43 12.43 0 0 0 -2.83-.61 2.08 2.08 0 0 1 -.9-.43 11.27 11.27 0 0 0 -3.91-2c-.2-.05 0-1-.58-.23-.07.1-.47-.08-.69 0a2.23 2.23 0 0 1 -1.73-.37 2.92 2.92 0 0 1 -.63-.72 22.35 22.35 0 0 0 -1.23-1.87c-1.47-1.71-2.61-3.65-3.92-5.46-.47-.65-.86-1.36-1.31-2s-1-1.27-1.38-2a22.35 22.35 0 0 0 -2-2.92c-.68-.89-1.22-1.88-1.84-2.82-1.25-1.93-2.42-3.92-3.81-5.74a20.28 20.28 0 0 1 -1.58-3.25c0-.06 0-.17 0-.25-.89.3-.81-.63-1.07-1-1-1.35-1.92-2.83-2.92-4.21-.3-.41-.29-.42-.11-1.2-.26-.06-.69-.05-.74-.19-.51-1.39-1.83-2.32-2.13-3.83 0-.17-.29-.3-.43-.46s-.48-.37-.52-.6c-.28-1.59-1.6-2.55-2.32-3.87a7.39 7.39 0 0 0 -1.45-2.33c-.25-.22-.18-.81-.31-1.51a3.43 3.43 0 0 1 -1.86-2.52c0-.11 0-.26-.09-.33-1.6-1.43-2-3.71-3.47-5.2-.12-.11 0-.5.05-.8a3.93 3.93 0 0 1 -2-2.22 31.51 31.51 0 0 0 -1.92-3.15 38 38 0 0 1 -2.54-4.31c-.23-.48-.58-.9-.84-1.36s-.22-.94-.63-1.2c-.73-.46-.29-1.57-1.13-2-.16-1-1-1.53-1.33-2.4s-1-1.6-1.27-2.43a41.16 41.16 0 0 0 -1.9-3.82 11.07 11.07 0 0 0 -1.84-3.41c-.66-2.09-2.18-3.73-3-5.74-.39-.93-1-1.78-1.47-2.7a9.86 9.86 0 0 1 -.67-1.48c0-.17 0-.42-.15-.49a3.75 3.75 0 0 1 -1.38-2.57c-.64-.21-.48-.84-.7-1.28a7.92 7.92 0 0 1 -.67-1.29c-.69-2.58-1.8-5-2.43-7.62-.53-2.19-1.7-4.23-2-6.49-.32-2.53-1.05-5-.64-7.66a16.93 16.93 0 0 1 .86-3.61 21.28 21.28 0 0 1 1.62-3.15 5.71 5.71 0 0 1 2.77-2.43 6.49 6.49 0 0 0 1.38-.83 16.72 16.72 0 0 1 2.27-1.25 21.55 21.55 0 0 1 3.15-1.13c1.24-.42 2.51-.08 3.75-.24.16 0 .36.35.43.43.33-.11.62-.31.86-.27a12.83 12.83 0 0 1 1.72.46 6.87 6.87 0 0 1 1.38.49c.47.25.83.69 1.31.93s1 .15 1.38.39c.63.4.94 1.19 1.68 1.51.28.12.43.52.7.65a11.44 11.44 0 0 1 1.85 1.6c.57.46.6 1.28 1.44 1.58.65.23 1.11 1 1.7 1.44a21.62 21.62 0 0 1 1.86 1.41c1.3 1.32 3 2.19 4.15 3.67.13.17.33.41.49.41 1.16 0 1.61 1.1 2.51 1.49 0 .55.39.42.74.34a.54.54 0 0 1 .44.1 5.47 5.47 0 0 0 2.53 1.48 11.49 11.49 0 0 1 1.9 1.34 8.75 8.75 0 0 0 1.65.94c.56.21.73 1 1.46.88.09.94 1.14.69 1.51 1.23s1.24.43 1.66 1.12c.32.52 1.14.73 1.74 1.08l2 1.14.27-.4c.06.28.78 0 .51.63-.07.16.19.6.4.72.81.44 1.44 1.21 2.36 1.38.66.12.87.65 1.29 1a15.85 15.85 0 0 0 2.67 1.51c.09.05.29 0 .31 0 .91 1.72 3 1.63 4.26 2.76.61.53 1.2 1.1 1.81 1.66.23-.59.59-.62 1-.32 0-.12.09-.24.06-.33-.28-.65-.42-1.5-.91-1.9-.68-.57-.49-1.43-1.06-2a7.7 7.7 0 0 1 -1.07-2.19 13.77 13.77 0 0 0 -.93-2.11c-1.07-1.57-1.54-3.44-2.69-5a12.26 12.26 0 0 1 -1.08-2.59 4.29 4.29 0 0 0 -.76-1.42c-.43-.38-.39-1-.7-1.27s-.44-.75-.63-1.14c-.49-1-1-2.06-1.57-3a30.62 30.62 0 0 1 -2.72-5.16l-.88-1.21c-.81-.51-.82-1.5-1.3-2.22s-1.17-1.21-.93-2.17a.44.44 0 0 0 -.08-.35 18.5 18.5 0 0 1 -3.06-4.93c0-.07 0-.23 0-.25-1.05-.53-.83-1.88-1.66-2.56-.33-1.77-1.7-3.12-2-4.9a1.87 1.87 0 0 0 -.33-.55 5.72 5.72 0 0 1 -1.19-2.51 2.34 2.34 0 0 0 -.67-1.3c-.32-.35-.16-.93-.6-1.36s-.58-1.48-1-2.22a36.41 36.41 0 0 1 -2.06-4.69c-.56-1.33-1.24-2.64-1.94-3.93-.44-.81-.68-1.73-1.15-2.54a16 16 0 0 0 -1.36-2.59 1.19 1.19 0 0 1 -.16-.47 7.5 7.5 0 0 0 -.88-2.14c-.42-.62-.26-1.56-1-2.09-.41-1.57-.81-3.13-1.23-4.69a10.33 10.33 0 0 1 -.37-3.6c.09-1.16-.08-2.37-.1-3.56a29.29 29.29 0 0 1 .27-5.3c.11-.71 0-1.42.09-2.08a6 6 0 0 1 2.77-4.42 6.7 6.7 0 0 1 2-.87 28.51 28.51 0 0 0 3-.79 8.36 8.36 0 0 1 3.9-.21c3.16.46 6.25 1.28 8.69 3.58.9-.1 1 .83 1.55 1.2s1 .82 1.54 1.24a1.21 1.21 0 0 1 .31 1.26 2.7 2.7 0 0 1 1.5.8c.75.61.79 1.62 1.62 2.22.68.5 1 1.47 1.74 2.07-.28.84 1 .83.87 1.62.81.29.34 1.44.95 1.65a4.55 4.55 0 0 1 1.51 1.06c.75.67 1 1.78 2 2.24-.2.25-.26.44.1.64.06 0-.19.51.24.67a3.7 3.7 0 0 1 1.83 1.62 12.59 12.59 0 0 1 1.37 2c.19.5.38 1.23.85 1.51s.68.85 1 1.24a2.75 2.75 0 0 1 1 1.49c0 .17.27.36.46.44a1 1 0 0 1 .57.79c.11.45 0 1.07.86.95.07 0 .17.5.33.71a19.09 19.09 0 0 1 2.21 3.14.62.62 0 0 0 .19.25c.86.43 1.15 1.26 1.61 2 .27.45.4 1.17 1.15 1.35.49.11.12.54 0 .83 1.06.17.78 1.6 1.75 1.89.14.05.21.37.3.56s.14.53.28.58c.48.18.52.58.7 1s.92.54.9.76c-.05.55.43.65.58 1l.52 1.2c0 .11.06.25.13.3 1.08.69 1.33 2.12 2.62 2.69l-.95 1.05c.1.08.16.17.24.19.42.07.85.1 1.26.21.18.06.49.33.46.42-.32 1 .39.88 1 .94l.38 1.46c.63-.11 1 .23.86.7a.77.77 0 0 0 .64 1.11 1 1 0 0 1 1 .93c0 .2.17.48.33.53.84.3 1.05 1.07 1.5 1.69.27.37.25 1 .86 1.17a4.28 4.28 0 0 1 1.15.92c.43.34.83.72 1.29 1s.29.5.16.85c-.05.13.32.37.41.6a10.53 10.53 0 0 1 .32 1.18l.87-.63c0 .51-.36 1 .27 1.19.27.1.71.23.3.67.13 0 .32.15.39.1a1 1 0 0 0 .31-1.32c-.08-.13-.3-.17-.41-.29s-.05-.22-.08-.36l.56-.38c-.15-.14-.44-.34-.41-.4.23-.52-.42-1-.3-1.21.32-.63 0-1.12-.13-1.65a4.9 4.9 0 0 1 -.13-1.79 3 3 0 0 0 -.28-1.42 3.32 3.32 0 0 1 -.39-2.6c-.6-.46-.27-1.17-.42-1.74-.21-.8-.71-1.55-.44-2.47.22-.75-.62-1.48-.13-2.28a21.51 21.51 0 0 1 -.46-2.95 28.76 28.76 0 0 1 -.6-5.44 32.7 32.7 0 0 1 .25-6.24 36.37 36.37 0 0 1 2-8.28c.67-1.7.81-3.71 2.4-5 .09-.07 0-.31.07-.46a6.25 6.25 0 0 1 2.31-3 4.8 4.8 0 0 0 1-.81 2.62 2.62 0 0 1 1.3-.94 9.26 9.26 0 0 0 1.45-.71c.49-.23 1.18-.06 1.46-.74 0-.06.22-.05.32-.09 1.27-.45 2.54-.89 3.79-1.36a12.22 12.22 0 0 1 1.46-.71c.85-.2 1.75-.2 2.62-.37s1.66-.52 2.51-.62a10.06 10.06 0 0 1 2.74 0c1 .14 2-.12 2.86.3s1.87.34 2.62.78 2 .35 2.24 1.55c0 .09.23.19.36.22 1.38.26 2 1.43 2.78 2.37a4.75 4.75 0 0 1 .87 1.94c.13.62.75.08.88.51a3.36 3.36 0 0 0 .34.95 8.4 8.4 0 0 1 1.27 2.45 1 1 0 0 0 .23.42c1 .88 1.24 2.15 1.81 3.25.25.48.74 1 .68 1.44a2 2 0 0 0 .45 1.39c.65 1.31 1 2.78 2 3.92.31.34.23 1.07.56 1.36s.19.76.48 1.13a3.51 3.51 0 0 1 1 1.9c.06.65.72 1.07.84 1.78a10.34 10.34 0 0 0 .78 1.79c.25.61.19 1.35.83 1.78.07.05.06.22.1.33a60.33 60.33 0 0 0 1.91 5.79c1.57 3.53 2.08 7.35 3.21 11 .17.52.14.53.94 1.14-.15-.77-.28-1.4-.44-2.2.27.05.64 0 .67.13a19.21 19.21 0 0 1 .62 2.34c0 .27-.15.59-.24.87-.54-.07-.1-1.26-1-.75.46.49.55 1.19 1.28 1.56s0 1.25.46 1.8c0 0-.08.1-.08.15 0 .7-.28 1.42-.23 2s.72 1.15 1.09 1.73a1.57 1.57 0 0 1 .09.55l-.72-.17c.69 1.32 1.59 2.56.7 4.1 1.17.76.51 2 .67 3 0 .23-.43.54-.73.89l1-.11a4.52 4.52 0 0 0 .31 2.34 1.59 1.59 0 0 1 .06.65 4.37 4.37 0 0 0 .24 1.87 4.47 4.47 0 0 1 .09 1 4.57 4.57 0 0 1 .07 1c-.06.48.85.72.33 1.22s.09.9-.17 1.28c-.08.11-.28.15-.75.39h1.12l.06-.09c.66.55.07 1.31.32 1.86.33.71-.28 1.16-.38 1.87l.88.12c.19 1 .69 1.94.25 3.06-.23.61.18 1.47 1 2.68a2.7 2.7 0 0 0 -.69-.26 2 2 0 0 0 -.53.12l1.38 1.21c-.23.57-.47 1.13.08 1.68.11.11.07.44 0 .63a.81.81 0 0 0 .29 1 .84.84 0 0 1 .26.38c-.75.83.69 1.07.46 1.75-.13.39-.24.8-.32 1.06.28.2.52.36.74.53.47.37-.24 1 .33 1.45.36.31.39 1.06.47 1.62.28 2 1.51 3.67 1.85 5.63.76.84.8 2 1.15 3a15.18 15.18 0 0 0 .82 1.79c.26.54.19 1.16.69 1.69s.33 1.33.65 1.91c.21.38.73.58.25 1.08.55.18.52.69.64 1.11a13.33 13.33 0 0 0 1.41 2.95 2.28 2.28 0 0 1 .39 1.28c0 .46.87.54.34 1.07a4.51 4.51 0 0 1 .81 1.78 4.75 4.75 0 0 0 .74 1.64 23.57 23.57 0 0 1 1.6 3.27 10.58 10.58 0 0 0 .79 1.81 2.6 2.6 0 0 1 .28 2.26 1.14 1.14 0 0 0 0 .84l.6-.81c.68.61.1 1.11-.18 1.72.4.26.46.91 1.18.89.13 0 .31.53.41.84a1.3 1.3 0 0 1 -.72 1.82c.78 0 1.17.29 1 1 0 .08.38.36.67.39-.43.85.39 1.83-.38 2.76l.83-.41a8 8 0 0 1 .38 2.68c-.2 1 .56 1.86-.11 2.82l-1.13.4v.16l1.06-.07a5.07 5.07 0 0 1 -.07 2.19 25.4 25.4 0 0 1 -1.79 6.06c-.41 1-1 1.91-1.43 2.86s-.83 1.84-1.32 2.72a19.72 19.72 0 0 1 -4.64 6c-.72 1.48-2.1 2.32-3.27 3.36a58.93 58.93 0 0 1 -6 4.46c-1.1.75-2.21 1.51-3.35 2.19a20.16 20.16 0 0 0 -3.47 2 1.4 1.4 0 0 1 -.63.23 4.78 4.78 0 0 0 -2.48 1.23 2.1 2.1 0 0 1 -.58.29c-.59.28-1.3.16-1.82.79-.34.4-1.22.17-1.59.82 0 .07-.21.06-.32.09-2.33.51-4.43 1.75-6.8 2.17a4 4 0 0 0 -2.16.85 1.29 1.29 0 0 1 -1.59.14c-.25.56-.81.53-1.27.66-1.34.37-2.69.67-4 1.08-.67.21-1.48.08-2 .84-.25.4-.84-.57-1.16.13-.94.09-1.69.72-2.61.9a13.18 13.18 0 0 0 -4 1.11 17.88 17.88 0 0 1 -3.66 1.22c-1.32.43-2.69.7-4 1.09a4.53 4.53 0 0 0 -1.28.69c-.39.28-1-.38-1.23.32-.52-.06-1.07-.27-1.4.36-.55-.43-.8.3-1.23.33a3.3 3.3 0 0 1 -1.31.11 3.2 3.2 0 0 0 -1.65.32 18.46 18.46 0 0 1 -5.93.76 53.11 53.11 0 0 1 -5.78-.13 2 2 0 0 0 -.83.15c-1.91.71-4 .4-5.93.83-.18 0-.4-.15-.61-.18-.37-.05-.75-.07-1.12-.1a6 6 0 0 0 -1.11-.07c-.33 0 0-.86-.61-.35a1.45 1.45 0 0 1 -1 .08 10.1 10.1 0 0 1 -1.41-.37q-1.47-.42-2.94-.87c-.4.06-.24-.18-.06-.46zm-35.76-42.37a9.8 9.8 0 0 1 -1-2.13 4.18 4.18 0 0 0 -.94-1.92 21.94 21.94 0 0 1 -1.73-2.69c-.9-1.47-1.75-3-2.61-4.45-.77-1.3-1.81-2.46-2.13-4-.81-.74-.69-2.06-1.75-2.7-.4-.24-.47-1-.78-1.4-.17-.23.66-.68-.14-.64s0-.46-.25-.57a3.51 3.51 0 0 1 -1.68-2.13c-.45-1-1.27-1.86-1.78-2.89a8.61 8.61 0 0 0 -1.5-2.45 4.69 4.69 0 0 1 -.93-1.7 35.18 35.18 0 0 0 -2.49-4.75c-.93-1.71-1.69-3.5-2.64-5.2.2-.56-.83-.77-.39-1.4a13.07 13.07 0 0 1 -1-1.22c-.29-.46-.28-1-.63-1.53a43.63 43.63 0 0 1 -2.33-4.25c-.5-1-1-2-1.49-2.89a24.7 24.7 0 0 1 -1.82-3c-.75-1.94-1.78-3.76-2.54-5.68a26.89 26.89 0 0 1 -1.87-5.44 27.38 27.38 0 0 0 -.83-3.17 4.89 4.89 0 0 0 -.53-1.2 5.55 5.55 0 0 1 -.68-2.42 18.84 18.84 0 0 0 -1.37-5.48c-.08.37-.32.8-.2 1.09.52 1.28.36 2.66.63 4 .85 4 2.48 7.71 3.45 11.64a2.07 2.07 0 0 0 .2.65 28.47 28.47 0 0 1 2.22 4.54c.15.3.18.62.56.79s-.47.77.17.92c.92.22.46 1.36 1.23 1.72.18.08.09.71.13 1.09a.54.54 0 0 0 .15.31c.6.42.6.41.43 1.14.32.27 1 .3.61 1 .65.51.53 1.6 1.45 1.92.11 0 .26.36.22.39-.37.39 0 .51.2.76s.25.75.48 1a7.74 7.74 0 0 1 1.73 3.29 2.35 2.35 0 0 0 .67 1.1c.28.34.65.61.65 1.12s.71.92.41 1.56c.87.53.91 1.6 1.46 2.3 1.29 1.63 1.6 3.79 3 5.31a16.78 16.78 0 0 0 1.42 2.92c.41.92 1.19 1.66 1.26 2.77a2.48 2.48 0 0 0 .88 1.34c.42.4.21 1.05.81 1.42.44.27.46 1.34.86 1.48.82.28-.07 1.11.59 1.28.73 1.64 2.33 2.66 3 4.32.84.16.81 1 1.17 1.52a6.16 6.16 0 0 1 1.08 1.79c.07.27.29.49.36.76s0 .67.16.92c.26.47 1.17.57.76 1.41.4.39.83.76 1.2 1.18s.4.82.72 1c.67.49.43 1.43 1 1.87s.28 1.45.93 1.89c.75.3.83 1.21 1.78 1.8zm16.11-35.22a3.71 3.71 0 0 0 .26 1.17c.62.87 1.31 1.69 2 2.51.17.21.43.34.59.56.41.55.57 1.32 1.26 1.64s.21 1.58 1.33 1.37c.69 1.4 2 2.4 2.72 3.74.47.83 1.34 1.29 1.67 2.14.57 1.43 2.13 2.19 2.45 3.76 0 .08.21.1.29.18a7.13 7.13 0 0 1 1.56 1.81c.34.84 1.31 1.22 1.4 2.17 0 0 .16 0 .24.06l.19-1.28-.74-.07a10.41 10.41 0 0 0 -.5-1.42c-.22-.44-.86-.89-.8-1.24.12-.62-.56-.69-.57-1.24 0-.35-.52-.86-.93-1-.68-.28-.18-1.19-.54-1.19-1 0-.42-.8-.75-1.1s-.67-.69-1-1.05-.66-.84-1-1.25-.63-.72-.91-1.11-.56-.92-.88-1.34a13.84 13.84 0 0 0 -1-1.06c-.33-.36-.67-.7-1-1.06s-.71-.8-1-1.22-.51-.81-.84-1.16-.76-.62-1.11-1-.71-.81-1.09-1.18-.73-.63-1.3-1.13zm108.41 44.93a18.53 18.53 0 0 0 2.37-5 15.78 15.78 0 0 0 .1-7.39c-.09-.39.1-1-.11-1.18a1 1 0 0 1 -.21-1.33.32.32 0 0 0 -.1-.31c-.62-.23-.58-.83-.65-1.3-.21-1.35-1.07-2.42-1.49-3.68a3.72 3.72 0 0 0 0 1.45 10.62 10.62 0 0 1 .13 1.21c.12.51.27 1 .39 1.5a4.41 4.41 0 0 1 .2 1.32c-.06.43.22.74.15 1.2-.12.8.57 1.52.34 2.46s.73 1.73-.12 2.56a.85.85 0 0 1 .54.77 12.27 12.27 0 0 1 -1.33 4c-.34.41-.1 1.13-.76 1.33.08.44.16.88.25 1.32.06.23.15.51.3 1.08zm-63.87-116.67c-.83.28-.71.79-.48 1.35a6.21 6.21 0 0 1 .43 2.37c-.06.32-.08.5.2.7.81.56-.16.62-.29 1l.83.15a9.65 9.65 0 0 0 -.21 2.58c.07.6.62 1 .51 1.56a.92.92 0 0 1 -.13.24l-.47-.22c-.21.86.58.47.69.6l.41 1.55-.53.35 1 .79-.65.85a2.57 2.57 0 0 1 .81 2.18v.35c.87.13.64 1.09 1.17 1.63.55-1.44-.37-2.55-.45-4l.48-.57c-.63-.8-.73-.82-.62-1.36s-.51-.86-.48-1.41a10.69 10.69 0 0 0 -.11-1.79c0-.13-.23-.22-.33-.35a.92.92 0 0 1 -.19-.43c0-.58.11-1.16.17-1.75-.77-.43-.34-1.13-.41-1.72 0-.18-.24-.34-.35-.52s-.26-.36-.23-.41c.43-.5-.17-1.07 0-1.44.36-.68-.33-1-.3-1.41.09-1.6-.72-3-.94-4.48-.06-.46-.1-.92-.15-1.42-.12 0-.36 0-.41.14-.25.51.45 1.08 0 1.62 0 0 .28.29.37.48s.15.46.07.57c-.63.88-.04 1.55.59 2.22zm-39.16 26.22-.22.08a11.78 11.78 0 0 1 .33 1.3 15.8 15.8 0 0 1 0 1.6l.51-.75c.41.89.74 1.74 1.18 2.53.69 1.29 1.41 2.55 2 3.88a7.74 7.74 0 0 1 .93 2.1c.85.35.48 1.38 1.14 2s.65 1.48 1 2.22a7.94 7.94 0 0 1 1 2.45c.68.33.41 1.24.81 1.56.66.52.49 1.25.8 1.82.12.24.29.45.43.68a6.42 6.42 0 0 1 .8 1.38 23 23 0 0 0 1.57 3c.19.42.72.69 1.26 1.19-.06-.43 0-.63-.11-.74a14.27 14.27 0 0 1 -1.92-3.53c-.82-2-2.23-3.67-2.67-5.8-.83-.51-.64-1.57-1.26-2.26s-.56-1.72-1.09-2.37-.51-1.34-.89-1.93c-1.54-2.35-2.65-4.93-4-7.38-.51-1-1.06-2.02-1.6-3.03zm86.09-27.1a10.42 10.42 0 0 1 -.57-2.33c0-.78-1.17-1.17-.59-2.06-.82-.41-.56-1.31-.86-1.95s-.61-1.29-.87-1.95a14.17 14.17 0 0 0 -1.24-3.08c-.5-.69-.44-1.54-.89-2.13a6.06 6.06 0 0 1 -.98-2.29 5.89 5.89 0 0 0 -.66-1.3 8.42 8.42 0 0 0 -1.08-1.35c.78-.64-1-1.05-.15-1.69a4.08 4.08 0 0 0 -.5-.6c-.19-.17-.56-.22-.23-.58l-.54-.48-1.07 1.17a4.3 4.3 0 0 0 1.3.53c.63.05.23.29.17.49.65.2.26.76.41 1.13s.13.74.3 1.06c.28.54.32 1.34 1.26 1.28l-.61.51c.75.3.53.86.42 1.42l1.08-.12v1a1 1 0 0 0 .13.57 7.34 7.34 0 0 1 1.67 2.74c.13.5.12 1.13.42 1.48a4.47 4.47 0 0 1 .92 3c0 .12.06.31.13.33.61.19.69.7.82 1.2.24.95.48 1.9.75 2.84.08.27.43.57.37.75-.23.62.45.31.69.41zm-30.25 59.61c0-.83-.58-1.61-.2-2.45-.5-1.38.13-2.86-.4-4.23.41-.67-.2-1.31-.07-1.94.28-1.3-.23-2.57 0-3.86 0-.13-.24-.3-.37-.45-.11.15-.28.29-.32.45a24 24 0 0 0 -.43 4 14.78 14.78 0 0 0 -.07 3.51 48.16 48.16 0 0 0 1.31 5.16zm-39.47 75.22a17.3 17.3 0 0 0 1.53 2.47 5.56 5.56 0 0 0 2.06 1.87l-.21 1.34c.68-.85 1.23-.93 1.85-.45.26.2.72.3.83.55.33.77.69.21 1.2.14a14.89 14.89 0 0 1 -3.39-3.27 23.33 23.33 0 0 0 -3.45-2.76c-.05-.04-.21.05-.42.11zm89.41-40.12a6 6 0 0 1 -.82-1.16 19.32 19.32 0 0 0 -1-2.8c-.47-.91-1-1.81-1.4-2.73-.66-1.38-1.72-2.59-1.92-4.17 0 0-.16 0-.29-.07.13 1.68 1 3 1.62 4.52a21.88 21.88 0 0 0 1.3 2.88c.14.24 0 .62 0 1a3 3 0 0 1 .61.36c.07.07-.12.42 0 .49s.56.26.7.47 0 .5 0 .86zm-53.61-71.27-.29.07c0 1.6.16 3.22 0 4.81a31 31 0 0 0 -.11 4.84 2.14 2.14 0 0 0 1-1.79 12.83 12.83 0 0 0 -.09-3.39c.49-.77-.33-1.45-.16-2.27a6.42 6.42 0 0 0 -.35-2.27z"/><path d="m713.39 882.8a30.86 30.86 0 0 0 -5.61 1c-.89.33-1.54.76-2.06-.16-1.94-3.35-6-3.22-8.68-5.32-3.24-2.51-6.69-2.08-10.65-1.35-6.58 1.21-11.87 5.23-18.11 7.16a49.24 49.24 0 0 0 -9.74 4.45c-5.72 3.31-12.09 4-18.38 5.14-4.34.81-8.31 2.81-13.11 1.89-7.37-1.41-13.24-5.09-18.6-10-1.56-1.42-1.3-2.94.15-4.89-2.77 1.53-3.55.49-4.76-1.61-2.66-4.59-5.74-8.87-4.78-14.59a1.51 1.51 0 0 0 -.37-1.15c-4.7-4.76-5.43-11.16-6.93-17.18-.5-2-.73-3.26-3-4.32s-4.75-2.2-5.38-5.35c-.45-2.27-2.47-.11-3.92-.77-14.41-6.57-28.64-4.57-43.1.6a183.27 183.27 0 0 0 -18.15 7.75 49.43 49.43 0 0 0 -14.5 11.06c-1.19 1.29-2.22 2.67-4.12 2.45-2.23-.25-1.45-2.49-1.94-3.72-1.8-4.47.19-7.38 3.66-10.74s6.39-7.29 10.5-9.84c10.43-6.48 20.52-13.63 33-16.1 14.32-2.85 28.17-3 41.6 4.13 3.73 2 7.94 3.56 9.76 7.12 2.82 5.51 6.12 10.91 7.3 17.22s3.5 12.38 7.82 17.39c8.55 9.91 19.73 10.65 31.3 8 11.79-2.69 22.42-8.77 33.75-12.83 15.07-5.39 27.78-2.87 38 8.61a36.08 36.08 0 0 1 8.24 15.74c1.73 7.45 3.82 14.69 9.28 20.67 4.74 5.2 13.78 8.63 20.41 6.26 7.37-2.64 14.62-5.64 21.93-8.45a24.21 24.21 0 0 1 8.14-1.61 3.29 3.29 0 0 1 3.62 2.89c.11 2-1.65 1.74-3.06 1.39-1.06-.26-1.6.24-1.75 1.23s.27 1.44 1.4 1.51c3.07.18 2.93 1.54 1.08 3.38-1.4 1.4 0 3.32-1.66 5.29-2.88 3.48-6.3 5.34-10.14 7a5.82 5.82 0 0 1 -1.14.53c-2.45.38-9.58 2.93-12 4.75-1.59 1.2-3.72.58-5.17 2.09-.49.51-1.3-.14-1.23-1 0-.55.32-1.26-.65-.84-6.5 2.87-8.33 3.21-12 2.18s-6.45-3.79-10.21-4.66c-1.2-.28-1-1.84-.69-3 .2-.8.68-1.69-.41-2.18-.81-.37-2-.32-2.32.33-1.21 2.74-2.08 1.22-3-.1-2-2.85-5-5.46-5.81-8.63-1.51-5.69-3.88-11-5.69-16.56-.67-2.05-1.1-4.24.72-6.27 1.37-1.54.52-3.72 1.16-5.99zm-127.82-57.41c-9.16-6.72-25.15-9.36-32.78-5.44a120.42 120.42 0 0 1 16.73 1.34c5.48.96 10.61 3.16 16.05 4.1zm165.11 90.8c-1.95.48-3.43.14-4.35-1.5a1.68 1.68 0 0 0 -1.86-1.11c-3.81.16-6.87-1.61-9.57-4.15-.54-.52-1.23-1.6-2-.68-.64.76-.22 1.65.65 2.46 3.53 3.3 8.16 4.52 12.36 6.46.94.44 3.65 1.55 4.77-1.48zm-46.8-50.7c.57-.37.49-.93 0-1.59-1.2-1.57-9.92-4.48-11.9-3.89a1.4 1.4 0 0 0 -.84.77c-.17.63.18 1 .87 1.08 3.47.48 6.51 2.23 9.76 3.37.63.23 1.16.77 2.11.26zm-82.06 10.28a8.75 8.75 0 0 0 9.43 1.35z"/></g><path d="m1446.14 572.56c.36-16.68 2.65-33.14 8.43-48.71 6.07-16.36 9.15-33.3 12.93-50.19 6.88-30.74 18.68-59.33 40.8-82.62 18.49-19.48 40.88-32.09 67.56-36a128.31 128.31 0 0 1 57.82 4.18 13 13 0 0 0 6.12.82c18.46-3.11 36 .17 53 7.48 20.75 8.93 39.12 21.3 54.41 38 11.73 12.84 21 27.36 26.44 43.85 6.19 18.76 8.9 38 5.09 57.84-.9 4.66-.54 9.84-1.89 14.14-1.66 5.3-2.38 10.78-4.11 16-3 8.89-4 18.16-6 27.23a148.94 148.94 0 0 1 -12 32.65c-7.08 14.53-16 28-27.47 39.3-10.22 10-20.78 19.78-33.51 27.14-9.09 5.26-17.79 11.26-27.24 16-30.51 15.28-62.65 23.31-96.9 21.21-26.47-1.62-50.85-9.72-72.34-25.5-30-22.05-46.47-51.89-50.23-88.83-.42-4.68-.6-9.34-.91-13.99zm48.21-155.49c-1.37 0-1.87 1.16-2.4 2.08-5.06 8.7-9.68 17.64-12.79 27.21-1.07 3.27-4 6.08-3.17 10.12a4.75 4.75 0 0 0 2.86-4.31c.15-3.29 1.82-6.07 3.17-9q6.12-13.11 12.23-26.23l17.43-22.85c-4 3.54-7.81 7.12-10.76 11.55-2.44 3.7-5.99 6.7-6.57 11.43zm111.84-35.07c-9.1 1.51-16.1 4.36-22.23 9.32s-9.96 11.68-13.96 18.48a126 126 0 0 0 -12.25 29.37 164.28 164.28 0 0 0 -5.41 27.68c-2.49 22.33-2.86 44.36 3.53 66.22 6.67 22.8 17.65 42.79 35.7 58.61 29.26 25.62 65.6 30 99.94 14.56a11.49 11.49 0 0 0 5.58-4.39 159.74 159.74 0 0 0 18.15-45.31 181.09 181.09 0 0 0 2.89-65.48c-4.15-31.53-15.52-59.87-37.39-83.35-11.32-12.16-23.66-23.2-40.85-26.47-5.13-1-10.85-2.92-15 1.34a69.82 69.82 0 0 0 -11.89 15.64c-12.85 24.3-15.55 49.89-7.73 76.32 3 10.28 9.54 18.21 18.63 24 1.73 1.1 5.29 1.83 4.1 4.36-1 2.23-4.39 1.6-6.84.9a11.17 11.17 0 0 1 -2.58-1.25c-10.18-6.34-18.54-14.47-23.09-25.71-9.66-23.85-8.57-48-1-72.14 2.4-7.81 6.41-14.9 11.7-22.7zm-58.77 33.13a10 10 0 0 0 -2.14.92c-12.62 10.43-23.74 22.35-34.25 34.83a216.31 216.31 0 0 0 -21.23 30.92c-4.27 7.35-8.36 14.95-9.31 23.72-2.31 21.33-1.89 42.52 2.41 63.6 6.13 30.06 17.4 57.57 39 80.13a89.75 89.75 0 0 0 39.13 24.3c24.39 7.45 47.25 1.21 69.3-9.38 14.27-6.85 26.81-16.37 38.5-26.89a75.44 75.44 0 0 0 14.65-17c-7.51.86-14 2.52-20.7 3.23-22.74 2.39-44.07-2.21-64-12.81-27.13-14.43-45.32-36.82-55.57-65.62-13.07-36.68-12.13-73.72-1.92-110.84 1.71-6.24 3.94-12.42 6.13-19.15zm197.58 169.79a4.67 4.67 0 0 0 -4.28 1.75c-4.65 5.82-10.67 9.77-16.86 13.82-3.56 2.32-7.16 4.61-10.81 6.83-5.92 3.6-9.09 9.66-13.26 14.89-12.4 15.58-26.66 29.18-43.58 40-20.19 12.87-41.59 21.25-65.92 22.32a107.54 107.54 0 0 1 -37.7-4.54c-20.09-6.31-36.28-18.09-50.07-33.38-20.63-22.88-31.17-50.58-37-80.36-.45-2.26-1.12-4.47-1.69-6.69-1.56 5.56-1.33 11-1.42 16.39a119.75 119.75 0 0 0 16.76 63 102.77 102.77 0 0 0 46.76 42.19c18.12 8.28 37.07 12.3 57 11.26 21.88-1.14 42.7-6.76 62.7-15.59 33.91-15 63.34-35.76 85.16-66.25a120.36 120.36 0 0 0 14.21-25.64zm-76.8-201.57c2.91 4 7.32 6.08 10.93 9.15 20.74 17.67 34.81 39.7 44.14 65.18 9.21 25.13 11 51.05 9 77.28a169.79 169.79 0 0 1 -11.27 47.94c-.47 1.21-2 2.75-.22 3.84 1.44.9 2.14-1 3-1.71a107.27 107.27 0 0 0 23-28.18c5.6-9.67 10.38-19.54 9.7-31.59-3-53.85-25.26-97.39-68.5-129.91a99.18 99.18 0 0 0 -19.78-12zm97.08 101.65c-.29-30.73-10.22-57.67-32.48-79.37-19.77-19.26-42-34.12-70.52-36.84 50.95 24.08 85.24 62.68 103 116.21zm-268.91-39c.62-.7 1.25-1.38 1.85-2.09a290.41 290.41 0 0 1 40.91-40c8.41-6.76 18.38-11.4 26.52-18.28 9-7.63 18.1-14.8 29.23-19 .09 0 0-.5 0-1.24-23 1.91-43.23 10.7-60.61 25.39s-31.85 32.14-37.9 55.22zm217.73 124.74c2.16-4.44 4.13-9.26 3.84-14.65zm-3.7 13.42-1.08-.66q-2.38 5.32-4.78 10.67c2.46-3.17 4.96-6.17 5.86-10.01z"/><path d="m784.54 1414.26c14.23-8.73 29.3-15.71 45.53-19.28 17-3.75 32.95-10.34 49.2-16.3 29.56-10.86 60-16.42 91.55-10.43 26.38 5 49.11 17 66.87 37.3a128.3 128.3 0 0 1 27.79 50.88 13 13 0 0 0 2.62 5.59c12.61 13.84 19.36 30.37 22.41 48.62 3.73 22.29 3.28 44.43-2.5 66.33-4.44 16.81-11.63 32.47-22.55 46-12.42 15.36-27.16 28.07-45.88 35.59-4.4 1.76-8.56 4.87-12.91 6.07-5.35 1.47-10.35 3.83-15.66 5.19-9.08 2.33-17.43 6.48-26.15 9.69a149.23 149.23 0 0 1 -33.93 7.62c-16 1.91-32.22 1.72-47.92-1.82-14-3.16-27.87-6.77-41-13.48-9.34-4.8-19.1-8.87-28.2-14.25-29.36-17.38-53.51-40.06-70.29-70-13-23.13-19.35-48-17.72-74.63 2.29-37.16 18.47-67.16 47.49-90.32 3.71-2.92 7.52-5.63 11.25-8.37zm156.84-43.64c-.77-1.14-2-.95-3-.9-10.05.46-20.07 1.41-29.8 4-3.33.88-7.28-.06-10.23 2.82a4.75 4.75 0 0 0 5.17.07c2.85-1.66 6.09-1.76 9.25-2.19l28.68-3.92 28.65 2.29c-5.12-1.41-10.22-2.71-15.54-2.8-4.44-.09-8.89-1.44-13.18.63zm90.06 75c-6.2-6.84-12.38-11.18-19.86-13.65s-15.27-2-23.13-1.72a126.34 126.34 0 0 0 -31.33 5.61 164.63 164.63 0 0 0 -26.21 10.43c-20.12 10-38.84 21.62-53.76 38.82-15.56 17.95-26.42 38-29.95 61.75-5.71 38.47 10.31 71.37 41.86 91.91a11.44 11.44 0 0 0 6.72 2.31 159.62 159.62 0 0 0 47.91-9.27 181.07 181.07 0 0 0 56.62-33c24.26-20.56 41.93-45.46 49.84-76.56 4.1-16.11 6.7-32.45.14-48.68-2-4.85-3.42-10.71-9.25-11.89a69.77 69.77 0 0 0 -19.57-1.52c-27.39 2.35-50.37 13.94-68.36 34.82-7 8.11-10.14 17.88-10.1 28.67 0 2 1.32 5.44-1.46 5.8-2.44.33-3.72-2.83-4.45-5.26a10.45 10.45 0 0 1 -.35-2.85c-.19-12 2.13-23.42 9.11-33.33 14.83-21 35.71-33.18 60.09-39.94 7.9-2.17 16.05-2.63 25.49-2.42zm-59.67-31.48a10.13 10.13 0 0 0 -1.93-1.31c-15.6-5-31.64-7.86-47.83-9.94a217.29 217.29 0 0 0 -37.48-1.11c-8.5.39-17.1 1.06-25 5-19.18 9.6-36.77 21.42-52.17 36.45-22 21.43-39 45.79-46.28 76.15a89.73 89.73 0 0 0 .76 46c6.94 24.54 24.56 40.38 45.4 53.19 13.48 8.29 28.28 13.68 43.45 17.81a75.39 75.39 0 0 0 22.2 3.13c-4.78-5.85-9.7-10.42-13.91-15.66-14.33-17.82-22-38.24-23.88-60.75-2.56-30.62 6.42-58 25.08-82.25 23.77-30.85 55.42-50.1 92.15-61.61 6.23-1.85 12.6-3.24 19.44-5.07zm-35.85 258a4.68 4.68 0 0 0 -3.79-2.64c-7.41-.77-14-3.69-20.75-6.7q-5.82-2.6-11.6-5.39c-6.23-3-13-2.41-19.69-3.08-19.81-2-39-6.62-57.2-15-21.76-10-40.39-23.47-54.45-43.34a107.49 107.49 0 0 1 -16.6-34.16c-5.57-20.3-4.42-40.3 1-60.17 8.06-29.73 25.65-53.59 47.51-74.64 1.66-1.59 3.15-3.36 4.72-5-5.53 1.7-10 4.83-14.56 7.68a119.77 119.77 0 0 0 -43.89 48.19 102.8 102.8 0 0 0 -10.18 62.11c2.85 19.73 9.73 37.84 21.38 54 12.8 17.78 28.79 32.25 47 44.28 31 20.4 64.36 33.9 101.81 35.74a120 120 0 0 0 29.29-1.84zm127.92-173.64c-1.8 4.62-1.14 9.44-1.77 14.14-3.63 27-14.54 50.75-30.91 72.4-16.14 21.34-37 36.86-60.1 49.4a170 170 0 0 1 -46.4 16.5c-1.27.26-3.37-.16-3.34 1.89 0 1.71 1.95 1.29 3.08 1.63a107.57 107.57 0 0 0 36.14 4.09c11.17-.53 22.05-1.85 31.81-8.95 43.64-31.7 68.21-74 72.15-127.92a98.82 98.82 0 0 0 -.66-23.14zm-32.84 136.66c25.68-16.88 43-39.81 49.14-70.28 5.5-27 6-53.77-7.2-79.23q10.93 83.85-41.94 149.51zm-112.85-247.16c.92.14 1.84.31 2.76.42a290.3 290.3 0 0 1 55.73 12.77c10.24 3.41 19.54 9.28 29.73 12.41 11.32 3.47 22.24 7.2 31.82 14.27.07.06.42-.26 1-.66-14.07-18.32-32.39-30.55-54.15-37.21s-44.21-9.43-66.89-2zm13 250.59c4.91-.58 10-1.54 14.4-4.7zm-13.28 4.16v-1.27l-11.56 1.76c3.9.31 7.84.76 11.54-.51z"/><path d="m919.84 1535.88c2.24-1.71 4-1.1 6.39 2.07s2.95 7.37 4.22 11.13a52.49 52.49 0 0 1 1.66 6.56c.33 1.63.93 1.82 2.4 1.13 5.33-2.5 10.72-4.89 16.1-7.29a21.6 21.6 0 0 1 3.31-1.24c1.48-.41 3.09-.74 1.73 1.88a5.43 5.43 0 0 1 7.12 5.31c0 1.41-.93 1.62-1.71 2.07q-11.31 6.46-22.67 12.87c-3.26 1.84-3 2.29-1.6 5.73a49.55 49.55 0 0 1 2.68 10.84 76.83 76.83 0 0 0 5.76 20.26c.57 1.22 1.26 2.79 0 3.72-1 .75-2.57 1.69-3.87 0a1.09 1.09 0 0 0 -.7-.38c-5.83-.37-7.62-4.84-9.37-9.27a210.67 210.67 0 0 1 -6.34-20.38c-.6-2.15-1.11-2.57-3.2-1.45-6.31 3.39-12.56 6.89-18.89 10.24-4.54 2.4-8.76.72-13 0-1.18-.21-2.36-2.37-2.89-3.86s1.09-2.36 2.19-3.1c9.66-6.44 19.3-12.92 29.65-18.25 1.56-.8 1.93-1.47 1.45-3.32-1.85-7.17-3.41-14.42-5-21.65-.34-1.58-.78-3.24.24-4.77.78-1.16 1.65-2.21 3.29-1.91 1.98.37.33 2 1.05 3.06z"/><path d="m1657.3 483.79c2.23-1.71 4-1.1 6.39 2.07s3 7.37 4.21 11.13a52.53 52.53 0 0 1 1.67 6.56c.32 1.63.92 1.82 2.39 1.13 5.34-2.5 10.73-4.88 16.1-7.29a23.6 23.6 0 0 1 3.31-1.24c1.49-.41 3.1-.74 1.73 1.88a5.43 5.43 0 0 1 7.12 5.31c0 1.41-.92 1.62-1.7 2.07q-11.31 6.46-22.67 12.87c-3.26 1.85-3 2.3-1.61 5.73a48.44 48.44 0 0 1 2.68 10.84 77.1 77.1 0 0 0 5.76 20.26c.58 1.23 1.27 2.79 0 3.73-1 .74-2.56 1.69-3.86 0a1.09 1.09 0 0 0 -.71-.38c-5.82-.36-7.62-4.83-9.36-9.27a210.67 210.67 0 0 1 -6.34-20.38c-.6-2.15-1.11-2.57-3.2-1.45-6.31 3.39-12.56 6.89-18.89 10.24-4.54 2.4-8.76.73-13 0-1.19-.21-2.36-2.37-2.89-3.86s1.08-2.36 2.19-3.09c9.66-6.45 19.3-12.93 29.64-18.25 1.56-.81 1.93-1.48 1.45-3.33-1.84-7.17-3.41-14.42-5-21.65-.35-1.57-.78-3.24.24-4.76.77-1.16 1.65-2.22 3.29-1.92 1.99.36.34 1.99 1.06 3.05z"/><path d="m212 815.09c6.5-10.86 14.18-20.85 23.84-29 10.13-8.5 18.52-18.52 27.35-28.23 16.06-17.68 34.57-32.1 57.89-39.15 19.49-5.9 39-5.82 58.05 1.59a97.33 97.33 0 0 1 36.55 24.45 9.92 9.92 0 0 0 3.72 2.84c13.34 4.87 23.68 13.62 32.14 24.82a118.44 118.44 0 0 1 21.61 45.47c2.92 12.86 3.58 25.91 1 38.82-3 14.69-8.4 28.41-18.34 40-2.34 2.73-4.05 6.29-6.55 8.62-3.08 2.87-5.62 6.21-8.71 9-5.28 4.75-9.44 10.47-14.17 15.69a113.37 113.37 0 0 1 -20.14 17 106.69 106.69 0 0 1 -32.85 15.6c-10.5 2.78-21.12 5.24-32.27 5.32-8 .05-15.95.75-24 .32-25.84-1.37-50-8.14-71.83-22.37-16.84-11-29.87-25.48-38.11-44-11.51-25.79-11.16-51.63.22-77.4 1.47-3.07 3.1-6.21 4.6-9.39zm90.12-84.41c-.92-.49-1.67.07-2.37.47a107.61 107.61 0 0 0 -18.64 13.14c-1.93 1.76-4.91 2.52-5.88 5.48a3.59 3.59 0 0 0 3.5-1.76c1.33-2.12 3.48-3.33 5.45-4.72l17.9-12.7 20.06-8.53a47.38 47.38 0 0 0 -11.42 3.58c-2.94 1.49-6.4 2.15-8.56 5.04zm86.89 18.82c-6.57-2.42-12.25-3.17-18.15-2.2s-11 4-16.15 7a95.59 95.59 0 0 0 -19.05 14.7 124.53 124.53 0 0 0 -14 16.21c-10 13.79-18.53 28.17-22.51 45-4.16 17.52-4.42 34.83 1.54 52 9.67 27.87 32 44.36 60.41 47.1a8.67 8.67 0 0 0 5.33-.81 121.2 121.2 0 0 0 29-23 137.33 137.33 0 0 0 26.47-42.08c9.09-22.34 12.23-45.28 6.63-69-2.91-12.27-6.9-24.17-17-32.78-3-2.57-6.06-6-10.39-4.75a52.78 52.78 0 0 0 -13.69 5.86c-17.59 11.19-29 27.05-33.74 47.4a32.1 32.1 0 0 0 3.29 22.85c.72 1.38 2.79 3.2 1.06 4.42-1.53 1.07-3.5-.6-4.84-2a7.73 7.73 0 0 1 -1.24-1.79c-4.33-8-6.79-16.49-5.57-25.61 2.58-19.34 12.35-34.84 26.37-47.94 4.53-4.23 9.84-7.4 16.27-10.58zm-51.17-.21a7.93 7.93 0 0 0 -1.76-.2 206 206 0 0 0 -35.64 10.11 164.13 164.13 0 0 0 -25.59 12.41c-5.57 3.25-11.12 6.72-15 12.15a155.67 155.67 0 0 0 -22.27 42.82c-7.24 22.12-10.13 44.48-4.38 67.44a68.15 68.15 0 0 0 16.68 30.7c13.28 14.06 30.69 18.52 49.2 19.82 12 .84 23.81-.74 35.47-3.28a57.25 57.25 0 0 0 16-5.7c-5.27-2.25-10.19-3.59-14.85-5.64a82.86 82.86 0 0 1 -37.39-32.45c-12.47-19.69-16.06-41.28-12-64.11 5.15-29.08 19.67-53.14 40.32-73.77 3.5-3.49 7.29-6.69 11.25-10.3zm66.49 186.05a3.56 3.56 0 0 0 -3.48-.45c-5.25 2.09-10.7 2.44-16.3 2.78-3.22.2-6.45.36-9.69.45-5.25.15-9.61 3-14.32 4.84a135.06 135.06 0 0 1 -43.73 10c-18.14.91-35.39-1.59-51.82-10a81.65 81.65 0 0 1 -23.15-17.14c-10.84-11.71-17.08-25.56-20.44-40.82-5-22.82-1.57-45 5.74-66.86.56-1.66.94-3.36 1.4-5-3.12 3.09-5 6.75-7.09 10.28a90.84 90.84 0 0 0 -12.58 47.81 78 78 0 0 0 15 45.35 91.4 91.4 0 0 0 33.34 28.8c14.85 7.45 30.68 11.56 47.17 13.24 28 2.85 55.17.2 81-11.71a91.55 91.55 0 0 0 18.99-11.57zm25-161.66c.41 3.74 2.55 6.75 3.77 10.13 7 19.43 8.05 39.23 4.64 59.53-3.35 20-11.91 37.76-23.06 54.31a128.38 128.38 0 0 1 -25.33 27.35c-.75.63-2.32 1.08-1.58 2.45.61 1.14 1.77.18 2.64 0a81.42 81.42 0 0 0 25.74-9.94c7.32-4.27 14.17-9 18.24-17.18 18.21-36.6 19.89-73.63 3.61-111.33a75.12 75.12 0 0 0 -8.6-15.32zm25.88 103.39c11.33-20.36 14.89-41.84 8.36-64.5-5.8-20.11-14.88-38.24-32.66-50.74 24.6 35.02 32.72 73.33 24.37 115.24zm-162.57-126.56c.66-.23 1.34-.44 2-.68a220.11 220.11 0 0 1 41.95-11c8.08-1.3 16.39-.62 24.34-2.09 8.83-1.64 17.48-3 26.4-1.58.07 0 .2-.32.48-.81a80.17 80.17 0 0 0 -49.48-6c-17.07 3.19-33.05 9.21-45.69 22.16zm96.71 163.91c3.09-2.12 6.19-4.55 8-8.21zm-7.47 7.46-.46-.85-7.16 5.25c2.74-1.16 5.59-2.22 7.62-4.4z"/><path d="m333.69 849.2c0-1.38-2.14-2.26-.62-3.61 1.86-1.65 3.84-.76 5.5.32 2.8 1.84 5.47 3.89 8.14 5.92 3.39 2.59 6.71 5.27 10.09 7.87 2.67 2 2.67 2 4.32-1.07a98.34 98.34 0 0 1 12.52-18.46 43.08 43.08 0 0 1 7.15-6.68 18 18 0 0 1 5.07-2.62c5.07-1.62 8.37.55 9.58 5.72a12.67 12.67 0 0 1 0 7.32c-.6 1.79-1.79 2.32-3.33 1.89-2.08-.57-3.46.35-4.86 1.64-5.12 4.73-8.88 10.53-12.77 16.23-.87 1.26-1.57 2.66-2.53 3.85-1.4 1.76-.75 2.84.85 3.94 4 2.73 7.75 5.71 12.2 7.65.47.2 1.07.35 1 1.08-.49.9-1.52.13-2.16.56.17.92 1 .88 1.42 1.25.72.56 3.31.42.89 2.24a2.78 2.78 0 0 1 .22 3.67c-.71 1.24-1.47 2.11-3 1.54-5.92-2.18-11.26-5.48-16.63-8.68-1.6-1-2.18-.63-2.83.8-2.2 4.79-4.62 9.53-3.15 15.1.27 1-.44 1.92-.67 2.88-.34 1.46-1.62 1.25-2.62 1.46s-1.32-.66-1.79-1.33c-5-7.12-4.87-14.73-2.43-22.66 1.26-4.11 1-4-2.76-6.41s-7.26-5.1-10.91-7.63a15.87 15.87 0 0 1 -6.12-8.69 4.11 4.11 0 0 0 -1.17-2.38 1.81 1.81 0 0 1 -.66-2.38c.43-1.07 1.37-.25 2.06-.33z"/><path d="m1212.43 907.27c12.26 7.45 24.22 14.69 36.15 22 4.45 2.71 9.06 5.24 13.23 8.34 5.39 4 5.1 8.88 2.12 13.63-8 12.81-20.61 15.18-34 16.48-3.38.33-6.74 1-10.1 1.61-4.75.84-4.9 1.27-2 5.4 5 7.25 12.34 12 19.18 17.27 9.43 7.24 19.47 13.68 28.43 21.52 3.67 3.21 5.36 9.11 3.29 11.84a65.36 65.36 0 0 1 -7.21 7.86c-7.1 6.7-16.17 8.93-25.38 10.56-16.83 3-33.57 6.53-50.65 7.87-2.26.18-4.72 1-6.7-.27s-5.46-2.93-.72-5.34c.75-.39 1.38-.83 1.39-1.8.12-6.53 5.19-7.35 9.9-8.52 13.77-3.43 27.55-6.81 41.32-10.26 1.33-.34 3.39-.15 3.52-2 .09-1.31-1.79-1.69-2.75-2.53-7-6.13-15.57-9.81-22.86-15.44a63.66 63.66 0 0 1 -11.11-10.27c-2-2.55-4.11-5-3.59-8.71a4.66 4.66 0 0 0 -.83-3.25c-3.87-4.83-.54-8.83 1.31-13 5.09-11.48 13.91-18.54 25.9-21.87.42-.12.74-.58 1.44-1.15-2.76-2-4.77-4.26-7.91-5.87-11.26-5.78-22.68-11.33-32.7-19.31a15.24 15.24 0 0 1 -5.81-11.71c-.2-3.83 3.85-6.33 4.76-10.26 1.77-7.62 8.28-10.31 14.89-12.48 3.08-1 6.28-1.65 9.46-2.47-3-6.12-9.37-7.85-14.3-11a225.42 225.42 0 0 1 -20.81-15.71c-4.3-3.54-9.34-6.1-12.69-11-2.77-4 .19-7 1.32-9.82.78-1.93 4.39-3 7.53-.55 21.93 16.75 46.38 29 71.66 39.73 4.91 2.08 8 6.48 6.52 9.54a44 44 0 0 1 -5.63 8.28c-5.26 6.41-12.61 9-20.39 10.69-1.55.34-3.31.07-5.18 1.97z"/><path d="m791.89 1007.12a4.22 4.22 0 0 0 2.68 1.7c4.66 1.63 8 5.21 11.84 8 1.38 1 1.67 3.23 1 5.06-2 5.6-5.21 10.07-11.4 11.77-3.33.91-6.63 1.86-10 2.56-.67.14-1.69 0-1.77.92s1 1 1.57 1.23c6.73 2.69 13.49 5.32 20.23 8a61.8 61.8 0 0 1 6.27 2.62c1.14.62 3.78 0 3 2.59-1.15 4.1-2 4.73-5.41 3.88-9.16-2.26-18-5.57-26.95-8.5-3.88-1.26-7.72-2.67-11.59-4-5.15-1.71-6.37-3.66-2.2-8.5a15.87 15.87 0 0 1 8.09-4.77c5.68-1.55 11.39-3 17.08-4.52.56-.15 1.43.18 1.54-.71.1-.72-.62-1.08-1.09-1.47-4.38-3.58-9.43-6.11-14.29-8.93-2.9-1.68-5.85-3.3-8.66-5.12s-2.38-3-1.07-5.8c3.1-6.57 8.93-7 14.83-7.11 4.65-.08 9.31.41 14 .79a104.14 104.14 0 0 0 13 .1c1.81-.07 3-1.29 4-2.4a2.94 2.94 0 0 1 3.62-.74c1.22.67.17 2-.14 2.93-1.76 5.1-5.42 7.87-10.76 8.72-5 .79-10 .76-14.93 1-.85.06-1.76-.12-2.49.7z"/></svg>