<?xml version="1.0" encoding="utf-8"?>
<!-- Generator: Adobe Illustrator 21.1.0, SVG Export Plug-In . SVG Version: 6.00 Build 0)  -->
<svg version="1.1" id="Layer_1" xmlns="http://www.w3.org/2000/svg" xmlns:xlink="http://www.w3.org/1999/xlink" x="0px" y="0px"
	 viewBox="0 0 600 600" style="enable-background:new 0 0 600 600;" xml:space="preserve">
<style type="text/css">
	.st0{fill:#FEE04A;}
	.st1{fill:#1F1F1F;}
	.st2{fill:#FFFFFF;}
</style>
<path class="st0" d="M0,0h600v600H0V0z"/>
<g>
	<path class="st1" d="M138.1,309.8h-23.6V158.5c0-12.6,0.4-24.5,1.2-35.7c-2,2-4.3,4.2-6.8,6.4c-2.5,2.2-14,11.7-34.6,28.3
		l-12.8-16.6l56.2-43.4H138L138.1,309.8z"/>
	<path class="st1" d="M213.7,502.3l-29.2-93.4c-1.8-5.7-5.3-18.7-10.3-38.9H173c-3.9,16.9-7.3,30-10.2,39.2l-30.1,93.1h-27.8
		L61.5,343.1h25.3c10.3,40,18.1,70.4,23.5,91.4c5.4,20.9,8.4,35,9.2,42.3h1.2c1.1-5.5,2.8-12.7,5.2-21.4c2.4-8.8,4.4-15.7,6.2-20.8
		l29.2-91.4h25.9l28.5,91.4c5.4,16.7,9.1,30.6,11,42h1.2c0.4-3.5,1.4-8.9,3.1-16.1c1.7-7.3,11.8-46.3,30.3-117.2h25l-44,159.2h-28.6
		L213.7,502.3z"/>
	<path class="st1" d="M520.7,499.6l-4.8-22.7h-1.2c-7.9,10-15.9,16.7-23.7,20.3c-7.9,3.5-17.7,5.3-29.6,5.3
		c-15.8,0-28.2-4.1-37.1-12.2c-9-8.1-13.4-19.7-13.4-34.7c0-32.1,25.7-49,77.1-50.5l27-0.9v-9.9c0-12.5-2.7-21.7-8.1-27.7
		s-14-8.9-25.8-8.9c-13.3,0-28.3,4.1-45,12.2l-7.4-18.4c7.8-4.3,16.4-7.6,25.8-10c9.3-2.4,18.7-3.6,28.1-3.6c19,0,33,4.2,42.2,12.6
		s13.7,21.9,13.7,40.5v108.6L520.7,499.6z M466.3,482.6c15,0,26.8-4.1,35.4-12.3s12.9-19.8,12.9-34.6v-14.4l-24.1,1
		c-19.2,0.7-33,3.7-41.5,8.9c-8.5,5.3-12.7,13.5-12.7,24.6c0,8.7,2.6,15.3,7.9,19.9C449.4,480.3,456.8,482.6,466.3,482.6
		L466.3,482.6z"/>
	<g>
		<path class="st2" d="M422.2,97.5h25l-111.9,405h-25L422.2,97.5z"/>
		<path class="st2" d="M234.2,97.5h25l-58.7,212.3h-25L234.2,97.5z"/>
		<path class="st2" d="M327.9,97.5h25l-58.7,212.3h-25L327.9,97.5z"/>
		<path class="st2" d="M513.4,97.5h25l-58.7,212.3h-25L513.4,97.5z"/>
	</g>
</g>
</svg>
