<svg viewBox="0 0 1892.92 2003.98" xmlns="http://www.w3.org/2000/svg"><g fill="#2c2c2c"><path d="m1221.93 1612.79c21.24 22.56 48 32.54 78.23 35.17 34.41 3 68-1.68 101.34-9.7 10.1-2.42 20.13-5.11 30.27-7.29 2.72-.59 6.16-.53 8.5.7 1.61.85 1.9 4.22 2.78 6.46-1.39.45-2.77 1-4.19 1.32-3.81 1-7.75 1.58-11.44 2.88-12 4.24-23.87 8.93-35.93 13a253.48 253.48 0 0 1 -24.76 7.13c-5.29 1.22-10.89 1-16.27 1.85-8.52 1.42-16.92 4.06-25.48 4.7-13.33 1-26.86 2-40.11.77-29.29-2.61-54.33-14.5-74.28-36.84-9.28-10.4-18.87-20.32-24.43-33.4-.61-1.43-3.17-2.66-5-2.85a84.36 84.36 0 0 1 -47-20.94c-10-8.76-20.46-17.59-28.31-28.17-6.59-8.88-10.55-20-14.11-30.73-3.16-9.49-4.78-19.63-6-29.62-1.71-14.22.82-28.12 6.41-41.29.8-1.89 4.21-3.48 6.55-3.69 2.61-.24 3.65 2.14 4.74 5 3.41 8.8.24 17-1.33 25.24-3 15.63.65 30.14 8.13 43.37 12.75 22.56 32.48 37.9 55.71 48.64 12.56 5.81 12.84 5.34 12.67-8-.22-17.51 5.19-32.8 18.3-44.69 15.22-13.8 37.48-12.07 51 3.45 4.25 4.86 4.59 10.76 4.73 16.6.32 13.29-4 25.24-11.83 35.83-8.13 11-17.3 20.74-30.8 25.25-3.26 1.09-3.14 3.09-.94 5.48 4.38 4.75 8.59 9.58 12.85 14.37zm5.25-57.47c3.28-4.85 6.65-9.63 9.79-14.56 2-3 1-5.3-2.11-7.28-9.73-6.18-22.64-5-31.73 2.77-9.9 8.46-10.18 19.43-8.51 30.91.13.9 2.71 2.11 4.09 2 11.41-.49 20.29-6.25 28.47-13.84zm20.84 84.59-.35 1.19 23.48 9.34c.22-.56.45-1.12.67-1.69zm-84.78-69.67-.57 1.48 15.31 4.4.51-1.76z"/><path d="m1069.54 1419.61c8.85-7.53 18.67-15.34 27.76-23.92 3.17-3 5.1-6.89 10.29-5.24 1.06.34 2.67.8 2.94 1.57 4.57 13.17 14.38 23.1 21.22 34.84 4.59 7.86 7.71 16.35 6.27 25.7-.28 1.87-2 3.51-3.08 5.26-1.69-1.11-3.91-1.85-5-3.38q-11.54-16.79-22.62-33.86c-2.31-3.58-4-3-6.88-.72-6.73 5.18-13.86 9.82-20.65 14.93a90.83 90.83 0 0 0 -8 7.48c-.22.21-.13.79-.36.94-2.32 1.55-5.94 4.82-6.81 4.21a15.48 15.48 0 0 1 -5.61-7.85c-2.65-9.26 5.23-13.57 10.53-19.96z"/><path d="m1085.89 1360.07c-28.19 2.76-56.37 2.22-83.78-4.39-28.78-6.94-58-8.71-87.17-11.68-53.18-5.39-103.73-19.51-147.42-52.09-36.54-27.24-62.3-62.42-74.32-106.58-8.78-32.23-10.84-65.14-4.61-98.27.64-3.44 1.17-7 .14-10.47-9-30.48-7-60.72 1.93-90.83 10.87-36.78 28-70.22 53.09-99.34 19.25-22.36 41.86-40.9 68.55-53.42 30.36-14.2 62.29-22.65 96.43-20.21 8 .57 16.68-1.09 24.2.32 9.26 1.73 18.64 1.85 27.75 3.71 15.58 3.19 31.41 3 47.09 4.64 19.74 2 38.79 7.11 57.43 13.58 25.9 9 50.44 21.3 71.75 38.37 19 15.2 37.51 31 52.47 51 10.69 14.27 22.56 27.72 32.44 42.69 31.89 48.32 51.89 100.85 55.26 159 2.61 44.93-6.13 87.63-28.4 127-31.09 55-78.06 88.76-139.54 102.54-7.71 1.73-15.53 2.97-23.29 4.43zm-271.71-49.91c.34 2.3 2.34 2.92 4 3.63 15.67 6.77 31.66 12.76 48.41 16.07 5.74 1.13 11.06 5.49 17.7 3.3-2.07-3-4.56-4.19-7.83-4-5.59.41-10.61-1.84-15.74-3.53q-23.33-7.68-46.66-15.33l-42-24.76c6.76 6 13.58 11.72 21.63 15.8 6.64 3.42 12.41 8.79 20.49 8.82zm-81.67-181.37c4.37 15 10.59 26.26 20.17 35.59s21.8 14.37 34 19.79c16.75 7.42 34.42 11.81 51.95 14.72a280.46 280.46 0 0 0 47.74 3.54c38.12-.3 75.31-4.12 110.85-19.29 37.08-15.82 68.55-38.36 91.56-72 37.28-54.45 37.28-116.55 4.41-171.32-2.13-3.56-4.62-6.78-8.53-8.52a270.64 270.64 0 0 0 -80-21.44c-37.29-4.18-74.4-1-110.9 8.3-52.26 13.4-97.76 38.26-132.88 79.84-18.22 21.54-34.32 44.54-36.37 74.18-.62 8.84-2.74 18.86 5.27 25 8.77 6.72 18.49 12.9 28.74 16.85 43.53 16.76 87.21 16.15 130.16-2.34 16.7-7.19 28.75-19.76 36.7-36.24 1.52-3.14 2-9.29 6.53-7.79 4 1.33 3.58 7.09 2.89 11.34a17.91 17.91 0 0 1 -1.58 4.62c-8.62 18.42-20.65 34.14-38.66 44.07-38.24 21.08-79.13 24.1-121.35 16.3-13.68-2.53-26.43-7.85-40.7-15.2zm67.66 92.36c1 1.72 1.29 2.76 2 3.41 20.11 19.16 42.44 35.5 65.59 50.7 17.79 11.67 36.88 21.13 56.36 29.54 13.26 5.71 26.88 11.08 41.86 10.91 36.39-.41 72-5.38 106.66-16.87 49.42-16.38 93.49-40.91 127.18-81.8a152.44 152.44 0 0 0 33-70.82c7.64-42.6-7.48-79.86-29.75-114.89-14.42-22.66-33-41.87-53.07-59.45-9.15-8-19.07-15.56-31.56-21.26 3 12.48 7.07 23.11 9.61 34.23 8.62 37.82 5.16 74.69-8.69 110.42-18.84 48.62-52.91 83.78-99.36 106.86-59.18 29.41-121.77 35.28-186.37 25.56-10.91-1.69-21.69-4.22-33.46-6.54zm246.35-367c.22 3.69 1.84 5.62 3.81 6.85 10.74 6.68 18.62 16 26.67 25.62q7 8.31 13.7 16.84c7.26 9.26 18.1 13.37 27.76 19.34 28.74 17.76 54.54 39.05 76.12 65.39 25.75 31.43 44.19 65.79 50.89 106.56 3.58 21.81 4 42.7-.06 64.44-6.58 35.12-23.18 64.77-46.16 91.09-34.39 39.37-78.94 62.71-127.94 78.59-3.71 1.2-7.29 2.78-10.94 4.18 9.7 1.52 18.79 0 27.92-.9 38.15-3.9 72.77-18.27 102.76-40.94a174.33 174.33 0 0 0 61.65-87.27c10.31-32.21 13.25-65 7.5-98.28-6.33-36.64-20-70.59-38.89-102.5-32.08-54.12-73-99.52-128.78-130.15a204 204 0 0 0 -46.01-18.89zm-324.16 169.85c6.17-5.72 8.76-13.56 13.21-20.26 25.59-38.51 59.87-66.64 100.93-87.51 40.5-20.53 83.8-28.73 128.39-30.68 27.94-1.22 55.78 2.41 83.05 9.28 2.13.54 5 2.75 6.5-.4 1.24-2.62-2-3.42-3.49-4.77-15.36-14.17-33.07-24.9-52.1-33.09-17.44-7.5-35-13.55-55.19-10-90.13 16-159 62.18-205.09 141.58-6.57 11.39-12.4 23.21-16.21 35.85zm151.64-184c-51.72 6.68-95.1 28.85-127.18 70.73-28.48 37.18-49 77.62-47.86 126.24q45.55-136.07 175.04-196.97zm-11.46 460.94c-1.3-.9-2.57-1.83-3.89-2.69a493.56 493.56 0 0 1 -75.55-60.88c-13.09-12.82-22.92-28.67-36.14-41-14.68-13.71-28.58-27.51-37.94-45.41-.08-.14-.84.08-2.09.23 7.86 38.41 26.73 70.67 55 97 28.39 26.46 60.48 47.2 100.59 52.74zm166.33-392c-7.93-2.76-16.44-5.1-25.46-3.52zm23.34 3.52c-.3.65-.6 1.3-.89 1.95l19 5.9c-5.85-3.41-11.5-7.08-18.13-7.83z"/><path d="m538.79 724.46c1.88 7.29 6 13.57 9.88 19.9 16.8 27.36 40.4 47.48 67.63 63.89 18.2 11 37.26 20.07 56.67 28.54 1.78.77 3.6 1.49 4.8 3.1 1.35 1.82 1.64 3.32-1.38 3.2-.75 0-1.66-.76-1.66.63 0 4.81-3.55 4.62-6.7 4.74-5.91.24-11.34-2.07-16.79-3.81-15.24-4.85-30.37-10.28-44.62-17.65-13.23-6.84-25.32-15.52-37.17-24.54-7.53-5.74-15.12-11.68-20.19-19.62-3.37-5.27-8.34-8.83-11.69-14-6.42-9.82-12.72-19.68-16.85-30.75a48.52 48.52 0 0 1 -2.18-27.94 8.73 8.73 0 0 0 -1.93-8c-5.25-6.34-10.32-12.87-15.26-19.42-8-10.65-14.35-22.52-20.17-34.57-9.27-19.2-16.49-39.08-18.77-60.47-1.33-12.58-1.83-25.06 4.38-36.74 1.63-3.08 3.7-5.63 7.25-6.61a3.4 3.4 0 0 1 3.91 1c1.3 1.52.1 2.06-.78 3.22-6.07 8-4.34 17.1-3.46 26 2.43 24.59 11.76 46.9 22.9 68.58a259.34 259.34 0 0 0 30.48 46.6c.94 1.15 1.46 3 3.59 1.11 7.44-6.49 16.45-8.62 26-8.19 14.73.65 27.89 5.09 36.44 18.12 4.59 7 3.69 12.89-1.45 19.44-13.11 16.67-33 15.95-47.85 6.2l-4-2.62zm37.87-5.52c4.43-1.32 3-4 1.8-6.48-4-8.43-12.23-10.85-20.1-13.09-5.75-1.63-11.92-2.61-18-.81-2.3.69-3.94 1.87-1.37 4.33 7 6.73 14.72 12.33 24.13 15.18a27 27 0 0 0 13.54.87zm-25.79 38.35c-6.08-10.29-12.45-20.37-17.31-31.29 2.71 12.18 9.72 22 17.31 31.29zm-25.12-63.63-18.75-24.94a91.91 91.91 0 0 0 18.75 24.94z"/><path d="m667.87 866.93c9.61-2.76 19.53-3.83 29.38-5.28 1.47-.22 3.31.3 4-1.84s-1-3-2.07-3.91c-6.06-5-10.31-11.45-15.26-17.38-3.12-3.76-7-6.94-10.07-10.89-4.75-6.09-10-11.82-15.14-17.57-2.62-2.91-3.77-6.92-7.66-8.95s-3.93-5.41-.17-10.5c1.92-2.59 5-4.37 8.32-2a51.67 51.67 0 0 1 7.65 6.58c15.19 16.15 30.24 32.42 45.41 48.58 3.4 3.63 7.06 7 10.64 10.5 6.5 6.29 6.39 9.85 0 16.29-5 5-10.79 7.09-17.8 7-13.49-.27-27-.16-40.35 2.13-2.67.45-5.29 1.29-8 1.85-3.08.66-4.28-.51-3.32-3.63 2.14-6.97 3.31-7.86 14.44-10.98zm32-30.34a86.41 86.41 0 0 0 20.23 21.08z"/><path d="m532.21 437.28a8.91 8.91 0 0 0 -.78 6.66c.28 1.3-.77 1.89-1.53 2.43s-1.32.74-1.67 1.57a1.5 1.5 0 0 1 -1.28.61 21 21 0 0 1 -3.78-.73 47.1 47.1 0 0 1 -11.92-7.12 101.53 101.53 0 0 1 -10.94-9c-1-1.05-1.05-1 0-2.55 2 1.72 3.84 3.5 5.86 5.11 1.6 1.28 3.36 2.37 5.2 3.65a1.72 1.72 0 0 0 -.83-1.7 70.87 70.87 0 0 1 -10.54-8.43l.72-1 .73.27-.54-1.41 2.39-1.51c.91.07 1.8 1.29 3.13 1 .49 1.4 2 1.62 2.95 2.4a35.79 35.79 0 0 0 3.74 2.31c.77-.43 1.34-.77 1.94-1.05 2.09-1 2.07-.89 3.87-.22 2 .74 3.72 2.19 6 2.29a.58.58 0 0 1 .41.27c.59 1.37 1.56 1.57 3 1.41 1.2-.14 1.95.9 2.44 2 .35.83.84 1.63 1.43 2.74z"/><path d="m278 350.14c1.84.18 1.84.18 2.05-1.76.92-.76 2.48-.52 3.06-1.86a31.82 31.82 0 0 0 3.53-.45c1.85-.44 3.28.58 4.72 1.34 1 .52 2 1 2.92 1.64 1.1.72 2.3 1.27 3.4 2s1.93 1.39 2.88 2.12c.26.2.59.44.67.73a2.21 2.21 0 0 0 1.39 1.48c1.4.63 1.89 2.15 2.72 3.28a12 12 0 0 1 1.49 3.78c.15.49.48 1.54-.87 1.19-.1 0-.32.51-.52.76s-.55.74-.68.69c-1.49-.55-1.5.25-1.64 1.42-.2 1.72-.7 1.79-2.86 2.2-1.31.25-2.63.72-3.76-.08-3-2.14-6.15-4.24-7.83-7.82a6.18 6.18 0 0 0 -3.3-3.42c-1.41-.51-2.61-1.55-4.24-1.51a3.61 3.61 0 0 1 -1.48-.64 4.45 4.45 0 0 1 -2.21-2.42c-.52-1.2.32-1.81.56-2.67z"/><path d="m480 383.32c-1.75-.78-3.28-1.61-4.9-2.16-4.67-1.58-7.94-5.09-11.54-8.14-1.61-1.37-2.09-3.43-2.77-5.32-.11-.33.22-.82.35-1.26l2.09 1.89-1.34-3.47a9 9 0 0 0 1.58-1.78 2 2 0 0 1 1.77-1 7.87 7.87 0 0 1 2.33.42c.31 2 1.61 3.22 3.11 4.47.72-.52 1.87-.31 2.36-1.44a1.11 1.11 0 0 1 .94-.41c2.41.43 5 .13 7 2.17.34.36.75.85 1.18.91.65.08.52 1.18 1.46.86.77-.26.58.7.88 1.07a12 12 0 0 1 1.09 1.38 10.55 10.55 0 0 1 .6 1.51 16.67 16.67 0 0 0 -1.8 7.79z"/><path d="m222.38 345.89c.22-.81.38-1.48.59-2.13a2.26 2.26 0 0 1 .42-.65c.47-.56 1.27.22 1.78-.45a4.62 4.62 0 0 1 1.48-1.34c.47-.23 1.44.08 1.63-.21.44-.66.74-.92 1.48-.54.14.07.46-.15.66-.29 1.47-1 1.47-1 2.94.23v-1.33a13.38 13.38 0 0 1 1.27 1.48 12.22 12.22 0 0 1 .94 1.88 4.55 4.55 0 0 0 1.14 1.85l-.69-2.55.26-.11c.21.42.46.82.63 1.25.86 2.2 1.6 4.44 2.57 6.59a8.74 8.74 0 0 1 .71 5.79c-.56-.23-1.18-.68-1.28.45s-1 1.47-2.2 1.4c.26 1.19.69 2.55-1.34 2.84l-1.08-2.82-.41.07.23 3.26c-1-.24-2-.57-2.28-1.8-.09-.34-.61-.56-.88-.88-1.15-1.39-1.14-1.4-2.48-.93l-.76.29-.7.27c-.89-.4-1.71-.79-2.55-1.13a7.45 7.45 0 0 1 -3.69-3.77c-.43-.8-.58-1.74-1-2.52a3.42 3.42 0 0 1 -.1-2.53c.33-1.56.72-1.81 2.71-1.67z"/><path d="m378.61 309.12c-.8 1.15-1.56 2.29-2.4 3.38-.08.1-.6-.14-1.12-.26a9.38 9.38 0 0 1 -.23 1.45 14.15 14.15 0 0 1 -.65 1.5c-.43 1-.81 2.1-2.3 1.39-.11-.06-.33.12-.5.17-1.24.33-2.26 1.06-3.83.56a29.48 29.48 0 0 1 -4-1.07 13.66 13.66 0 0 1 -3.41-2c-1.58-1.38-3.13-2.75-3.59-4.9a8.19 8.19 0 0 1 .12-1.95l2.07.69c-.11-1.54-.81-3.1 0-4.8l2 .57-.71-1.85c1.56-.93 2.86-2.09 4.58-2.63a4 4 0 0 1 2.76 0 14.88 14.88 0 0 1 3.24 1.34c.91.64 2 1.07 2.93 1.73 1.56 1.09 2.55 2.68 3.88 4 .71.64.82 1.79 1.16 2.68z"/><path d="m289.42 399.14 2.1 5.46a13.9 13.9 0 0 0 -1.13-4.34c-.2-.56-.73-1.15-.18-1.75a8.12 8.12 0 0 1 1.88-1.64c.25-.13 1 .29 1.28.64a4.9 4.9 0 0 1 .63 1.49c.36-.34.53-.64.77-.7.48-.13 1.29.06 1.46-.21 1-1.48 2.64-1.4 4-2a2.53 2.53 0 0 1 2.19.17c1.2 1 2.82.78 4.15 1.94a3.8 3.8 0 0 0 1.6 1.93 5.51 5.51 0 0 1 2.85 3.51 17 17 0 0 0 .9 2.42c-1.34 1.7-2.76 3.39-4.07 5.17s-3.31 1.71-5.16 1.49c-1.35-.16-3 .15-3.95-1.28-2.95-.17-4.41-2.65-6.52-4.14-1.42-1-2-2.57-2.8-3.9-.66-1.1-.35-2.78-.47-4.2z"/><path d="m349.26 407.81-4.83-2.15a24.24 24.24 0 0 1 -1-2.86c-.09-.38.3-.95.61-1.31.12-.14.63.06 1 .1.09-.87-.08-1.94 1.26-2.18a1.12 1.12 0 0 0 .7-.35c.43-.74.91-1.51 1.79-1.6 1.58-.15 3.26-.52 4.75 0 2.95 1.11 5.85 2.43 8 4.82a30.6 30.6 0 0 1 3.54 4.58 2.63 2.63 0 0 1 0 2.81c-1 1.56-2 3.19-3.14 4.72a3.25 3.25 0 0 1 -1.6 1.19c-3.83 1.1-7.13.37-9.83-3.39-.39-.55-1-1-1.15-1.63a12.85 12.85 0 0 1 -.1-2.75z"/><path d="m390.87 497.38-.87-1.38c.77 2-1.08 3.61-.88 5.51a1.09 1.09 0 0 1 -1.25 1.11c-.83-.32-1.09.24-1.35.6a2.4 2.4 0 0 1 -2.65 1c-3.33-.55-6.69-.93-9.41-3.23-2.34-.31-3.71-2.21-5.53-3.37a13.35 13.35 0 0 1 -2.3-2.46c.32-1.31 1.45-1.43 2.94-1.29-.35-.54-.52-1.09-.9-1.33s-.22-.65-.06-.8a8.14 8.14 0 0 0 2-2.29c.11-.24.64-.36 1-.39.62 0 1.23.13 1.66-.61.12-.21.79-.14 1.21-.12 3.58.17 7 .79 10 3.09a8.17 8.17 0 0 0 1.68.75c1.6.64 2.43 2.16 3.8 3a2.13 2.13 0 0 1 .91 2.21z"/><path d="m499.94 319.4-.35-1.53c.24.06.42.05.5.14a32.27 32.27 0 0 1 3.71 4.12c.65 1 1.35 1.9.63 3.13-.49.84.86 2.2-.77 2.72-.29 1.5-1.54 1.84-2.72 2.19a19.3 19.3 0 0 1 .12 2.59c-.08.94-1.21 1.63-2.66 1.75-.34 0-.74-.15-1 0-2 1-2 1-3.57-.31a27.55 27.55 0 0 1 -2.29-2 3.94 3.94 0 0 0 -3-1.36 5.2 5.2 0 0 1 -4.33-2.6 4.47 4.47 0 0 1 .27-4.62l3.36 2.07c-.47-1.23-.8-2.05-1.1-2.89s-.14-.69.93-1.78c.77-.77 2.31-.78 2.35-2.28l2.72-1.16c1.67-.72 3.25-1.11 4.76.47a9.44 9.44 0 0 0 2.44 1.35z"/><path d="m253.62 428a3.76 3.76 0 0 1 -4.09-2c-.84-1.51-2-2.87-2.51-4.61a46 46 0 0 0 -2.54-6.61c-.49-1-.1-2.08-.5-3.07-.1-.25.06-.89.24-.95 1.34-.42 1.42-2.08 2.79-2.62.91-.35 1.48-1.55 2.3-2.48 1.39.62 3.06-1.44 4.72.46.07 1.77 1.92 2.63 3 4.05.14.2.46.31.54.52 1 2.51 1.94 5 3 7.76l-1.37-.51c.36.54.51 1 .77 1.07s.66-.27 1-.28c.16 0 .37.32.48.54s-.09.42-.18.44c-.67.11-1.34.18-2.07.26-.08 1.16-.16 2.4-.22 3.32l-1.57.47c1 .46.28 1 .15 1.61s-.16 1.17-.23 1.72c-1.67.44-2.66-.37-3.62-1.57z"/><path d="m486 473.26c-1.33.47-2.71.59-2.79 2.3-1.62-1-2.13-2-1.47-3.51a17.62 17.62 0 0 1 1.29-3.27c.62-.91.43-2.33.84-3.44a12.7 12.7 0 0 1 1.53-2.34l1.16.51-.87 1.31.25.25 1.7-1c.28.19.73.79 1.25.85 3.12.35 5.64 2 8.11 3.69a22.5 22.5 0 0 1 2.1 2.15c1.83 1.69 2.24 2 2.65 4a7.38 7.38 0 0 1 0 4.53 3 3 0 0 0 -.27 2c.49 1.44-.21 2-1.38 2.33a3.29 3.29 0 0 0 -.93.48c-1.8 1.3-2 1.33-3.61.18-2.35-1.71-4.05-4-5.87-6.23-1.37-1.57-2.54-3.22-3.69-4.79z"/><path d="m442.87 457.74a18.68 18.68 0 0 1 -5-1.14c-3-1.34-6.07-2.49-8.94-4.05s-6.14-3.18-8.49-5.55c-.29-1.17 1.63-.54 1.15-1.88-.14-.38.65-1.1 1-1.66.94-1.38 1.59-1.8 2.9-1.17a6 6 0 0 0 3.8.36c2-.31 3.84.62 5.77.89s3.85 1.33 5.74 2.12a24.46 24.46 0 0 1 3 1.1 7.15 7.15 0 0 1 2.4 2.06 2.86 2.86 0 0 1 0 2.21c-.29.82-.2 1.82-1 2.48-.48.38-.17 1-.08 1.5s.2 1.37-1.07 1c-.91-.2-1.22.74-1.18 1.73z"/><path d="m539.75 403.71c-3.36-.08-5.46-1.82-7.53-3.51a48.8 48.8 0 0 1 -5.16-4.8c-1.58-1.72-3.73-3.1-4.08-5.9 2.33.58 3.11 3.08 5.5 4-1.31-2.46-3.42-3.94-5.14-6.41l2 .27-.28-1.46 2.24-1.39c.38.29.91.73 1.48 1.11 2.22 1.51 2.22 1.49 5.22 1.38a4.89 4.89 0 0 1 1 .12 13.75 13.75 0 0 1 6.88 3 9.39 9.39 0 0 1 2.18 2.85 1.2 1.2 0 0 0 .56.5.66.66 0 0 1 .21 1.11c-.9 1.09-.9 2.55-1.63 3.7a1.8 1.8 0 0 0 -.09 1.51 2.69 2.69 0 0 1 -1.62 2.37c-.45.06-1-.6-1.35.18a8.8 8.8 0 0 0 -.39 1.37z"/><path d="m434.54 376-1.46.85 1.07.93-2.32 5.22a4.36 4.36 0 0 0 -.7.27c-2.66 1.63-5.18.74-7.52-.61a24.93 24.93 0 0 1 -5.06-3.84 5.64 5.64 0 0 1 -2.05-3.53l4.44 4.38.36-.3a5.86 5.86 0 0 0 -.57-.89c-1-1-2-2-3-3.05-.43-.47-1.15-1-.07-1.68.33-.21.24-1.08.34-1.65s.17-1 .24-1.4c1.14-.57 1.55.47 2.46.61l-1.41-1.95 1-1.65c.44.2 1.06.54 1.1-.55s.52-1.81 1.8-1.54c.12 0 .33 0 .37-.08.81-1.43 1.89-.72 2.72-.19a26.44 26.44 0 0 1 5 4.95c.36.41 1.2 1.38-.13 2-.08 0 0 .48 0 .73.31 0 .83 0 .89-.14a.64.64 0 0 1 1.25 0c.01 1.16 1.46 1.79 1.25 3.11z"/><path d="m404.49 325.17 1.45.65-.52-2.05c1-.62 1.94-1.31 3-1.9a7.43 7.43 0 0 1 2-.76c.53-.12.5 1 1.47.69.63-.18 1.49.68 2.2 1.23s.53 1.91 1.84 1.33c.36.81.72 1.62 1.09 2.42a1.67 1.67 0 0 0 .12.23l5.24 2.33a8.45 8.45 0 0 1 1.25-.46c.67-.14 1.59.22 1.41.74-.39 1.14 1.13 1.24.89 2.14a7.63 7.63 0 0 1 -4.05 2l2.18 2.12c-.16.35-.27 1.07-.6 1.2-2.11.79-4.11 2.16-6.55 1.39a9.55 9.55 0 0 1 -2-.63c-1.33-.78-2.6-1.68-3.88-2.55-.62-.43-1.21-.93-1.83-1.37-1-.7-1.29-2.1-2.64-2.34-.27-1.19-1.22-1.79-2-2.61a2.61 2.61 0 0 1 -.07-3.8z"/><path d="m311.43 317.54 2.35-.9c.9-.34 1.83-.87 2.54.36a.71.71 0 0 0 .66.15c1-.58 1.68.33 2.51.53 2.25.53 3.28 2.43 4.44 4.1.66 1 .61 1.85-.32 3s-2.53 2.46-2.89 4.28c-.81.33-1 1.86-2.34 1.21a1 1 0 0 0 -.74.06c-3.19 1.29-5.91.22-8.53-1.6-1.33-.92-2.83-1.62-3.75-3a14 14 0 0 1 -1-1.82.84.84 0 0 1 0-.73c1.12-1 1.64-2.42 2.72-3.35a10.83 10.83 0 0 1 4.35-2.29z"/><path d="m354.69 442.63 1.89 1.41c-.22-.94-.29-1.26-.38-1.58-.27-1-.27-1 .95-1.66.16-.08.41-.15.43-.27a2.16 2.16 0 0 1 2.07-1.82 9 9 0 0 1 3.49.25c4.18 1.45 7.4 4.31 10.29 7.54a6.86 6.86 0 0 1 .87 2.17l-1 .27c.41.89.47 1.64-.52 2.27a1.37 1.37 0 0 0 -.46 1.17c.32 1.14-1 1-1.19 1.76-1-.76-1.63.87-2.62.42a12.21 12.21 0 0 1 -2.82-1.23 30.52 30.52 0 0 1 -4.64-4.59 3.55 3.55 0 0 0 -2.3-1.52 7 7 0 0 1 -3.93-1.88c-.93-.9-.95-.88-.13-2.71z"/><path d="m391.06 394.72a4 4 0 0 1 -.33-.93c0-.23.28-.51.24-.73s-.41-.39-.5-.63.11-.59 0-.72a2 2 0 0 0 -.89-.53c-.21-.08-.49 0-.86.07l1 1.28c-1.11-.21-2.28-.26-2.34-1.75l1.38.06c-.46-1.65-1.62-.26-2.48-.79.87-.22 1.21-1 2.09-1.22.4-.09.59-1.11 1-1.9l3.72 1.22-.37-1.77 3.47-2.15c1 .58 1.76 1.14 2.64 1.56s1.63.45 2.37.83a15.42 15.42 0 0 1 4.93 4.68c.49.65 1.17 1.71-.15 2.44.52 1.34-.81 2.08-1.13 3.17-.39 1.37-1.73 2.1-3.49 2.07-2.63-.05-4.82-1.26-6.94-2.44-1.13-.54-2.26-1.09-3.36-1.82z"/><path d="m445.69 411.66 1.43-.05c-.73-2.18-3.18-1.93-4.24-3.79a5.92 5.92 0 0 1 1.27.08c.55.18 1.07.46 1.8.79a3.49 3.49 0 0 0 -1.7-1.71c.72-2.13.72-2.13 2.29-2.74 1.25.64 2.49 1.65 3.86 1.9 1.52.28 2.37 1.43 3.63 2a13.79 13.79 0 0 1 3.25 2.43 3.88 3.88 0 0 1 1.26 1.87c.19.87.3 2.2-.19 2.66-.81.75-.34 1.34-.41 2a3 3 0 0 1 -1.34 2.5c-.57.33-1.11 1.07-1.63 1a10.13 10.13 0 0 1 -3.72-.81 53.9 53.9 0 0 1 -6.1-3.56c-.49-.32-.64-1.16-1.08-2l1.26.41c-.69-1.17.28-2.05.36-2.98z"/><path d="m468.1 510.19-1.64-.23c.22 2.29.12 2.45-1.86 2.36l2.26 2.31-1.05 1.3c-1.15-.5-2.3-1-3.57-1.59-.08 1.46 1.66 1.45 2 2.7-1.29.71-2.43.09-3.54-.46-.61-.3-1.09-.86-1.7-1.14a59.81 59.81 0 0 1 -7.83-4.35 5 5 0 0 0 -.74-.34c-1.36-.56-2.75-1.08-3.41-2.59.76-1 1.64-.25 2.53.07.25-1.4-1.39-.94-1.64-1.81-.32-1 2.09-.48 1-1.93l2.76-1.06c1 .25 2 .5 3 .77a16.13 16.13 0 0 0 3 1c1.1.09 2.14.92 3.24 1.33.72.27 1.31.79 2.25.67.68-.08 1.37.74 2.26.25.25-.13.91.16 1.17.45a20.59 20.59 0 0 1 1.51 2.29z"/><path d="m385.32 346.58c.9-.28 1.33-1 2.35-.69l-.89.74c.7.91 1.42 1.79 2.06 2.73.17.24.23.82.07 1-.85.82-.74 2-1.31 2.95a3 3 0 0 1 -1.18.92c-.22.11-.63-.13-.85 0s-.43.48-.66.76c-1-1.37-1-1.45-3-1.37-1.16 0-1.77-.89-2.74-1.25l-.09 1.26c-.36-.17-.89-.25-1-.5-1.15-3-1.18-3.1-3.26-4.39-.25 1.67 1.55 1.89 2.14 3.2-.39.09-.93.34-1.05.21-1.26-1.33-2.82-2.45-2.54-4.73.09-.71 0-1.05.74-1.33a2.93 2.93 0 0 0 1.1-1c.76-1 1.47-2.09 2.27-3.24l.65.47c1.08.27 1.36-1.67 2.14-.06.22.46.84-1.07 1.32.16.18.48 1.24.62 1.85.89v1.37l.48.12c.06-.51.12-1 .19-1.65l1.76 1.4c-.14.58-.34 1.31-.55 2.03z"/><path d="m328.88 455.45-2.33-1.38c-.05.64-.09 1.05-.14 1.57a6.17 6.17 0 0 1 -3-1.16c-1.91-1.27-3.61-2.84-5.53-4.11a5 5 0 0 1 -2-3.63c1.06-.68 1.84.59 2.94.56l-.95-2.48 4.92-2.73a14.69 14.69 0 0 1 5.55 3.69c.86.91 2.11 1.36 2.86 2.49.3.45-.07 1.35.84 1.42v.69c-1.43 0-1.16 2-2.48 2.19-.09 0-.12.56-.15.86a8.3 8.3 0 0 1 0 1 5.43 5.43 0 0 1 -.53 1.02z"/><path d="m397.08 464.63 1.91 1.94v-1.42c.14 0 .35 0 .41.09a5.44 5.44 0 0 0 2.15 1.79 6.68 6.68 0 0 1 1.44 1.06 3.1 3.1 0 0 0 2.77.83l.09-1 1.8.51c.12.32.2.44.17.48-.34.48-.7.94-1 1.37l1.27 2.11-2.11-.18c-.08.8-.15 1.6-.24 2.46l-1.17.62.43 1.13a2.53 2.53 0 0 1 -3.51 1.13c-1.63-.64-3.35-1.05-5.08-1.89l1.17-1.63a8.06 8.06 0 0 0 -2.6-2.26 18.71 18.71 0 0 1 -2.82-2.44c.39-1.21 1.24-.76 2-.73-.07-.27-.06-.59-.21-.74-.95-.95-.95-1.61.12-2.07s2.03-.79 3.01-1.16z"/><path d="m328.47 502.48 1.89 1.33c0-.4.05-.69-.06-.86-.52-.85-1.1-1.68-1.73-2.63l1.48-.56 1.07 1-.8-2.08c.25-.22.49-.34.61-.54a11.18 11.18 0 0 1 .74-1.32c.85.28 1.52-.35 2.24-.34a2.52 2.52 0 0 1 2.65 1.48c.13.36-.19.93 0 1.21s.82 0 1.13.22.49.77.37 1c-.46.78-.05 1.4.24 2a1.37 1.37 0 0 1 -.43 1.86c-.68.51-.67 1.06-.55 1.84a2.08 2.08 0 0 1 -1.48 2.47 5.42 5.42 0 0 0 -1.2.55c-.93.61-2.29.85-2.9.23-1.46-1.51-3.23-2.8-3.84-5-.24-.87.17-1.34.57-1.86z"/><path d="m392.57 425.36 2.35-.19a2.06 2.06 0 0 0 -1.18-2.23c.58-1.15 1.64-.16 2.47-.63l-.27-1.46c.4-1 1.54.12 2.12-.83s1.35.35 2.13.23a2.59 2.59 0 0 1 1.41.46c1.4.81 2.19 2.41 3.87 2.94.4.13.56 1 .91 1.75-1.69-.15-.91 2.15-2.49 2.14-.16.84.71 1.93-.78 2.67l-1.29-1c-.07.76-.1 1.13-.13 1.52-.78.53-1.47-.06-1.93-.43a11.34 11.34 0 0 0 -5.19-2.3 2.23 2.23 0 0 1 -2-2.64z"/><path d="m354.25 362.46-2.25 3.77-2.14.82c-1.29-.89-2.17-2.37-3.78-2.89-.77-1.63-2.33-2.22-3.79-3-.46-.25-.66-1-1.06-1.62.33-.25.69-.38.81-.63 1.26-2.58 3.49-2.25 5.53-1.6a17.84 17.84 0 0 1 4.89 2.6 9 9 0 0 1 1.79 2.55z"/><path d="m1526.53 1651c6.09 11 7.06 20.89 6.59 30.94-.33 7-4.08 12.47-10.15 16.09a42.77 42.77 0 0 1 -16.71 6.18c-4.59.57-8.61-.9-12.43-3-7.11-4-14.79-7.31-19-14.88-5.25-9.45-8-19.48-5.7-30.37 1-4.61 3-8.43 8-10.15s9.74 2.9 11.47 6.25c.8 1.56-.08 3-.36 4.32-1.28 6 .75 11.5 1.66 17.18.19 1.17 1 1.09 1.86.85 5.5-1.53 9.81-4.22 10.79-10.49.52-3.32 1.25-6.6 1-10a5.77 5.77 0 0 0 -2-4c-1.46-1.36-3.72-2.79-1.27-5.25.5-.5.11-1-.43-1.29-2.36-1.48-2.74-3.94-1-6.29 3.48-4.76 13-4.44 16.18.53a4 4 0 0 0 1.22 1.41c5.75 3.03 8.01 8.9 10.28 11.97zm-9.6 47.24a14.56 14.56 0 0 0 8.9-6.56c-3.56 1.38-6.06 4.22-8.9 6.58z"/><path d="m1548.69 1572.67c-.61 1.57-2.42 1.91-2.35 3.65 1.23.2 1.55-1.15 2.39-1.39 1.19-.33 3.17-1.85 2.65 1.34 0 .23-.25.56.21.54 3.76-.1 2.53 3 2.91 4.83s.5 3.94 1.4 5.74c1.25 2.51 2.55 5 3.89 7.48 1.66 3 2.34 3.17 5.21 1.29 5-3.25 6.63-9 3.74-14.11a55 55 0 0 1 -4.88-13.38 5.78 5.78 0 0 1 1.94-6.4c2.51-1.93 7.41-2.35 9.73-.45a58.64 58.64 0 0 1 10.66 10.75 70.52 70.52 0 0 1 12.26 26.8 33.36 33.36 0 0 1 .67 11.63c-.74 5-3.87 8.78-8.07 11.59-5.32 3.56-10.83 6.24-17.56 4.89a16.21 16.21 0 0 1 -3.92-1.65c-8-4-16.69-7-22.14-14.69-6.27-8.82-9.62-18.68-9.15-29.62.17-3.8 1.34-7.2 5.31-8.76a6.13 6.13 0 0 1 5.1-.08zm42.94 45.5a14.78 14.78 0 0 0 -7.26 5c2.84-1.05 5.63-2.17 7.26-5z"/><path d="m1610.78 1671.07a41.22 41.22 0 0 1 4.85 27.5 17.21 17.21 0 0 1 -6 10.42 30.46 30.46 0 0 1 -19.13 7.55c-4.23.15-7.85-1.48-11.59-3.25-7-3.29-12.32-8.52-17.38-14-5.79-6.25-8.12-14-8.34-22.54-.08-2.94-.53-5.7 1.13-8.35 1.26-2 3.24-2.49 5.32-2.77.5-.07 1.42.08 1.52.37 1.49 4 6.31 5.42 7.36 9.74.4 1.67 1 3.3 1.56 4.93 1.56 4.53 5.47 6.41 10 4.6s7.42-5 8.19-9.75a28.57 28.57 0 0 0 -.54-11.85 5.6 5.6 0 0 1 3.78-7.11c5.28-1.85 7.18-1.18 10.4 3.63.2.3.39.7.68.82 4.22 1.75 5.41 5.93 8.19 10.06zm-13.38 41.35c3.2-.05 7.42-2.46 8.76-4.87a40.8 40.8 0 0 0 -8.76 4.87z"/><path d="m1609.76 1514.34c4.19-.79 2.45 2.84 3.32 4.44.42.79 0 2.17 1.29 2.55a2.92 2.92 0 0 0 3.11-1.21c3.62-4.27 4.15-9.29 2.71-14.36-1.06-3.73-1.57-7.54-2.62-11.26-1-3.33 1.27-6.53 4.64-7.44 4-1.09 7.32-.31 9.82 3.22 3 4.19 6.54 7.87 8.88 12.62 5.44 11 7.52 22.45 5.29 34.58a18 18 0 0 1 -24.63 13.58c-3.46-1.45-7-3.36-9.23-6.73a5 5 0 0 0 -1.69-1.28c-10.18-5.87-14.4-15.24-15.06-26.42-.45-7.66 4.54-9.91 10-9.05.68.11 1.59.19 1.85 1 .33 1-.81 1-1.26 1.49s-1.14.86-.66 1.56 1.12.1 1.68-.12c1-.41 2.06-.88 3 .06s-.27 1.7-.44 2.77zm22.58 34.56c1.9-.48 3.93-.69 4.81-2.76-1.74.71-3.61 1.16-4.81 2.76z"/><path d="m1537.43 1764.29c1.83.09 1.2-1.77 2.71-2.48a12.94 12.94 0 0 0 -1.07 7.46c.23 1.68-1.45 3.67-2.47 5.06a42.54 42.54 0 0 1 -13.34 12.3c-1.63.92-3.77.72-5.57 1.52a1.2 1.2 0 0 1 -1.61-.62c-.08-.17.05-.64.19-.68 1.08-.37 1.74-.82.56-1.85-.52-.46-.86-1.29-1.74-1.1-1.54.33.52 1.68-.56 2.14-.55 1.36-1.43-3.45-1.83.14-.16 0-.37 0-.48-.1-2.42-2-5.67-2.11-8.33-3.78s-5.32-2.77-7.65-4.76a46.76 46.76 0 0 1 -14.78-22c-1.41-4.57.33-7.66 4.53-8.93a4.17 4.17 0 0 1 3.9.52c4.18 3.17 9.21 5.52 10.42 11.53.37 1.86 2.19 3.09 4 3.8a2.35 2.35 0 0 0 3.12-.77c1.67-2.38 3.35-4.69 3.84-7.67.35-2.14 1-4.22 1.46-6.33.62-2.93-.27-5.74-1.37-8.28-1.67-3.87-.2-6.88 4.09-7.14a7.14 7.14 0 0 1 5 1.19c3.51 2.85 7.17 5.44 10.15 9a51.1 51.1 0 0 1 7.08 11.3c.82 1.76.51 3.84 1.61 5.56.21.32-.2 1.42-.62 1.68-1.38.86-.8 2.17-1.24 3.29zm-7.73 12.86c-2.19.41-3.14 3.81-5.85 1.47.67 1.28.92 3.56 2.36 2.7s3.41-1.74 3.49-4.17zm-2.06-11.39c-.11 1 .58 1.57 1.41 1.23 1.3-.53 0-1-.19-1.59-.33-.77.27-.48.67-.61.9-.28.43-1 0-1a3.56 3.56 0 0 0 -2.26.44c-.71.44-.13 1.06.37 1.53z"/><path d="m1649.81 1590.79c1.53-.12 2.94 0 3.8 1.14.67.91-.74 1-1 2 2.69-1.35 3.4 1.27 3.63 2.39.61 3 2.84 4.89 3.86 7.55.67 1.74 1.17 3.6 1.91 5.33s-1.64 0-2.47.63c-.19.76.12 1.28.89 1.27s1.84-.65 2.21.26c.46 1.11 1 2.9.48 3.56-1.43 1.79 0 3.41.54 4.2 1.21 1.71.26 1.92-.87 2.16-1.62.35-2.23 1.25-1.79 2.77.56 1.94-1.56 2.69-1.78 4.39s-1.12 3.22 0 5c-2.58 1-2.59-1.74-4.24-2.53 1.9 4.42-1.27 6-3.94 7.82-.89.6-2.15.8-2.81 1.56-1.38 1.59-1.7.69-2.09-1.13 0 2.4-.53 3.51-2.72 2.66-.8-.3-1.57.22-2.35.43-1.44.39-1.76.17-2.6-1.5-.24-.48-.51-.27-.87-.25-3.67.21-6.26-1.59-8-4.82-.83-1.54-1.49-4.34-4.46-2.57-.41.25-.66 0-1-.25-5.94-4.47-8.06-10.68-7.81-17.83a8 8 0 0 1 6.53-7 4.94 4.94 0 0 1 3.41.87c.85.67.06 1.54-.78 2.13-.65.45-.12.94.27 1.32a1.15 1.15 0 0 0 1.87-.1c1.44-1.61 2-1.52 2.91.71.66 1.63 3.2 1.08 4.88 1.26 1.14.13.94-1.33.82-2.16a2.08 2.08 0 0 1 .28-1.54c2.86-4.08 1.26-8.14-.08-12.14-.63-1.88-1.57-3.76-2.1-5.57s-.93-3.85-1.4-5.79c-.75-3.1 1.46-4.38 3.68-5.4a22 22 0 0 1 4.65-1.23c.38-.08 1.12.13 1.23.4.87 2.29 4.21 2.49 4.45 5.45.06.75 1.54 1.53 2.5 2 1.87.89 1.93.91.36 2.55zm-6.35 35.21c-1 .5-2.11 1.13-1.56 2.55.65 1.67 1.72.2 2.61.16 1.11 0 1.46-1.3 2.33-1.43s1.31-.64 1.29-1.39c0-1.08-1.15-1.28-1.84-1.74s-1.09.36-1.42.84-.36 1.27-1.41 1.01zm10.29 7c-1.38-.38-2.57 1-3.35.69-2.74-1.2-2.5 1.92-4 2.5-.26.1-.72 1.49-.12 2s2 .36 2.24-.12c1.01-2.43 3.88-2.8 5.23-5.02zm-13.32-16c-.67 2.28-1 2.65-2 2a2.69 2.69 0 0 0 -4 1.08 1.4 1.4 0 0 0 .92 1.9c1.26.39 5.29-3.47 5.08-4.98z"/><path d="m1498.32 1576.34c1.64-1.3 2-2.85 2.54-4.22 1.13-2.66 3-3 5-.71.85 1 1.25 1.58 2.94 1.08s3.15 1.49 4.58 2.54a30.92 30.92 0 0 1 9.92 12.36c3 6.57 2.36 13-1 19.34a12.56 12.56 0 0 1 -6.68 6.4c-1.53.58-2.84.11-4.23.14-4.81.12-9.6.56-14.42 0-5.19-.56-14.75-7.9-15.6-14-.54-3.92.42-7 3.4-9.43 1.71-1.42 3-1.09 4.39 1.19a4.86 4.86 0 0 0 .4-3.66 41.47 41.47 0 0 1 -1.13-9.17c-.06-3.68 1.64-6.4 4.28-8.71a3.23 3.23 0 0 1 3.52-.81 3.06 3.06 0 0 1 1.67 3.14 35.2 35.2 0 0 0 .42 4.52zm23 25.05c-1.49 1.92-2.34 3.65-2.29 5.73.79-1.76 3.04-2.94 2.29-5.73z"/><path d="m1542.46 1526c-.3-4.18-1.47-8-.13-11.9a6.2 6.2 0 0 1 .65-1.75c.84-1.15 1.81-2.8 3.25-2.48 1.24.29 1.92 1.92 2.15 3.41.11.72-.22 2 .91 1.94 1 0 .86-1.22 1.08-2 .12-.43.14-.9.29-1.33.27-.79 0-2 1.19-2.16a2.7 2.7 0 0 1 2.67 1c.6.87 1 1.74 2.16.35.57-.71 1.59 0 2.27.3 7.56 3.63 11.73 9.31 9.21 18.41-.77 2.78-1.62 5.54-2.42 8.31a3.33 3.33 0 0 1 -3 2.35c-1.59.23-.72-1.62-1.77-2.17-.21 2.9-1.67 3.3-4.24 2.65-1.59-.41-3.53-1-5.12.94-.59.69-2.45.61-3.66.43-6.06-.9-10.93-3.77-14-9.25-1.2-2.17-1.51-4.49.19-6.65.32-.42 1.07-1.09 1.14-1 2.23 1.8 4.72-.68 7.18.6z"/><path d="m951.41 973.48c2.24-1.71 4.05-1.1 6.4 2.07s2.94 7.37 4.21 11.13a52.53 52.53 0 0 1 1.67 6.56c.32 1.63.92 1.82 2.39 1.13 5.34-2.5 10.72-4.89 16.1-7.29a22.41 22.41 0 0 1 3.31-1.24c1.48-.41 3.09-.74 1.73 1.88a5.43 5.43 0 0 1 7.12 5.31c-.05 1.41-.92 1.62-1.7 2.07q-11.32 6.47-22.64 12.9c-3.27 1.84-3 2.29-1.61 5.73a48.44 48.44 0 0 1 2.68 10.84 77.21 77.21 0 0 0 5.76 20.26c.57 1.22 1.26 2.79 0 3.72-1 .75-2.56 1.69-3.86 0a1.09 1.09 0 0 0 -.71-.38c-5.82-.37-7.62-4.84-9.36-9.27a210.67 210.67 0 0 1 -6.34-20.38c-.6-2.15-1.11-2.57-3.2-1.45-6.32 3.39-12.56 6.89-18.9 10.24-4.53 2.4-8.75.72-13 0-1.19-.21-2.36-2.37-2.89-3.86s1.08-2.36 2.19-3.1c9.65-6.44 19.3-12.92 29.64-18.25 1.56-.8 1.93-1.47 1.45-3.32-1.85-7.17-3.41-14.42-5-21.65-.35-1.58-.78-3.24.24-4.77.77-1.16 1.64-2.21 3.28-1.91 1.98.34.33 1.97 1.04 3.03z"/><path d="m522 1169.22c1 1 3.16 1 3.15 3.23l-1.19-.13a5.15 5.15 0 0 1 -1.53 4.24c-.47 2.61-.81 5.13-1.4 7.6s-1.49 5.1-2.26 7.71l-1.53-.23c1.95 2.69 1.42 5.42.72 7.95l2.38 1.37.92-.6c-.3-.76-.63-1.56-1-2.58 2-.92 2.26-2.78 2.3-4.86l-1.71-.69a9.44 9.44 0 0 0 2.87-6.31c.37-5.28 2.42-10.18 4.5-15 .34-.81 1.21-1.39 2.42-2.72l-3.81.19c-.06.83-.1 1.59-.18 2.72l-3.74-2.87c.88-1.59 1.77-3.17 2.7-4.84l1.32.13c1.55-3.77 5.09-6 7.93-8.93l2.21-.23 1.13 1.75 2-.85-2.26-1.66c.08-.34.18-.8.27-1.23 1.88-1.31 3.36.38 5.41.7-.39-.9-.7-1.62-1.12-2.61 2-1.91 4.79-1.26 7-2.25l2.08 2.57-.27-2.73 3.41-2.21c0 .69.06 1.15.12 2.16l2-2.1c-.39.14-.19 0 0 0 3.57-.26 7.15-.71 10.72-.73a45 45 0 0 1 14.26 2.15c3.87 1.29 7.49 3.33 11.47 4.42a10.73 10.73 0 0 1 2.28 1.29l-.24 1.13a4.61 4.61 0 0 1 4.2 1.41c3.82 3.7 3.8 3.73 4.12 5.94l4.29 3.09-1.37 2.33 1.69.78c1.43 3.49 2.76 6.7 4.1 10l-1.85 1.5c1.85 2.51 1.12 5.28.35 8.47l3-.2v3l-1.6-1.26c-.48.68-1.35 1.38-1.43 2.18a71.14 71.14 0 0 0 -.38 7.87 3.2 3.2 0 0 0 .65 1.5c-.59 2.12-1.61 3.88-1.43 5.52.5 4.45-1.81 7.94-3.3 11.73-.42 1-1 2-1.58 3.08l-1.28-1c-.13.2-.41.51-.36.58.77 1 1.41 2.07.16 3.71l-2.26 1.46c-.17 1.49-.38 3.31-.58 5.11l-2.88.86c.48 3.51-2 6-3.89 8.82l-1.44-.14-.93 3.83-3.07 2c.23 1.82.2 3.48-2.14 3.82l-2.14 5 10.38-.61.49-1.23 3.46-.95.55.85c.23-.06.64-.12.65-.19.06-1.37 1.26-1.69 2.14-2.14 1.13-.6 2.45-.83 3.64-1.34s2.08-1.4 3.19-1.56c1.53-.22 1.58-1.75 2.69-2.42s2.88-.59 3.89-2.07c.81-1.18 2.42-1.82 3.71-2.63 4-2.53 7.11-6.05 10.19-9.58 1.9-2.16 4.08-4.09 5.83-6.36a116.92 116.92 0 0 0 7.85-11.18c1.1-1.83 3.27-3 3.31-5.52 0-.76 1.67-1 .64-2.26-.17-.2.65-1.14.86-1.79.28-.87.35-1.82.61-2.7.5-1.66 1.08-3.3 1.75-5.35l2 3c-1 1.82-1 1.82-.26 6l1.92-1.24c-.61-2.79 1-5.44 1.11-8.34l1.77.44c.12 1 .26 2.17.43 3.62.42-.31 1.13-.56 1.21-.94a33.42 33.42 0 0 0 .26-4l2.31 2 3.74.08c-1 1.37-1.72 2.4-2.45 3.44l2.22 1.88-1.53 4 2.68-.17-.75 3.11-2.8.17 2.12 2c-.18.45-.44 1.07-.66 1.59l-.93-.94c-.73 1.71-1.43 3.33-2.14 5l.8.21c-.07 1.22-.13 2.43-.2 3.84l-2-.23c0 1 .11 2 .16 3.05l-2.12 1.37c-1.17 2.66-2 5.16-3.32 7.42-1.14 2-3.89 2.83-4.52 5.63l-2.68-.66-2.23 1.68 3-.42c-1.71 2.87-2 6.71-6.39 7l-.56 2.28-1.51-.2a4.64 4.64 0 0 1 -5 3.23c-.28 1-.56 2-.87 3.13l-2.67.74c-.12.22-.25.92-.65 1.15s-1.18-.09-1.69.11a11.5 11.5 0 0 0 -2 1.22 8.06 8.06 0 0 1 -1.56 1 8.55 8.55 0 0 1 -2 .1c-.56 3.78-4.53 2-6.84 4.71.1-2.09.15-3.2.2-4.3-1.12-.2-2.09 1.66-2.23 4.38l-1.07-1.07c-2-.37-1.93 1.8-3 2.64l-2.64-.49-.39 1.38-1.27-1.13c-3 .91-6.31 1.91-9.62 2.74a3.53 3.53 0 0 1 -3.32-.68c-1.08.68-2.07 1.82-3.05 1.81-5.41-.08-10.81-.46-16.21-.7-.85 0-1.7.21-2.56.26-1 .06-2 0-3.19.07.09.35.23.86.46 1.72-2.13 1-3.73 3.25-6.6 3.14l-1.74 3.06c-3.33-.13-5.05 3.91-8.33 3.8-.7.81-1.35 1.56-2.07 2.37l-1.53-1.2c-.92 1.81-2.47 2.24-4.38 2.74s-3.4 1.72-5.44 1.18c-.09.28-.17.56-.34 1.13l-1.56-.1-.78 1.31c-2 .69-3.91 1.52-5.94 2-4.14 1.09-8 3.27-12.45 3.21a13.77 13.77 0 0 0 -4.54 1.22c-8.67 3.07-17.68 3.37-26.74 3.38a58.47 58.47 0 0 1 -15.12-1.9 15.09 15.09 0 0 0 -4.94-.87c-1.75.16-2.85-1.1-4.46-1.24-4.36-.36-8.22-2.57-12.29-4a91.39 91.39 0 0 1 -11.51-5.1c-3.94-2-8-3.92-11.49-6.64-3.24-2.56-7-4.5-9.67-7.82-.33-.4-1.24-.36-1.51-.77-1.58-2.34-4.16-3.63-5.91-5.74a57.39 57.39 0 0 1 -3.49-5.3c.27-.91.6-2.06 1-3.46l4.56-1.36 1.08 1.06 1.53-1a22.38 22.38 0 0 1 3.73 1.37 8.56 8.56 0 0 1 2.9 2.53c2.46 3.81 6.63 5.48 10 8.11 2.45 1.91 5.19 3.49 7.69 5.4a21.69 21.69 0 0 0 4.68 2.23c3.59 1.55 7 3.49 10.71 4.81 2 .72 3.93 1.93 6 2.55 4.49 1.34 9 2.63 13.6 3.59 9.67 2 19.42 1.46 29.13.21a28.91 28.91 0 0 0 6.14-2c2.69-1 5.68-.87 8.28-2.22 3.76-1.94 8.12-2.41 11.74-4.76a29.75 29.75 0 0 1 4.42-1.83c1.47-.64 2.46-2.16 4.47-1.89.69.09 1.66-1.13 2.34-1.89a10.65 10.65 0 0 1 6.71-3.85c.22-.53.44-1.07.76-1.82.56.06 1.13.1 1.69.19s.88.23 1.16.3c.2-1.11.38-2.14.63-3.53-1.58-1-3.55-2.1-5.43-3.37s-3.6-2.8-5.51-4a25.84 25.84 0 0 1 -5.37-4.53l-1.5-.32c-.93-1.45-1.87-3-3-4.52-.76-1.05-1-2.55-2.76-2.82-.51-.07-1.21-1.15-1.24-1.81-.17-3-2.37-4.8-3.59-7.17-1.08-2.1-2.05-4.25-1.15-6.9a10.5 10.5 0 0 1 -2.26-5.5c-.12-1.4-1.19-2.86-.95-4.12.32-1.63-.8-2.56-1-3.77-.34-2.58-1.71-5.32.82-7.86l-2.11-.76c.31-.77.62-1.57 1.24-3.15-.12-.55-.4-1.93-.85-4.07.32-2.45.16-6 1.34-8.91s1.22-5.93 2.16-8.77c1.07-3.07 2.48-5.91 3.72-8.85zm40.61-9.93-4.1-1.68c-.07 1-.13 1.75-.21 2.81l-2.26-1.37c.11.77.2 1.46.29 2.1l-1 .63-1.85-2-3.31 2.14c-2.68-1.51-4.68-1.36-4.73.23a3.36 3.36 0 0 1 1.26.45c.28.26.3.77.59 1.61a22.3 22.3 0 0 0 -3.7-.28c-.63.06-1.21.72-2.05 1.27l2 .76c-.34 3-.34 3-2.81 3.2-.48.8-1.29 1.55-1.25 2.26 0 .87.73 1.69-.56 2l-2.49-1.19c-.19 2.53-.35 4.56-.5 6.58l-1.62-.24c0 1.09.05 2.1.07 3.16l-1.89 3 1.32.45-3.75 4.38 1.14.3c.44 2.18.86 4.28 1.37 6.82 2.36-3 .82-6.26 1.93-9s1.81-5.71 2.78-8.88l1.13 1.74c-.59 2.18-.78 4-1.59 5.55s-.17 3.43-1.08 4.86c-1 1.6-.28 3.27-.53 4.89-.42 2.67.78 5.64-1.42 7.89a10.93 10.93 0 0 1 1.25 7.32l1.93 3c-.4.52-.74 1-1.09 1.45 1.35.52 2.49 1.08 2.15 2.83a8.06 8.06 0 0 0 1.72 6.61c1.15 1.47 1.33 3.24 2 4.84.52 1.21 1.72 2.14 1.27 3.7 0 .12.4.38.61.57l1.65-.4a7 7 0 0 0 .11 1.76 4.71 4.71 0 0 0 1 1.55c.4.46 1 .74 1.37 1.23s.19 1.25.55 1.5a36.44 36.44 0 0 1 5.39 5 17.27 17.27 0 0 0 7.68 4.54c2.63-2.29 3.74-5.15 6-7.32s3.6-5.77 5.58-8.56c3.74-5.27 5.26-11.79 9.54-16.76.32-.37.18-1.15.25-1.74a5.12 5.12 0 0 1 .19-1.49 76.43 76.43 0 0 0 5.51-18 47.94 47.94 0 0 0 .55-10.08c0-1.88-.76-3.77-.48-5.53.51-3.15-1-5.74-2-8.31a34.16 34.16 0 0 0 -5-7.76 17.82 17.82 0 0 0 -7.67-5.38c-.88-.34-2.05.15-3-.09a12.94 12.94 0 0 1 -2.8-1.45c-.19.6-.31 1-.46 1.43l-2.58-.48z"/><path d="m195.69 1192.67c-.77 13.45-4.27 26.07-11.46 37.56a26.69 26.69 0 0 1 -7.5 7.4c-1.79 1.27-3.85.61-5.81.72-.61 0-2.36-1.69-2 .89 0 .17-1 0-1.47-.2a14.45 14.45 0 0 1 -7.47-6.8c-4.59-9.4-4.1-18.77 0-28.15 3.59-8.21 8.17-15.73 15-21.74 3.47-3 7.8-3.67 11.93-4.57 3.49-.75 7 2.55 7.91 6.48a42.14 42.14 0 0 1 .87 8.41zm-8.21 2.18c0-2.19.33-3.85-1.72-4.45s-2.55 1-3.27 2.38c-.35.67-.65 1.62-1.7 1.49s-1.44-.94-1.59-1.92c-.1-.6 0-1.39-.78-1.6s-1.23.54-1.67 1.1a69.21 69.21 0 0 0 -9.2 15.36 35.61 35.61 0 0 0 -3.25 10.63c-.56 5.18 3.36 8.06 8.15 6a15.45 15.45 0 0 0 6.78-5.7c4.84-7.25 7.11-15.41 8.25-23.29z"/><path d="m354.17 1194.24a43.27 43.27 0 0 1 8.32-27.15 15.53 15.53 0 0 1 4.43-4.38c2.55-1.55 5.37-.71 6.15 2.09.44 1.57 1.2 1.9 2.58 2.14 6.19 1.06 10.88 5.57 11.07 11.73.41 12.78-3.57 24.32-12.29 33.68-6.34 6.81-13.29 5.19-17.27-3.31a35.06 35.06 0 0 1 -2.99-14.8zm8.27-13.85c-2 6.69-1.82 12.77 1.29 18.56 2.31 4.29 5.41 4.49 8.55.7a27 27 0 0 0 4.73-9.43c1.61-5.1-.22-8.62-5.21-10.45-2-.74-3.16-.26-3.55 1.76-.33 1.75-1 3.38-2.91 3.29-2.15-.09-2-2.22-2.41-3.74a5.83 5.83 0 0 0 -.49-.69z"/><path d="m320.6 1195.28c-.45 9.81-4.17 18.66-8.19 27.42-2.39 5.19-5.42 9.79-10.7 12.62-4.64 2.49-8.95 1.65-11.53-3.06-4.05-7.42-5.64-15.28-3.13-23.61a51.94 51.94 0 0 1 10.56-19.65c.77-.88 1.75-1.78 2.72-1.51 2.09.58 2.89-.91 3.62-2.07 2-3.16 4.9-3.91 8.23-3.34 3.67.63 6.63 2.41 7.88 6.23a15.22 15.22 0 0 1 .54 6.97zm-28 20.82c.13 2.18.62 4.69 2.93 5.79 2.12 1 3.79-.84 5.14-2.24a44 44 0 0 0 10.94-20.37c.51-2-.74-3-2.49-3.57s-2.74-.26-3.41 1.52c-.44 1.14-1.05 2.52-2.65 2.29-1.39-.19-1.11-1.65-1.51-2.58-.2-.47 0-1.18-.72-1.29s-1 .42-1.27.86c-3.16 6.13-6.27 12.28-6.95 19.59z"/><path d="m368.7 1249.56c-.19 8.47-3 16.21-6.16 23.94a51.53 51.53 0 0 1 -8.83 14.38c-3.26 3.77-9.94 5.28-14.54 2.58-1.71-1-2-3.24-3.9-4 2.19-2.37-1.11-3.36-1.3-5.16-.8-7.32-.57-14.36 2.86-21.23a46.16 46.16 0 0 1 13.75-16.86 2.25 2.25 0 0 0 .91-1.82 11.25 11.25 0 0 1 .65-3.17c2.34-5.64 6.25-6.56 10.82-2.51a17 17 0 0 1 5.74 13.85zm-11.79-2.83a3.89 3.89 0 0 0 -1 2.43c-.18.9-.82 1.41-1.55 1-1.8-1.07-2.67.22-3.66 1.23a40.94 40.94 0 0 0 -6.87 9.06c-1.94 3.6-4 7.31-3.47 11.73.33 2.75.58 5.77 3.62 6.68s5.48-1.11 7.53-3.29c.12-.13.2-.3.32-.44 4.46-5.39 6.45-11.92 8-18.49a10 10 0 0 0 -2.92-9.91z"/><path d="m234.63 1233.11a63.06 63.06 0 0 1 -8.46 27.65c-.63 1.1-1.4 2.11-2 3.21-2.58 4.42-6.66 6.17-11.53 6.29-1.69 0-2.63-1.29-3.39-2.7a23.23 23.23 0 0 1 -2.32-16.08 85.63 85.63 0 0 1 12.61-30.76 23.63 23.63 0 0 1 4-4.39c1.66-1.49 3.07-.92 3.63 1.27.19.75.14 1.63 1.19 1.92 4.19 1.15 4.75 4.94 5.78 8.27.43 1.43.3 3.05.49 5.32zm-22.27 21.66c.11 1.39-.11 3 1.31 3.68s2.38-.52 3.36-1.28a14.5 14.5 0 0 0 3.43-3.85 49.79 49.79 0 0 0 7.12-19c.27-1.73.3-3.87-1.4-4.2s-4.38-.76-5.48 1.93a9.71 9.71 0 0 1 -1.18 2.14c-4.59 6.14-5.64 13.44-7.16 20.58z"/><path d="m250.09 1310.8c3-1.39 1.76-2.84 0-3.5-3.94-1.5-4.19-5.14-4.92-8.29a14.35 14.35 0 0 1 .46-6.45c2.39-9.38 6.7-17.92 11.89-26 .85-1.33 2.35-2.2 3.21-3.63a1.58 1.58 0 0 1 1.89-.75c.79.27 1 .83.94 1.7a4.73 4.73 0 0 0 1.74 4c3.29 3.24 3 7.59 2.64 11.57a61 61 0 0 1 -9.85 28.08c-1.65 2.6-4.01 4.6-8 3.27zm2.16-12.21c2.23-2 3-4.38 4.19-6.57a36.33 36.33 0 0 0 3.78-12.77c.1-.74.06-1.53-.81-1.79s-1.31.46-1.69 1-.37 1.46-.81 1.67c-1.46.71-.47 4.3-3.6 3-.39-.16-.77.56-.29.91 2.08 1.54.75 3.22.18 4.78-1.11 3.09-1.9 6.18-.95 9.77z"/><path d="m243.92 1177.4c-.22-.74-.43-1.48-.74-2.56a27.13 27.13 0 0 0 -4.94 9.5 3.2 3.2 0 0 0 3.46 4.06 6.83 6.83 0 0 0 5.38-3.3c3.34-4.91 4.83-10.58 5.69-16.31a9.72 9.72 0 0 0 -1-5.91c-.92-1.63.94-5.73 2.85-6.34 2.4-.78 3.54 1 4.36 2.71 1.61 3.45 1 7.19.72 10.74a53.4 53.4 0 0 1 -7.31 22.57c-1.84 3.1-3.95 6-7.88 6.52-6.69 1-9.43.25-11.17-6.47-2.29-8.85 2.57-21.14 10.12-26.45a2.78 2.78 0 0 1 2.76-.66c1.24.48 1.06 1.61 1.11 2.55.15 3.47-1.4 6.42-2.72 9.44z"/><path d="m290.19 1342.09c-2.14.19-3.71-.65-3.8-2.7-.17-3.61-1-7 .08-10.93a59.63 59.63 0 0 1 8.23-18.19c1.65-2.46 1-5.19 2-7.64a15.72 15.72 0 0 1 3.49-5.44c1.05-1 2.15-1.73 3.64-.88a3.72 3.72 0 0 1 2.06 3.61c.54 12-4 22.8-8.09 33.7a27.76 27.76 0 0 1 -3.83 6.55 4 4 0 0 1 -3.78 1.92z"/><path d="m1038.56 662.31.73.56a2.63 2.63 0 0 0 -.47-2.73h.89c.1-.14.3-.31.27-.42a3.35 3.35 0 0 1 .61-2.48c.48-.82 1.39-1.41 1.05-2.57 0-.08 0-.23 0-.26 1.73-1.22 1.86-3.5 3.27-4.93.46-.47.51.19 1 .3.16-2-.11-4.18 1.75-6l.88-.11c.26-.13.24-.23 0-.4a1.05 1.05 0 0 1 -.14-1.64c1.4-1.46 1.95-3.39 2.84-5.11 1.64-3.18 3.61-6.14 5.39-9.22s3.7-6.13 5.71-9.09c2.64-3.91 5.2-7.88 8-11.73 1.77-2.49 3.56-5 5.2-7.63s3.56-4.7 5.28-7.1c2-2.81 4.35-5.38 6.23-8.31 1-1.46 2.4-2.57 3.45-4 3.9-5.4 8.8-9.91 13.47-14.61.85-.85 1.66-1.75 3.26-1.73a9.31 9.31 0 0 1 -2.08 3.83c-1.56 1.53-3.09 3.09-4.63 4.63a14.73 14.73 0 0 0 -2.27 2.34c-.56.9-1.4 1.51-2 2.39s-1.35 1.58-2 2.45c-1.07 1.5-2.44 2.8-3.66 4.2-1.57 1.79-2.66 3.88-4.23 5.66s-2.92 3.87-4.4 5.79c-.48.62-1.19 1-1.14 2 0 .38-.58.85-1 1.19a20.25 20.25 0 0 0 -3.27 4.38c-1 1.57-2 3.16-3.09 4.72-3 4.49-5.89 9-9 13.45-2 2.8-3.34 6-5.42 8.67 0 1.28-1.54 1.57-1.84 2.79a5.65 5.65 0 0 1 -1.38 2.72 6.64 6.64 0 0 0 -1.61 2 26.2 26.2 0 0 1 -1.18 2.51 13.88 13.88 0 0 1 -1.54 2.36c-.63.74-.82 1.71-1.37 2.42-.32.41-.08 1.2-.77 1.24s-.75.37-.67.86c.16.95-.47 1.62-.78 2.39-.43.16-.92-.17-1.38.27.87 1.57-.69 2.86-.57 4.4-1.64.28-1 2-1.7 2.79s-.64 2.08-1.33 3a28.37 28.37 0 0 0 -2.44 5 50 50 0 0 1 -2.43 4.72c-.39.63-.3.94.32 1.46-1.92.79-.88 3.69-3.28 4.24.17.27.53.59.46.78a24.93 24.93 0 0 1 -1.8 5 7.72 7.72 0 0 0 -1.39 4 2.75 2.75 0 0 1 -.65 1.65c-1.66 2.4-1.9 5.24-2.65 7.91-.6 2.12-1.36 4.17-2 6.25a57.34 57.34 0 0 0 -2.37 7.75c-.31 1.64-1.07 3.2-1.48 4.83-.29 1.16-.94 2.29-.66 3.54.22 1-.75 1.53-.65 2.52 0 .36-.68 1.13-.4 1.65s-1.17.94-.17 1.53a15.29 15.29 0 0 1 -1.15 3.5c-1 1.7-.87 3.64-1.4 5.43-.84 2.87-.53 6-1.69 8.85.54 1.3-1.1 2.56 0 3.94.25.33-.47.79-.55 1.37-.45 3.12-1.23 6.2-1 9.37 0 .69-.94 1.34 0 2-.91.68-.45 1.65-.52 2.5s.27 1.79-.07 2.42c-.86 1.58.42 3 .09 4.5-.28 1.26.34 2.66-.56 3.87a.85.85 0 0 0 0 .79c.91 1 .59 2.24.48 3.33-.19 1.9.79 3.63.63 5.51 0 .22.49.49.91.89.05-1.8.56-3.47-.27-5.16a3.73 3.73 0 0 1 -.13-1.58c0-3.18.07-6.36 0-9.54-.05-1.44.84-2.66.62-4.15a8.22 8.22 0 0 1 0-4c.52-1.31 0-2.68.64-3.82s.07-2.49.37-3.68c.65-2.54.52-5.21 1.15-7.71.52-2.08.76-4.2 1.39-6.24.15-.47-.79-.73 0-1.21.47-.28.14-1 .17-1.53s.7-.6.56-1.14.47-1 .51-1.41c.11-1.3.26-2.58.5-3.88.46-2.53 1.19-5 1.75-7.47 1.19-.78 0-2.21.92-3.19.68-.73.51-2 .74-2.95.79-3.28 1.73-6.54 2.81-9.74a35.77 35.77 0 0 0 2.1-6.78 11 11 0 0 1 1.21-3 73.87 73.87 0 0 0 3-8.56c.47-1.37 1.21-2.6 1.76-3.91.9-2.17 1.35-4.51 2.61-6.57.83-1.34.77-3.18 2.17-4.27-.63-1.53 1-2.28 1.22-3.61s1.21-2.36 1.61-3.68a19 19 0 0 1 1.6-3.42c.6-1.11 1.28-2.18 1.92-3.28h1.28c-.23-.64-.74-1.19-.49-1.83.2-.44.64-.26.93-.43.05-.16.17-.31.16-.47a8.48 8.48 0 0 1 1.72-5c1.75-2.45 2.77-5.25 4.23-7.82 1.72-3 3.56-6 5.21-9 1.94-3.59 4.4-6.85 6.35-10.44a81.61 81.61 0 0 1 4.7-7.06c2-3 4.22-5.86 6.13-8.92 1.56-2.49 3.43-4.74 5.09-7.15a82.24 82.24 0 0 1 5.28-7.11c1.69-2 3.1-4.17 4.67-6.24 1.73-2.29 3.61-4.45 5.32-6.76a41.87 41.87 0 0 1 3.78-4.46q3.55-3.58 7.14-7.13c.3-.3.52-.77 1.15-.66.72.67.33 1.4-.25 2.06 1.28.35 1.41-1 2.32-1 .47.05.62.58 1 .81-.89.31.16 1-.26 1.34s-.12 1.12-.76 1.33c.06.65.83.09 1.07.86-.83 1.08-1.74 2.32-2.73 3.5a12.54 12.54 0 0 0 -2 2.47c-.39.82-1.63 1.18-1.39 2.44 0 .23-.4.24-.58.37a10.3 10.3 0 0 0 -3.22 4.54 13.4 13.4 0 0 1 -1.74 2.8c-1.13 1.53-2.4 3-3.42 4.6a2.22 2.22 0 0 1 -.82.62 5.09 5.09 0 0 0 -2.75 3.59c-.18.85-.53 1.1-1.54 2a12.56 12.56 0 0 0 -1.25 1.63c-1.61 2.23-3 4.64-4.6 6.83-1 1.32-.88 3.23-2.41 4.19.3 1.25-.88 1.64-1.38 2.44-1.21 1.94-2.86 3.67-3.46 5.91-.22.8-1.59.31-1.16 1.39-1.32 1.79-2 3.92-3.32 5.71-.49.68-1.41 1.25-1.53 2-.25 1.5-2.11 2.17-1.82 3.85-1.51.67-1.54 2.19-2.12 3.44-.44 1-1.48 1.53-1.66 2.84a9.92 9.92 0 0 1 -1.56 3.14c-.58 1-1.51 1.87-1.73 3.1-1.37.25-1.39 1.59-1.85 2.47s-1.29 1.84-1.31 3c0 .9-1.63.71-1.14 2 .3.78-.57 1.37-.87 2.07s-.34 1.58-1.45 1.63c-.32 0-.67.54-.91.89-.91 1.42-1 3.41-2.73 4.27.11 1-.85 1.77-.92 2.6-.22 2.69-1.85 4.73-3 7-.83 1.66-.9 3.71-2.49 5 .27 1.43-1.07 2.31-1.24 3.57-.19 1.48-1.41 2.52-1.64 4s-1.15 2.62-1.57 4c-.07.23-.37.39-.65.68.7 2.42-1.89 4.25-1.5 7.1l1.45-2.89c.14 2.53-1.31 4.18-1.7 6.14a42.5 42.5 0 0 1 -2 5.68 59.41 59.41 0 0 0 -2 5.69c-.47 2-1.35 3.82-1.8 5.82s-1.16 3.87-1.78 5.91l-1.23.1c-1.11 1.35-.51 3.19-1.3 4.65-.12.2.1.63 0 .79-1.21 1.48-.85 3.45-1.61 5.07s-.41 3.57-1.08 5.27c-.78 2-.83 4.17-1.54 6.18-.37 1.05.18 2.31-.66 3.28.33 1.62-.33 3.13-.6 4.67a18.12 18.12 0 0 0 -.5 4.15c-1.31 1 .2 2.84-1 3.94-.19.16 0 .7 0 1.06.18 2.31-.51 4.5-.84 6.74-.1.65.57 1.16.3 1.86-1.07 2.77-.31 5.67-.56 8.5a5.11 5.11 0 0 0 .79 3.22l.41-.33a2 2 0 0 1 1.48 2.78c-.29 1-1.39.94-2.34.82-.48.93-.86 2-2.24 1.66-.78-.2-1.34.28-2 .58-.67-.38-1.32-1-2-1.06a3.39 3.39 0 0 1 -2.8-2.16 14.36 14.36 0 0 1 -1.19-3.6c-.82-3.47-.4-6.95-.48-10.42s0-6.91 0-10.37c0-1.24.77-2.28.62-3.6-.13-1.17-.5-2.51.49-3.58-.37-2 .76-3.78.58-5.78-.23-2.53.52-5 1.08-7.45a7.63 7.63 0 0 1 .3-1.59 2.8 2.8 0 0 0 .18-1.82c-.2-1.13.54-2 .69-3a12.82 12.82 0 0 0 .41-3.09c.46-.41 1-.11 1.14-.78-.91-1-.48-2.14-.06-3.43a39.52 39.52 0 0 0 1.7-7.76 11.62 11.62 0 0 1 .73-2.42 19.09 19.09 0 0 0 1.47-6.43l1-.74c.05-.55-.55-.47-.31-1a7.24 7.24 0 0 0 .92-3.16 1.47 1.47 0 0 1 .08-.51c.17-.51 1.55-.65.47-1.54 1-.39.24-1.49.9-2.1.45-.41.49-1.3.61-1.88s.6-1.24.67-1.93c.15-1.36 1.55-2.38 1-3.82.24-.49.69-.29 1-.48-.2-.9.55-3.37 1.43-4.71l.75.36c.06-.18.2-.38.15-.49-.35-.77-1-1.51-.08-2.33a13.79 13.79 0 0 1 1.84-5.23 25.46 25.46 0 0 0 1.51-4.29c.41-1.38 1.66-2.39 1.65-3.93 1.28-1.71 1.28-3.99 2.72-5.68zm15.34-6.09c-.48-.55.65-.44.08-.9s-.22-1-.38-1.48c-.09-.24-.25-.26-.38-.1-.42.62.22 1.43-.33 2l-.82.16c.29.93 1.36 1.17 1.58 2-.37 1.37-1.44 1.12-2.39 1.15-.11 0-.2.2-.3.31.39.54 1.08-.08 1.38.27.81 1.22-.75.82-.84 1.82 0-.13.65-.18.34.2s-1.09-.18-1.47.38c.42 1.48 0 2.64-1.49 4.52l.38.39c-.2.48-.89.07-1.08.58s.36.73.49 1.12c-1.52 2.5-1.52 2.5-1.6 4l-2.29 1.9c-.4.84.49 1.19.57 1.74a3.55 3.55 0 0 0 -1.49 2.65 4.5 4.5 0 0 1 -.59 2c-.54 1.5-1.11 3-1.62 4.5-.08.26-.17.7.43.85a10.83 10.83 0 0 0 1.23-2.48 36.82 36.82 0 0 1 2.19-5.89c.94-1.88 1.23-4 2.64-5.74a5.71 5.71 0 0 0 .65-1.62 70.94 70.94 0 0 1 3.89-8.74c.78-1.55 1.94-3 2-4.86a1.82 1.82 0 0 0 -.12-.5z"/><path d="m1058 582.14c.1 1.1-1.14 2.06-.32 3.22.71.31.89-.42 1.43-.67a7.34 7.34 0 0 1 1.3-4.34c.78-1.42 2-2.53 2.57-4.1a20.88 20.88 0 0 1 2.57-4.11c.92-1.36 1.88-2.68 2.81-4a33.73 33.73 0 0 1 2.22-3.16c2-2.3 3.74-4.81 5.6-7.23 1-1.25 2.12-2.34 3.1-3.61 1.69-2.18 3.81-4 5.51-6.2 1.84-2.34 4.13-4.24 6-6.52 4.17-5.15 9.21-9.42 13.75-14.18.74-.78 1.54-1.5 2.28-2.29 1.63-1.72 3.17-3.63 5.52-4.42.9-.3.45-1.33 1.39-1.77a6.72 6.72 0 0 0 2.38-2 16.91 16.91 0 0 1 2.37-2.19c.92-.89 2-1.69 3-2.63 1-.14 2.08-.25 3.13-.44.18 0 .31-.34.44-.49-.21-.52-1 .09-1-1a7 7 0 0 1 3.11-2.45c.27.1.06.55.24.81s.61.39.15.79.25.48.29.79c-.57.59-1.37 0-2 .34-.79.76.58 1 .32 1.74a7.79 7.79 0 0 1 -2.11 1.12v1c-1.3 1.36-3.48 1.68-4.14 3.69-.31 1-1.66.72-2 1.88-.2.81-1.34 1-2 1.37-.5.11-.57-.41-1-.5-.61 1 .63 1.25.92 1.88l-1.35 1.35-.57-.52c-.51.63-1.52.55-1.86 1.32-.19.56.22.82.5 1.13l-.8.79-.57-.52a4.17 4.17 0 0 1 -1.55 2.65c-.67 0 0-1.14-1.29-1-.7.35-.14 2.32-1.73 2.33.19.28.37.55.68 1-1 .78-1.75 1.84-2.69 2.55s-1.58 2-2.73 2.76h-1.66c0 .93-1.12 1.32-1.24 2.12-.41 2.67-2.55 4-4.29 5.49-.64.56-1.45.9-1.75 1.79-.09.28-.19.45-.52.45-1.42 0-2.08.77-2.22 2.14a1.19 1.19 0 0 1 -1.24 1.13c-1.18 0-1.53 1-2 1.52 0 1 .85.41 1.09 1-.68.13-.66 1.62-1.88.82-.08 0-.7.41-.71.66a2.75 2.75 0 0 1 -1.2 2.24c.25 1.33-.78 2-1.56 2.61a16.34 16.34 0 0 0 -2.41 3.13 10.52 10.52 0 0 1 -3.31 3.2 6.32 6.32 0 0 0 -1 .77 3.22 3.22 0 0 1 -.73 2.63 54 54 0 0 0 -5.76 8.23 3 3 0 0 1 -2.53 1.51c-.67.07-.88.56-1.19.78.62 1.7-1.35 2.93-.55 4.4-.77.53-1.43.15-2.11.41-.4 1.45-.83 3-1.26 4.52.21.49.92 0 1.11.81-.14.65-1 1.26-.38 2.59l-1-.9c-.47.2 0 .94-.63 1s-1-.67-1.45-1l-2.16 1.09c-.71-.63-.31-1 .11-1.4-.32-.39-.52-.93-1.21-.87s-.11.84-.67 1.06c-1.28-1.42.45-3-.5-4.49l1.45-1-.57-.63c.41-.81.84-1.67 1.29-2.52h.26a.47.47 0 0 1 .51.54z"/><path d="m1058 582.14a.47.47 0 0 0 -.55-.55c-.15-2 1.14-3.37 2-4.89 1.39-2.53 3.1-4.89 4.66-7.32 1.15-1.8 2.65-3.46 3.94-5.21 1.75-2.38 3.78-4.54 5.45-7a43.83 43.83 0 0 1 3.51-4 54.64 54.64 0 0 1 4.91-5.64 9.28 9.28 0 0 0 2.57-3 2.3 2.3 0 0 1 1.64-1.25c.41-.08.52-1 1-1.45 4.35-4.68 8.72-9.32 13.27-13.81 2.8-2.77 5.85-5.29 8.71-8a82.49 82.49 0 0 1 7.22-6.12c1-.73 1.75-1.95 3.07-2.19.49.54.35 1-.08 1.22a34.8 34.8 0 0 0 -7.24 6.18c-.72.79-1.79 1.06-2.51 1.9a5 5 0 0 1 -2.23 1.81 2.79 2.79 0 0 0 -1.51 1.51c-.39 1-1.34 1.42-1.91 2.17a14.23 14.23 0 0 1 -2.06 1.85c-1 .89-1.46 2.33-2.89 2.8-.1 1.37-1.73 1.42-2.12 2.35-.46 1.09-1.52 1.4-2.19 2.2a14 14 0 0 1 -2 2.27 31.43 31.43 0 0 0 -2.33 2.29c-.77.77-1.55 1.53-2.31 2.31s-1.31 1.67-2 2.42c-1.49 1.65-2.68 3.54-4.34 5.06a42.83 42.83 0 0 0 -4.68 5.61 50.79 50.79 0 0 1 -4.65 5.65c-1.3 1.27-1.78 3.12-3.35 4.09-.1 1.35-1.46 1.85-2 3a5.37 5.37 0 0 1 -2.14 2.41c-.53.27-.53 1.72-1 1.89-1 .33-.7 1-1 1.53a5.83 5.83 0 0 1 -.71 1.35 22.41 22.41 0 0 0 -3.67 6.38c-.07.09-.33.11-.48.18z"/><path d="m1155.88 485.29c-.38-2.71-.22-4.87-1-6.6-2-4.39-2.22-4.23-7.26-7q-20.47-11.35-40.87-22.85c-2-1.11-3.77-2.33-3.76-5.09 0-1.35-.76-2.69-1.28-4.36l4.31.38-3.3-2.38a8.09 8.09 0 0 1 2.21-.78 4.18 4.18 0 0 1 2.36.53c3.24 2.27 5.92.91 9-.67 20.12-10.28 40.33-20.37 60.53-30.51 3.08-1.54 6.23-2.95 9.33-4.46 1.92-.93 3.69-.89 5.26.67.36.37.85.87.85 1.31 0 3.21-.26 6.43-.11 9.63a4.26 4.26 0 0 0 1.68 2.9c8.71 6 18.5 7.71 28.83 6.73 5.51-.53 11-1.48 16.47-2.16 3.11-.38 6.19-.28 8.92 1.59 2 1.37 3.34 2.86 2.31 5.67-.58 1.58-.17 3.49-.4 5.22-1 7.89-6.6 11.95-13.09 15.14-5 2.45-10.09 4.75-15.1 7.19q-17.48 8.5-34.89 17.09c-2.92 1.45-5.79 3-8.6 4.68a5.51 5.51 0 0 0 -2.24 2.25c-1 2.31-3 2.48-5.11 2.89a63.25 63.25 0 0 0 -7.19 1.87c-2.74.83-5.37 2.9-7.86 1.12zm50.68-43.63c-3-1.14-5.71-2-8.26-3.11-7.64-3.39-14.27-7.76-15.65-17-.27-1.78-1.49-1.47-2.7-1-5.74 2.44-11.59 4.67-17.21 7.37-10.19 4.87-20.26 10-30.35 15.08-1.73.88-3.31 2-5.47 3.39l5 3c9.36 5.57 18.7 11.17 28.12 16.65.87.51 2.61.71 3.27.2 9.24-7.18 19.51-12.61 29.83-18 4.34-2.17 8.73-4.24 13.42-6.58zm-7.74-18.23c2 2.47 7.15 4 11 3.35z"/><path d="m1286.07 963.68c-5.19-2.43-7.44-5.57-8.5-9.84-5.89-23.72 6.46-53 40.75-53.93 16.27-.46 29.2-6.18 36.94-21.45a88.64 88.64 0 0 1 9.8-15 11.65 11.65 0 0 1 7.51-4.07c1.25-.09 3.73 3.77 4 6 .44 3.76.67 8.28-1 11.44a203.61 203.61 0 0 1 -16.44 26.94c-5.8 7.78-14.2 11.51-24.08 13.85s-20 .39-29.81 3.85c-9.16 3.23-19.82 19-19.21 29 .25 4.1.04 8.17.04 13.21zm45.75-59.88c0-.32-.09-.64-.14-1l-25.17 2.8.17 1.21z"/><path d="m1309.55 994.39c-.25-3.37-1.36-6.95-.61-10.08 3.65-15.17 24.49-26.75 38.47-20 19 9.18 33 2 46.53-10.59a83.91 83.91 0 0 1 15.38-11c1.53-.89 6.09.29 6.74 1.69 1.41 3 2.9 8.53 1.38 10.06-9 9.07-18 18.55-28.58 25.45-11.42 7.45-24.64 10-38 2.93-6-3.15-12-6.37-19.4-4.46a27.51 27.51 0 0 0 -17.9 13.57 29.9 29.9 0 0 1 -1.8 2.54z"/><path d="m1308.18 1037.72c.17-3.93.3-6.7.42-9.46 4.28 6.5 8.48.65 12.3.41h-6.17c-1.46-2.82 6.82-1.61.65-5.74 7.8-1.32 14.86-3.82 20.5 2.11 2.45 2.57 7.53 4.07 7.24 10.35a8.48 8.48 0 0 1 3.15 2.46c7.47 12 19.13 12.93 31.45 12.35 6.71-.31 13.49-1.29 20.1-.64 5 .5 10 2.72 14.71 4.87 4.51 2.06 4.88 7 5 11.14 0 1.23-3.81 3.77-5.73 3.63-12.51-.86-25-2.3-37.56-3.14l8.33-.56.09-.89a20.32 20.32 0 0 1 -3.77-.62 39.15 39.15 0 0 1 -6.15-2.7c-2.15-1.2-4.12-2.71-6.63-3.06l2.37 4.81a36 36 0 0 1 -5.4 1.47c-1.44.14-3.35.33-4.31-.44-4.27-3.4-9.4-5.29-12.28-11-3.59-7.15-9.32-13.24-14.25-19.7a4.47 4.47 0 0 0 -3.07-1.82c-5.54.31-11.09.75-16.56 1.61-1.27.18-2.24 2.21-4.43 4.56zm91.74 16.71-.19-1.21h-38.68v1.21z"/><path d="m1634.87 981.2c1.28 2.76 3.76 4.89 1.44 7.94-.45.6.45.75.64 1.16 1.64 3.72 1.16 7.67 1.33 11.57.09 2-1.18 3.2-1.89 4.74-.53 1.14-1.3.81-1.91-.06-.67 1.05-2.35.53-2.82 1.72-.2 1 .45 1.41.95 1.92-.23 1.17-1.5.37-2 1.14-.92 1.27-2.43.25-3.56.66-2.6 1-6 .58-7 4.34a1.63 1.63 0 0 1 -1.77 1.14c-1.47.13-.56-1.43-1.23-1.94-.24-.29-.64-.24-.74.24-.79 3.7-.78 3.7-5.27 4.14-.23.64-.46 1.27-.64 1.8-1.49.89-1.85-1.05-3-.94-6.08 4-7.62 5.93-16.53 6l1 1.18c-.8.47-1.18 2.65-2.62.65a33.44 33.44 0 0 1 -3.47 2.11c-2.78 1.27-5.62 2.11-8.26-.17-1.38 1.09-1.11 3.3-3.11 3.49-.93.19-1.15-.75-2.1-1.18-1.16.62-2.88.77-3.53 2.69-.4 1.16-1.53.64-2.36.68s-1.2-1.41-2.36-1c-2.53 1.94-5 4.43-8.41 2.83l-3.15 3.15c-2.45 0-4.41-1.09-6.3.41-1.37 1.07-4-.75-5.48 1.28-3.11-.74-5.83 1.42-8.91 1.12a23.25 23.25 0 0 0 -11.82 2 2.26 2.26 0 0 1 -1 .19c-5.24-.63-10.23 1.57-15.51 1.21-3.68-.26-7.44-.61-11.13.89-1.58.64-4.35.86-5.3 0-1.7-1.63-3.85 1.83-4.85-.94-1.82 0-3.84.38-5.38-.29-1-.43-2.69-.41-3.08-1.79-.58-2.08-2.72-2.4-3.87-3.83.42-.88 1.07-1.58 1-2.76-.16-2.93.86-6.32-.3-8.68s.37-5.46-1.9-7.52c-.37-.34-.15-1.43 0-2.15.72-4.53-1.72-8.79-1.12-13.3-2.18-7-1.81-14.43-4.4-21.29.48-5.55-2.09-10.64-2.42-16.13-.12-2.14-.18-4.73-1-6.64-1-2.26 0-4.94-1.29-6.57-1.64-2.09.65-4.9-1.8-6.46.4-3.06-.39-6-1.21-8.86-1.35-4.66-.35-9.75-3-14.19-.65-1.09-.42-2.86-.21-4.26.25-1.6-1.2-2.39-1.26-4-.17-5.25-2.23-10.27-2.1-15.6-2.24-2.59-.17-6-1.57-8.7s-.51-5.71-.53-8.54c0-1.87-1.5-3.17-1.25-5.06a19.45 19.45 0 0 0 0-4.94c-.16-1.29 1.21-2.56.76-3.2a5.19 5.19 0 0 1 -.71-3c-4.44-2-6.3-5.65-6.64-10.38-.31-4.23.45-8.41 3.45-11.17 4.19-3.86 8-8.25 13.38-10.77a224.29 224.29 0 0 1 22.61-9.19c6.24-2.15 12.42-4.57 18.67-6.72 11.56-4 23.14-7.9 34.71-11.87 8-2.76 16-5.6 24-8.35 2.58-.88 5.25-1.5 7.83-2.36 4.5-1.52 8.94-3.25 13.47-4.68q9.26-2.91 18.64-5.48a11.9 11.9 0 0 0 4.59-2.23c2.1-1.7 2.18-1.6 4.89.51l-1.09 1.21c1.64 1 2.32.44 2.23-1.22.84-1 1.83-.31 2.64-.53.83.39.54 1.24.78 1.81 1.21.85 2.54.06 3.77.55a2.94 2.94 0 0 0 2.67 2.53v13.26c-.67.71-1.4 1.49-2.14 2.26 2.69 2.54 4.36 5.34 2.49 9.09 1.37.78-.65 2.17.68 3.3.63.54.36 2.5 0 3.7-.41 1.59 1.75 2.34 1 3.88-1 .71-1-.74-1.64-.6-1.72 2.37 1.28 1.67 1.76 2.6l-1 1.14c.35.4.67.78 1 1.15l-2 2c1.09 2.51 2.56 5 2 7.83-.5 2.64 1.36 4.69 1.26 7.26-.09 2.39-1 5 1 7.29.36.42 0 1.43.06 2.16.12 1.71-.86 3.27-.14 5.18a11 11 0 0 1 .07 5.45c-.38 2.27 1.42 3.9 1.28 6.16-.13 2-1.14 4.41 1 6.16.09.08 0 .36 0 .53-.79 5.25 1.4 10.28 1.16 15.51-.09 2.05-.42 4.11.9 6.23.89 1.43-.76 3.58 0 5.66a16.49 16.49 0 0 1 1.18 3.35c.14 1 .59 2.36-.29 3.12-1.58 1.36 1.43 2 .36 3.11 1.53 1.91 0 4.29 1 6.37s.78 4.5 1.31 6.63c1.34 5.42.94 11.11 2.89 16.39-1.38 2.64.64 5.11.41 7.8a14.78 14.78 0 0 0 1.48 8.09c.93 1.65-.79 2.72 0 3.47 1.1 1.07 0 2.5 1.07 3.47 1.26 1.13.36 2.75.6 4.14.14.85-.21 1.73.56 2.53 1.53 1.42 0 2.73-.6 4.27zm-13.42 12.74c-.31-1.43-2.3-1.64-1.9-3.26.48-2-1-3.26-1.49-4.91s-1.24-3.52-1.84-5.29c-2-5.7-1.42-12-4.32-17.48-.23-.43-.06-1.07-.09-1.61-.28-4.9-2.6-9.49-2.2-14.5-2.35-5.35-1.45-11.32-3.21-16.82-.66-2.09-.26-4.44-1.06-6.72s0-4.77-1.1-7.26.2-5.44-1-8.38c-1.08-2.57-.53-5.84-1.16-8.84-.75-3.59-.11-7.37-1.13-11.11-.81-3 0-6.26-1.08-9.46-.79-2.3-.44-5.13-.07-7.65s-1.6-4.69-1.22-7.26a30.73 30.73 0 0 0 0-4.4 40.85 40.85 0 0 1 0-5c.18-1.41-1.1-3.24-.64-3.67 2-1.9-.8-2.77-.61-4.33.37-3.08-.47-6.37.26-9.31.79-3.16-2.63-5.68-.68-8.7-.82-2.85-.54-5.78-.57-8.68 0-2 0-4 0-6.06a13.8 13.8 0 0 1 .72-6c-1.75-1.58.15-3.91-1.14-5.59-.89.33-1.37 1.89-2.7.68s-2.88-1-4.14.43c-.46.52-.9 1.18-1.75 1-1.4.17-.52-3.91-3.08-1.62 1.18.9 1.28 2.35 2 3.46-.34.13-.67.22-1 .36a21.79 21.79 0 0 1 -11.39 2.2c-2.57 2.54-2.57 2.54-3.15 5.23-1.18.61-2.83-.22-3.76 1.2l-.38-.4v-2.48c-1.15 2.8-2.88 1.47-4.22 2.28q-.15 1.27-.3 2.58c-.9.52-1.86.85-2.75 1.43a27.14 27.14 0 0 1 -5.1 2.25c-.69.27-1-1.69-2-.46-.68.77-1.82.8-2.69 1.51-2 1.63-4.56 2.31-6.74 3.54-2 1.12-4.17.32-6 1.57-4.53 3.12-9.91 4.09-14.88 6.11-.37-1-.59-1.67-.81-2.3-1.91.81-1.68 3.14-3.22 4.12a15.45 15.45 0 0 0 -7.35 2.42c-.19.11-.63-.19-1-.3-.89-1.16.68-1.72.65-2.75a1.4 1.4 0 0 0 -1.88.24c-.06 1.24-.13 2.48-.2 3.89h-5.77c-1.32.87-1.7 2.45-3.48 2.24-.5 0-.51-1.31-1.43-.79-.14.54-.11 1.23-.43 1.5-.7.57-13.89 4.7-14.54 4.7-.13 0-.26-.11-.39-.17-.22-.64-.45-1.28-.68-1.95-1.45.8.06 2.57-1.27 3.31-.86-1-.7-2.72-2.34-3.13-.45.74-1.6 1-1.48 2.35l1 1.5c-1.82 1.1-3.6-.42-5.24-.16a12.65 12.65 0 0 0 -5.41 2c-.59 1 .23 2-.62 2.79-.84-.13-1.19-1.39-2.94-.66a5.9 5.9 0 0 0 -.88 1.18c-.36.67 1.21 1.29.6 1.45-1.81.46-1.49 1.85-2.09 2.95a5.67 5.67 0 0 0 -.85 4c.34 1.43-1.39 2.39-.24 4.17.84 1.29.37 3.59.13 5.39-.7 5.27.88 10.35 1.37 15.49a74.83 74.83 0 0 1 .84 8.37c-.06 3.17.14 3.08 1 5.83.33 1.1 2 1.79 1.12 3.3-1.2 2.1.84 4.18.13 6.29 3.15 5.59 2.6 12.11 4.56 17.94.88 2.65.14 5.43 1.25 7.72 1.86 3.84 1.59 8.14 3.11 11.93 1 2.63.18 5.47 1.19 7.76 2.26 5.11 1.67 10.9 4.21 15.87-.58 3.08 1.17 5.83 1.24 8.9s1.65 6 1.92 9c.14 1.52 1.62 2.31 1.31 4-.26 1.37-.45 3.25.27 4.21 1.06 1.42.78 2.77.7 4.12-.09 1.53 1.52 2.34 1.2 4-.67 3.41 1.9 6.52 1.06 10 1.74 2.21.43 5 1.24 7.2 1 2.64.68 5.24 1 7.84.39 3 .88 6.16 4 8 .71-1.34 1.94-1.13 3-1 4.73.77 9.23-1 13.84-1.33 2-.15 4.1-1.22 6.15-.83 2.48.47 4.36-1.28 6.72-1.24 3.3 0 6.47-1 9.64-1.9 2.49-.75 5.32.39 7.73-1.29.45-.32.69 1.2 1.57.78.24-.68.46-1.32.69-2 .48.43 1.14 1.12 1.24 1 2.36-1.7 5.18-1.74 7.84-2.39 1-.24 1.58-1.21 2.72-.19 1 .88 1.86-.46 2.57-.75a58.6 58.6 0 0 1 15.3-4.18c1.79-.2 2.37-1.48 3.49-2.28a2.81 2.81 0 0 0 .39.38c.35.23.49.94 1.18.27 1.25-1.21 3.39-.54 4.58-2.31 1.05-1.54 3.66.45 4.8-1.6 6.14-1 11.5-4.13 17-6.72 6.49-3 13.14-5.86 17.61-9.34 2.67-3.13-1.06-5.1.94-7.42z"/></g></svg>