<svg viewBox="0 0 1892.92 2003.98" xmlns="http://www.w3.org/2000/svg"><g fill="#2c2c2c"><path d="m941.36 621.65c-1.11.7-2.15 1.75-3.36 2-20.87 5-41.62 10.66-62.68 14.72-26.83 5.17-53.88 9.15-80.87 13.41-6.84 1.08-13.83 1.17-20.73 2-4.35.51-8.62 1.75-13 2.2-11.35 1.17-22.73 2.16-34.1 3.06-2 .15-4-.76-6-.7-1.23 0-2.42 1.4-3.65 1.43-10.68.33-21.36.76-32 .64-14.52-.16-29.09-.06-43.53-1.34-22-2-43.87-5.42-62.65-18.49-12.3-8.56-23-18.36-25-34.6-1.49-11.74 1.6-22.23 7.79-31.81 4.67-7.24 10.36-13.81 15.43-20.8 1.4-1.94 2-4.43 3.32-6.45 2-3.13 4-6.48 6.61-9 15-14.35 31.6-26.59 49.1-37.6 12.95-8.15 26.09-16.09 39.63-23.21 43.18-22.79 88.13-41.41 135.75-53.11 31.82-7.85 64-13.8 96.71-15.78 19.74-1.19 39.61-.33 59.43-.24 16 .07 32.09.38 48.13.57 29.42.33 58.47 3.48 86.7 12.1 14.12 4.31 27.33 10.48 37.87 21.35 12.12 12.5 16 34.72 8.16 50.31a82.57 82.57 0 0 1 -27.22 31.24c-6.14 4.26-12.51 8.25-18.22 13-4.87 4.08-8.64 9.46-13.44 13.63-7.51 6.52-15.6 12.36-23.18 18.8-2.43 2.06-3.87 5.24-6 7.65-5.9 6.57-11.3 13.81-18.1 19.29-10.42 8.41-21.75 15.73-32.91 23.19-6 4-12.37 7.28-18.59 10.89-4.5.26-8.34 1.83-11 5.66-7.24 3.27-14.47 6.57-21.72 9.81-1.56.7-3.21 1.2-4.8 1.77l-17.51 7c-1.93 1.29-3.69 3-5.81 3.82a1040.7 1040.7 0 0 1 -130.32 40.22c-27.9 6.63-55.71 13.81-83.83 19.38-24.67 4.89-49.71 7.93-74.61 11.64-4 .59-8.08.32-12.11.59a15.51 15.51 0 0 1 -12-4.22 6.3 6.3 0 0 0 -1.36-.9c-1.28-.65-2.57-1.27-3.86-1.9l3.52-2.58a5.57 5.57 0 0 0 -.88-.72c-1.24-.63-2.5-1.21-3.76-1.81 1.43-.87 2.81-2.4 4.29-2.5 49.86-3.4 97.85-16.45 146-28.53 56.3-14.14 111.86-30.83 166-51.9 12.47-4.86 24.8-10.11 37-15.61a211.76 211.76 0 0 0 25.88-14c-4.38 1.48-8.74 3-13.15 4.43-9.29 2.94-18.63 5.75-27.91 8.72a15.81 15.81 0 0 0 -3.41 2.22zm-271-109.2c-4.87 2.19-9.92 4.06-14.58 6.62a263.64 263.64 0 0 0 -58.29 43.06c-6 5.92-10.62 13.28-16 19.9a46.62 46.62 0 0 0 -10.62 27.5c-.15 3 .54 6.83 2.38 8.94 4.21 4.83 10 7.61 16.82 9.32-4.64-8.47-6.6-16.9-1.75-25.09a75.67 75.67 0 0 1 12.4-15.7c14.48-14 31.89-23.84 49.6-33.06 27.78-14.46 56.95-25.58 86.79-35a609.22 609.22 0 0 1 118.46-25.12c14-1.48 28-2.62 42-3.55a394.09 394.09 0 0 1 85.18 3.63c15.36 2.32 30.48 5.48 45.08 11.26 14.87 5.89 28.35 12.9 35.62 28.11.88 1.85 1.9 2.48 3.92 1.43 4.82-2.52 9.82-4.71 14.58-7.33 3.89-2.12 8.36-4 11.13-7.18a42.25 42.25 0 0 0 10.64-25.41c.45-7.58-.79-15.18-5.18-21.14-5.26-7.16-10.73-14.78-19.11-18.61-4.05-1.85-5.64-7.35-11-6.82-.44 0-1-1.36-1.54-2.05-1.7-2.14-5.35-1.35-6.52-4.31a3.34 3.34 0 0 1 -.75.34c-1.14.18-2.44.74-3.42.4-11.72-4.06-23.33-8.44-35.56-10.91-11.22-2.27-22.37-3.59-33.91-2.85-7.17.45-14.46 2.85-21.82.19-1.42-.51-3.61 1.64-5.52 1.88-12.61 1.56-25.21 3.24-37.86 4.28-12.33 1-24.17 5.71-36.87 4.23-2.91-.34-6.81-.36-9.59 3.09-1.24 1.54-4.77-.5-7.67 1-3.11 1.59-7.31 1-11 1.41-.13 0-.23.16-.36.19-8.19 1.94-16.09 4.95-24.1 7.23-30.34 8.65-60.56 17.56-90 28.88-6.64 2.55-13.13 5.56-19.92 7.62-9.06 2.75-18.37 4.54-26.34 10.28-3 2.15-7 2.87-10.43 4.4a26.76 26.76 0 0 0 -3.73 2.43zm183.73-1.69 2.44-2.95a8 8 0 0 0 -2.66-.3 49.56 49.56 0 0 0 -4.67 1.75l5 1.37c-1 .78-2 2.1-3.16 2.23-2.14.26-4.46-.63-6.52-.2-3 .63-5.72 2.39-8.69 3-22.95 4.77-46 9.09-68.86 14.21-9 2-17.74 5.45-26.43 8.71-14.76 5.54-30.38 8.61-44.58 15.74-1.19.6-2.75.45-4 1-4.63 2.07-9.24 4.18-13.76 6.48-4.17 2.12-8.1 4.72-12.33 6.72s-8.45 3.21-12.6 5c-11.14 4.81-20.16 12.86-29.57 20.18-5.2 4-9.59 9.22-14 14.17a52.75 52.75 0 0 0 -5.88 8.78c-1.92 3.28-.27 5 3 5.38 9.67 1.1 19.37 3 29.06 3 45.49 0 90.42-6.41 135.26-13.14 25.09-3.76 50-8.39 75-13.07 41.25-7.76 82.18-16.95 122.5-28.7 28.37-8.28 56.43-17.46 83.78-28.73 3.48-1.43 3.12-2.74 1.07-5-6.83-7.54-15.76-12.32-24.89-15.57-11.72-4.17-24.25-6.06-36.4-9.06-.87-.21-1.44-1.49-2.26-2.12s-2.07-1.36-3.12-2l-1.24 1.51 3.37.62-.8 1.05c-2.16-.38-4.4-1.32-6.47-1-6.5.92-12.73-1.17-19.16-1.18-11 0-21.9-1-32.84-1.6-2.87-.16-5.74-.59-8.61-.61-2.57 0-5.15.36-7.72.57-1.92.16-3.83.32-5.74.52s-4.07 1.23-5.27.5c-3.53-2.18-6.76-.82-10 .06-2.83.76-5.43 2-7.15-1.75-.27-.6-1.56-.78-2.42-1-.1 0-.71.82-.61 1 1.72 3.32-1.2 1.79-2.21 2.06a36.2 36.2 0 0 1 -4.16.74c-2.38.35-4.77.7-7.16 1-2.9.38-6.24-.06-8.58 1.27-2.54 1.38-4.05.39-5.92-.64zm234.98-78.76c-.66.65-1.41 1.92-2 1.85-5.62-.72-11.21-1.69-16.82-2.52a21.74 21.74 0 0 0 -3.23 0 13 13 0 0 0 2.15 2.34c5 3.25 10.13 6.22 15 9.64 16.33 11.58 26.36 27.23 29.19 47.11.77 5.39.12 11 .12 17.57 11.85-8.78 21.51-17.92 27.06-30.39 2.71-6.08 3.21-12.92-1.22-18.75-8.93-11.78-22.45-16-35.5-20.93-5.01-1.92-11.14-1.04-14.75-5.92zm-153.22-20.62c-57.8-.83-149.35 12.42-254.49 65.88a417 417 0 0 0 -75.28 48.57c99.37-70.47 209.43-109.83 329.77-114.45zm-322.85 170.45.51.9c5.58-3.59 11.08-7.32 16.75-10.74 20.1-12.1 41-22.79 62.9-31.07 19.31-7.27 38.66-14.71 58.5-20.22 24.93-6.92 50.32-12.25 75.65-17.63 10.63-2.26 21.6-2.9 32.43-4.21 6.33-.77 12.67-1.42 19-2.09s12.79-1.3 19.18-1.94a64.32 64.32 0 0 0 -14.7-.47c-14.67 1.72-29.32 3.71-43.93 5.86-38.25 5.62-76 13.61-112.47 26.55-21.61 7.67-42.86 16.42-64 25.39a208.46 208.46 0 0 0 -49.82 29.67zm386.21 26c-.25-.38-.49-.77-.73-1.15-5 2.7-9.93 5.64-15.08 8.06-11.9 5.61-23.81 11.24-35.92 16.36-14.4 6.09-29 11.76-43.57 17.36-2.26.87-4.86 3.44-7.65.6a10.82 10.82 0 0 0 -1.46 1c-1.6 1.16-3 2.83-4.84 3.39q-41.15 12.94-82.37 25.62c-4 1.24-8.06 2.35-12.1 3.51a15.07 15.07 0 0 0 6.62-.67q43.85-13.23 87.66-26.58c2.89-.88 4.18-.67 3.76 2.77-.13 1.13.65 2.38 1 3.58a34.14 34.14 0 0 0 1.89-3.24c1.16-2.57.61-5.69 4.51-7.11q22.2-8.05 44.07-17c9.64-4 19-8.57 28.47-13 6.15-2.85 12.32-5.69 18.37-8.75a77.4 77.4 0 0 0 7.37-4.74zm-176.44.86.26 1.08c12.55-2.33 25.14-4.52 37.67-7 33.07-6.62 66-13.66 98.45-23.12 13.11-3.83 26.1-8.09 39.1-12.32 6.59-2.15 13.06-4.68 19.59-7 2.51-.9 5-1.78 7.54-2.67l-.45-1.33c-65.79 23.58-133.48 39.87-202.16 52.37zm17.81 18.39c54.81-8.75 108.71-20.94 160.28-42.08a1138.21 1138.21 0 0 1 -160.28 42.09zm208.54-211.82.05-1-38.27-1.91-.06 1.23zm-266.38 270.58.34 1.28 7.08-2.12-.25-.93z"/><path d="m1196.13 1147.74c3.08 6.64 9 11.76 3.46 19.08-1.08 1.43 1.09 1.79 1.52 2.78 4 8.93 2.79 18.42 3.22 27.78.22 4.71-2.83 7.7-4.54 11.38-1.29 2.75-3.12 1.94-4.6-.14-1.6 2.53-5.64 1.28-6.76 4.14-.49 2.38 1.08 3.39 2.28 4.6-.55 2.81-3.61.91-4.94 2.75-2.21 3-5.83.59-8.55 1.58-6.24 2.27-14.49 1.39-16.72 10.42a4 4 0 0 1 -4.26 2.75c-3.54.31-1.34-3.45-3-4.68-.58-.67-1.53-.57-1.77.58-1.91 8.89-1.87 8.9-12.66 10-.54 1.53-1.09 3.06-1.54 4.32-3.58 2.15-4.43-2.52-7.08-2.25-14.61 9.62-18.3 14.23-39.69 14.28l2.45 2.85c-1.9 1.12-2.82 6.37-6.28 1.56-2.77 1.7-5.41 3.71-8.34 5-6.67 3.06-13.49 5.09-19.83-.4-3.32 2.62-2.67 7.93-7.47 8.39-2.24.45-2.77-1.81-5-2.84-2.79 1.5-6.92 1.85-8.49 6.45-1 2.79-3.67 1.56-5.66 1.64-2.18.08-2.87-3.38-5.67-2.5-6.07 4.66-11.94 10.64-20.19 6.81l-7.56 7.57c-5.89-.06-10.6-2.63-15.15 1-3.27 2.59-9.52-1.78-13.16 3.07-7.45-1.77-14 3.42-21.38 2.71a56.23 56.23 0 0 0 -28.4 4.74 5 5 0 0 1 -2.44.46c-12.59-1.5-24.59 3.79-37.25 2.9-8.83-.62-17.88-1.45-26.75 2.16-3.78 1.54-10.44 2.06-12.73-.14-4.06-3.91-9.24 4.4-11.63-2.25-4.36-.1-9.21.92-12.92-.7-2.34-1-6.47-1-7.4-4.29-1.39-5-6.53-5.78-9.3-9.21 1-2.09 2.56-3.79 2.41-6.63-.39-7 2.07-15.18-.73-20.84-3-6 .89-13.1-4.57-18.07-.87-.79-.35-3.42-.08-5.14 1.72-10.88-4.14-21.11-2.68-31.95-5.26-16.69-4.36-34.65-10.58-51.13 1.16-13.32-5-25.57-5.8-38.75-.3-5.12-.44-11.34-2.54-15.93-2.5-5.45 0-11.88-3.09-15.79-3.94-5 1.57-11.76-4.33-15.51 1-7.36-.93-14.45-2.91-21.29-3.24-11.17-.84-23.42-7.14-34.06-1.56-2.63-1-6.89-.5-10.25.59-3.83-2.9-5.73-3-9.49-.41-12.61-5.38-24.69-5-37.47-5.39-6.22-.42-14.33-3.78-20.9s-1.23-13.71-1.28-20.52c0-4.49-3.6-7.61-3-12.13a46.69 46.69 0 0 0 0-11.87c-.39-3.12 2.9-6.15 1.82-7.7-1.77-2.51-1.55-4.8-1.71-7.3-10.67-4.88-15.12-13.57-15.95-24.92-.73-10.16 1.08-20.2 8.28-26.83 10.06-9.26 19.33-19.82 32.14-25.86a536.83 536.83 0 0 1 54.31-22.08c15-5.16 29.82-11 44.84-16.15 27.75-9.58 55.58-19 83.35-28.5 19.28-6.63 38.48-13.45 57.77-20 6.19-2.12 12.6-3.6 18.8-5.68 10.82-3.64 21.47-7.79 32.35-11.23q22.24-7 44.76-13.15a28.87 28.87 0 0 0 11-5.38c5-4.06 5.23-3.82 11.74 1.23-.83.93-1.67 1.85-2.63 2.91 3.94 2.39 5.58 1.05 5.37-2.93 2-2.31 4.38-.75 6.33-1.26 2 .92 1.3 3 1.88 4.34 2.9 2 6.09.15 9 1.31.59 3.31 2.68 5.47 6.42 6.09v31.85l-5.13 5.42c6.46 6.1 10.46 12.82 6 21.83 3.29 1.88-1.55 5.21 1.63 7.91 1.52 1.3.87 6 .11 8.91-1 3.8 4.2 5.62 2.49 9.32-2.3 1.69-2.32-1.8-4-1.46-4.11 5.69 3.08 4 4.23 6.26l-2.48 2.72 2.35 2.77-4.83 4.84c2.61 6 6.14 12 4.85 18.79-1.21 6.33 3.28 11.25 3 17.44-.22 5.74-2.47 12.1 2.27 17.51.87 1 0 3.42.15 5.17.29 4.12-2.06 7.87-.32 12.46 1.45 3.86.87 8.8.15 13.08-.91 5.45 3.42 9.37 3.08 14.81-.31 4.8-2.74 10.57 2.32 14.78.22.18.09.85 0 1.28-1.89 12.61 3.37 24.68 2.8 37.24-.22 4.92-1 9.87 2.15 15 2.13 3.44-1.82 8.59 0 13.59.95 2.61 2.48 5.28 2.84 8 .32 2.44 1.41 5.67-.7 7.5-3.79 3.27 3.43 4.72.85 7.47 3.69 4.59-.06 10.3 2.51 15.29s1.86 10.81 3.13 15.93c3.23 13 2.27 26.69 7 39.36-3.32 6.35 1.54 12.27 1 18.73s.45 13.94 3.54 19.42c2.24 4-1.9 6.54 0 8.35 2.67 2.56 0 6 2.58 8.34 3 2.71.88 6.6 1.44 9.93.34 2-.49 4.15 1.36 6.08 3.65 3.69-.03 6.8-1.46 10.54zm-32.24 30.61c-.74-3.45-5.51-3.94-4.56-7.84 1.15-4.74-2.48-7.84-3.56-11.79-1.19-4.32-3-8.46-4.44-12.71-4.68-13.67-3.41-28.83-10.37-42-.55-1-.14-2.57-.22-3.87-.67-11.77-6.24-22.8-5.28-34.82-5.65-12.85-3.49-27.19-7.69-40.41-1.6-5-.64-10.66-2.56-16.13s-.06-11.46-2.63-17.44.47-13.07-2.47-20.12c-2.58-6.18-1.27-14-2.77-21.24-1.8-8.62-.27-17.7-2.71-26.67-2-7.19 0-15-2.61-22.74-1.89-5.52-1.06-12.31-.17-18.35.94-6.33-3.84-11.28-2.93-17.45.51-3.45.09-7 .09-10.56 0-4-.38-8 .12-11.88.43-3.4-2.65-7.79-1.56-8.82 4.8-4.56-1.92-6.66-1.47-10.41.9-7.39-1.12-15.3.64-22.35 1.91-7.59-6.31-13.65-1.62-20.89-2-6.85-1.32-13.88-1.39-20.86 0-4.84 0-9.69 0-14.54s-.31-9.76 1.73-14.38c-4.2-3.78.37-9.39-2.73-13.41-2.14.78-3.31 4.54-6.49 1.62-3.54-3.25-6.91-2.51-10 1-1.09 1.27-2.16 2.83-4.19 2.43-3.37.42-1.26-9.39-7.39-3.89 2.83 2.18 3.07 5.66 4.8 8.32-.82.3-1.61.52-2.34.87a52.43 52.43 0 0 1 -27.35 5.28c-6.17 6.09-6.17 6.09-7.56 12.56-2.85 1.47-6.81-.55-9 2.88l-.91-1v-6c-2.78 6.73-6.92 3.54-10.14 5.48-.24 2-.49 4.12-.73 6.21-2.16 1.25-4.47 2-6.6 3.42-3.69 2.41-8.07 3.81-12.25 5.42-1.66.64-2.28-4.07-4.91-1.11-1.64 1.84-4.38 1.91-6.46 3.63-4.73 3.91-11 5.53-16.19 8.48-4.8 2.72-10 .78-14.37 3.78-10.87 7.51-23.79 9.82-35.74 14.67-.88-2.47-1.42-4-1.95-5.51-4.58 1.94-4 7.53-7.73 9.89-7.4.74-11.21 2.06-17.65 5.82-.46.27-1.5-.47-2.27-.74-2.14-2.77 1.62-4.11 1.55-6.6-1.59-.73-3.13-1-4.51.58-.16 3-.31 6-.49 9.35h-13.86c-3.16 2.08-4.09 5.89-8.36 5.38-1.18.09-1.22-3.16-3.42-1.9-.33 1.3-.26 3-1 3.59-1.72 1.52-33.4 11.42-34.96 11.42-.31 0-.62-.26-.94-.4-.53-1.53-1.07-3.06-1.63-4.68-3.49 1.92.15 6.17-3 8-2.08-2.35-1.68-6.55-5.63-7.51-1.07 1.78-3.83 2.39-3.56 5.62.63.95 1.48 2.26 2.36 3.6-4.37 2.65-8.64-1-12.59-.36-4.66.75-9.54 2.3-13 4.87-1.42 2.45.54 4.86-1.5 6.69-2-.31-2.85-3.32-7-1.59a14.76 14.76 0 0 0 -2.12 2.85c-.87 1.6 2.91 3.09 1.44 3.47-4.34 1.11-3.57 4.44-5 7.1-1.85 3.37-2.76 6.51-2 9.67.8 3.43-3.35 5.75-.58 10 2 3.1.88 8.62.3 13-1.68 12.65 2.12 24.85 3.3 37.2.63 6.6 2.13 13.34 2 20.1-.13 7.62.35 7.4 2.36 14 .8 2.63 4.8 4.28 2.7 7.93-2.9 5 2 10 .3 15.11 7.57 13.41 6.26 29.07 10.95 43.08 2.12 6.35.33 13 3 18.54 4.46 9.22 3.83 19.54 7.46 28.65 2.52 6.31.45 13.13 2.88 18.63 5.43 12.28 4 26.17 10.09 38.12-1.39 7.41 2.82 14 3 21.37s4 14.34 4.62 21.64c.33 3.66 3.88 5.54 3.13 9.48-.62 3.3-1.07 7.82.65 10.11 2.56 3.42 1.88 6.67 1.69 9.9-.21 3.68 3.66 5.62 2.89 9.51-1.63 8.18 4.56 15.67 2.55 24 4.18 5.3 1 12 3 17.29 2.32 6.35 1.65 12.57 2.45 18.83.93 7.28 2.11 14.78 9.48 19.11 1.71-3.21 4.66-2.71 7.1-2.32 11.35 1.84 22.15-2.31 33.24-3.19 4.74-.38 9.84-2.94 14.78-2 6 1.12 10.45-3.07 16.12-3 7.93.13 15.55-2.28 23.15-4.56 6-1.81 12.79.94 18.58-3.11 1.07-.75 1.66 2.9 3.76 1.89.57-1.64 1.1-3.18 1.65-4.78 1.17 1 2.74 2.69 3 2.52 5.69-4.09 12.45-4.18 18.85-5.75 2.34-.58 3.79-2.91 6.52-.45 2.34 2.1 4.47-1.11 6.18-1.8 11.91-4.77 24-8.64 36.75-10 4.28-.48 5.68-3.55 8.37-5.48a6.67 6.67 0 0 0 .93.91c.84.55 1.19 2.27 2.85.66 3-2.92 8.14-1.31 11-5.55 2.51-3.71 8.8 1.07 11.51-3.84 14.75-2.52 27.64-9.94 40.89-16.14 15.59-7.3 31.55-14.08 42.3-22.44 6.21-7.87-2.75-12.59 2.05-18.15z"/><path d="m1453.52 1077.77-3.51-3.48v-1.78c-2.1-2.3-4.16-4.5-6.16-6.75-1.69-1.89-3.2-4-5-5.76-2-2-3.72-4.22-5.83-6.15-1.89-1.75-4.44-3.07-5.61-5.44-1.37-2.75-4.37-3.59-6.1-5.91a77.7 77.7 0 0 0 -5.39-6l-.68.69c-6.16-5.16-12.22-10.5-20.14-13.91l-.68-1.78-1.27 1c-4.11-2.17-8.43-4.11-12.46-6.4-5-2.8-10.51-4.42-15.09-8a21 21 0 0 0 -8.22-3.62c-1.77-.4-1.42-1.54-2.08-2.46l-2 1.2-10-5.22 1.67-1.82c-1.06-1.5-1-3.92-4.79-4.54l4.41-1.54-3.3-3.06-2 1.24-3.09-1.74c.08-.5 0-1.13.22-1.23 1.51-.78 3.07-1.46 4.6-2.16.53-2.9-2.3-2.64-3.53-3.86l1-1-1.16-2.29 4.85-3.38c5.06-.38 10.94-.35 16.59-1.45 2.92-.57 6.15-.1 8.6-1.26 3-1.44 6.07-.07 8.73-1.12 2.92-1.16 6-.4 8.66-1.26 3-1 6-.34 8.68-1.19 6.39-2 13.31-1.75 19.43-4.77 2.72.75 5.44-1.63 8.16 0 2.81-1.77 6-2.22 9.21-2.87 4.48-.91 8.59-3.27 13.33-3.33 1.34 0 2.67-1.07 4.84-2l-16.68-4.83-2.61-3.26-4.37 1.26c-5.51-2.12-12.19-2.31-17-6.89-1.86 2.29-4.52.54-6.51 1.17-6.52-3.32-13.5-3.67-20.92-5.54-.08-.08-.77-.83-1.42-1.55-2.64-1-5.43.35-8.12-1.36-2-1.24-4.92-1.5-7.33-1.25a14.33 14.33 0 0 1 -7.95-1.59c-2.67-1.39-5.11-.46-7.83-1.18l-2.11-2.29c-6.06.56-12.2-.63-18.55-1.11l-2-2.58h-6.27l1.89-2.2c-3.14.3-4.93-1.37-6.6-3.7l1-1.79c-3.07-3.16-6.24-6.4-9.12-9.37.46-1.62.82-2.85 1.27-4.44l2.1-1v-1.44l-2.41-.81c-.27-3.61 1.87-6 4.3-8.2 2.84-.49 2.84-.49 4.78-4l-2.6 1.46c-.14-.55-.31-1.18-.53-2l3.89-.58-1-1.31 7-9.65h2.73l-1.45-1.7 2.28-.77v-2.59l1.94-1.95c1.34 1.11 3.49 1.33 3.82 3.55 2-2.73-.56-3.91-2.17-5.87l3.15-.28c1.52-2.51 3.55-4.67 3.65-8.13.08-2.88 2.94-4.31 5.81-5.48l-1.31-1.77 3.3-.64-.28-2c1.15-1.61 3.24-3.64 4.19-6.11 1.36-3.52 5.21-4.69 6.54-8.32a27.33 27.33 0 0 1 5.77-8.67c3.3-3.63 5.74-8.06 8.76-12.43h-3.44l-1.21 2.56-2.65-1.66a41.45 41.45 0 0 0 -4.79 2.86c-1.24 1-3.43 1.08-3.42 3.34-2.32-.61-3.56 1.11-4.92 2.44l-.92-.92c-5 4.85-11 8-17.37 10.69l-4.62 4.83h-2l-7.73 5.53c-.7-1.25-1.21-2.13-1.85-3.26l-4.93 2.8c.39 1.59.73 3 1.06 4.33l-11.26 7.51c.54-2.38 1.77-3 2.63-4.07-2.41-1.48-3 1.13-4.28 1.86l-2.46-1.8c-.29 1.15-.57 2.22-.85 3.28l-.94-.9 1.43 2.43-4.29 2.13-1.51-1.33-1.38 1.27.94 5-14.28 8.4-.5-.5 1.52-2.12-8.6 1.58-2.26-7.66-2.25-1.77c6.15-4 11-9 16.09-13.56 7-6.33 15.1-11.17 22.47-17 7.68-6 16.16-11.09 24.27-16.6 4.63-3.13 9.15-6.41 13.83-9.45 6.57-4.27 13.1-8.65 19.94-12.44 3-1.66 5.26-4.33 8.73-5.5 3-1 5.45-3.55 8.13-5.45 6.83-4.84 13.8-9.47 20.08-15.08 4.1-3.65 8.67-6.77 13.66-10.61h7.31c0 1.77.74 3.68-1.21 5.62l4.53.5c2.93 5 3.43 10.41 2.65 16.7l-3.82 2.74-3.75 1.5 1.7 4.71c-1.62 2.2-3.1 4.51-4.9 6.54-1.53 1.72-1.43 5-5.26 4.54l1.73 1.72c-2.84 1.09-2.13 5.56-6 5.62-.13 1.07-.24 2-.38 3.17l-1.67.39c-2.77 7.27-8 13-12.84 19.17 0 .44.22 1.19 0 1.64-1.09 1.81-2 4.42-3.6 5.08-2.65 1.07-2.5 5-6 4.76-.09 1.49-.17 2.86-.25 4.33l-2.25.82c0 .72-.08 1.5-.14 2.71l-5.14 4.88-1.56-3.31c-1 1.54-1.95 2.92-2.88 4.31.38.61.76 1.22 1.37 2.18a11.9 11.9 0 0 0 -2.69 1.69 8 8 0 0 0 -1.06 2.52l1.53 2.21-3.35 2-3-.87v2.48c-2.08 1.12-3.54 1.88-4.12 4.56-1 4.58-3.82 8.58-6 12.77-.33.64-1.53.83-2.31 1.22l.72.87c-1.71 2-3 4.1-4.89 5.57s-4.23 2.37-6.93 3.81c-.54 1.34.75 1.69 4.06 1l-3.73 3-3.06-1.53 1.6 4.11-1.2 1.62c.57.54 1.29 1.72 1.86 1.65 2.79-.34 4.89 1 6.93 2.09 4.48-1.17 8.41 1.3 12.56 1.77a70.66 70.66 0 0 1 13.57 2.65c4.19 1.32 8.43 2.79 12.68 3.18 4.51.41 8.64 2 13 2.76a77.68 77.68 0 0 1 13.15 3.62c4.13 1.46 8.49 1.89 12.64 3.43a80.72 80.72 0 0 0 13.13 3.68c4.38.81 8.26 2.83 12.5 3.88s8.42 2.29 12.55 3.66c4.3 1.42 8.49 3.13 12.76 4.64 4.1 1.46 8.23 2.83 12.69 4.35l3.91 3.92-1.1 1.23c-.18 2.62 2.07 2.59 3.28 3.28.49 2.63.94 5.09 1.44 7.75l-1 1.07c2.86 3.2.68 5.93-1.13 8.32s-4.25 4.38-6.56 6.7c-5.89.82-11 5.6-17.73 3.79-.19.91-.3 1.46-.49 2.4l-11.77 1.93-.41 1.35c-3.39.94-6.67 1.94-10 2.73-1.3.31-3 .68-4 .1a6.36 6.36 0 0 0 -7.17 0c-1.16.67-2.87.4-4.28 1.39h4.8c-.35.73-.5 1.27-.61 1.26-3.2-.3-6.16.92-9 1.88-2.42.81-5.14 1.24-6.9.25-2.28-1.28-4.25-.31-7.26-1.33l1.43 2c-3.62 2.33-5.14 3-8 1.57-2.28-1.12-4.18-.25-6.31.26l6 .69-10.65 2.26c9.66 4.36 16.92 10.45 24.74 15.67s11.67 8.69 16.58 14.93c.89 1.13 2.49 1.69 3.48 2.77 1.72 1.87 3.06 4.1 4.84 5.9s3.93 2.69 5.45 4.42c4 4.57 7.32 9.8 11.69 14.13.42.42.17 1.54.24 2.42.87.54 2.12.9 2.71 1.74a129 129 0 0 1 8.15 12.52c1.86 3.48 4 6.81 5.62 10.5s1.84 7.41 2.87 11 0 7.78-1.79 11.69c-4.31-3.72-8.38 1-12.73.73l6.15.48-.06 1h-4c-1.22 0-2.45 0-3.67 0s-2.89-.38-3.8 1.16c-.76-1.81-2.23.31-3-.49-1.37-1.43-2 1.6-3.47.38a6.29 6.29 0 0 0 -3.21-1 34.2 34.2 0 0 0 -4 0l-1-2.85c-.37 1.07-.61 1.76-.93 2.71l-2.67.23-3.82-3.81-2.58.14c-.32.86-.57 1.57-.93 2.54l-1.25-2.62h-1.35c-.37.79-.76 1.63-1.2 2.55-3.52-1.14-6.8-2.78-10.64-2.69-1.74 0-3.51-1.23-5.46-2l-.7.54-10.2-2.73 3-2.47a9.29 9.29 0 0 0 -5.25.65c-.15-.12-.32-.22-.46-.35-.3-.28-.58-.57-.92-.91-.27.29-.54.6-.82.88a4.87 4.87 0 0 1 -.47.39l-5.36-1.75v-5.38l-.83-.4-1.72 2.64c.25.44.68 1.22 1.49 2.71l-7.38-1.83c-.17-.74-.29-1.3-.41-1.87-3.09 2.09-5.36.39-7.66-1.39a8.22 8.22 0 0 0 -2.52-1.28c-2-.63-4-1.11-6.46-1.77l-.51-1.73-4.66.31c.35.29 0-.2-.46-.36-3.75-1.31-7.64-2.18-11.28-3.8-.34-.15-.79 0-1.17-.12-2.47-.62-3.58-3.8-6.47-3.55-2.56.22-4.16-1.8-6.32-2.49-2.33-.75-4.59-1.71-6.87-2.62a15.09 15.09 0 0 0 -2-1 14 14 0 0 0 -2.81 0l-1.84-2.44h-4.15c-2.45-2.57-4.89-5.21-9-4.92a1.47 1.47 0 0 1 -1.09-.28c-3.48-4-9-4-13.15-6.76-4-2.71-8.91-4.08-13.18-6.46-5.66-3.16-11.1-6.71-16.61-10.13a3.71 3.71 0 0 1 -1.29-1.29c-2.6-4.82-5.16-9.67-7.49-14.06.59-3 1.07-5.47 1.68-8.65l4.17-2.56c3.27 1.27 6.51 2.34 9.58 3.76a67.68 67.68 0 0 1 9 4.89c6.19 4.12 13.14 6.74 19.57 10.37 3.8 2.14 8.25 3.16 11.4 6.45 7.19 1.9 13.55 5.68 20.27 8.68 2.9 1.29 5.64 3 8.8 3.87 2.9.78 5.69 2 8.53 3 8.88 3.17 17.74 6.39 26.65 9.49q6.94 2.43 14 4.54c4.74 1.42 9.71 2.35 14.29 3.94 8 2.79 16.46 3.26 24.51 5.72 4.25 1.3 9 1.13 13.52 1.34s8.68-.05 14.38-.05z"/><path d="m939.14 1484c2-.68 3.38-3.63 6.44-2.12l-1 1.53c2.57.77 3.83 2.8 4.72 4.86 3.22 2.36 6.4 4.48 9.33 6.9 3.08 2.54 5.92 5.37 8.94 8.15l-1.32 1.91c4.92-.86 8.26 1.64 11.21 4.27l3.43-2.31c-.06-.46-.11-.92-.2-1.65l-4.17-.29c.1-3.37-2.27-4.89-5-6.31l-2.06 1.85a14.26 14.26 0 0 0 -6.64-8c-6.89-4-12.16-10-17.32-16-.86-1-1.08-2.55-2.07-5.07l-2.27 5.28 3.57 2-6.35 3.16-4.76-6.83 1-1.71c-4.07-4.59-4.69-10.81-6.84-16.6l1.17-3.14 3.1-.38c0-.75.07-1.55.14-3.22l-3.72 2-1.5-1.18c-.53-3.4 2.74-4.28 4.52-6.84l-4.27-.21c-1.29-3.89 1.46-7.31 1.59-11l4.85-1.12-3.87-1.44-.73-6.06 3 1.26c-.54-1.42-.88-2.33-1.53-4.07-.08.63-.11.27 0 0 2-5 3.75-10.12 6.09-15a67 67 0 0 1 12.38-17.85c4.29-4.39 9.44-7.93 13.53-12.59a16.12 16.12 0 0 1 3.26-2.23l1.36 1.07a7 7 0 0 1 4.69-4.75c7.52-2.72 7.54-2.68 10.74-1.65l7-3.76 2.24 3.4 2.17-1.77 16.19 1 .81 3.49c4.61-.84 7.88 2 11.67 5.11.66-1.6 1.09-2.67 1.69-4.11l4.08 1.92-2.77 1.33c.62 1.09 1 2.73 2 3.37a106.89 106.89 0 0 0 10.4 5.7 4.84 4.84 0 0 0 2.46.12c2.47 2.19 4.18 4.73 6.51 5.56 6.34 2.26 9.53 7.7 13.67 12.21a50.66 50.66 0 0 1 3.12 4.16l-2.17 1.09c.19.3.43.88.55.86 1.91-.35 3.73-.53 5.12 2.23l.49 4 6.52 4.17c-.29 1.72-.5 3-.74 4.45 5.06 1.67 6.76 6.68 9.35 11.08l-1.15 1.85 4.58 3.78.65 5.46c2.61.9 4.82 2 3.74 5.42l5.42 6.22 6-14.44-1.34-1.47c.33-1.73.67-3.53 1-5.3l1.51-.18c.07-.36.27-.95.18-1-1.81-1-1.45-2.83-1.49-4.31 0-1.93.5-3.86.6-5.81.09-1.78-.52-3.72 0-5.34.7-2.21-1.34-3.28-1.5-5.22-.18-2.17 1.09-4.29-.24-6.64-1.05-1.86-.86-4.46-1.1-6.74-.75-7.11-3.48-13.59-6.22-20.09-1.68-4-2.83-8.22-4.75-12.08a176.51 176.51 0 0 0 -9.93-18c-1.75-2.69-2-6.43-5.28-8.11-1-.52-.32-3-2.63-2.36-.39.1-1.11-1.63-1.85-2.34-1-1-2.23-1.67-3.24-2.61-1.92-1.77-3.76-3.63-6.09-5.9l5.42-.65c1.83 2.49 1.83 2.49 7.91 4.3l-.41-3.42c-4.18-1-6.71-4.92-10.53-7l1.75-2.1 5.17 1.81c-.14-.78 0-1.9-.47-2.25a45.37 45.37 0 0 0 -5.26-3l4.26-1.79 2.58-5c1.2 2.23 2.11 3.9 3 5.58l4-1.77 4.33 4.69c.62-1.52 1.07-2.59 1.54-3.74l3.7 3-1.61 3.92 4.08-1.57 1.7 1.94-1.87.63 5.33 6.2.82-.94 5.06 2.8c-.7 1.07-1.16 1.79-1.61 2.5l4.23 1.79.45 3.77c2.83 3.33 5.62 6.16 7.84 9.39 2 2.87 1.25 7.12 4.62 9.82l-2.65 3.18c.18 1 .39 2 .79 4.13.68-2.06 1-3 1.42-4.33 2.75 4.2 7.72 7.16 5.29 13.27l2.69 2.11-1.27 1.92c2.28 2.48 3.06 5.5 1 9l3.65 3.24c-.24 1.28-.47 2.54-.76 4.11.23.3 1.08.93 1.12 1.62s-.89 1.55-1 2.36a17.61 17.61 0 0 0 .35 3.44 11.94 11.94 0 0 1 .29 2.76 12.76 12.76 0 0 1 -1.19 2.79c4.74 3.23-.3 7.41 1.86 12.34l-5.69-3.12c-1 1.38.87 3.94 4.45 5.91l-2.14.74c-1.8 2.4 1.15 3.8 1.55 5.85l-2.4 3.24 1.61 1.44-2.37 1c-.78 4.72-1.59 9.79-2.65 14.81a5.24 5.24 0 0 1 -3.1 4c.2 1.91 1.09 4 .43 5.32-3.68 7.25-7.76 14.3-11.64 21.45-.61 1.12-.84 2.44-1.34 3.62-.59 1.42-1.28 2.8-2 4.36l2.63.51c0 3.57 1.92 7.19-.12 11 1 1.41 1.94 2.84 3 4.38-2.37 4.41 2 9.41-.35 13.76.63 1.49 1.2 2.86 1.84 4.36l-2.64 1.27c1.84 2.44 1.4 4.83.81 7.74-.55 2.74.09 5.72-2 8.13l1.31 1.2-1.17 2 1.25 1.92c-.36 3.1-.53 6.28-1.15 9.37-1.25 6.31-.84 12.93-3.87 18.94-1 2-1.08 4.59-1.35 6.94-1.57 13.75-7.11 26.12-13.08 38.37a87.5 87.5 0 0 1 -12.53 19.18c-1.65 1.91-3.57 3.83-4.44 6.1-.94 2.47-3.38 3.13-4.62 5.22-3.37 5.65-8.9 9.41-13.48 14a138.66 138.66 0 0 1 -14.5 12.18c-5.31 4-10.61 8.29-16.55 11.15-5.59 2.69-10.72 6.52-17 7.92-.76.17-1.31 1.42-2 1.53-4.2.59-7.65 3.22-11.65 4.2a83.74 83.74 0 0 1 -9.47 1.21l-4-3.65c.36-2.19.78-4.73 1.17-7l2.15-.76-.33-2.72a33.26 33.26 0 0 1 4.31-4.14 12.91 12.91 0 0 1 5.33-2.25c6.77-.82 11.79-5.34 17.56-8.16 4.2-2.06 8.14-4.72 12.37-6.84 2.28-1.13 4.13-3.15 6.11-4.85 4.47-3.82 9.34-7.15 13.56-11.3 2.33-2.28 5.2-4 7.4-6.42 4.77-5.19 9.51-10.45 13.83-16 9.12-11.73 14.79-25.28 19.5-39.22 1-3 1.07-6.38 1.37-9.61.41-4.31 2.58-8.25 2.48-12.66-.15-6.36 2.09-12.55 1.31-19-.29-2.34.33-4.78.44-7.18s-1.3-4.75.4-7.29c.58-.86-.43-3-1-4.4a16.09 16.09 0 0 1 -.77-11.61l-2-2.23c.45-.72.88-1.47 1.38-2.16a14.94 14.94 0 0 1 1.16-1.37l-4.36-3.18c-2.36 1.49-5.17 3.42-8.12 5.11s-6.16 3-9.1 4.79a38.15 38.15 0 0 1 -9.66 4.27l-1.42 1.81c-2.58.31-5.34.53-8 1-1.92.34-4.12-.3-5.63 1.87-.44.64-2.36.87-3.27.49-4.09-1.73-8 0-12 .11-3.55.07-7.1 0-10.09-3a15.76 15.76 0 0 1 -8.93-.57c-2-.77-4.65-.28-6.19-1.44-2-1.51-4-.61-5.73-1.19-3.71-1.23-8.31-1.19-10.07-6.28l-2.42 2.34-3.44-3.75-6.06-1.55c-3.1-2-7.94-4.13-11.16-7.68s-7.21-5.56-10.43-8.71c-3.4-3.3-6.36-7.12-9.52-10.69zm13.37-61.43-5 4.44 3.66 2.12-3.35 2.16 3 1 .21 1.74-3.91 1.19.71 5.88c-3.81 2.63-4.92 5.44-2.81 6.55.48-.5.87-1.19 1.44-1.41s1.25.1 2.57.27a32.74 32.74 0 0 0 -2.82 4.81c-.33.9.18 2.11.36 3.62l2.34-2.2c3.85 2.45 3.85 2.45 2.46 5.91.78 1.18 1.26 2.77 2.24 3.19 1.21.51 2.76.13 2.37 2.09l-3.25 2.58 8.56 5-1.38 2 4.31 2c.88 1.43 1.85 3 2.82 4.55l1.48-1.5 3.44 8 1.17-1.35 10.11 2.65c-2.5-5.17-7.92-5.24-10.94-8.57s-6.52-6.21-10.17-9.61l3.1-.38c2.55 2.23 4.93 3.71 6.45 5.81s4.53 2.49 5.85 4.67c1.48 2.45 4.24 2.54 6.26 3.94 3.34 2.33 8.14 2.66 9.73 7.12 3.93 0 7.54.63 10.72 3.14l5.31-.63 1.24 2.43c1.59-1.49 3.11-2.66 5.25-1a12 12 0 0 0 10.06 2c2.74-.57 5.26.36 7.89.47 2 .08 4-.92 5.83.71.14.13.77-.28 1.17-.44.19-.83.37-1.66.56-2.49a10 10 0 0 0 2.45 1 7.33 7.33 0 0 0 2.74-.31c.89-.24 1.68-.9 2.56-1.05s1.83.57 2.39.25a55.88 55.88 0 0 1 10.32-4 26.18 26.18 0 0 0 11.21-7.39c-1.37-5.07-4.5-8.45-6-12.92-1.55-4.74-5.43-8.67-7.89-13.17-4.66-8.54-12.46-14.9-16.35-24-.3-.69-1.45-1-2.2-1.49a7.6 7.6 0 0 1 -1.88-1.25 115.38 115.38 0 0 0 -20.67-19.31 71.83 71.83 0 0 0 -13.27-7.4c-2.56-1.18-5.58-1.45-7.78-3-3.92-2.76-8.39-2.48-12.58-2.72a51.07 51.07 0 0 0 -13.76 1.57 26.76 26.76 0 0 0 -12.32 6.81c-1 1-1.15 2.87-2.1 4a20.26 20.26 0 0 1 -3.81 2.82c.68.66 1.11 1.08 1.63 1.57l-2.35 3.18z"/><path d="m479.44 983.43 4.29 2.45.46 1.71c2.64 1.67 5.2 3.26 7.71 4.91 2.13 1.39 4.13 3 6.32 4.26 2.44 1.41 4.69 3.1 7.22 4.42 2.29 1.19 5.09 1.8 6.85 3.78 2 2.3 5.15 2.33 7.42 4.12a77.72 77.72 0 0 0 6.76 4.34l.48-.84c7.29 3.38 14.54 6.94 23.07 8.18.13.18.58.78 1.12 1.53l1-1.31c4.54 1 9.21 1.77 13.7 2.92 5.51 1.42 11.3 1.53 16.66 3.81a21.17 21.17 0 0 0 8.88 1.35c1.81-.08 1.77 1.11 2.65 1.83l1.58-1.67 11.09 2.5-1.13 2.19c1.42 1.17 2 3.52 5.8 3.14l-3.85 2.64 4 2.09 1.64-1.74 3.44.88c.05.51.28 1.09.11 1.25-1.25 1.14-2.58 2.2-3.88 3.28.24 2.94 2.91 1.94 4.42 2.8l-.69 1.2 1.71 1.92-3.8 4.52c-4.78 1.69-10.46 3.2-15.63 5.73-2.67 1.31-5.91 1.71-8 3.46-2.56 2.18-5.85 1.65-8.14 3.36-2.52 1.88-5.67 1.94-8 3.48-2.6 1.69-5.7 1.89-8.07 3.42-5.63 3.63-12.4 5.16-17.51 9.66-2.82 0-4.82 3-7.88 2.13-2.25 2.45-5.24 3.73-8.14 5.18-4.09 2-7.44 5.4-12 6.69-1.29.37-2.3 1.73-4.15 3.2l17.36.31 3.37 2.47 3.89-2.37c5.88.62 12.37-.95 18.23 2.21 1.2-2.69 4.23-1.7 6-2.83 7.16 1.51 14 0 21.64-.11l1.77 1.13c2.81.28 5.16-1.76 8.2-.81 2.21.69 5.14.17 7.4-.7a14.31 14.31 0 0 1 8.09-.54c2.94.64 5-.89 7.87-.91l2.63 1.67c5.71-2.12 11.94-2.58 18.2-3.77l2.56 2 6.06-1.64-1.25 2.63c3-1.12 5.12 0 7.34 1.85-.17.63-.36 1.36-.52 2l11.25 6.66c0 1.68 0 3-.07 4.62l-1.76 1.53.38 1.38 2.54.16c1.2 3.41-.24 6.28-2 9-2.62 1.21-2.62 1.21-3.56 5.14l2.13-2.09 1 1.84-3.6 1.58 1.33 1-4.22 11.13-2.63.71 1.84 1.27-2 1.33.68 2.51-1.37 2.38c-1.58-.72-3.72-.37-4.61-2.43-1.17 3.14 1.56 3.63 3.62 5.11l-3 1.08c-.81 2.83-2.2 5.45-1.39 8.81.67 2.8-1.72 4.92-4.19 6.81l1.74 1.36-3 1.48c.12.27.29.67.79 1.85-.68 1.85-2.17 4.36-2.45 7-.39 3.75-3.8 5.89-4.13 9.73a27.62 27.62 0 0 1 -3.31 9.88c-2.24 4.37-3.45 9.28-5.21 14.29l3.23-.87c.12-.64.28-1.55.5-2.79l3 .91a42.19 42.19 0 0 0 3.87-4c1-1.25 3-1.93 2.44-4.11 2.39 0 3.15-2 4.11-3.64l1.13.65c3.55-6 8.58-10.59 14-14.85q1.61-3 3.19-5.87l2-.53 6-7.35 2.64 2.66 4-4c-.79-1.44-1.47-2.68-2.15-3.9l8.85-10.22c.1 2.43-.93 3.35-1.48 4.61 2.72.8 2.56-1.86 3.64-2.91l2.85 1.09c0-1.18 0-2.28 0-3.39l1.14.63-2-2 3.59-3.18 1.8.89 1-1.58-2.23-4.63 11.59-11.84.62.35c-.21.55-.41 1.1-.92 2.44l7.89-3.77c1.28 2.09 2.46 4 4.18 6.81l2.63 1.12c-4.9 5.46-8.26 11.55-12 17.29-5.15 8-11.67 14.72-17.26 22.25-5.83 7.85-12.71 14.93-19.1 22.36-3.64 4.23-7.16 8.58-10.88 12.74-5.23 5.84-10.39 11.77-16 17.21-2.47 2.39-3.94 5.55-7 7.59-2.61 1.75-4.33 4.85-6.42 7.38-5.34 6.45-10.86 12.74-15.46 19.8-3 4.59-6.59 8.79-10.41 13.81l-7 1.91c-.52-1.7-1.68-3.36-.31-5.74l-4.5.69c-4.13-4.07-6-9.15-6.92-15.42l3-3.65 3.23-2.42-2.87-4.11c1-2.54 1.81-5.16 3-7.59 1-2.06.09-5.16 3.9-5.75l-2.12-1.22c2.45-1.79.6-5.92 4.33-7-.16-1.06-.3-2-.46-3.16l1.51-.81c.77-7.74 4.32-14.65 7.4-21.86-.12-.43-.54-1.09-.39-1.6.58-2 .75-4.77 2.15-5.84 2.28-1.72 1.11-5.51 4.55-6.16-.3-1.46-.58-2.8-.89-4.24l2-1.38c-.15-.71-.31-1.47-.57-2.66l3.69-6 2.36 2.78c.59-1.75 1.13-3.33 1.66-4.91l-1.89-1.75a11.63 11.63 0 0 0 2.16-2.33 8.23 8.23 0 0 0 .36-2.71l-2-1.73 2.72-2.78h3.16l-.64-2.39c1.72-1.62 2.93-2.74 2.78-5.48-.25-4.67 1.46-9.28 2.46-13.89.16-.7 1.27-1.2 1.92-1.79l-.92-.65c1.13-2.38 1.87-4.75 3.26-6.65s3.47-3.39 5.7-5.48c.17-1.44-1.16-1.44-4.18.08l2.81-3.86 3.36.68-2.62-3.56c.18-.46.4-1 .74-1.87-.69-.37-1.7-1.33-2.23-1.11-2.6 1.06-5 .32-7.24-.21-4 2.3-8.45.94-12.58 1.58a71 71 0 0 1 -13.79 1c-4.39-.18-8.87-.49-13.07.24-4.46.78-8.87.29-13.29.73a77.69 77.69 0 0 1 -13.64-.06c-4.37-.34-8.68.39-13.1 0a81.62 81.62 0 0 0 -13.63-.12c-4.44.36-8.71-.57-13.08-.48s-8.72 0-13.07-.26c-4.52-.25-9-.8-13.53-1.15-4.33-.34-8.68-.58-13.39-.89l-4.79-2.76.73-1.47c-.5-2.58-2.66-2-4-2.31-1.15-2.42-2.23-4.67-3.4-7.11l.68-1.3c-3.6-2.34-2.21-5.54-1.08-8.32s3-5.34 4.59-8.18c5.47-2.33 9.16-8.28 16.12-8.29-.06-.92-.09-1.49-.15-2.44l10.86-4.94c0-.14 0-.87 0-1.41 3-1.79 5.94-3.61 8.95-5.24 1.18-.64 2.75-1.45 3.86-1.15a6.37 6.37 0 0 0 6.92-1.87c.94-1 2.67-1.13 3.77-2.46l-4.63 1.26c.14-.81.16-1.36.26-1.38 3.17-.55 5.7-2.5 8.23-4.18 2.13-1.41 4.64-2.54 6.6-2 2.54.64 4.19-.81 7.35-.61l-1.9-1.56c2.89-3.19 4.19-4.21 7.3-3.6 2.5.49 4.1-.85 6-1.9l-6 .92 9.69-5c-10.47-1.69-19-5.66-28-8.66s-13.53-5.35-19.9-10.09c-1.16-.86-2.85-1-4.09-1.76-2.14-1.37-4-3.17-6.21-4.44-2-1.17-4.49-1.57-6.41-2.84-5.1-3.36-9.62-7.55-15-10.59-.52-.3-.57-1.44-.87-2.27-1-.3-2.28-.32-3.06-1a127.18 127.18 0 0 1 -11.15-10c-2.7-2.87-5.63-5.53-8.16-8.67s-3.71-6.67-5.65-9.9-2.06-7.49-1.32-11.74c5.13 2.46 7.83-3.15 12.1-4l-6.06 1.14-.2-1 3.91-1.06c1.18-.32 2.37-.62 3.54-1s2.88-.39 3.37-2.11c1.2 1.54 2.07-.88 3-.31 1.7 1 1.54-2.08 3.25-1.27a6.36 6.36 0 0 0 3.37.14 33.8 33.8 0 0 0 3.91-1c.61.89 1 1.51 1.71 2.49.07-1.14.12-1.86.19-2.86l2.51-.92 4.68 2.69 2.46-.81c.08-.92.14-1.67.23-2.7l1.89 2.2 1.3-.35c.15-.86.32-1.77.5-2.78 3.69.19 7.28.91 11-.18 1.67-.49 3.71.27 5.79.49l.53-.7h10.56c-1 1.38-1.66 2.31-2.28 3.17a9.21 9.21 0 0 0 4.9-2 3.6 3.6 0 0 1 .54.22c.36.19.71.4 1.12.64.19-.36.36-.72.56-1.07.1-.17.23-.32.35-.5l5.63.29 1.41 5.2.9.17c.29-.88.57-1.76 1-3l-2.27-2.17 7.61-.16.88 1.7c2.43-2.82 5.06-1.78 7.76-.66a8.11 8.11 0 0 0 2.76.58c2.09.08 4.18 0 6.7 0l.94 1.54 4.42-1.52c-.41-.19 0 .19.54.23 4 .29 7.94.11 11.88.73.37.05.77-.18 1.16-.19 2.55-.05 4.44 2.73 7.17 1.73 2.41-.88 4.49.66 6.76.76 2.44.11 4.87.45 7.31.73a14.72 14.72 0 0 0 2.22.43 15.15 15.15 0 0 0 2.72-.7l2.41 1.87 4-1.08c3 1.84 6.08 3.75 9.92 2.41a1.5 1.5 0 0 1 1.12 0c4.4 2.91 9.71 1.48 14.46 3.1 4.59 1.57 9.67 1.61 14.42 2.8 6.28 1.57 12.46 3.58 18.67 5.44a3.73 3.73 0 0 1 1.58.91c3.78 4 7.51 8 10.9 11.61.22 3.06.4 5.57.64 8.8-.79.84-2.09 2.22-3.36 3.55-3.49-.36-6.89-.55-10.22-1.12a68.94 68.94 0 0 1 -10-2.38c-7-2.36-14.44-3.08-21.59-4.9-4.23-1.08-8.79-.9-12.69-3.25-7.44 0-14.57-2-21.83-3.09-3.14-.49-6.24-1.47-9.5-1.45-3 0-6-.44-9-.68-9.4-.75-18.79-1.54-28.2-2.22q-7.35-.52-14.72-.72c-5-.12-10 .27-14.83-.07-8.47-.59-16.74 1.16-25.15.88-4.44-.15-9 1.26-13.4 2.24s-8.52 2.26-14.02 3.75z"/></g></svg>