<svg xmlns="http://www.w3.org/2000/svg" viewBox="0 0 1892.92 2003.98">
  <defs/>
  <g fill="#2c2c2c">
    <path d="M1178.21 1410.63l-2.09-.76c0 .59.05 1.05.08 1.57-3 1.51-6.06 3-9 4.62-4 2.2-7.79 4.64-12.07 6.45-3.63 1.53-7 4.3-10.87 5-3.66.68-5.75 4.34-9.58 4.18-2.67 3-6.89 2.55-10.09 4.44-.94.56-2 .64-2.82 1.7s-1.08.88-4.26.54c-.28.31-.66.71-1 1.13s-.5.94-.67.92c-4.11-.63-6.09 4-9.93 4-.37 0-.92-.22-1.07-.05-4.13 4.68-10.69 4.75-15.46 8.15-1.79 1.27-4 .76-5.8 1.9-.76.48-1.61.83-2.53 1.29a13.38 13.38 0 00-3-1 18.44 18.44 0 00-3.79.41c.6-3.4 3.17-5.23 3.47-8.25l-4 5.34-1.49-.51c2.18-7.53 2-7.75 9.89-13 5.56-3.72 10.66-8.33 17.31-10.25 3.79-3.58 8.8-5.08 13.21-7.59 6-3.42 12.38-6.23 18.47-9.52 7.66-4.15 15.24-8.46 22.8-12.8 7.08-4 13.82-8.61 20.54-13.26 4.42-3.07 9.11-5.91 13.61-8.94s8.92-6.22 13.34-9.38c3.25-2.31 6.83-4.31 9.58-7.12 2.92-3 7-3.9 9.87-6.81 1.79-1.84 4.45-2.79 5.58-5.34.15-.36.36-.84.66-1 5-1.88 8.07-6.18 12.12-9.25 4.2-3.19 8.19-6.67 12.19-10.12 2.21-1.91 4.15-4.09 6.65-5.7 3-1.91 4.81-5 7.62-7.18a105.92 105.92 0 009.77-8.79c3-3 6.11-5.9 9.25-8.73 6.13-5.53 11.5-11.88 18.16-16.84 1.76-1.31 2.62-3.42 4.62-4.81 2.69-1.88 4.07-5.84 6.86-7.31 3.08-1.63 3.27-5.78 6.86-6.41 3.25-5.14 8.53-8.46 12-13.46 1-1.48 2.62-2.57 3.93-3.85s2.91-2.84 4.31-4.31 1.58-3.67 4-3.81c1.37-2.79 4-4.47 5.86-6.82 2.31-3 5.91-4.91 7.36-8.62 3.18-.45 3.13-4.72 6.28-5.32.55-.11.91-1.2 1.36-1.83 1.32-1.82 2.4-3.7 4.58-4.91 1.87-1 2-3.86 4.63-4.87 1.49-.57 2.25-3 3.29-4.59l3-.59c0-3.88 2.67-5.27 5.79-6.3a4.66 4.66 0 012.55-5.29c2-1 2.75-2.61 3.8-4.11 3.07-4.39 7.42-7.72 10-12.52.67-1.23 2.7-1.73 4.07-2.53a15.29 15.29 0 01.59-2.48c.93-2.28 3.24-3.49 4.22-6 .81-2.05 3-3.78 5-5 1.1-.68.66-1.46 1-1.9 2-2.47 2.55-6.11 6.12-7.41.89-.32 1.35-1.85 2-2.83 4.71-7 9.39-14 14.13-21a17.87 17.87 0 013.59-4.41c1.52-1.12.41-3.16 2.06-4.11a18.14 18.14 0 002.92-2.72 26.18 26.18 0 011.85-4.21c3.41-5.26 6.69-10.64 10.53-15.58 4.79-6.14 7.64-13.36 11.63-19.93 2.88-4.74 4-10.53 6.1-16.27l3.9-2.82c0-.27-.12-.82-.21-1.5l5.27-.53-3.25 9.13 3.46-.09 3.38-5 3.19-.62c.08 1.68.16 3.36.26 5.3l2.27-1.59c3.1 1.23 3.53 4.09 4.12 6.83l1.22-.17c.37 2 .73 3.84 1.16 6.1-1.18 1.08-3.95 1.55-3.76 4.47l2.15-.29-4.88 5.2.63.68 2.72-2.51c-.18 1.64-.33 3-.53 4.7l-2.66-.37-2.51 3.3 3.81.74c-.8 1.19-1.26 2-1.83 2.7-4.11 5.14-5.81 11.65-9.83 16.9s-7.36 11.11-11.35 16.44c-.84 1.14.5 3.08-1.76 3.56-.7.15-.94 2.45-1.65 2.61-2.55.57-.65 2.65-1.59 3.85-1.64 2.08-4 3.25-5.49 5.63-4.43 7.17-9.22 14.11-14.06 21-1.82 2.6-4.26 4.76-6.2 7.29s-3.69 5.41-5.7 8c1.56-4.73 8-14 11.45-17.88l-2.12 1.74-.27-1.12c-2 2.92-4.1 5.74-5.85 8.78-2.52 4.35-7.19 6.94-9.28 11.6-2.28.59-2.77 3.33-4.39 4.14-2.59 1.28-1.56 4.52-4.26 5.81-2 1-3.28 3.6-5.23 5.9l-2 .6-.44-.73 11.18-13.34c0-.23-.13-1-.22-1.75l-2.41.47c0 .71.07 1.42.14 3l-3.74-1.37.18 1.59-.26 1.93-1.8-.74-5.6 5.11 1.58 2.66-5.16 3.75c0 .67-.07 1.39-.13 2.4l-5.37.41c.17.9.25 1.28.36 1.84l-3.06 1.77c-.14-.81-.28-1.58-.43-2.42l1.8-.48c.18-1.09.38-2.32.61-3.69l2.39.63c.46-1.68.91-3.35 1.41-5.19 2.8-.88 3.2-4.2 5.4-6.29l3.08-.69c-.86-2.55 1.74-3.69 2.36-6l-1.9-1.45c.07 1.06.11 1.54.17 2.43H1415c.32 1.41.54 2.36.78 3.45l-3.7 2c.44 2.37-1.29 3.23-3.14 4.29a29.83 29.83 0 00-4.25 3.68l-3.7-.28 2.18 3.27-3.66 4c-1.25 1.38-2.27 3.33-3.83 4-2.1.88-.37 3.47-2.72 4.23-1.57.51-2.68 2.47-4 3.76l1.71 4.28 2.66-4.86 1.45-.34.5 1.52 1.45-.14c.06.29.3.74.17.9-1.06 1.36-2.28 2.59-3.27 4s-1.59 3.91-3 4.55c-2.11 1-2.34 3-3.93 4.31l-3.53.78c0 1.07.07 2.16.12 3.83 5.69-3.34 9.34-8.3 14.29-13.17a17.66 17.66 0 01-4 6.82c-.9 1-2.47 1.48-3.28 2.9-.64 1.13-2.52 2.08-2.44 3 .2 2.33-2 1.48-2.6 2.48a31.59 31.59 0 01-2.65 3.88c-1.2 1.39-2.7 2.51-3.93 3.87a31.49 31.49 0 01-3.54 3.48c-2.14 1.74-3.35 4.6-4.21 7.52 1.22-1.54 2.45-3.07 4.22-5.27-1.06 5.85-6.14 7.64-8.19 11.63a18.3 18.3 0 00-4.34.27c-.68.2-1.06 1.44-2.26 3.23l3.28-1.9c.05.36.26.83.11 1-1.52 1.87-2.29 4.24-4.88 5.43-1.91.88-2.27 3.6-4.53 5-2.6 1.56-4.22 4.69-6.49 6.91s-4.33 4.49-6.71 6.55c-3.48 3-6.43 6.64-9.9 9.68s-5.75 7.26-10 9.44c-2.15 1.1-3 3.57-5.09 5.07-4.45 3.17-8.18 7.32-12.29 11-2.19 2-4.7 3.51-6.49 6a8.13 8.13 0 01-8.1 3.63l1.32 2.28-1.62.42c.07.52.15 1.07.14 1.06-1.79 1.4-3.81 2.34-4.8 3.92-1.37 2.16-3.66 2.46-6 4.83-2 4.91-8.94 6.51-12.55 11.82l-3.87-1.83c.82 1.67 1.32 2.66 1.45 2.93a36.17 36.17 0 01-11.58 8.22l-1.35-.91a10 10 0 01-.37 2.46 18.23 18.23 0 01-1.7 2.6l-2.91.36-2.89 4.3-2.46-.63c0 .69 0 1.34-.06 2.41l-4.39 1.1-3.4-1.79c.86 2.08 1.41 3.43 2 4.85-3.12 2.14-6.61 3.65-9.39 6.51-2.45 2.53-6.3 3.38-9.17 5.8-1.58 1.34-4.23 1.5-5.21 3.9-2.3-.09-3.66 1.6-5.35 2.75-2.11 1.42-3.36 4.34-6.07 4.51s-3.6 3.68-6.5 3.07c-1.58 1.86-4.08 2.54-5.74 4.06a14.17 14.17 0 01-6.25 3.45c-.88.18-1.43 1.23-2.34 2.17zm180.93-181.34c-.7 1.5-.92 3.13-1.8 3.66-2.94 1.76-4.85 4.51-7.18 6.83-2.86 2.85-5.05 6.49-7.93 9.11-4 3.6-7.69 7.48-11.24 11.34s-8 7.37-11.22 11.76c-1.46 2-3.92 3.19-5.89 4.8-.21.17-.14.69-.22 1.14l1.48.86c2.17-2.41 3.93-5.33 6.51-7 2.31-1.47 3-4.35 4.95-5.25 2.38-1.1 2.68-4 4.76-4.6 2.45-.73 2.25-3.62 4.33-4.35 2.49-.87 2.61-3.91 4.47-5 2.61-1.58 3.41-5.07 5.71-6 3.12-1.33 3-5.58 6.51-6 1.16-3 4-4.45 6-6.74 2.19-2.57 4.06-5.6 6.71-7.57 2.26-1.68 3.23-4.53 5.31-5.69s2.36-3.17 3.92-3.92c2.1-1 2.92-2.87 4.29-4.38 1.15-1.26 2.37-2.48 3.64-3.65 2.33-2.15 5-4.06 6.39-7.1.32-.71.83-1.85 1.3-1.87 2.94-.15 2.71-3.57 4.91-4.48 2.51-1 3.09-3.81 4.69-5.69.5-.59.77-1.71 1.34-1.86 2.13-.57 2.55-2.93 4-3.77 2-1.15 1.68-3.33 3-4.69 1.93-2 3.79-4.14 5.63-6.25 1.58-1.8 3.1-3.65 4.84-5.7 0-.11-.07-.63-.11-.93l3.49-1.92c.36-2.72 1.47-4.55 3.67-5.63 2.43-1.19 2.27-3.7 2.89-5.75.71-2.35 4.55-1.86 4.22-5.49-.17-1.82 2-3.85 3.26-6a16.79 16.79 0 00-8 8.27c-1.65 3.51-6 4.9-6.71 9-2.61.93-2.73 3.27-3 5.57l-4 1c-.3 1.37-.57 2.59-.86 3.88-2 .75-3.65 1.77-3 4.37l-3.11.61c-2.65 3.54-4.62 7.75-8.47 10.52a22.12 22.12 0 00-4.31 4.28c-2.34 3-4.49 6-7.11 8.84-2.8 3-6.41 5.48-8.18 9.46-.29.65-1.54.86-2.39 1.3.08.68.41 1.45.16 1.76-2 2.48-4 4.9-6.09 7.27-.32.36-1.08.33-1.64.49.08.53.16 1.09.29 1.94l-4.54 2.52c0 .18.16.41.1.56-1 2.4-3.83 3.34-4.73 5.87-.18.28-1.13.3-1.04.27z"/>
    <path d="M1505.66 999.31c.31.48.62 1.56 1.1 1.64 5 .82 8.08 4.44 11.35 7.74 2.7 2.72 5.64 5.4 7 9 2.55 6.71 7.11 12.85 6.12 20.61 3 2.25-.49 6.4 2.53 8.64-.6 4.28 1.15 8.29 1.43 12.47.17 2.63.42 5.23.79 7.84.14 1-.47 2.11-.83 3.53.49.84 1.21 2.1 2.12 3.68 0 1.73-.1 3.9-.16 6.39.79.61 1.85 1.4 3 2.25-.18.7-.35 1.4-.52 2.1 1.26 2.2 2.08-.13 3.12-.29 1.76 2.88 2 6 1.75 9.45l-7 2.38-6.53-4.4-3.5.6c-2.81-2.48-6.63-3.65-8.74-7.23-1-1.72-2.65-3.13-2.86-5.25-.13-1.35-2.06-2.17-1-4 .24-.41-1.41-1.92-2.14-3-1.45-2.06-1.54-4.6-2.11-6.92a113.86 113.86 0 01-3.24-16.71c-.52-5.59-1.84-11.13-1.24-16.83.18-1.67-.44-3.41-.63-5.12s-.27-3.33-.43-5.45l-6 3.87 1.31 1.82c-3.25 4-8.24 6-12 9.87l-2.17-1.47-9.48 7.62c-1.31 1-.18 3.54-2.81 4.22.14-.9.27-1.75.41-2.6-1.15 2.62-6.47 2-4.68 6.76-5.68.66-7.75 7.42-13.77 7.13.06.41.14 1 .24 1.7-2.56 1.82-5.49 3.42-7.81 5.66s-5.84 1.27-8.76 4.07a15.28 15.28 0 01-9.75 8l-5-1.4-.84-1.76-3 .59c.23-1.76.45-3.47.67-5.21l-3.19.62c.08-1.19.15-2.34.24-3.84 3.72-.36 4-4.62 7.09-6.52 4.28-2.66 7.55-6.9 11.46-10.23 4.56-3.88 9.35-7.5 14-11.26 5-4 9.94-8 14.65-12.31 3.87-3.56 8.58-6.14 12.31-9.91 2.77-.25 2.87-4 5.63-4.28 2.1-3.93 6.75-5.18 9.2-8.76.48-.72 1.46-1.08 2.09-1.72 2.82-2.87 5.75-5.38 10.58-3.78zM1532.35 941.63c-60.59-1-101.93-35.12-119-89.4-9.82-31.14-5.56-61.35 8.58-89.91 14.28-28.84 35.59-51.87 64.59-66.62 12.12-6.16 25.1-10.66 37.86-15.48 5-1.87 10.26-1.41 15.49.45a56.4 56.4 0 0020.71 3.11c15.5-.53 29.35 4.44 42.19 12.34 8.66 5.33 18 9.64 25.75 16.38a165.56 165.56 0 0150.22 77.22c3.57 11.48 2.32 23.22 1.21 34.83-.64 6.69-3.26 13.3-4.31 19.72-.81 5-4.89 8.61-4.57 11.94.49 5-1.57 8.21-3.6 11.71-19.05 33-48.9 51.69-84.08 63.32a229.48 229.48 0 01-38.07 9.52 128.35 128.35 0 01-12.97.87zm-74.92-161.57c.54-.36 1.25-.57 1.39-1 5.3-15.11 15.9-26.12 27.44-36.65 5.73-5.23 9.53-12.26 14.55-19.89-16.01 5.19-42.68 41.48-43.38 57.54zm173 56.56l-31.55 40.58c20.18-17.15 29.97-29.95 31.56-40.58zm-177.16-108.74c11.35-9.7 24.48-17.18 34.8-28.17-13.07 7.51-25.5 15.9-34.8 28.17zm147.56 104c-4.63 5.83-11.26 10.4-12 18.68 5.35-5.29 10.29-10.9 12-18.65zm-109.06-52.73c5-7.48 11.09-14.2 13.72-22.94-7.26 6.12-10.24 14.79-13.72 22.97zm145.73 119.3l1.13.94a47.28 47.28 0 0012.65-13.56 65 65 0 00-6.51 6.11c-2.33 2.27-4.84 4.35-7.27 6.51zm-190.32-164.86c-2.71 2-4.6 3.79-5.69 6.35-.3.69-.71 1.49.12 2a2.83 2.83 0 001.56 0c.07-3.28 5.27-3.65 4.01-8.35zM235.89 1007.37c-1 9.12.91 18.06 2.57 27 7.17 38.47 25.26 71.66 49.1 102.22 15.93 20.41 33.64 39.11 52.05 57.21 1.68 1.65 3.45 3.26 4.11 5.63.75 2.66.42 4.48-3 3-.83-.36-1.56-1.6-2.16 0-2.08 5.48-6 3.7-9.69 2.47-6.83-2.3-12-7.31-17.46-11.66-15.25-12.18-30.07-25-43.08-39.56-12.07-13.56-22.05-28.71-31.6-44.14-6.07-9.82-12.12-19.89-14.43-31.14-1.53-7.47-5.63-13.69-7.21-21-3-14-5.89-28-5.76-42.35a59.16 59.16 0 019.71-32.76 10.67 10.67 0 001.31-10c-3.22-9.51-6.14-19.16-8.91-28.77-4.5-15.63-6.5-31.9-7.87-48.14-2.17-25.91-1.72-51.68 5-77 4-14.9 8.84-29.32 21-39.91 3.2-2.79 6.67-4.79 11.13-4.36 1.93.18 3.35.89 4 2.83.81 2.29-.78 2.38-2.3 3.32-10.37 6.41-12.4 17.57-15.29 28.1-8 29-7.07 58.51-3.84 88a315 315 0 0014.35 66.34c.57 1.71.37 4 3.61 2.83 11.3-4.14 22.48-2.63 33.15 2 16.48 7.18 29.52 18 33.57 36.52 2.18 10-1.42 16.29-10.13 21.5-22.19 13.26-44.54 3.75-57.16-13.82l-3.38-4.71zm45.51 10.24c5.61.43 5.14-3.23 4.88-6.59-.89-11.35-9.19-17.69-17.17-23.67-5.83-4.37-12.43-8.17-20.1-8.75-2.92-.23-5.3.4-3.45 4.32 5 10.71 11.37 20.46 20.84 27.8a32.8 32.8 0 0015 6.89zM235.31 1050c-2.4-14.42-5.27-28.62-6.06-43.12-2.25 15.01 1.49 29.21 6.06 43.12zm-.82-83.38Q229.22 948.33 224 930a112.08 112.08 0 0010.49 36.63z"/>
    <path d="M320.65 1225.85c12.15 1.05 23.9 4.16 35.75 6.8 1.77.39 3.64 1.79 5.34-.35s.22-3.83-.65-5.35c-4.72-8.31-6.74-17.54-9.78-26.45-1.91-5.63-4.91-10.94-6.71-16.79-2.76-9-6.2-17.8-9.58-26.6-1.71-4.46-1.26-9.52-4.81-13.53s-2.1-7.87 4.39-12c3.31-2.11 7.59-2.79 10.34 1.35a63.19 63.19 0 015.84 10.83c10.24 25 20.28 50.09 30.49 75.1 2.29 5.62 5 11.08 7.53 16.59 4.66 10 3 14-7.14 18.54-7.85 3.52-15.37 3.35-23.28.14-15.24-6.2-30.65-12-46.86-15.18-3.25-.65-6.58-.84-9.86-1.36-3.79-.6-4.65-2.45-2.2-5.59 5.45-7 7.16-7.46 21.19-6.15zm49.67-20.58a104.94 104.94 0 0013.83 32.82zM966.06 445.82c-3.74-27.2 2.64-51.36 17.59-72.59 28.58-40.6 67.75-63.83 117.83-65.85a87.47 87.47 0 0163 22.55c15 13.36 21.13 31 20.29 50.87s-7.54 37.75-21.6 51.6c-12.05 11.88-26.13 21.73-42.57 27.08-13.15 4.27-26.39 8.44-39.86 11.47-8.12 1.83-16.73 1.68-25.14 1.93-19.75.6-39.51.9-60.16 2.33 3.93 2.66 7.64 5.75 11.83 7.88 13.55 6.88 28.29 9.12 43.24 9.61 36 1.19 70.72-6.9 105.23-16 30-7.93 60.09-15.62 91.2-18.11 60.94-4.87 115.69 11 164.34 48.25 29.79 22.82 52.54 52.11 76.25 80.62 8.93 10.73 18.76 20.7 28.16 31a22.81 22.81 0 011.71 2.7l-4.15-.5c0 2.56.08 5.16.12 7.76-2.69 0-5.73.78-8-.2a30.59 30.59 0 01-9.18-6.39c-7.19-7.16-14-14.73-21.06-22-8.08-8.31-16.36-16.44-24.44-24.76-2-2-3.24-4.72-5.25-6.68-9.59-9.41-18.93-19.14-29.11-27.86-9.15-7.83-19.65-14.08-28.88-21.84-7-5.91-14.8-10.22-22.88-14.24-19.42-9.67-39.11-17.89-61.07-20.89-30.79-4.22-61.33-2.52-91.64 2.08-18.07 2.73-35.51 9.38-53.38 13.65-18.46 4.4-37.06 8.2-55.66 12-9.37 1.9-18.84 4.07-28.33 4.45-12.12.49-24.32-.37-36.44-1.31-7.86-.61-15.91-1.5-23.37-3.85-17.33-5.45-30.44-16.47-38-33.2-2.31-5.1-5.17-7.73-10.92-8.61A423.5 423.5 0 01844 430.27c-23-11.25-46.22-22.49-68.1-35.78-28.22-17.13-53.58-38.17-73.92-64.59a65.78 65.78 0 01-8.13-14.08c-.88-2.06.46-5.08.79-7.67 2.24.66 5 .68 6.59 2.1 2.62 2.41 4.47 5.67 6.58 8.62 1.42 2 2.43 4.36 4.12 6.07a324.83 324.83 0 0060.59 47.83c57.3 35.38 118.73 60.29 185.29 71.88 2.38.35 4.85.68 8.25 1.17zm419.14 50.35l46.35 34.93c-11.17-9.91-22.77-19.37-34.65-28.44-3.49-2.66-7.8-4.23-11.73-6.32-5.51-6.84-13.69-8.66-21.58-11zM1152 417c1.76-1.48 3.66-2.83 5.27-4.46 26-26.31 13.91-55.52-9.14-71.34-7.52-5.15-15.92-7.76-24.45-9.83-7.6-1.85-15.56-3.36-23.32-3.21-19.38.39-37.46 6.5-54.3 15.77-23.42 12.89-44.19 28.93-57.39 53-7.77 14.07-12.11 28.89-9.67 45.25.7 4.7 2.92 6.25 7.25 6.71 31.74 3.4 63.43 4.43 95-1.62C1107 442.34 1131.35 434 1152 417zm-141.89 39.14c16.67 1.6 33.38 4.62 49.83-.92zM1445 543.83l-.42.58 22.84 27.24.5-.48zM1067.9 1546.28c-.19.55-.68 1.92-1.3 3.64l2 .94c.42 1.53 2.74 3.14 1.33 5.2-1.27 1.85 2.08 3.81-.48 5.31.44 3.89-2.3 6.69-4.1 9.41-1.64 2.46-2 5.53-4.51 7.67-2.15 1.86-3.36 4.82-5 7.3l-4.56.2c.33 1 .57 1.84 1 3.08l-2.17 2.46c.54 1.66 1 3.22 1.64 5l-2.61 3 2.56.91-3.55 2.52c.22.27.57.67 1.11 1.3-3.9 1.45-7.36-2-11.66-.35-2.65 1.91-4.62 5.81-8.56 7.26-1.52.55-.22 3.34-2.82 3-.93-.11-.24 2.87-2.42 2.29-.81 2.7-3.22 3.79-5.13 5.49a28.82 28.82 0 00-4.29 5.09c-1.06 1.54-2.2 3-3.32 4.51a43 43 0 00-3 4c-.72 1.24-.66 3.35-1.62 3.91a4.28 4.28 0 00-2.45 3.31l-2.83-1.69c-2.43 1.19-4.86 2.32-7.29-.65v-6.18c-4.65-2.62-9.51-4.91-11.69-10.83.17-2-.78-4.72 1.1-7-2.73-5.45-.35-10.06 2.27-14.61a58.35 58.35 0 0112.19-14.45c-2.87-4.29-5.86-8.29-8.3-12.6-1.67-3-3.53-6.2-3.62-9.59s-1.2-7.19.89-10.75c.94-1.59 0-3.91 1.09-6a19.54 19.54 0 012-3.88c.52-.65.5-1.75.93-3.48 1-.9 3.4-2.11 3.9-3.87.74-2.56 4-1.58 4-4.58l1.81 1.37 4.48-1.32c.59 1.1 1.07 2 1.67 3.15l-3.92 7.1 7.07-.7 1.66 1.66c-.79 1.54-1.58 3.1-2.62 5.15l5 .52c-.44 2.08-.88 4.16-1.31 6.21l-2.39 2.14c.53.53.74.81.79.79.77-.43 1.52-.89 2.43-1.45l.75 2-5.06 2.56 2.74.91-4.27 4.28 5.86 4.63c2.9.55 5.22-.67 7.5-2.64 5.26-4.54 11-8.51 16.23-13.07s11-9.26 14.74-15.53c.88-1.47 2.44-2.53 3.77-3.86h6.19l1.53 1.93c-.68 1.93-1.37 3.92-2.28 6.5l5.38-1.48zM694.68 1670.14l-5.5 1.71c.49-1.06.81-1.76 1.23-2.65-1.35-2-2.88-3.85-5.67-3.45-.22-.82-.36-1.35-.55-2.09h-4.86c-.48-.49-.9-.71-1-1.05-.75-2.24-.91-4.91-2.26-6.66-1.73-2.27-.87-4.49-.95-6.68-.07-1.78.65-3.6 1.09-5.38a78 78 0 017.09-18.23 94.75 94.75 0 016.38-10.29c2.28-3.2 5-6.13 7.54-9.27-.7-.45-1.47-1-2.27-1.45a101.85 101.85 0 01-20.74-16.65c-3-3-3-7-3.84-10.75a21 21 0 01-.06-4.69c1.58-3 4.77-3.27 7.86-4.5 1 1.84 2.11 3.72 3.32 5.84l1.23-.91c.41.4 1.12.79 1.32 1.35 1.23 3.5 4.08 5.28 7.11 6.79 6.18 3.09 12.41 6.05 19 9.27 1.55-1.64 3.1-4.15 5.35-5.41 2.07-1.16 2.18-4.48 5.42-4.16-.47-.56-.79-1-1.27-1.55l3.4-2.37c.44-1 1.12-2.46 1.78-3.92l3.27-.19-1.33-1.71c2.5-.36 2.66-3 4.24-4.34s2.83-3.48 4.4-5.5l1.41 1 1-2.25 1.52 1.23c.77-4.12 3.11-7.44 5.6-10.42s4.87-6.59 9.07-8.65c.52.44 1.23 1 2 1.67-1.66 3.19-3.27 6.34-6.67 8v4.7c.81-.2 1.62-.16 1.79-.48a30.85 30.85 0 001.44-3.29c2.79-2.3 5.07-4.19 8-6.56.16 2.2.26 3.63.37 5l-2.25.92c.18.26.41.74.53.72 1.42-.3 2.84-.67 4.57-1.1l1.7 3c-.33.35-.71.78-1.13 1.24.25 1.71 2.3 3.21.71 5.16l-1.29-1.17c-.19.37-.57.75-.49 1a15.5 15.5 0 001.07 2.21c-.32 3-2.71 5-4.93 7s-4.4 3.58-7.09 5.75l3.15 1.81-1.51 2.91 1.2 1.33-3.9.63c.42 1.08.78 2 1.2 3.05h-3.92c-.73 1.49-1.36 2.79-2 4l1.51 1.63-3.84.72 1.14 3-3.5.52 1.31 3.52-4-1.55-1.91 3.64c.23.43.32.9.58 1 .47.25 1.1.21 1.56.46 1.8 1 2.22 3.34 4 4.34s2.73 2.93 3.95 4.57 1.91 2.74 1.79 4.62c0 .64.53 1.32.88 2.12-.31.53-.75 1.29-1.36 2.32-1.59.18-2.74 2.31-5.64 1.18a66.09 66.09 0 00-15.84-4.38c-.31 0-.56-.52-1.06-1l-5.21 5.88c0 .21-.14 1.14-.26 2.14l-3.88.61 3.17 4.44-3.5-1-1.27 1.51c.68 1.88.13 3-2.07 4.28-.66 2.38-1.3 4.65-1.83 6.56l-2.27.83 1.29 1.29c-1.76 1.35-3.77 2.44-5.14 4.07-1.23 1.47-1.74 3.54-2.7 5.63l1.09 1.64-3.79 3.9 1.43 1.79-2.66 3v3.43zM839.31 1693.58c2.72 3.29 2.72 3.29 6 1.47a18.85 18.85 0 00.29 2.81 6.33 6.33 0 001 1.62l-1.05 1 2.89 1.35-3.86 5.5c1.63 2.92-1.81 3.43-2.3 5-.76 2.41-3.7 2.93-3.78 5.52-.1 3-3.19 3.38-4.53 5.13-1.16 1.52-3.23 2.52-3.5 4.47l1.43 2.45-4.77 2.7-3.67 1.74c-1.12 1.31-2.23 2.63-3.72 4.39v1.15l-11.34 8.33 3 1.55-5 7 13.15 4.49-1.29 2.6 5.86 2.1v2.55l3.65 3.36q.11 2.07.21 4l2.13 2.13-5.41 4.51c-1.27 1.41-2.6 1.15-4 .21a2.78 2.78 0 00-1.57-.44c-6.07.13-11.56-2.18-17.08-4.2-4.08-1.49-8-3.4-12.23-5.22-1.15 1.15-3 2-3.18 4.4l-7.29 1.72-3.13-3.17c.36-.41.74-.83 1.3-1.44l-1.58-3.3-5 .77c-.87-1.71-1.65-3.26-2.45-4.85l-.77.77-4.42-4.49c.56-4.08-2-8.77-1.35-13.83a4.68 4.68 0 00-1.52-3.4c-3.47-3.26-3.61-8-5.25-12a16.2 16.2 0 01-1.34-5.31c-.09-2.94-.43-6 .07-8.81.8-4.5 1.65-9.31 6.9-11.09a41.52 41.52 0 015.94-1v9.18l5.31-3.42c.27.81.6 1.78.93 2.75l.89-.68v5.41l2.43-1.23c2.49 2.18 2.43 5 2.09 7.85l2.6.92-1.49 4c.68-.12 1-.09 1.21-.24.46-.36.77-1 1.27-1.2 5-1.9 7.55-7.24 12.6-9.1 1-3.65 4.86-4.43 7.11-6.89s5.64-4.22 8.46-6.36 4.27-5.54 7.84-6.64a25.46 25.46 0 019.9-9.9c-.14-2.89 3.83-3.25 3.74-6.29H837l1.49 1.48c-2.54 1.27-3.47 3.72-5.09 6.31 3.51.73 5.53-3.55 8.85-1.58zM825.67 1631.42c-.28-2.75 3.59-3.05 1.76-5.62l-1.3 1.16c-.14-.14-.38-.26-.4-.42-.44-2.88-.26-5.61 1.78-8 2.25-2.58 4.48-5.18 6.64-7.84a22.76 22.76 0 001.77-3.07c-1.06-2.77-2.52-5.65-3.79-8.51-1.36-3.07-1.33-6.4-2.81-9.44-.79-1.61 1.26-4.44.78-6.42-.54-2.21-1.84-4.09.06-6.17 0-5.83 4-9.46 7.47-13.51h9.79l2.06 2-4.63 5.9c.19.39.63 1.33 1.22 2.59.55 0 1.61.31 2-.06 1.63-1.61 3.52-1 5.25-1.15l1.75 3.81c-.88 1.11-1.79 2.25-3.18 4l5.35.69v5.64c4 .13 4.4-4.68 7.75-4.66 1.52-2.31 3.73-3.92 5.73-5.76 2.3-2.13 4.49-4.38 6.66-6.64 2-2.09 4-4.16 5.81-6.42s3.44-4.84 4.5-6.38l5.5-2a8.52 8.52 0 011.7 2.57c.18.74-.41 1.73-.81 2.54a6.38 6.38 0 00-1.07 3.35l5.32-2.24c1 2 2.08 4.06 3.72 7.24a12.21 12.21 0 000 2.23 18.9 18.9 0 00.8 2.85l-1.06 1.85 1.35 1.45c-3.41 5.45-6.48 11.1-10.22 16.38-3.13 4.43-2.69 4.75-5 6l1 1.15-14 15.64v1.95l11 7-1.38 2.71c1.41 1.2 2.36 3.53 5.09 2.67.59 1.19 1.08 2.16 1.56 3.11l-1.36 1.89 4.23 4.23c-.54 1.41-1 2.6-1.52 3.93l1.25 2.15c-.21.44-.27.91-.53 1.07-.58.38-1.43.46-1.85.93-2.53 2.86-3 3-6.16 1.93-4.12-1.41-8.55-2.23-12.31-4.29-5-2.75-9.58-6.44-14.79-10a54.62 54.62 0 00-7 6.36 20.66 20.66 0 01-9.48 5.63l1.69-2.81-7 1.31-.38-.76 4-3.09-2-2h-4l-1.83-4.61h-4.87c-.73-1.81-1.28-3.33-1.61-4.04zM851.18 1516l-6.31 1.51c-2.58-1.9-5.66-4.27-8.84-6.5-3.79-2.66-7.09-6-11.42-7.91-1-.43-2.05-.74-3.45-1.24-1.68-2.53-1.88-7.23-6.84-6.71-2.24-2.05-2.51-5.61-5.78-6-1.08-1.83-1.75-3.92-3.16-5.22-6.43-6-11.08-13.13-15.08-21.77-.35-2.67-.35-6.22-.93-9.79-.9-5.62 2.09-10.44 7-13.56 1.34-.85 2-2.74 4.26-2.54 1.56.14 3.2-.69 5.26-1.19.61.54 1.41 1.26 2.44 2.16-1.66 2.79-4.8 4.55-5 8.29 3.69 1.23 5.35-2.87 9.06-3.35l2 1.8c-1.31 2-2.2 3.3-3.83 5.75 2.54-.8 4.34-.81 5-1.69 1.68-2.22 4.4-3.11 6-5.58 1.47-2.31 3.89-4 6.36-5.62 3.49-2.27 6.32-5.53 9.59-8.16 4.81-3.88 9.32-8.12 14.68-11.34 2.12-1.27 3.69-3.48 5.44-5.33 1.61-1.67 4.15-2.41 4.65-4.91h7.91v5.1l-1.89 1.9c1-.19 2.09-.34 3.12-.57s2.07-.56 3.65-1c-.24 3.8-.06 7.16 2.68 9.61-.57.78-.9 1.22-1.57 2.12l3.62 2-3.36.92a12 12 0 01.93 2.21 11.32 11.32 0 010 2.33l-6.76 9.28-2.73.29 1 1.39c-.35.84-.74 1.78-1.18 2.82-5.18-.25-5.21 5.08-8.41 7.16l1.16 1.53-6.45 6.51-3 3-1-.75v3.05l-2-1.62c.2 1.32.33 2.2.51 3.43l-5.15 6.67-2-1.45c-2.11 2.48-4.29 5-6.48 7.58l2.76 1.37-2.82 3.57c.14.48.14.92.36 1.16 3.58 4 7.83 7.61 10.62 12.11 3.28 5.07 7.2 10.3 5.38 17.18zM932.78 1431l.92-.92a5.8 5.8 0 00-.64-.82c-1.52-1.39-3.45-2.58-4.68-4s-2.56-2.34-3.79-3.56c-1.63-1.63-3.44-4-3.53-6-.15-3.74-.38-7.49.51-11.41 1.53-6.77 5.07-11.89 9.77-16.56 5.95-5.93 11.89-11.88 18.14-18.14-2.37-2-2.49-5.89-6.25-6.64l-4.73-9.21c-1.46-2.83-1.2-5.89-1.18-8.91v-6.46l5.92-7.55H953l-4.23 7.23c3.63 2.63 5-3.07 8.14-1.33 2 2.72-1.71 4-2.88 6.63l5.18-1.25a9 9 0 01-1 7.87l2.39.93c.68.72-.73.83-1 1.91l3.51 5.38c9.71-10.19 22.08-17 29.65-28.64h5.9c-.46 1.94-.85 3.63-1.39 6l4.62-1.63v4.56l2 .53a3.68 3.68 0 01.42 1c.07.58-.07 1.19 0 1.76 1.19 6.11-1.85 11-5 15.53-3.45 5-7.46 9.52-11.51 14.61 2.89 3.47 7.51 5.15 11.58 8.39.08.54.2 1.44.35 2.48 1.07 1.34 2.82 2.65 3.31 4.32 1.08 3.67 3.76 7.09 1.94 11.82-.44.2-1.42.69-2.43 1.11s-2 .79-3.15 1.23c-1.56-1.58-5.08-1.08-4.6-4.16l-9.82-2.83-2-3.58h-6.5c-.16-.7-.29-1.23-.44-1.88-2.41-1.85-4.42.33-5.83.7l-5 5.81c-.46-.36-.84-.64-1.49-1.13l-2.35 3.32.61.79c-2.72.69-3 3.43-4.16 5.68l-2.51-1.55-.51 3.18-1.88.51c-.25 2.39-.59 5.29-4.12 4.5-1.19 1.53-3.17 3-3 4.15.41 3.58-2.59 5.29-3.41 8.09-.38 3.53-.33 3.53.77 5.89a22.71 22.71 0 01-8.77 4.26c-.49-.6-.98-1.21-1.61-2.01zM588.84 1364.55l-3.46.43 1.68 1.85c-1.46 2.72-4.23 4.35-6.1 6.72l.91.92-4.26 3.34c-.7 1.86.8 4-1.68 5.09 2.2 1.47 4.2 2.78 6.17 4.14 6.17 4.27 12.78 7.93 17.86 13.67 2.92 3.29 5.67 6.47 5.72 11.19 0 .8.81 1.58 1.46 2.75l-5.52 3.49c-11.74-6.88-23.87-13-35-22-.8.46-2.54.84-2.87 1.74-1.27 3.54-3.77 6-6.31 8.57-.31.31-.19 1-.28 1.59l-3.42.37.9 3.11a15.49 15.49 0 00-4.84 8.21c-.52 2-2.47 3.71-4.22 6.16v12.78l-3.09.2-.75 2.13h-4.06c-.63-1.84-1.28-3.72-2-5.89l-3.6 1.58c-.27-.86-.49-1.53-.71-2.19-.33-.14-.7-.45-1-.39a4 4 0 01-4.49-3c-1.25-5.45-4.78-10.84-1.39-16.69.06-5.8 3.66-10.22 5.7-15.26.66-1.65 3.53-1.36 2.75-4.2-.32-1.17 1.81-3 2.85-4.54a43.73 43.73 0 012.93-4.07c1.27-1.47 2.83-2.71 4.1-4.2a49.22 49.22 0 002.9-4.19c-7.15-5.37-11.52-13-16.53-20.11-1.6-6.88-4.38-13.56-3.3-21.61l6-7c2.52.52 5.35-1 7.65 1.58L535 1337l1.19 1.26c3.19.66 4.36-4 7.69-2.91.5 1 1 1.93 1.51 2.93l-3.44 2.2 1.86 1.86c1.67-1.72 3.29-1.74 5.24.62-.18 1.31.84 3.21-1.12 4.73l2.75 1.33-2.62 3.52 2.9 1-3 .81c.12 1-.11 2.26.43 3 2.25 3 4.74 5.88 7.4 9.11 1.47-1.31 2.59-2.29 3.68-3.31 6.44-6 11.82-13.19 19.8-17.44 0-2.21 2.27-2 3.27-3.24s2.38-2.57 3.19-3.43h4c-1.79 2.63-4.84 4.12-3.85 7.92l8.1-4.83c-.27 1.75-.48 3.09-.72 4.61l4.35 2.2-1.24 2.55 1.71.36c.06.23.28.62.18.76-1.43 1.93-3.35 3.64-4.26 5.78-1.18 2.71-3.7 3.92-5.16 6.16zM696.19 1424.58c4.69-5.75 8.64-10.53 12.52-15.38a107.44 107.44 0 009.66-14.62l-1.32-1.63 3-3.44H724c1.45 1.45 2.62 3.52 4.27 4 2 .65 2.32 2.27 3.13 3.47 2.84 4.19 4.81 8.45 2.63 13.91-1.34 3.35-2.7 6.72-4.09 10.06-.42 1-.72 2.06-1.26 3.59-.69.69-1.79 1.8-3 3v3.7l-6.37 11.57c2.92 2 5.62 3.9 8.4 5.69 5.5 3.55 10 8 12.77 14a42.45 42.45 0 011.46 4.78l-1.28 2.86-3.55 1.65c-2.76-1-5.21-1.67-7.54-2.65s-4.58-2.2-6.86-3.31c-.38-3.41-4.27-2-5.86-4.35-1.31-1.9-4.23-2.69-6.79-4.18a190 190 0 00-20.61 25.36c-.47.69-.32 1.81-.46 2.73-2.7 2.08-5.37 1.76-8.05-.12v-1.87l-10.31-6.18c-1.7-2-.84-5.15-2-7.58-1.24-2.71-.19-5.33-.66-7.32 3.89-8.68 8.49-16.27 15.09-22.82v-4c-3.81-2.65-6.18-6.79-8.58-10.85-.8-1.36-.93-3.13-1.3-4.74-.75-3.25-1.87-6.4-1.77-9.86.19-6.62 3.95-11.34 10.27-13.71 4-1.5 7.85-.75 12.13-1.17-2.3 4.78-7.83 4.37-11.05 8.37 5.56-.25 9-5.49 14.64-4.49-.23 1.34-.45 2.67-.68 4.08l4 1.43v7.44c-1.51 2.64-3.17 5.28-4.53 8.07-.37.93 0 2.22 0 4.51zM795.57 1351.37l-6.43 8.07v7.56l-6.35 2.56c-2.69-2.61-3.78-6.08-4.64-9.35l-3.68 1.37c-1.19-1.71-2.63-3.21-3.41-5-2.33-5.37-2.14-11.11-1.89-16.52l2.94-6.69c-1.63-.24-3.07 0-3.67-.62-3.8-3.84-7.55-7.75-11-11.88-1.88-2.22-3.86-4.74-4.6-7.45-1.09-4-1.12-8.23-1.64-12.66 1.79-2.52 3.25-5.46 5.52-7.5 2.09-1.86 5.06-2.74 8.29-4.38l2.22 2.4-6.18 5.94 1.45 1.45c2.63-1.92 5.24-4.43 9.52-2.78l-3.34 4.57 4.58-1.78 2.41 3.64-4.43 4.44 2.41.5c-1.33 2.25-.58 5.36-4 6.5 3.4 4.2 7.2 6.51 11 9.07l38.5-31.93h5.68c-1 2-1.79 3.58-2.59 5.19 1.71 1.3 3-.16 4.56-.81 4.36 4.07 5.39 9.15 4.49 14.81l-5.57 7.15 1.18 1.1-3.06.39c.4.42.79.85 1.18 1.27h-2.18c-4 7.58-10.85 12.74-15.84 19.66 6.84 3.8 14.49 6.64 21.72 10.95.22 1.09.47 2.32.76 3.78l2.2-2.33c2.91.39 2.85 3.74 5.29 5 2.14 1.07 3.39 3.92 5.06 6v7l-1.9 1.9c-6-.65-11.06-4.1-16.58-6.89l-.7.64c-3.85-1-6.16-5.1-10.61-4.48-2.07-2.66-5.48-2.87-8.15-4.44s-5.28-3.38-8.52-5.42zM966.84 1445.33l3.57 2c-.32 1.92-.64 3.85-1 6.23 1 1.71 1.81 4.31 4.8 5.37 1.34-1.87 2.16-4 4.74-5 1.81-.73 2.87-3.31 4.26-5.08 1.52-1.93 3.64-3.26 4.84-5.62 1-2 3.18-3.34 4.55-5.19s2.48-4.08 3.7-6.14h6.63c.35 1.86.92 3.7-1.27 5.62l4.69.21 1.67 7.66-2.43 1a7.15 7.15 0 00.27 1.57c1.63 4.05 1.37 5.44-1.78 8.57a4.59 4.59 0 00-1.33 4.59c.84 2-1.69 1.23-.5 3.06l-2.34-1.93v3.27l-3.59.69v3.21l-3.46 3.6 5.52 5.4v4.43l3.95 4-1.16 2 2.35 4.78-3.58 7.47H995l-16.77-9.6-2.42 3.73-3.15-1.54v5.48l-5.38-2 1.74 2.38-4 3.78c-.37-2.19-.59-3.56-.84-5.07l2.34-.81c.09-.44.19-1 .31-1.63l-2.11-.73c.25-1 .51-2.09.94-3.87l-1.76 1.62-7.36-1.38c-.39-.74-.89-1.7-1.47-2.83.44-1.72.94-3.67 1.46-5.66l4.06.67.19-.65-4.4-2.2 2.39-4.93c-3.87-6.57-8.08-12.78-10.47-19.92-1.43-4.91.26-9.77 1-14.61.55-3.76 3.66-6.42 7.07-8.33.48-.27.94-.58 1.72-1.07h5.85l2.34 2.34c-1.16 1.16-2.33 2.32-3 3v3.61l4-1 2.38 2.22zM613.15 1505.73l2 2-10.77 9.2.24.62a6.26 6.26 0 002.25-.71c1-.86 1.85-2 3.27-2.26l7.46-4.22c2.13 1.72.58 3.08-.34 5.17l3.27-1.24 1.54 1.53v7.08L620 1525c.11.27.14.64.33.79 1.34 1 2.68 2 4.09 2.91s3.64 1.24 3.69 3.69c0 .28.49.6.8.82a22.57 22.57 0 013.62 2.55A24.4 24.4 0 01635 1540v4.13l-2.75 2.75-22.07-7.89-5.14 2.74-.22-.36-5 5c0 .46-.08 1.37-.15 2.53l-8.93 8.59c-1.31 4.06-.65 8.23-6.06 9.09-1.12-1.79-5.14-2.08-4.22-6.25l-4-1.15-1.42.95-4.75-5-1.56-13.3 14.81-16a60.2 60.2 0 01-5.82-3.71 64.45 64.45 0 01-5.08-5c.47-1.53 1-3.08 1.47-4.76l-2.49-.86v-4l1.23-1.23 5.63-1.12 18.34 10.29c6.25-2.44 10.27-7.85 16.33-9.71zM1035.65 838.22c-.43-5 4.69-7.81 1.15-12.48-1.45-1.91 2.13-2.7 3.35-4a144.39 144.39 0 0123.79-20c3.61-2.47 8.59-1.23 12.74.66 1 .44 2.09 1.39 1.56 2.8-.69 1.86-2 .26-2.93.34-1.37.11-2.76.06-3.93 1.54 3.11 2.65 5.71 5.77 10.42 6 3.33.18 2.38 4 2.48 5.55.25 3.78 2.78 4.95 5 7.06s3 4.72 7 3.25c1.47-.55 4.19.47 5.15 2.85-2 1.89-3.63-.07-5.4-.57-1 5.19 2.86 4.72 5.58 5.55 1.4.43 3.36.16 3.58 2.32.25 2.4-2.7 1-3.35 3 4.26 1.15 5.76 3.64 1.09 5.82-3.19 1.5-.44 5.13-3.78 6.08.12-2.12-1.25-3.83-2.28-5.76-2.86 1.3.13 3.39-.64 5-3 .2-3.78-4.09-7.32-2.34.9-2.51 6.85-5-.46-5.12-2.39 0-3.73-4.58-7.21-1.74-.89.73-1.15-1.33-1.17-1.93a7.16 7.16 0 00-7.31-7.19c-4.11.06-10-2.37-12.2 4.43-.54 1.67-2.47 3-3.93 4.24-2.19 1.9-5 2.78-3.87 7.16.55 2.14-2 5.88-6.24 4.69s-6.79.42-6.53 4.82c.16 2.74-1.06 1.32-2.24 1.85-4.59 2.07-10.43-2.49-14.29 3.23-1.9 2.82-3.32 4.16 1.67 4.39-6 1.79-12 3.45-18 5.41-3.79 1.25-6.22-.5-8.25-3.19-1-1.31-1.05-2.81-3.71-2.27s-4.79-2.13-5.47-4.47c-1.2-4.18-4.22-6.91-6.6-10.2-2.83-3.91-6.3-3.67-8.78-.61-6.14 7.57-14.84 12.49-20.53 20.4-2.37 3.29-8.43 2.57-8.53 8.13a18.09 18.09 0 00-4.5-.23c-3.24.65-6.43 1.57-9.61 2.5-2.89.84-5.2.85-5.52-3.79-.75 5.52-3.43 5.56-7.26 4.24-1.38-.48-3.6.06-3.49-1.82 0-.92 1.75-3.31 4-2.26 1.73.82 3.33 1.19 3.25-1.25-.1-2.72-2.67-1.3-3.68-1.15-8.23 1.25-14.21-1.59-18.42-8.82-1.77-3-5.25-3.52-8.15-2.32-9.59 4-19.72 8.48-25.8 16.45-4 5.23-9.34 8.21-13.34 13-3.49 4.15-8.77 6.34-12 11.2-2.85 4.24-15.65 3.69-19-.75-6-8-15.1-13.64-18.14-23.86-.84-2.82-2.72-2.25-4.62-1.14-3.39 2-6.74 4-10.15 5.89-1.76 1-3.14 2.7-5.78 1.42s-3.55 1.64-4.8 3.16c-.67.81 0 3.21-1 3.07-5.79-.78-5.43 5.42-8.76 7.36-2.19 1.28-2.08 1.27-5.91 1-1.12-.06-2.46 1.06-3.46 1.92a67.61 67.61 0 01-25.73 14.31c-4.24 1.23-6.64.12-8.3-2.9-3.34-6.1-9.07-9.85-13.54-14.82-1.56-1.74-2.77-2.26-4.47.09a73.75 73.75 0 01-20.23 19.09c-1.67 1.06-1 4.5-3.32 5-5.16 1.24-10.43 2.12-15.69 2.91-1.36.21-2.07-.87-1.37-2.35s.31-2.56-1.43-3.07c-6.42-1.87-7.87-7.12-3.38-12.62 6.53-8 13.18-15.86 19.72-23.84s13-15.94 19.39-24c2.21-2.8 4.52-5.51 7.53-7.33 3.39-2.06 8.14-2.87 10 .71 3.38 6.44 9.75 11 11.3 18.46 1 4.64 2.86 3.17 5.41 1.25 15.8-11.94 32-23.24 50.94-29.8.37-.13.73-.31 1.1-.43 22.47-7.19 25.19-2 33.94 16.36 4.27 9 1.94 10.17 11.52 2.56 9.8-7.8 18.63-16.81 29.21-23.62 8.56-5.52 17.08-11.18 28.17-9.47 8.15 1.25 13.83 6.47 19 12 8.53 9.19 17 7.13 25.93.24 9.66-7.48 18.65-15.83 28.1-23.61 11-9 17.51-7.8 26.24 4.79 1.89 2.73 3.32 5.81 5.42 8.35 4.93 6 11 6.75 17.75 3.09 6.4-3.46 13.17-6.21 19.1-10.53.9-.65 1.87-2.67 3.3-.77 1 1.28.09 2.63-.6 3.82-1.96 3.27-1.97 3.26 1.52 7.61zm20.89-7.59c2-3 3-4.78-.77-7.1-2-1.24-5.9-1.53-5.79-5.54 0-.68-1.37-.2-2 .25s-1.77.26-.89 1.5c2.86 4 .64 6.78-2.8 9.42 2.82-.68 5.32 2.91 8.08-.6.75-.94-.66-3.81 2-2.92 1.9.64 2.36 2.53 2.17 4.99zm-257.6 24.22l-.48-1.51c-8.31-.15-15.51 3.18-22.1 8.4zm220.41-12.73c-5.09 1.35-8.76 3.6-13 3.74-1.28 0-3.17.3-2.9 2 .22 1.39 2 1.46 3.37 1.55 5.28.39 9.07-1.95 12.53-7.29zm3.41 0c3.79-1.5 9.73 1.17 8-6.76-3 1.57-6.6 2.03-8 6.72zm20-.73l-9.36 7.61c-.46.37-2.36-.87-1.33 1.1a2.81 2.81 0 001.89.83c2.37-3.32 8.1-3.24 8.83-9.58zm-255.53 46.03l14-7.85a23.35 23.35 0 00-14 7.85zM1018.44 956.74c-11.66 3.34-21.74.89-30.06-8.14-2.07-2.24-4.7-4.23-7.73-3.25-7.88 2.54-16.33 1.87-24.11 5.5-12 5.59-23.12 12.88-35.83 16.83-4.81 1.49-9.66 2.89-14.57 4.36-.48 2.5 2.57.7 3 2.26-.59.23-1.18.7-1.65.6-8.08-1.64-17.31-.88-22.87-8.42-2.09-2.83-5.37-3.54-7.48-6.2-.74-.94-4.89.2-7.14 1.18-12.65 5.5-25.12 11.43-37.82 16.82-4.41 1.88-9.27 2.74-14 3.87-2 .47-3.68.59-5.48-1.75-1.37-1.78-4.08-5.56-7.59-1.83-2.5-2.94-7.55 0-9.69-5-2.42-5.65-6.94-4.72-12.51-2.74-7.69 2.74-11.29 10.38-18.62 13a5.51 5.51 0 00-3 3.46c-.43 1.07-1.07 2.85-1.74 2.91-6.42.6-5.86 7.34-9.4 10.36-5.64 4.8-11.15 9.84-18.6 11.83-2.32.62-2.24.7-3.46 3.72-.21.53-1.22.85-1.92 1-4.81 1.29-6.87.13-12-5.3-1-1-3.6-.52-5.46-.77-6.43-.86-8-7.69-12.84-10.51-.9-.52-2.15-2.5-2.61-1.21-2 5.43-9.25 5.26-10.9 10.92-.52 1.8-1.93 3.38-3.09 4.94s-2.84 3.79-5 3.44c-1.85-.29-2-2.77-2-4.48.05-3.44-5.06-2.77-4.73-7.15a26.76 26.76 0 014.63-13.1c6.15-9.11 8.81-19.51 12.28-29.62 1-2.91 1.9-4.94 5.33-5.11 3.22-.16 4.75 1.07 6.89 3.76 4.2 5.3 6.4 11.28 8.68 17.34 1.26 3.37 3.7 4.63 6.89 4.05 7.61-1.38 14.83-3.56 19.62-10.46 8.81-12.68 21.82-20.27 34.39-28.5 3-2 5.64-4.72 8.45-7.13a17.31 17.31 0 0111.18-4.17c4.37-.1 6.87 2.34 8.83 6.34 5.35 10.94 10.18 12.5 21.64 8.1 12.29-4.71 24.45-9.86 37-13.67 5.81-1.76 11.18-5.05 17.63-5.17 5.46-.09 10.35.61 13.38 5.36 3.28 5.13 7.7 5.4 12.8 4.24a182.09 182.09 0 0039.74-13.94 183.57 183.57 0 0129.87-12c7.76-2.22 15.73-2.07 22 4.14 5.26 5.19 11.18 5.59 17.91 4.06 16.91-3.85 32.65-10.86 48.4-17.78 18.39-8.08 36-17.82 54.89-24.87 4.47-1.68 8.91-3.77 14-1.61-1.75 3.87-5.18 4.05-8 4.84a79.53 79.53 0 00-17.73 7.28c-.72.4-2.13 1-1.38 2.12s1.55.16 2.62-.31c7.3-3.18 14-8.29 22.54-7.85 2.12.11 5.21-1.14 3.88 3.28-.48 1.58 1.53 1.32 2.36 1.94s2.07 1.67 1.45 2.14c-2.42 1.82-2.33 5.85-4.66 6.8a136.58 136.58 0 00-26 14c-8.91 6.17-20.09 9.19-26.84 18.45-7.16-.44-9.09 8.81-16.8 8.56-5-.16-8.61 5.37-12.47 8.41-7.5 5.91-16 7.74-24.64 9.79 4.21-4 10.48-3.74 14.93-7.3-7 2.67-14.4 3.82-21.68 5.9 2.2 2.25 5.15-1.68 6.89 1.44zm-169.78-11.2c-13.5.19-24.45 9.28-37.59 10.77-1.4.16-2.91 1.29-2.49 2.73.52 1.81 2.45 1.62 4 1.21 6.44-1.71 12.72-4.26 19.11-5.79 6.7-1.6 11.47-5.64 16.86-9.06 7.62.26 14.15-3.2 21.23-5.73-4.84-4.34-14.47-1.46-21.12 5.87zm85.08-11.32a178.33 178.33 0 01-38.68 12.83c6.81 4.2 32.86-4.58 38.68-12.83zm40-12.18c-3.7-3.52-14.34-.5-18.32 5.24 5.58-3.5 12.08-3.35 18.35-5.28zm-261.2 70.58c6.39.83 10.61.07 14-5.69-5.03 1.95-9.37 2.16-14 5.69zm226.57-57.48c3.42-2.77 8.49-3.41 11-7.58-3.87 2.22-10.11.77-11 7.58zm-32.72 31.64c6.29 1.08 14.9-1.61 20-5.64zM835 973c-5.4.75-10.8 1.89-15.54 5.13A27.93 27.93 0 00835 973zm168.9-42.88l.28 1.68a22.86 22.86 0 0014.95-4.92zM952.19 1062.57c2.35 1.1 5.29-.87 7.23 2.11a12.69 12.69 0 01-9.4 1.92 10.69 10.69 0 00-5.15.09c-4.16 1.41-7.3 1.42-7.32-4.51 0-2.7-9.89-7.8-13.1-7.2-4 .75-9 .56-11.81 2.17-7.69 4.32-17.09 6.15-22.7 13.84-1.08 1.49-2.66 1.28-4.05 1.82-5.15 2-11.61 1.19-14.78 7.59-1.24 2.5-1.81-2.6-4.5-1.31-3 1.46-6.81 1.47-10.29 1.77-8.53.74-13.3-1.49-14.79-9.54-1-5.24-3.08-3.32-5.83-2.62 1.06-2.57 3.54-5.07-1.5-5.43-3.29-.24-3.42-4-5-6-1.13-1.43 1.22-.72 2.06-1 1.45-.55 3.15-1.15 3.46-3.11-1.81-.22-1.22-3.93-4.31-2.69-2 .78-4.06-.38-6.08-1.93 1.73 4.61-2.1 7.58-2.51 11.56-.31 3-1.54 6-.7 9 .57 2.08-1 3-1.66 1.89-1.9-3.44-6.72-4.11-7.45-8.54-.29-1.74.67-2 1.65-2.5s4 .4 2.89-1.28c-2.08-3.26-1.15-6.51-1.57-9.74-3.93 3.69-2.92-2.59-5.22-2.77-.54 0-1.12-3.91 1.39-3.89 6.51 0 5.91-5.08 5.57-8.41-.53-5.19 2.08-7.63 5.75-10 2.15 1.13-.91 5.12 2.92 5.36 3.1.19 2.76-2.87 4.14-4.29.75-.78 1.82-1.79.91-3.06s-2.24-.46-3.24-.18c-5.3 1.48-4.84-3.61-3.8-4.76 3.35-3.69 4.81-8.8 9-11.72 4.47-3.1 7.54-1.84 8.5 3.41a3 3 0 00.81 1.52c8.61 8.24 6.84 18.82 6.27 29-.48 8.67-.18 9 8.42 6.94 10-2.42 18.9-7.42 28.06-11.77 10.55-5 20.91-10.48 32.25-13.5 9-2.4 17.19-1 23.2 6.87 3.15 4.08 6.56 4.54 11.26 2.7 15.65-6.13 29.91-14.87 44.37-23.22a145 145 0 0122.25-10.16c8.83-3.28 18-1.06 24.56 6.16 6.1 6.73 13 8.31 21.57 7.07 23.95-3.46 46.7-11.2 69.41-19.08 23.42-8.13 46.43-17.34 69.27-27a13.68 13.68 0 013.94-1.09c2.15-.18 4.92-.26 5.61 2 .55 1.81-2.27 2.24-3.54 3.34s-4.25 1-3.31 3.27 3.38.45 5.18.37c2.47-.11 8.14-3.3 4 3.75a1.73 1.73 0 00.25 1.5c5.27 6.93 2.57 13-6 16.34a115.47 115.47 0 00-17.21 8.66c-10.62 6.44-22 11.14-33.09 16.58a461.76 461.76 0 01-59.62 24.72 106.63 106.63 0 01-36.85 5.69c-2-.07-3.9-.09-5.58 1.44a9.84 9.84 0 005.47 2.7c-3.33-.64-6.93-.51-9.33-3.72-1-1.35-2.48-1.22-4-1.48-2.11-.34-5.9-.61-3.9-4.83a4.13 4.13 0 00.19-1.07c-4.86 1.25-3.18-4.74-6-5.49a19 19 0 01-9-5.56c-1.9-2-4.6-1.92-7-1.55-2.13.33-4.8 3.6-5.23-1.58a4.39 4.39 0 00-2.11-.05 1.57 1.57 0 00-.74 2.44c1.36 2.36.91 4.57-1.47 5.24-3.77 1-6.06 5.14-10.25 4.86-2.18-.15-1-3.06-2.82-4.32-1.35 3.05-6.61 3.57-4.75 8.49.07.18-.48.86-.7.84-3.79-.35-4.23 1.6-5.13 5-1 3.61-5.94 3.79-9.3 5.21-.53.23-1.45.53-1.46.82-.25 7.91-6.81 2.74-9.92 4.75-1 .61-1.79-.45-2.54-1.61-3-4.68-5.73-4.72-9.13-.85-1.38 1.48-3.26 2.37-5.07 3.61zm124.21-44.35c-1.69-.47-19.38-.11-21 .42-.75.24-1.66.47-1.42 1.45a3.06 3.06 0 001.2 1.84c4.08 2.35 17.23 0 21.22-3.71zm-62.09-12.17c4.38 4 9.53 1.42 14.39 1.46a1.76 1.76 0 001.79-1.87c.06-.85-.53-1.79-1.27-1.48-4.84 1.99-10.46-2.5-14.91 1.89zm-152.54 46.16c-3.6.46-7.23.8-10.79 1.48-1 .18-2.94-1.47-3 1.2-.06 2 1.15 2.45 2.78 3 5.24 1.74 7.77-2.46 11.01-5.68zm225.81-10.45c-8.11 1.78-16.41 2.36-24.57 3.77 8.67 1.58 16.61-1.15 24.57-3.77zm-23.2-8.31c0 .31.09.61.13.92 5.77-.73 11.54-1.43 17.3-2.22a1.48 1.48 0 00.88-1.15 1.79 1.79 0 00-2.15-1.49c-5.41 1.24-10.78 2.61-16.16 3.94zm35.29-22.37c-5.14 0-9.47 2.43-14 4.2 4.53-1.85 10.7 3.16 14-4.2zm-279 27c-1.74 1.58-3.4 2.69-2.43 4.93s3 3.25 7.09 3.56c-4.04-2.33-3.4-5.48-4.64-8.5zm40.68 39.07c-4.16-4.21-4.16-4.21-9.11 1zM1090.61 1049.35c-4.71 2.86-9.79 3.92-16.19 3.79 5.51-3.83 11.35-1.7 16.19-3.79zM645.51 630.14c2.72 5.86 8 10.37 3 16.84-1 1.26 1 1.58 1.34 2.45 3.49 7.89 2.46 16.27 2.84 24.52.19 4.16-2.5 6.8-4 10-1.13 2.43-2.75 1.72-4.06-.12-1.41 2.23-5 1.13-6 3.65-.43 2.1.95 3 2 4.06-.48 2.48-3.18.8-4.36 2.43-2 2.69-5.15.52-7.55 1.4-5.51 2-12.79 1.22-14.76 9.2a3.5 3.5 0 01-3.76 2.42c-3.13.27-1.19-3-2.61-4.13-.51-.59-1.35-.5-1.57.52-1.68 7.84-1.65 7.85-11.17 8.78-.48 1.35-1 2.7-1.37 3.81-3.15 1.9-3.91-2.22-6.24-2-12.9 8.49-16.16 12.57-35 12.61l2.17 2.52c-1.69 1-2.5 5.62-5.55 1.37a69.65 69.65 0 01-7.36 4.46c-5.89 2.71-11.91 4.49-17.51-.35-2.93 2.31-2.36 7-6.6 7.41-2 .39-2.44-1.6-4.44-2.51-2.46 1.32-6.11 1.64-7.49 5.7-.84 2.46-3.25 1.37-5 1.44-1.93.07-2.54-3-5-2.21-5.36 4.11-10.54 9.39-17.82 6l-6.64 6.75c-5.2 0-9.35-2.32-13.37.86-2.89 2.28-8.4-1.57-11.62 2.71-6.58-1.57-12.35 3-18.87 2.39a49.52 49.52 0 00-25.07 4.18 4.29 4.29 0 01-2.16.4c-11.11-1.32-21.7 3.35-32.88 2.57-7.8-.55-15.79-1.28-23.61 1.91-3.34 1.35-9.22 1.81-11.24-.13-3.59-3.45-8.16 3.89-10.27-2-3.85-.09-8.14.8-11.4-.62-2.07-.91-5.72-.87-6.54-3.79-1.22-4.4-5.77-5.1-8.21-8.13.9-1.85 2.26-3.35 2.13-5.85-.35-6.21 1.83-13.4-.65-18.4-2.63-5.33.79-11.57-4-15.95-.77-.7-.31-3-.07-4.54 1.51-9.61-3.66-18.64-2.37-28.21-4.64-14.73-3.84-30.58-9.34-45.13 1-11.76-4.44-22.57-5.12-34.21-.27-4.52-.39-10-2.24-14.06-2.2-4.81 0-10.49-2.72-13.95-3.49-4.42 1.38-10.38-3.83-13.69.86-6.49-.82-12.75-2.57-18.79-2.86-9.86-.74-20.67-6.31-30.07-1.37-2.32-.9-6.08-.43-9 .52-3.38-2.57-5.06-2.68-8.37-.36-11.13-4.74-21.8-4.45-33.08-4.75-5.49-.37-12.65-3.34-18.45s-1.08-12.1-1.12-18.12c0-4-3.18-6.71-2.64-10.71a41.22 41.22 0 000-10.47c-.34-2.75 2.56-5.43 1.61-6.8-1.56-2.22-1.36-4.23-1.51-6.45-9.42-4.3-13.34-12-14.07-22-.65-9 .94-17.83 7.3-23.69 8.89-8.18 17.07-17.49 28.38-22.82a470.73 470.73 0 0147.94-19.5c13.24-4.56 26.32-9.68 39.58-14.25 24.5-8.46 49.07-16.74 73.58-25.17 17-5.85 34-11.87 51-17.69 5.46-1.87 11.12-3.17 16.59-5 9.55-3.21 19-6.88 28.56-9.91q19.63-6.19 39.51-11.62a25.4 25.4 0 009.75-4.74c4.44-3.59 4.61-3.38 10.37 1.09l-2.33 2.56c3.48 2.11 4.92.93 4.74-2.58 1.77-2 3.87-.67 5.59-1.12 1.77.81 1.14 2.63 1.65 3.83 2.57 1.8 5.38.14 8 1.16.52 2.92 2.36 4.83 5.66 5.37v28.12l-4.56 4.75c5.7 5.39 9.23 11.31 5.27 19.27 2.9 1.66-1.37 4.6 1.44 7 1.34 1.15.76 5.32.1 7.86-.88 3.36 3.7 5 2.19 8.23-2 1.49-2-1.59-3.48-1.28-3.63 5 2.71 3.54 3.73 5.52l-2.19 2.4 2.07 2.44-4.26 4.27c2.31 5.31 5.42 10.6 4.28 16.59-1.06 5.59 2.89 9.93 2.68 15.39-.2 5.08-2.19 10.69 2 15.46.77.88 0 3 .13 4.57.26 3.64-1.81 6.94-.28 11 1.28 3.4.77 7.76.13 11.54-.8 4.82 3 8.27 2.72 13.07-.27 4.25-2.42 9.34 2 13.05.19.16.08.76 0 1.14-1.66 11.13 3 21.78 2.48 32.87-.2 4.34-.9 8.72 1.9 13.22 1.88 3-1.61 7.58 0 12 .84 2.31 2.2 4.66 2.51 7.1.28 2.15 1.25 5-.62 6.62-3.34 2.89 3 4.17.75 6.6 3.27 4.05-.05 9.09 2.22 13.49s1.65 9.55 2.77 14.06c2.85 11.49 2 23.57 6.13 34.75-2.93 5.61 1.36 10.84.88 16.53s.4 12.31 3.12 17.15c2 3.52-1.67 5.77 0 7.38 2.35 2.25 0 5.28 2.27 7.35 2.68 2.4.78 5.84 1.27 8.77.31 1.8-.43 3.66 1.21 5.36 3.23 3.32 0 6.09-1.26 9.37zm-28.46 27c-.66-3-4.87-3.48-4-6.92 1-4.19-2.19-6.93-3.15-10.42-1-3.8-2.63-7.46-3.91-11.21-4.13-12.07-3-25.45-9.16-37.05-.49-.92-.12-2.27-.19-3.42-.59-10.39-5.51-20.13-4.67-30.74-5-11.35-3.07-24-6.79-35.67-1.41-4.43-.56-9.41-2.25-14.24s-.06-10.12-2.33-15.4.42-11.53-2.17-17.76c-2.28-5.46-1.13-12.39-2.45-18.75-1.59-7.61-.24-15.63-2.4-23.55-1.73-6.34 0-13.27-2.29-20.06-1.67-4.88-1-10.88-.16-16.2.83-5.6-3.39-10-2.58-15.41.45-3.05.08-6.21.08-9.32 0-3.5-.34-7.05.1-10.49.38-3-2.34-6.88-1.38-7.79 4.24-4-1.69-5.88-1.29-9.19.79-6.52-1-13.5.57-19.73 1.68-6.7-5.58-12-1.44-18.44-1.75-6-1.16-12.25-1.22-18.41-.05-4.28 0-8.56 0-12.84s-.28-8.62 1.52-12.69c-3.7-3.34.33-8.29-2.41-11.84-1.89.68-2.91 4-5.72 1.43-3.13-2.87-6.11-2.22-8.79.91-1 1.12-1.9 2.5-3.7 2.14-3 .37-1.11-8.29-6.52-3.43 2.5 1.92 2.71 5 4.24 7.35a21.76 21.76 0 00-2.07.76 46.32 46.32 0 01-24.14 4.66c-5.45 5.38-5.45 5.38-6.68 11.09-2.51 1.3-6-.48-8 2.54l-.81-.86V271c-2.44 5.94-6.1 3.12-8.95 4.84-.21 1.79-.43 3.63-.64 5.47-1.9 1.11-3.94 1.8-5.82 3-3.27 2.13-7.13 3.37-10.82 4.79-1.47.56-2-3.59-4.34-1-1.44 1.62-3.86 1.68-5.7 3.2-4.18 3.45-9.68 4.88-14.29 7.49-4.23 2.4-8.85.68-12.69 3.33-9.6 6.63-21 8.68-31.55 13l-1.72-4.87c-4 1.71-3.55 6.65-6.82 8.73-6.54.66-9.9 1.82-15.58 5.14-.41.24-1.33-.41-2-.65-1.89-2.45 1.44-3.63 1.37-5.83-1.41-.64-2.76-.9-4 .51-.14 2.64-.28 5.25-.43 8.26h-12.25c-2.79 1.84-3.6 5.19-7.38 4.74-1 .09-1.07-2.78-3-1.67-.29 1.15-.23 2.61-.9 3.17-1.5 1.23-29.46 10-30.84 10a2.28 2.28 0 01-.83-.35c-.47-1.35-.95-2.7-1.44-4.13-3.08 1.7.13 5.44-2.68 7-1.84-2.07-1.48-5.78-5-6.64-.94 1.58-3.38 2.12-3.13 5l2.07 3.18c-3.85 2.34-7.62-.88-11.1-.32-4.12.66-8.43 2-11.47 4.3-1.25 2.16.48 4.29-1.32 5.9-1.78-.26-2.51-2.93-6.23-1.4a14 14 0 00-1.87 2.52c-.76 1.41 2.57 2.73 1.27 3.06-3.82 1-3.15 3.92-4.43 6.27-1.64 3-2.44 5.75-1.79 8.54.71 3-2.95 5.07-.51 8.83 1.78 2.74.77 7.61.27 11.43-1.49 11.17 1.87 21.94 2.91 32.84.55 5.83 1.88 11.78 1.77 17.75-.12 6.73.31 6.53 2.08 12.36.71 2.33 4.24 3.79 2.39 7-2.56 4.45 1.76 8.86.27 13.34 6.68 11.84 5.52 25.67 9.66 38 1.87 5.6.29 11.49 2.65 16.36 3.94 8.14 3.38 17.25 6.59 25.29 2.22 5.57.39 11.6 2.54 16.45 4.79 10.84 3.54 23.1 8.91 33.65-1.23 6.54 2.48 12.36 2.64 18.87s3.49 12.65 4.07 19.1c.3 3.23 3.43 4.89 2.77 8.37-.55 2.91-1 6.9.57 8.92 2.26 3 1.66 5.89 1.49 8.75-.19 3.24 3.23 4.95 2.55 8.39-1.44 7.22 4 13.84 2.25 21.19 3.69 4.68.91 10.58 2.62 15.26 2.05 5.6 1.45 11.1 2.16 16.63.82 6.42 1.87 13 8.37 16.86 1.51-2.83 4.11-2.39 6.26-2 10 1.63 19.56-2 29.35-2.81 4.18-.34 8.69-2.59 13-1.77 5.26 1 9.23-2.71 14.24-2.63 7 .12 13.73-2 20.43-4 5.3-1.59 11.29.83 16.4-2.74.95-.66 1.47 2.56 3.33 1.67.5-1.45 1-2.81 1.45-4.22 1 .9 2.42 2.38 2.63 2.22 5-3.6 11-3.68 16.64-5.07 2.06-.51 3.34-2.57 5.75-.4 2.07 1.86 3.95-1 5.46-1.58 10.51-4.22 21.22-7.64 32.44-8.87 3.78-.42 5-3.14 7.39-4.84a5.23 5.23 0 00.82.81c.74.48 1 2 2.51.58 2.66-2.58 7.19-1.16 9.72-4.9 2.21-3.28 7.76.94 10.16-3.39 13-2.23 24.39-8.77 36.1-14.25 13.75-6.44 27.85-12.43 37.33-19.81 5.7-6.99-2.22-11.16 2.03-16.06z"/>
  </g>
</svg>
