<svg version="1" xmlns="http://www.w3.org/2000/svg" width="933.333" height="933.333" viewBox="0 0 700.000000 700.000000"><path d="M104.8 138.3c-18 13.9-32.7 25.6-32.8 26 0 1.5 14.2 19.2 15.2 18.9 1.3-.4 35.6-28.3 42.5-34.5l5.3-4.9-.8 3.4c-.4 1.8-.7 50.8-.7 108.8v105.5l13.8.3 13.7.3V113h-11.7l-11.8.1-32.7 25.2zM543.5 395.5c-10.5 1.6-19.2 4-28.9 7.7-8.8 3.4-14.8 6.7-14.4 7.8.2.4 2.1 5.3 4.3 10.9 2.2 5.5 4.5 9.9 5 9.7 9.1-4.2 21.8-8.9 28.5-10.8 7.1-1.9 11-2.3 23-2.3 14.5 0 14.6 0 21.3 3.3 7.5 3.7 12.4 9.2 15.2 17.2 1.6 4.5 4.3 30.6 3.2 31.6-.3.3-11 1-23.9 1.5-35.8 1.4-52.8 4.7-69.3 13.2-22.5 11.6-32.6 33.9-27 60.1 4.4 20.6 17.9 34.2 39.1 39.2 9.1 2.1 29.4 2.2 39.4 0 12.7-2.7 22.9-8.5 33.2-18.8 5-4.9 9.1-8.8 9.3-8.6.3.3 5.5 24.3 5.5 25.3 0 .3 5 .5 11.1.5h11.1l-.5-70.3c-.4-78-.4-77.6-7.2-91.3-6.8-14-19.7-22.5-39-25.9-10.4-1.8-27.8-1.8-39 0zm56.5 108c0 32.2-12.1 50.3-38.2 57.2-8.8 2.3-25.7 2.3-32.5 0-15-5.2-22.3-18.6-19.3-35.6 1.5-8.5 3.9-12.9 9.9-18.3 10.8-9.7 30.9-13.8 72.9-14.6l7.2-.2v11.5zM72.4 403c.5 2.7 44.4 164.4 48.2 177.8l1.6 5.2 16.5-.2 16.6-.3 18.8-58.2c10.3-32 20.9-66.4 23.4-76.4 2.5-10.1 4.7-18.5 5-18.7.2-.2.8 1.3 1.4 3.4 7.3 28.4 11.6 43.2 26.7 91.5 9.7 31 18 57.2 18.5 58.1.9 1.6 2.7 1.8 16.9 1.8s16-.2 16.9-1.7c.8-1.6 49.7-177.5 50.9-183.1l.4-2.2h-14.5c-8 0-14.8.3-15 .7-1 1.6-35.1 134.3-37.2 144.8-1.9 9-2.4 10.5-3 8-4.1-18-9.3-36.2-26.2-90.3L218.6 400l-15.4.2-15.4.3-19.5 61c-10.7 33.5-21.4 68.6-23.8 78-2.4 9.3-4.5 16.3-4.8 15.5-.2-.8-1.6-7.6-3-15-1.5-7.4-9.2-38.9-17.2-70s-15.3-59.5-16.2-63.3l-1.7-6.7H71.8l.6 3z"/></svg>