<svg xmlns="http://www.w3.org/2000/svg" viewBox="0 0 600 600">
  <defs/>
  <path fill="#fee04a" d="M0 0h600v600H0z"/>
  <g fill="#ffffff">
    <path d="M422.2 97.5h25l-111.9 405h-25zM234.2 97.5h25l-58.7 212.3h-25zM327.9 97.5h25l-58.7 212.3h-25zM513.4 97.5h25l-58.7 212.3h-25z"/>
  </g>
  <path fill="#f4f4f4" d="M146.2 309.8h-25.7V124.5h-1.2l-51.8 34.4v-26.1l53.1-35.2h25.7v212.2zM67.4 344H93l34.3 121.3h1.7L162.7 344h26l33.4 120.9h1.7L258.1 344h25.6l-48.3 158.5h-23.9l-34.7-121.7h-2.5l-34.7 121.7h-23.9zM416.1 455.5c0-35.1 31-41.3 59.3-45 27.9-3.6 39.4-2.6 39.4-13.9v-.8c0-19.6-10.7-31.1-32.3-31.1-22.4 0-34.7 11.9-39.8 23.1l-22.3-8c11.9-27.9 38.2-35.8 61.3-35.8 19.5 0 56.6 5.6 56.6 54.2V499h-23.5v-20.7h-1.2c-4.8 10-18.7 24.3-45.4 24.3-29-.1-52.1-17.2-52.1-47.1zm98.8-11.9V422c-4 4.8-30.7 7.6-40.6 8.8-18.3 2.4-34.7 8-34.7 25.9 0 16.3 13.5 24.7 32.3 24.7 27.9 0 43-18.7 43-37.8z"/>
</svg>
