<svg enable-background="new 0 0 481.9 481.9" viewBox="0 0 481.9 481.9" xmlns="http://www.w3.org/2000/svg"><g fill="#092e20"><path d="m111 181.4h18.6v86.2c-9.5 1.8-16.5 2.7-24.1 2.7-22.7 0-34.5-10.3-34.5-29.9 0-18.9 12.6-31.2 32-31.2 3 0 5.3.3 8.1.9-.1-.3-.1-28.7-.1-28.7zm0 43.4c-2.1-.8-3.9-.9-6.3-.9-9.4 0-14.8 5.7-14.8 16 0 9.9 5.2 15.3 14.7 15.3 2.1 0 3.8-.1 6.3-.4z"/><path d="m159 210.2v43.1c0 14.8-1 21.9-4.5 28.2-3 6-7 9.6-15.2 13.8l-17.4-8.1c8.1-3.9 12.2-7.2 14.7-12.4 2.7-5.3 3.5-11.6 3.5-27.7v-36.7h18.9zm-18.5-28.6h18.6v19.1h-18.6z"/><path d="m170.4 214.4c8.1-3.9 16.1-5.6 24.7-5.6 9.5 0 15.8 2.7 18.6 7.5 1.5 2.8 2.1 6.3 2.1 14.1v37.8c-8.4 1.3-18.8 2.1-26.6 2.1-15.6 0-22.6-5.5-22.6-17.6 0-13 9.3-19.1 32.1-21.1v-4.2c0-3.3-1.6-4.5-6.3-4.5-6.9 0-14.6 2.1-21.9 5.7v-14.2zm29.1 29.7c-12.3 1.3-16.4 3.2-16.4 8 0 3.7 2.3 5.3 7.5 5.3 2.8 0 5.3-.3 9-.9z"/><path d="m224.6 213.1c11-2.9 20.1-4.2 29.3-4.2 9.5 0 16.4 2.1 20.6 6.3 3.9 3.9 5.1 8.4 5.1 17.7v36.5h-18.6v-35.9c0-7.1-2.4-9.8-9.1-9.8-2.7 0-4.8.3-8.6 1.4v44.1h-18.6z"/><path d="m286.9 279.6c6.6 3.3 13 5.1 20 5.1 12.2 0 17.4-5.1 17.4-16.7 0-.1 0-.3 0-.4-3.5 1.8-7.2 2.7-12.2 2.7-16.4 0-26.7-10.8-26.7-27.8 0-21.1 15.3-33.2 42.5-33.2 8 0 15.3.9 24.3 2.7l-6.5 13.4c-5.1-.9-.4-.1-4.2-.4v2.1l.3 7.9.1 10.1c.1 2.7.1 5.1.3 7.6v5.1c0 16-1.4 23.5-5.3 29.6-5.7 9.1-15.8 13.5-30.1 13.5-7.2 0-13.5-1-20.1-3.7v-17.4h.2zm37-55.7c-.3 0-.4 0-.6 0h-1.4c-3.5-.1-7.9.9-10.8 2.7-4.5 2.7-6.9 7.1-6.9 13.7 0 9.3 4.5 14.6 12.8 14.6 2.7 0 4.5-.4 7-1.3v-1.3-5.1c0-2.1-.1-4.5-.1-7.1l-.1-8.6-.1-6.2z"/><path d="m381.2 208.6c18.6 0 29.9 11.7 29.9 30.7 0 19.5-11.8 31.7-30.7 31.7-18.6 0-30.1-11.7-30.1-30.6 0-19.5 11.8-31.8 30.9-31.8zm-.3 47.4c7.1 0 11.4-6 11.4-16.2 0-10.1-4.2-16.2-11.1-16.2-7.5 0-11.6 6-11.6 16.2-.2 10.3 3.9 16.2 11.3 16.2z"/></g></svg>