<svg version="1.1" id="svg2" xmlns:svg="http://www.w3.org/2000/svg" xmlns="http://www.w3.org/2000/svg" xmlns:xlink="http://www.w3.org/1999/xlink" x="0" y="0" viewBox="0 0 481.9 481.9" xml:space="preserve" enable-background="new 0 0 481.9 481.9"><g><path id="path2900" d="M116,293.4c-5.8-4.5-11.8-8.7-16.1-14.9c-8.7-10.6-15.6-23.2-20.1-36.3c-2.8-8.5-3.8-17.7-7.5-25.8 c-3.8-5.9,0.6-12.4,7.2-14.3c3-0.6,8-3.3,1.8-1.3c-5.6,4-6-3.7-0.3-4.1c3.9-0.6,5.3-3.7,3.9-6.5c-4.1-2.7,9.9-5.7,3-9.7 c-7.5-8.1,10.5-9.4,6-0.5c-1,6.9,12.4-1.3,9.3,6.8c3.2,3.9,11.8,0.9,11.7,6.3c4.6,0.3,6.3,4.3,10.5,4.5c4.5,2,12.7,3.7,14.2,8.7 c-4.5,3.5-14.8-7.4-15.4,2.5c1.3,14.4,1,29.3,6.3,43.2c2.5,8.4,8.7,14.9,14.1,21.4c5.3,6.4,12.3,10.9,19.6,14.7 c6.4,3,13.3,5,20.1,6.3c2.8-2.1,7.8-10.2,12.1-6.8c0.3,3.8-8.7,8-0.3,7.5c4.9-1.5,8.3,3.8,12.3-0.9c3.7,4.4,15.4-2.7,12.7,6.2 c-3.5,2.2-8.7,0.9-12.3,4.1c-5.8-3-10.5,2.6-17.1,1.9c-7.2,1.3-14.6,1.8-21.9,1.8c-11.9-0.9-24.3-1.3-35.7-5.6 C128,300.8,121.6,297.1,116,293.4L116,293.4z M126.2,297.8c6.3,2.7,12.4,5.6,19.3,6.5c10.9,1.5,22.3,3.9,33.2,1.8 c-5-2.2-10,0.9-15-1.5c-5.9,1.3-12.3-0.3-18.3-1c-6.9-3.1-14.2-5.1-20.6-9.1c-8.1-3,4.1,3.8,6.3,4.4c5.1,2.8-5.6-1.5-6.9-2.7 c-4.1-2.4-4.7-1.9-0.3,0.6C124.4,296.8,125.2,297.4,126.2,297.8L126.2,297.8z M114.2,289.4c6,2.2,0-4.3-2.8-3.9 c-1.3-2.1-4.7-3.4-2.2-4.6c-4.4,1.5-4.6-5.8-6.8-4.9c-4.6-1.5-1.8-6.8-7.5-9.9c-0.5-3.4-5.6-6.3-7.2-11.4c-0.7-2.6-5.7-10-2.6-3.2 c2.6,6.8,7.2,12.4,10.9,18.3c3,5.6,6.5,11.1,11.8,14.7C109.8,286.2,111.7,288.8,114.2,289.4L114.2,289.4z M96.7,270.3 C96.9,269.3,97.9,272.2,96.7,270.3z M121.5,292C122.8,291.5,119.6,291.4,121.5,292z M124.7,293.2 C124.4,291.7,123.2,294.2,124.7,293.2z M128.9,295C130.9,293.2,125.8,293.8,128.9,295z M136,298.9 C137.1,297.2,132.2,298.3,136,298.9z M122.4,289.6C125.5,287.5,118.5,289.6,122.4,289.6z M125.6,291.1 C125.3,290,124.4,291.5,125.6,291.1z M141,300.8c2.5,1.5,14.6,3.4,6.9,0.6C146.7,301.6,134,297.7,141,300.8z M116.3,281.5 C116.2,280.6,112.5,280.4,116.3,281.5z M123.7,285.8C125.5,284.4,119.7,284.8,123.7,285.8z M129.7,289.6 C132.4,288.4,125.3,288.4,129.7,289.6z M113.5,278.4c3,2.2,11.8,0.3,4.5-1.3c-3.3-1.8-10.8-3-5.8,1L113.5,278.4L113.5,278.4z M133.7,290.8C134.9,288.7,128.7,289.6,133.7,290.8z M127.5,285.9c7.2,2-6-4.5-1.8-0.7l0.9,0.3L127.5,285.9L127.5,285.9z M140,293 C146.7,293.1,133.9,292,140,293L140,293z M110.9,274.5C110.6,273.2,109.1,274.5,110.9,274.5z M151.4,299.3 C151.6,297.1,149.2,301.1,151.4,299.3z M122.4,281.5C122.1,280.3,120.3,281.5,122.4,281.5z M111.5,273.7 C115.4,273.4,106.2,271.9,111.5,273.7z M98.6,265.3C98.1,263.4,94.3,262,98.6,265.3z M132.4,286.8 C131.7,286,132.2,286.9,132.4,286.8z M153.6,299.8C153.5,298.6,152.4,300.3,153.6,299.8z M130.6,284.9 C131.1,283.3,127.4,284.4,130.6,284.9z M114.9,274.9C117.8,274.6,110.3,272.9,114.9,274.9z M141.5,291.4 C146.1,289.6,137.1,290.6,141.5,291.4z M127.7,282.1c5.2,0.7-6.2-3.5-1-0.3L127.7,282.1L127.7,282.1z M145.7,293.2 c4.9-3,3.2,6.8,8.1,0.9c4.9-3.5-4.3,4.4,1.8,0.6c4.4-3,10.9,1.5,14.9,2.7c3-0.1,5.8,2.5,8.7,0.9c5.8-1.5-11.4-2.2-6.9-5.1 c-5.3,1.5-9.3-1.8-11.8-5.2c-5.9-1.3-12.8-4.4-15.8-9.7c-1.2-2,1.8,0.3-1-3c-3.5-3.2-5.3-6.8-7.8-10.6c-2.8-1.5-3.2-6-3.4-0.1 c0-3.7-3.4-6.3-4.4-5.2c0-3.5,3.7-1.8,1-4.4c-0.6-3.7-2.5-7.5-3-11.7c-0.9-2-0.1-6.4-3-1.8c-1,4.9-0.3-5.9,1.3-2.4 c2.1-3.7-0.9-3.2-0.9-2.7c1.3-3.1,0.9-7.5-0.3-5.8c0.7-3.2,1.2-11.8-1-10.5c1.3-3.4,2.6-15.5-3.3-10.9c-2.5,0-6.6,0.9-8.7,1.9 c6.2,3.4-0.6,1.3-3.2,0.7c-0.3,3.2-2.8,1.8-5.9,1.8c5,0.6-2.5,5.1-5.3,3.4c-3.7,1.8,3.2,6.3,0.1,7.5c0.3,2-5.7-0.7-5.2,4 c-3.7-1.5-0.5,5.7,1.3,3.2c6.2,1.6,4.4,5.5,4.5,9c-1,2.1-4.9-4.9-0.9-4.6c-3.2-5.2-3.5-1.9-6.3,0.6c-0.6,0.1,6.8,3.4,2.1,5.1 c4.1,0.6,4.1,4.1,5.1,6.5c2.5,2.5,2-2.8,4.9,0.3c-1.9-2.7-9.9-7.7-3.4-6.2c0-2.7-1.2-5,0.9-4.9c2-3.5-2,8.7,2.4,4.3 c1.2-0.6,1.5-3.5,3.7,0.3c3.2,3.2,1.2,5.3-3.3,2.5c0.9,2.7,6,3.7,5.1,8c1,3.7,2.5,2.4,3.7,2.1c1,3.7,1.5,0.9,1.5-0.9 c4.5,0.9,3.4,3.7,4.9,5.6c3.2,1.5-4.5-9.4,0.9-3.3c5.7,5.1,2.1,7.2-3,6.4c3.2-0.3,4.3,4.4,8.3,4.1c3.7,1.8,6.2,8.4-0.1,5.6 c-2.2-2-9.9-4.4-3.7-0.6c5.8,2.7,10.5,4.4,16.1,7.7c4,2.8,5.8,6.2,7.2,6.8c-3.4,1.5-10.2-1.3-5.1-2.2c-3.2-0.6-6.8-2.2-3.7,1.8 c2.6,2.1,9,1.9,10.2,2.1c-1,2.2-2.7,2.4,0.1,2.5C141.3,292,145.5,292.2,145.7,293.2L145.7,293.2z M139.5,275.6 c-1.9-2-2.4-5.6-0.3-2.5C140.1,273.5,142.5,279.1,139.5,275.6L139.5,275.6z M159.8,288.4C161,288.4,159.8,289.3,159.8,288.4z M136.5,270.9C136.5,267.9,137.1,273.1,136.5,270.9z M134.5,268.1C132.2,263.6,137.5,269.3,134.5,268.1z M110.1,251.2 C111.5,250.8,110.7,253.6,110.1,251.2z M129.6,261.7C130.3,258.5,130.5,264.4,129.6,261.7z M115.7,252.1 C114.8,250.5,117.8,253.8,115.7,252.1z M127.5,256c-2.2-5,1.5-2.7,0.5,0.9L127.5,256L127.5,256z M107.2,242.4c-1-1.6-2.6-6.4-2.1-8 c0.5,2.4,5.1,10.2,2.2,3.2c-3.1-5.8,3.7,1.9,4.4,3.4c0.3,1.5-1.9-0.3-0.3,3C108.7,240.3,109.7,246.2,107.2,242.4z M101,238.1 C101.2,234.3,102.3,240.6,101,238.1z M103.7,239C105.1,236.2,106,243,103.7,239z M96.9,233.8c-2.4-2.4-4-4.5,0.1-1.5 c1.5,0.1-3.5-4.9,0.3-1.5C101.6,231.5,99.4,237.6,96.9,233.8z M100.5,233.7C101.9,232.4,101.3,235,100.5,233.7z M102.8,234.4 C100.6,230.5,105.3,236.1,102.8,234.4z M98.3,230.3c-6.8-6,8.7,3.2,1,1L98.3,230.3L98.3,230.3z M117.9,241.5 c-3-1.8-0.9-12.4,0.3-5.1c2.8-0.9-0.1,3.8,2,3.7C119.7,243.1,118.7,244.1,117.9,241.5z M125.1,245.8 C125.3,242.6,125.7,248,125.1,245.8z M123.8,244.6C124.1,243.1,123.9,246.2,123.8,244.6z M99.7,228.2c-4.4-6,12.7,6.2,2.8,1.5 C101.4,229.6,100.1,229.3,99.7,228.2z M113.7,235.6C113.1,230.5,114.6,236.4,113.7,235.6L113.7,235.6z M124.1,242.3 C125,239.5,124.1,244.2,124.1,242.3z M100.4,225.9c2.6-0.6,10.8,4.6,3.3,1.5C102.8,226.5,101.1,226.9,100.4,225.9z M122.7,237.1 c0.3-5.2,1.5-3.1,0,0.7V237.1L122.7,237.1L122.7,237.1z M102.3,224.1c1-1.5-2.8-6.9,0.6-2c1.5,1.2,4.3,2,1.8,2.5 C108.4,227.9,103.7,225.5,102.3,224.1z M121.5,235.5C122.2,229.6,122.2,238.9,121.5,235.5z M100.1,218.7 C100.8,218.3,100.5,219.7,100.1,218.7z M105.1,221.6C106.4,218.9,107.5,224.6,105.1,221.6z M119.3,229.6 C119.3,228.5,119.6,231.1,119.3,229.6z M118.5,227.7C116.5,222.8,120.3,230.3,118.5,227.7z M117.3,224.6 C116.9,222.5,118.4,227.1,117.3,224.6L117.3,224.6z M119.1,221.3c-1.3-2.4,1.8-10.5,2-5.5c-1.5,3.9-0.3,6.2,0.6,0.9 C123.7,212.6,121.5,224.8,119.1,221.3L119.1,221.3z M121.3,209.3C121.8,208.6,121.3,210.1,121.3,209.3z M117.9,275.8 C117.1,275.1,118,276.3,117.9,275.8z M124.9,279.4c3.9,1,3.9-0.6,0.3-1c-1.9-1.8-7.8-3.7-2.5-0.3 C123,278.8,124.1,278.8,124.9,279.4L124.9,279.4z M111.2,270.3c2.1,1.5,8.1,4.5,3.1,0.6c1.6-2-3.2-3-1.5-4.4 c-4.1-2.5-3.2-2.2-0.3-2.2c-5-2.2,0.7-2,0.5-3.2c-1.9-0.3-9.4-3.4-5.1,0.3c-4.6-2.2-1,0.9-2.5,0.6c-4.6-1.3,4.1,3.5-0.7,2.4 c2.7,2.1,7.2,5.5,1,2.2C104.7,267.6,109.8,269.3,111.2,270.3L111.2,270.3z M118.4,274.4C127.2,277.2,114.1,271,118.4,274.4z M155.6,297C155.7,295.1,154.4,298.4,155.6,297z M159.4,298.6c2-2,0.1,3.2,3.4-0.5c0-2.6-0.1-4.1-3.8-0.9 C158,297.7,157.5,300.1,159.4,298.6L159.4,298.6z M98.7,260.3C98.1,257.9,94.3,257.9,98.7,260.3z M102.8,263 C101.3,260.5,97.4,260.8,102.8,263z M126.1,277c2.2,2,10.5,1.5,2.7,0.3C127.7,275.6,121.5,276,126.1,277z M158,296.8 C161.6,293.9,154.5,298.2,158,296.8z M165.3,301.8C165.3,300.9,163.8,302.2,165.3,301.8z M165.3,300.5 C169.1,296.4,161.6,300.8,165.3,300.5L165.3,300.5z M88.6,251.9c-3.3-4.7-2-6.9-5.2-10.6c-0.6-3-5.5-9.6-2.5-2.5 C83.6,242.9,84.3,249.3,88.6,251.9z M164.1,299.2C171.2,294.6,161,297.2,164.1,299.2z M169.4,301.2 C173,298.3,167.2,300.7,169.4,301.2z M97.5,255.2C98.6,253.7,94.8,255,97.5,255.2z M168.4,299.8c3.4-2.2-0.9-1.9-0.6,0.3 L168.4,299.8L168.4,299.8z M121.5,270.4C121.3,268.8,119.7,270.5,121.5,270.4z M124.4,272C123.4,270.1,123,272.4,124.4,272z M173.8,301.4c4.4-3.2-2.7-0.6-0.9,0.6L173.8,301.4L173.8,301.4z M172.2,300.5C175.9,297.4,168.4,302,172.2,300.5z M180.8,306.4 C183.3,304.6,178,305.8,180.8,306.4z M99.7,254c3.2,0.7,13,8,7.2,0.5c-3-0.9-1.2-8.1-4.1-6.8c2,3.4,1.6,4.9-2.6,2.7 c-5.3-2.6-3,1.3-2,2.4C96.8,253.1,100.1,254,99.7,254L99.7,254z M84.9,242.4c0.6-2.4-5.3-13.3-2.8-5.5 C83,238.7,83,241.7,84.9,242.4z M112.1,259.1C110.3,257.7,111.9,258.9,112.1,259.1z M116.2,260.1 C116.2,257.5,111.6,259,116.2,260.1z M151.7,282.5C151.1,280.8,149.1,282.4,151.7,282.5L151.7,282.5z M153.5,283.8 C153.3,282.8,152.6,284,153.5,283.8z M167.7,292.7C169,291.7,165.9,292.5,167.7,292.7z M92.3,244.3 C96.3,242.8,88.2,243.1,92.3,244.3z M148.6,279.8C148.6,277.2,146.1,280.4,148.6,279.8z M90.8,240.8 C93.3,239.9,88.4,240.2,90.8,240.8z M98,244.2C98,243.4,97.3,244.6,98,244.2z M186.4,298.4c3.2-0.6,10.5,1.6,11.7-0.9 c-3.9-0.1-13.5-2.7-14,0.6l0.9,0.1L186.4,298.4L186.4,298.4L186.4,298.4z M100.4,244.8C100.4,242.2,98.3,244.7,100.4,244.8z M81.3,231.6C80.5,226.7,78,230.9,81.3,231.6z M85.8,232.7C85.8,231.2,81.7,231.3,85.8,232.7z M88.4,234 C87.7,233.4,87.9,234.7,88.4,234z M104.7,244.5C105.6,243.7,102.9,244,104.7,244.5z M86.7,231.2C86.3,227.4,81.4,230.6,86.7,231.2z M77.4,225C77.2,223.4,76.5,225.7,77.4,225z M78.9,224.1C78.6,222.1,77.7,224.3,78.9,224.1z M86.4,228.6c3.2-1.3-5.9-2.6-0.6-0.3 L86.4,228.6z M188.7,291.9C190.9,290,186.2,291.3,188.7,291.9z M201.2,298.3C202,295.8,199.1,298.6,201.2,298.3z M87.3,224.6 C87.4,222.3,84.6,225,87.3,224.6z M76.4,217.3c-0.6-3.4-0.5-9.3,5.1-7.2c-7.5,1.5,5.2,9.3,3.5,3.2c3.2,0.1,6.2-1.9,4.5,1.2 c6.3-0.7,10.5-6,16.5-5.3c4.6-0.6,9.7-1,14.8-3c4.1-0.3,8.1-4.7,5.8-7.5c-5.6-0.5-11.5,0.3-17.7,1.5c-6.9,1.5-13.1,4.1-20.1,5.3 c-6.8,0.9,1.3,2.5-0.6,2.8c-3.5,1.3,4.3,2-0.5,3.4c-3-0.6-5.9-1.5-4.6-4.6c-6.5,0.9-12.2,3.5-7.1,10.2L76.4,217.3L76.4,217.3 L76.4,217.3z M92,209.3c1.5-5.6,8.1,4.6,2.5,0.7C93.8,209.5,92.7,209.2,92,209.3z M92.2,206.7C94.5,205.1,93.3,207.5,92.2,206.7z M95.1,206.7c0.3-2.6,6.4,1.3,1,0.9L95.1,206.7L95.1,206.7z M98.8,205.1C100.1,203.5,99.2,206.6,98.8,205.1z M99.8,204.5 c2.2-2.7,13.1-1.8,5.2-0.3C102.9,202.7,101.3,205.1,99.8,204.5z M113.8,202.3C113.7,194.8,120.9,205.1,113.8,202.3z M117.9,202.3 c1.5-3.9,5.7-1.5,0.7-0.9C118.7,202,118.5,203.5,117.9,202.3z M85.5,222.7C89.9,220,80.9,220.3,85.5,222.7L85.5,222.7z M88.9,223.5 C90.3,221.9,85.5,222.9,88.9,223.5z M79.3,216.7C81.8,214.8,76.4,216,79.3,216.7z M208.5,297.6 C208.5,295.3,206.6,298.6,208.5,297.6z M195.4,288.6C195.8,286.1,193.7,288.8,195.4,288.6z M212,298.4c3.4,0,10.6-1,3-1 C213.8,297.6,208.1,297.4,212,298.4L212,298.4z M91.7,221.9c2.8-0.1,4.4-3.2-0.6-3c-7.7-0.9,6.8,2.7-1,1.6 C89.1,221.3,91.6,222.2,91.7,221.9z M94.2,223.1C93.9,221.3,93.3,224.2,94.2,223.1z M97.2,215.3C98.3,213.8,95.5,215,97.2,215.3z M87.7,199.6c5.1-1.8,11.9-3.7,14.3,0.9c-2.5-3-0.9-5.8,1.3-1.5c3.2,4.4,4.9-2,2.7-3.4c2.5,3,5.1,4.4,1.5,0.1 c3.9-4.6-7.7,0.6-10.3,0.6C96.3,196.8,84.3,199.2,87.7,199.6z M90.7,194c3-2.2,9.9,1.3,5.5-2.1C95.7,191.4,86.1,194.4,90.7,194z M101.2,194.4c3.4,0.1-1.5-4.6,2.6-2.5c-0.6-2.1-4.6-2.5-6.6-3.4C96,190.5,99.4,194.4,101.2,194.4z M92.6,184.9 C93.6,183.3,90.5,185.6,92.6,184.9z M96.8,185.9c5.5-0.7-1.5-2.4-1-0.1L96.8,185.9L96.8,185.9z M88.8,179.6c-3.9-5,7.2,0.9,3.3-4.4 C88.9,172.6,85.7,178.2,88.8,179.6z M137.9,206c1.8-3.1-7.2-4.1-1.2-1C137.3,205.1,137.1,206.3,137.9,206z"/><g id="text3850"><path id="path2830" d="M219.1,199.9c-0.6,2.5-1,6.6-1.2,12.4c0,1.2-0.6,1.8-1.5,1.8c-0.9,0-1.8-0.5-2.1-1.5 c-1-2.7-2.1-4.6-3.2-5.7c-1.2-1.3-2.7-2-4.7-2.2c-2.1-0.3-7.4-0.5-15.8-0.5c-1.9,0-3.2,0.3-3.8,0.6c-0.3,0.3-0.6,0.9-0.6,1.6v25.1 c0,0.9,0.6,1.3,1.5,1.2c3.3,0,8.1-0.3,14.2-0.6c1.2-0.1,2-0.6,2.5-1.2s0.9-2.2,1.3-5.1c0.3-1.5,1-2,2.6-1.8 c1.3,0.3,1.8,0.9,1.5,1.8c-1,5.1-1.3,11.6-1,19.6c0,0.9-0.6,1.5-1.8,1.5c-1,0.1-1.6-0.5-2-1.6c-0.9-4.6-2.7-7.1-5.3-7.5 c-2.6-0.3-6.9-0.5-12.7-0.5c-0.6,0-1,0.3-1,0.7V263c0,1.8,0.7,3.1,2,3.8c1,0.6,3.4,1,6.9,1.5c1.8,0.1,2.6,0.9,2.4,2.4 c-0.3,1.2-1.8,1.8-4.9,1.5c-8.7-0.7-15.9-0.6-21.7,0.1c-1.5,0.3-2.4-0.3-2.4-2c0-0.9,0.9-1.5,2.4-1.6c3.7-0.3,5.5-3.5,5.5-9.4 v-47.3c0-2.5-0.5-4.4-1.3-5.6c-0.9-1.3-2.5-2.5-4.9-3.5c-1.5-0.6-2-1.5-1.6-2.7c0.1-0.7,0.5-1,0.9-1.2c0.3-0.2,1.3,0,3,0.3 c2.4,0.3,7.8,0.6,16.5,0.6c10.2,0,18.9-0.3,26.4-0.6c2.5-0.1,3.7,0.1,3.7,0.6C219.1,199.6,219.1,199.8,219.1,199.9L219.1,199.9z"/><path id="path2832" d="M255.1,270.3c0,1.5-0.9,2.1-2.5,2c-5.1-0.5-11.4-0.3-18.9,0.3c-1.5,0.1-2.5,0.1-2.8-0.1 c-0.3-0.3-0.6-0.9-0.6-1.8c0-0.9,1-1.6,3-2.2c2-0.6,3-2.5,3-5.5v-50.1c0-3-0.5-5.2-1.3-6.6c-0.9-1.5-2.4-2.5-4.6-3.2 c-1.2-0.3-1.8-0.9-1.8-1.8c0-1,0.9-2,2.5-2.5c2.5-0.9,5.1-2,7.8-3.8c2.2-1.3,3.7-2,4.1-2c1.3,0,2,0.9,2,2.8c0-0.1-0.1,1.8-0.3,5.6 c-0.1,3.7-0.1,7.2-0.1,10.8l0.3,49.4c0,2.2,0.6,3.9,1.6,4.9c1,1,3,1.6,5.7,2C254.2,268.6,255.1,269.2,255.1,270.3z"/><path id="path2834" d="M305.4,266.6c0,0.9-1.5,2-4.3,3.5c-2.8,1.5-5.1,2.4-6.8,2.4c-1.5,0-2.7-0.7-3.9-2.1c-1-1.5-1.9-2.1-2.4-2.1 c-0.3,0-2,0.9-5.3,2.2c-3.2,1.5-6.4,2.2-9.6,2.2c-3,0-5.6-0.9-7.5-2.7c-2.2-2-3.3-4.6-3.3-8c0-6.4,7.4-10.9,21.9-13.7 c2.5-0.5,3.8-1.5,3.9-3.1l0.1-3.5c0.3-6-2.5-9-8.1-9c-1.5,0-3.1,1.5-4.5,4.3c-1.5,2.8-3.4,4.4-6.2,4.6c-3,0.3-4.6-0.9-4.6-3.9 c0-1.8,2.2-3.9,6.8-6.3c4.7-2.5,9.3-3.7,13.6-3.7c7.5,0,11.1,3.5,11.1,10.6l-0.1,23c0,2.4,0.9,3.7,3.1,3.7c0.3,0,1.2-0.1,2.4-0.3 c1.2-0.1,1.8-0.3,2-0.3C304.9,264.5,305.4,265.1,305.4,266.6L305.4,266.6z M288.4,253.9c0-0.9-0.1-1.5-0.6-1.8 c-0.5-0.3-1.2-0.3-2.2-0.1c-8.9,1.5-13.3,4.5-13.3,8.7c0,4.3,2.2,6.4,6.9,6.4c1.8,0,3.8-0.3,5.7-1c2.2-0.9,3.4-1.8,3.4-3 L288.4,253.9z"/><path id="path2836" d="M346.8,260c0,3.9-1.5,6.9-4.5,9.3c-3,2.2-7.1,3.4-12.3,3.4c-3.4,0-6.9-0.3-10.5-1c-3-0.6-4.7-1.3-5.2-1.8 c-0.3-0.6-0.5-3.1-0.5-7.5c0-2,0.5-3,1.3-3.1c0.9-0.1,1.6,0.3,2.2,1.5c2.7,4.9,7.2,7.2,13.4,7.2c5.2,0,7.8-1.8,7.8-5.5 c0-1.5-0.6-3-1.8-4c-1.3-1.2-3.8-2.7-7.5-4.3c-5.3-2.4-9-4.5-10.8-6.3c-2-1.9-3-4.5-3-7.7c0-4,1.5-7.1,4.6-9.3 c2.8-2.1,6.6-3.2,11.4-3.2c3,0,5.8,0.3,8.1,0.7c2.7,0.5,4,1,4.1,1.8c0.3,2,0.9,5.1,1.8,9c0.1,0.5-0.3,0.9-1.5,1.2 c-1.2,0.3-2,0.1-2.5-0.6c-3-4.7-6.6-7.2-11.1-7.2c-5.1,0-7.5,1.6-7.5,4.9c0,1.8,0.7,3.2,2,4.4c1.2,0.9,4.1,2.4,8.7,4.4 c4.7,2,8,3.9,9.6,5.6C345.6,253.7,346.8,256.4,346.8,260z"/><path id="path2838" d="M411,269.9c0,1.3-0.9,2-2.6,2c-2.6,0-6,0.3-10.2,0.6c-2,0.3-3.5,0.1-4.4-0.9c-5.8-6.3-10.8-12.8-14.8-19.6 c-0.3-0.6-0.9-0.9-1.3-0.9c-0.6,0-1.8,0.6-3.2,1.6c-1.8,0.9-2.6,2.4-2.6,4.1c0,1.3,0,3.1,0.1,5.5c0.1,2.4,0.6,3.9,1.8,4.6 c0.9,0.6,2.6,0.9,5.3,1.2c1.8,0.3,2.6,0.9,2.6,2c0,0.9-0.1,1.3-0.3,1.5c-0.3,0.3-1,0.3-2.2,0.1c-3.7-0.3-9.9-0.1-18.7,0.6 c-2.2,0.1-3.4-0.1-3.7-0.9c-0.1-0.3-0.1-0.6-0.1-1c0-1.2,1-2,3.4-2.6c2-0.6,3.1-3,3.1-7.2v-48.4c0-3-0.3-5.1-0.9-6.3 c-0.9-1.5-2.5-2.7-5.1-3.5c-1.2-0.3-1.8-0.9-1.8-1.8c0-1,0.9-1.9,2.6-2.5c2.7-0.9,5.5-2.2,8-3.9c2-1.3,3.3-2,3.8-2 c1.5,0,2.2,0.9,2.2,3c0-0.3,0,1.5-0.1,5.6c0,2.7-0.1,6.3-0.1,10.9l0.1,34.7c0,0.9,0.3,1.5,0.9,1.5c0.6,0,1.5-0.5,2.5-1.5 c3.1-2.4,6.9-5.6,11.2-9.4c0.9-0.9,1.3-1.6,1.3-2.2c0-1-1.5-1.8-4.5-2.1c-1.3-0.1-1.9-0.9-1.8-2.1c0.1-1.3,0.9-1.8,2-1.6 c2.7,0.3,6.5,0.6,11.6,0.6c3.5,0,7.1,0.1,10.5,0.1c1.2,0,1.8,0.7,1.8,2c0,1.3-0.9,2-2.7,2c-2.8,0.1-5.6,0.9-8.1,2 c-3.5,1.5-7.2,4.4-11.2,8.4c-0.3,0.3-0.5,0.5-0.5,0.9c0,0.6,0.6,1.8,1.9,3.7c4.6,6.9,9,12.3,13,15.9c2.6,2.2,5.1,3.4,7.5,3.4 c1.8,0,2.7,0.1,3.2,0.3C410.8,268.2,411,268.9,411,269.9L411,269.9z"/></g></g></svg>