<svg enable-background="new 0 0 481.9 481.9" viewBox="0 0 481.9 481.9" xmlns="http://www.w3.org/2000/svg" xmlns:xlink="http://www.w3.org/1999/xlink"><linearGradient id="a" gradientTransform="matrix(.5625 0 0 .568 240.397 -972.0696)" gradientUnits="userSpaceOnUse" x1="-407.0781" x2="-294.9107" y1="2042.7495" y2="2139.2544"><stop offset="0" stop-color="#5a9fd4"/><stop offset="1" stop-color="#306998"/></linearGradient><linearGradient id="b" gradientTransform="matrix(.5625 0 0 .568 240.397 -972.0696)" gradientUnits="userSpaceOnUse" x1="-251.2298" x2="-291.2845" y1="2197.3765" y2="2140.7058"><stop offset="0" stop-color="#ffd43b"/><stop offset="1" stop-color="#ffe873"/></linearGradient><g fill="#646464"><path d="m198.5 242c0-15-4.3-22.6-12.9-23.1-3.3-.2-6.7.5-9.9 1.7-2.6.9-4.3 1.9-5.3 2.9v35.8c5.5 3.3 10.3 5 14.5 4.7 9.3-.8 13.6-8.1 13.6-22zm10.6.5c0 7.7-1.8 13.9-5.4 19-4 5.7-9.5 8.7-16.7 8.7-5.4.2-10.7-1.6-16.6-5v32.4l-9.1-3.2v-72.1c1.6-1.9 3.3-3.3 5.7-4.7 5.5-3.2 12-4.8 19.9-4.9l.1.1c7.1-.1 12.7 3 16.5 8.7 3.7 5.6 5.6 12.5 5.6 21z"/><path d="m265 263.9c0 10.2-1 17.3-3.1 21.1-2.1 3.9-5.9 7.1-11.8 9.4-4.7 1.9-9.7 3-15.2 3l-1.6-5.7c5.6-.7 9.5-1.6 11.7-2.3 4.5-1.6 7.5-3.8 9.1-7 1.4-2.5 1.9-7.3 1.9-14.5v-2.4c-6.3 3-12.9 4.2-19.8 4.2-4.5 0-8.6-1.5-12-4.2-3.8-3.1-5.7-7-5.7-11.9v-37.8l9.1-3.2v38.4c0 4.1 1.4 7.3 4 9.5 2.7 2.3 6.1 3.2 10.3 3.2 4.2-.1 8.7-1.8 13.5-4.9v-44.7h9.1v49.8z"/><path d="m300.9 269.8c-1.1.1-2.1.1-3 .1-5.1 0-9.3-1.3-12.1-3.7-3-2.5-4.3-5.8-4.3-10.3v-36.1h-6.3v-5.7h6.3v-15.4l9.1-3.2v18.5h10.3v5.7h-10.3v35.9c0 3.3.9 5.8 2.9 7.3 1.6 1.1 4.1 1.9 7.5 2.1z"/><path d="m356.3 269h-9.1v-35.4c0-3.5-.8-6.7-2.5-9.3-1.9-3-4.6-4.5-8.1-4.5-4.2 0-9.5 2.3-15.8 6.7v42.5h-9.3v-84.7l9.1-3v38.5c5.8-4.2 12.2-6.4 19.3-6.4 4.8 0 8.7 1.7 11.9 4.9 3 3.2 4.5 7.3 4.5 12.1z"/><path d="m405.1 240.6c0-5.7-1.1-10.5-3.2-14.4-2.6-4.6-6.6-7-12-7.2-10.1.7-15 7.9-15 21.6 0 6.4 1 11.7 3.2 15.8 2.7 5.5 6.7 8.1 12.1 8.1 9.9-.2 14.9-8.2 14.9-23.9zm9.9 0c0 8.2-2.1 15-6.3 20.5-4.6 6.1-11 9.1-19.1 9.1s-14.4-3.1-18.9-9.1c-4.1-5.5-6.2-12.2-6.2-20.5 0-7.8 2.3-14.3 6.7-19.5 4.7-5.6 10.7-8.5 18.4-8.5s13.8 2.9 18.6 8.5c4.8 5.2 6.8 11.7 6.8 19.5z"/><path d="m467.7 269h-9.1v-37.4c0-4.1-1.3-7.3-3.7-9.5s-5.7-3.3-9.8-3.2c-4.3.1-8.6 1.6-12.5 4.2v46h-9.1v-47.3c5.3-3.8 10.1-6.4 14.5-7.5 4.2-1.1 8-1.7 11-1.7 2.2 0 4.2.2 6.2.7 3.5.8 6.5 2.4 8.7 4.6 2.5 2.5 3.8 5.6 3.8 9z"/></g><path d="m70.8 184.7c-4.7 0-9.3.5-13.3 1.1-11.7 2.1-13.8 6.4-13.8 14.4v10.5h27.5v3.4h-27.4-10.4c-8.1 0-15 4.8-17.3 14.1-2.6 10.5-2.7 17 0 28 1.9 8.2 6.6 14.1 14.5 14.1h9.5v-12.5c0-9 8-17.1 17.3-17.1h27.5c7.8 0 13.8-6.3 13.8-14.1v-26.2c0-7.5-6.3-13.1-13.8-14.4-4.4-.9-9.3-1.3-14.1-1.3zm-15 8.6c3 0 5.1 2.4 5.1 5.3s-2.4 5.3-5.1 5.3c-3 0-5.1-2.4-5.1-5.3s2.4-5.3 5.1-5.3z" fill="url(#a)"/><path d="m102.3 214.3v12.2c0 9.5-8.1 17.5-17.3 17.5h-27.4c-7.5 0-13.8 6.5-13.8 14.1v26.2c0 7.5 6.5 11.9 13.8 14.1 8.7 2.6 17 3 27.5 0 7-2.1 13.8-6.1 13.8-14.1v-10.5h-27.4v-3.4h27.5 13.8c8.1 0 11-5.6 13.8-14.1 3-8.7 2.9-17 0-28-1.9-8.1-5.7-14.1-13.8-14.1 0 .1-10.5.1-10.5.1zm-15.3 66.5c3 0 5.1 2.4 5.1 5.3 0 3-2.4 5.3-5.1 5.3-3 0-5.1-2.4-5.1-5.3-.2-3 2.2-5.3 5.1-5.3z" fill="url(#b)"/></svg>