<svg fill="none" height="128" viewBox="0 0 84 128" width="84" xmlns="http://www.w3.org/2000/svg"><style>@media (prefers-color-scheme: dark){g{fill:hsla(43,26%,85%,1);}}</style><g fill="hsla(240,2%,25%,1)"><path d="m10.4929 69.9384v2.369c0 .6434 0 1.2868.0586 1.9302.0585.7311.1464 1.4623.2635 2.1935l.0878.5849c.0293.117.0586.2632.0878.3802l.0293.1754c.0293.1463.0586.2633.0879.3803l.0292.1462c.0293.117.0586.2339.1172.3509l.0585.1463c.0878.2047.1464.4094.2635.6141s.2635.5265.4099.8189c.1171.1755.2928.2925.527.2925.0586 0 .1171 0 .1464-.0293.1464-.0292.2928-.1462.3513-.2632.0879-.1462.1171-.2924.0586-.4679-.2635-.6142-.4977-1.2576-.6734-1.901-.1464-.6142-.2635-1.2283-.3806-1.8133-.1171-.8774-.2343-1.8132-.2635-2.7491-.0293-.8774-.0293-1.784-.0293-2.6614v-.5557c-.0293-.3509-.3221-.6141-.7027-.6141-.2342.0877-.4977.3509-.527.6726zm1.4932-7.0191c-.0585.0293-.1171.117-.1464.1755-.2049.5265-.3513 1.0529-.4684 1.5793-.1172.5849-.2343 1.1699-.3514 1.8133-.0293.0877 0 .2047.0293.2924.1171.1755.3513.234.527.1463.0878-.0585.1464-.117.1757-.234.0878-.5849.2049-1.1698.3513-1.8133.0586-.2632.1171-.4971.1464-.7604l.1757-.8773c.0293-.1755-.0586-.3217-.205-.3802h-.0878c-.0586.0292-.0878.0584-.1464.0584zm1.6981 18.8638c-.1464.0877-.2635.234-.2928.4094-.0292.1463-.0292.3217.0586.468.3221.4679.6734.9359 1.0247 1.3745l.0586.0878c.322.4094.6734.8189 1.054 1.1991.2049.2047.4977.2339.7319.0877.1464-.0877.2343-.2047.2635-.3509.0586-.1463.0293-.3218-.0585-.468-.3806-.4972-.7612-.9651-1.1419-1.433l-.322-.4095c-.1757-.234-.3514-.4679-.527-.7311-.1171-.2048-.3221-.3217-.5563-.3217-.0878 0-.1757.0292-.2928.0877zm-.0293-5.7907c-.1464.0292-.2635.1462-.322.2632-.0878.117-.0878.2924-.0586.4387l.527 1.4038.0879.2047.1171.2632c.0585.1463.1171.2632.1757.3802l.0585.117.1464.3217.0878.1462c.0586.117.1171.2048.1757.3218l.0878.1462c.1757.3217.3806.6141.5856.9066.0585.117.1757.1755.2928.234.0292 0 .0878.0292.1171.0292.2635 0 .4684-.2047.4684-.4679 0-.0878-.0293-.1755-.0585-.234-.3806-.6726-.732-1.3745-1.1126-2.2227l-.0878-.234c-.205-.5264-.4099-1.0236-.5856-1.55-.0293-.1462-.1464-.2632-.2635-.3217-.0878-.0585-.1757-.0877-.2928-.0877-.0292-.0585-.0878-.0585-.1464-.0585zm4.626 10.3531c0 .2924.2342.5557.5563.5557.322 0 .5562-.234.5562-.5557 0-.2925-.2342-.5557-.5562-.5557-.2928 0-.5563.2632-.5563.5557zm60.8104-15.9684-.2635.7896-.0879.2633c-.0585.1754-.1171.3217-.2049.4972l-.0878.2339c-.7027 1.5793-1.4054 3.1293-2.1374 4.5332-.0292.0877-.0878.1755-.1463.2632-.1172.1755-.0586.4387.1463.5264.0586.0293.1172.0585.205.0585.1464 0 .2635-.0585.3513-.2047.205-.3802.4392-.7897.6442-1.1991.2049-.4095.4098-.8481.5855-1.2576.1464-.3217.2635-.6142.4099-.9359l.0879-.2339c.1756-.4095.3513-.8482.5269-1.2576.2343-.5557.4392-1.1406.7027-1.9303.0293-.0877.0293-.1754-.0293-.2632-.0585-.0877-.1171-.1462-.2342-.1755-.2342-.0292-.4099.0878-.4684.2925zm-4.3039 8.4229c-.3513.6142-.7319 1.2576-1.0833 1.8717-.1464.234-.0585.5557.1757.6727.0878.0585.1757.0585.2635.0585.0585 0 .0878 0 .1464-.0293.1171-.0292.2342-.1169.2928-.2339.3806-.5265.7026-1.1114 1.0247-1.6671l.1171-.1754c.1464-.2632.0586-.5849-.2049-.7312-.0879-.0585-.1757-.0585-.2636-.0585-.1756.0585-.3513.1463-.4684.2925zm.0878-2.6322c-.3968.6831-.7776 1.3755-1.1418 2.0765-.0586.117-.0293.2925.0878.351s.2928.0292.3514-.0878c.3806-.7019.7905-1.3745 1.1711-2.0764.0878-.117.0293-.2925-.0879-.3802-.0292-.0293-.0878-.0293-.1463-.0293-.0879 0-.1757.0585-.2343.1462zm-2.957 7.5748-.4099.4679c-.6441.7312-1.3175 1.4916-1.9909 2.252-.1464.1462-.1464.3802 0 .5556.0878.0585.1756.117.2928.117.0878 0 .2049-.0292.2634-.117.732-.7896 1.5811-1.7547 2.3716-2.7783.0585-.0585.0878-.1463.0878-.234s-.0293-.1755-.0878-.234c-.0586-.0585-.1464-.117-.2635-.117-.1172 0-.205.0293-.2635.0878zm-30.1271-24.713c-.527 1.901-1.1711 3.7435-1.9031 5.586-.0292.1463-.0292.2925.0586.4387.0878.117.2049.234.3513.2632.0586 0 .0878.0293.1464.0293.1171 0 .2049-.0293.2928-.0878.1171-.0877.2049-.2047.2635-.3509.3221-.8189.7027-1.784 1.0247-2.7784l.0879-.2925c.1171-.3217.2342-.6726.2927-.9943v-.0293c.0586-.2339.1171-.4387.1464-.6726.0586-.2632.0879-.5557.1464-.8189.0293-.117 0-.2632-.0585-.3802-.0586-.117-.1757-.1755-.2928-.2047-.0293 0-.0879-.0293-.1171-.0293-.2343 0-.4099.1462-.4392.3217zm.7905-6.0539c-.1171.0585-.2342.2047-.2635.3217-.0586.4972-.1171.9359-.1757 1.3453-.0585.4094-.0585.7896-.0878 1.1991v.117c0 .1462.0585.2924.1464.3802.1171.117.2635.2047.4392.2047.1463 0 .2927-.0585.4099-.1755.1171-.117.1756-.2632.1756-.4094.0586-.7312.1171-1.6086.205-2.4859 0-.2633-.1757-.468-.4099-.5557-.0586 0-.0879-.0293-.1464-.0293-.1171.0293-.205.0585-.2928.0878zm-1.7274-52.8769944-.2635.1754764c-.6734.409446-1.2297.935878-1.6688 1.579288-.205.29246-.4392.58492-.6149.87739-.4099.64341-.8198 1.31607-1.2297 1.95948-.8198 1.34533-1.5224 2.74914-2.2251 4.15295-.6441 1.28681-1.2297 2.57361-1.8152 3.88971-.7613 1.7255-1.5518 3.4511-2.313 5.1766-.7319 1.6378-1.3468 3.334-1.903 5.0596-.5563-.3217-1.1419-.6142-1.6982-.9359-1.0833-.5849-2.1373-1.1991-3.1913-1.8133-1.1418-.6434-2.3422-1.2576-3.5133-1.8717-.5856-.2925-1.1419-.5849-1.6982-.9067-.5562-.3217-1.1418-.6434-1.7274-.9066-.1464-.0585-.322-.1462-.4684-.1755l-.4392-.0584h-.0585c-.2343.0292-.4685.0877-.6734.2339-.205.117-.3806.2925-.5563.4387-.3221.351-.5563.7312-.7612 1.1406-.205.4387-.4099.9066-.5563 1.4038-.1757.468-.3221.9651-.4685 1.4623-.0878.3217-.0585.6727.0879.9651-.0293.6435.322 1.2869.8783 1.6086 1.3175.7896 2.6936 1.4623 4.0989 2.135 1.3175.6434 2.635 1.2868 3.9818 1.9009 2.5179 1.1699 5.0358 2.3982 7.5537 3.5973l.0586.0293.2928.1462c1.4932.7019 3.0156 1.3453 4.4795 1.9887l1.1711.4972c1.1419.4972 2.2837.9651 3.4256 1.4038.7612.3217 1.5224.6142 2.3129.9359l.8784.3802c1.0247.4387 2.0494.8774 3.1034 1.3161l.3514.1462 2.2837.8774s1.4931.6142 2.2251.9066c1.2297.5265 2.4886 1.0529 3.7183 1.6086l1.8445.8189c.2928.1462.6148.2632.9369.3802.4392.1462.9076.2339 1.3175-.0293.3513-.2925.6441-.6434.8491-1.0529.1756-.2632.322-.5264.4391-.7896.0879-.1755.1757-.3802.2343-.5557.0585-.1462.0878-.3217.0878-.4679.0293-.1462 0-.2925-.0293-.4387-.0585-.1755-.1464-.3217-.2049-.4679-.1171-.1755-.2342-.3218-.3806-.4387-.1464-.1463-.2928-.2633-.4392-.4095-.4977-.4387-1.0247-.8189-1.5225-1.2283-.5855-.468-1.1711-.9066-1.7566-1.3746-.8491-.6434-1.6982-1.2868-2.6058-1.901-.6148-.4094-1.2589-.8189-1.8738-1.2283.205-.2925.3806-.6142.5856-.9067.4099-.6434.8198-1.2575 1.2297-1.9009.7612-1.2284 1.5517-2.4275 2.2836-3.6558 1.5225-2.5737 2.8986-5.2351 4.4503-7.8087.732-1.2576 1.5225-2.4859 2.2251-3.7728.4392-.7604.7905-1.55 1.1126-2.3397.1464-.3802.2342-.7896.2049-1.199-.0293-.468-.2342-.87743-.5855-1.16989-.3221-.26322-.6734-.52643-1.0248-.70191-1.2296-.73115-2.5179-1.28683-3.8061-1.93024-.6734-.32171-1.3468-.70191-2.0202-1.05286-.6148-.32171-1.2004-.70191-1.8445-.99437-1.6688-.81889-3.3962-1.5208-5.1529-2.10572-1.6689-.52643-3.3377-1.05286-4.9773-1.66703-.2342-.087737-.4684-.204722-.7319-.321706-.2928-.263215-.5856-.438692-.9076-.584922-.1757-.0877386-.3514-.1169847-.5271-.1169847-.1756-.0292461-.3513 0-.4684.0877383z"/><path d="m28.5869 29.1401c-.9955.6142-1.9616 1.2868-2.8692 1.9887-.8491.702-1.6396 1.4331-2.4008 2.2227-.7613.7897-1.5225 1.5501-2.2544 2.3397-.732.7897-1.3761 1.6086-2.0495 2.4567-.4099.5264-.8198 1.0529-1.2004 1.5793-.2635.3802-.527.7312-.7905 1.1114l-.1757.2632c-.5563.7896-1.1125 1.5793-1.6103 2.4274-.3806.5849-.7319 1.2283-1.1125 1.901-.732 1.2868-1.4347 2.6029-2.0788 3.919-.4977.9943-.9369 2.0472-1.376 3.0708-.4099.9651-.79055 1.9595-1.1126 2.9539-.64412 2.0765-1.17111 4.1822-1.581 6.3171-.20495 1.0237-.40989 2.0765-.52701 3.1294-.14639 1.1406-.32207 2.2812-.38062 3.451-.05856 1.1114-.08783 2.1935-.08783 3.3048v1.4916c0 .5557 0 1.1113.05856 1.6378.05855.6434.14638 1.2868.23422 1.9302.08783.5264.20495 1.0529.32206 1.5793.11712.5264.29278 1.0236.43917 1.5208s.32205.9651.49772 1.4331c.20494.5556.4099 1.1113.6734 1.667.23423.4972.49772.9943.7905 1.4623.29273.4679.61483.9066.93693 1.3746.3513.4971.7612.9651 1.1418 1.4623.6441.7896 1.3175 1.5793 2.0495 2.3104.3806.3802.7905.7312 1.2004 1.0821.4099.351.9076.7312 1.376 1.0821.4685.351.9369.6434 1.4054.9651.4684.3218.9369.585 1.4346.8482.8783.4972 1.8152.9359 2.7521 1.3453 1.0833.4972 2.1959.9359 3.3085 1.3746.4684.1754.9661.3509 1.4639.5264.4977.1755.9661.351 1.4639.4679 2.0787.585 4.216 1.0529 6.3533 1.4039 1.1418.1754 2.3129.3509 3.4548.4971 1.0247.117 2.0494.2048 3.0742.2633 2.108.1462 4.2453.1754 6.3826.1754s4.2746 0 6.3826-.2047c2.2544-.1462 4.4795-.5264 6.6461-1.0529 1.1125-.3217 2.1958-.7604 3.2206-1.2575.9369-.4387 1.8152-.9359 2.635-1.5208 1.8152-1.3161 3.4841-2.7784 5.0065-4.4162.7905-.8481 1.5518-1.7255 2.2251-2.6614.6442-.8481 1.2297-1.7255 1.8446-2.6029 1.2004-1.6963 2.3715-3.451 3.4548-5.2351.5562-.8773 1.1125-1.784 1.581-2.7198.4977-.9944.9661-2.018 1.4053-3.0416.3806-.9652.7027-1.9303.9955-2.9247.2927-1.0236.527-2.1057.6734-3.1585.0585-.5265.1171-1.0237.1171-1.5501v-.7311c-.0293-.6727-.1757-1.3454-.4392-1.9595-.1171-.234-.2342-.468-.4099-.6727s-.3513-.3509-.5855-.4972c-.1464-.0877-.3221-.1754-.4685-.2339l-.527-.1755c-.3806-.117-.7612-.1462-1.1419-.117-.4684.0292-.9368.1462-1.376.3217.0585-.1755.1171-.3802.1464-.5849.0585-.2925.0878-.5557.1464-.8482.0293-.3217.0293-.6141 0-.9358-.0293-.1463-.0586-.2925-.0879-.468-.0585-.1754-.1171-.3509-.2342-.5264-.2635-.4972-.7027-.9066-1.2589-1.0821-.7027-.234-1.4639-.2632-2.1959-.0292-.6441.2339-1.2589.5849-1.7859 1.0528-.2635.2047-.4978.4387-.732.7019l-.1464.1755c-.0585-.0877-.0878-.2047-.1464-.2925-.2342-.3509-.5563-.6141-.9076-.8189-.6441-.3217-1.3761-.4094-2.0495-.2047-.2927.0878-.5855.1755-.849.3217-.3221.1463-.6441.3217-.9369.5557-1.054.8189-1.9324 1.8133-2.6058 2.9246-.3513.5557-.7026 1.1406-1.054 1.6963-.322.5264-.6148 1.0821-.8783 1.667-.1464.351-.2928.7312-.4392 1.1114-.0878.2924-.1756.5849-.2635.9066-.1464.6142-.2635 1.1991-.3806 1.8133-.0878.4094.1757.7896.5563.9066.3806.0877.7612-.117.8783-.4972.0879-.2632.1757-.5264.2635-.8189.0586-.2047.1464-.4094.2342-.5849l.0293-.0585.0879-.2047c.1464-.3802.2927-.7312.4391-1.1114.7613-1.667 1.6689-3.2755 2.7522-4.7671.4099-.5264.8783-1.0236 1.4053-1.4623.2635-.2047.5563-.3802.8491-.5264.1756-.0585.3513-.117.5563-.1755h.4099l.1171.0292c.1171.0585.2342.117.322.2048l.0586.0585.0293.0292c.0292.0585.0292.117.0585.1755v.3509c-.1464.585-.322 1.1406-.5855 1.6963l-.2636.4095-.0878.1754-.0293.0293c-.3806.5849-.7612 1.1991-1.0832 1.8132-.205.3802-.3807.7604-.5271 1.1406-.0878.1755-.1463.351-.2049.5265-.0586.1462-.0878.2924-.0878.4679 0 .1462.0292.2925.1171.4387.0878.117.1756.2047.2928.2925l.0292.0292c.1171.0877.2635.117.4099.117.2342 0 .4392-.0878.6149-.2632.3513-.4387.6441-.9359.8783-1.4331l.1464-.2924c.322-.585.5563-1.0529.7905-1.4916l.0586-.0877.1756-.2633.0879-.1462c.6148-.9359 1.2589-1.8717 1.9323-2.7784.3806-.4387.7905-.8481 1.2297-1.2283.2635-.2047.5563-.3802.849-.5264.1464-.0585.3221-.0878.4685-.117h.527c.0878.0292.1464.0292.2342.0585l.1464.0877.0586.0585c.0585.0585.0878.1462.1464.234.0292.0585.0292.117.0585.2047.0293.234.0293.4679 0 .7019-.0585.3802-.1464.7604-.2635 1.1406s-.2635.7896-.4684 1.3161c-.1464.3509-.3514.7019-.5563 1.1113-.3806.468-.7612.9359-1.1419 1.4331-.322.4387-.5855.9066-.849 1.3161l-.3514.6141c-.0585.117-.1171.234-.1756.3217l-.0293.0878-.0293.0585-.0585.1754-.0586.1463c-.0293.0877-.0293.2047-.0293.2924 0 .2925.1464.5557.4099.7019.1171.0878.2635.117.4392.117.1464 0 .2928-.0292.4099-.117.1464-.1169.2928-.2339.4099-.3802l.0292-.0292.0293-.0585.0293-.0292c.5856-.8189 1.1419-1.6671 1.6689-2.5152l.0878-.117.0293-.0585c.5855-.8189 1.2882-1.55 2.0494-2.2227.205-.1462.4392-.2924.7027-.4094.2049-.0878.4392-.1463.6441-.1755h.527c.2635.0585.4977.117.732.2047.0585.0293.1464.0585.2049.117l.1464.1462.2635.4387c.1171.2925.1757.5849.2342.8774.0293.6727.0293 1.3746-.0878 2.0472-.2928 1.5501-.7027 3.0416-1.2882 4.5039-.1171.2925-.2343.585-.3221.8774l.0293-.0585.0293-.0877-.0293.0585.0293-.0585c-.4099.9651-.8491 1.9302-1.3761 2.8661s-1.1126 1.8133-1.6688 2.6614c-1.2297 1.8718-2.4301 3.5388-3.6598 5.1473l-.0293.0585-.1464.1755-.0292.0292.0585-.0585-.0293.0585.0293-.0585-.0585.0878-.0586.0877-.0293.0293-.4684.6141-.2343.3217-.1171.1463.0586-.0585-.0586.0585.0586-.0585-.4099.5264c-.3513.468-.7027.9359-1.0833 1.3746-.6148.7019-1.1711 1.3453-1.786 1.9302-1.1711 1.1699-2.4007 2.2812-3.689 3.3341-.6148.4679-1.2882.9066-1.9616 1.3161-.6734.3802-1.3761.7311-2.108 1.0528-.9076.3802-1.8738.6727-2.84.9066-1.0833.234-2.1665.4095-2.9863.4972-3.1621.351-6.3534.5265-9.5447.5265-.9369 0-1.9323 0-2.9863-.0293-1.054-.0292-2.1959-.0585-3.367-.1462-.9369-.0585-1.8445-.1462-2.7228-.234l-.5563-.0585h.0878-.0293.0293l-.4392-.0585-.4391-.0585c-2.0495-.2632-4.0989-.6726-6.2948-1.1698-2.108-.5264-4.1575-1.2283-6.1484-2.1057-1.2004-.4972-2.4008-1.0821-3.5426-1.7255-.5563-.3218-1.1419-.6727-1.8152-1.1114-.4392-.2925-.8784-.6142-1.2883-.9359l-.0878-.0585c-.4685-.3802-.8198-.7019-1.1711-.9943-.3514-.2925-.6441-.6434-.9662-.9652-.6441-.6726-1.2297-1.433-1.8152-2.1349l-.0879-.117c-.2928-.3802-.6734-.9066-1.0247-1.4331-.2342-.3509-.4099-.6726-.5563-.9651-.1464-.2924-.2342-.4972-.3513-.7311l-.0586-.117c-.2049-.468-.3513-.8774-.4977-1.2869-.1464-.4094-.2928-.8481-.4392-1.3453l-.0293-.0877c-.1464-.4387-.2635-.9066-.3806-1.4038-.11709-.4972-.20492-.9944-.29275-1.4916-.02928-.3509-.08783-.7311-.11711-1.0821-.02927-.4094-.05855-.8481-.05855-1.2868-.02928-.7019 0-1.4331 0-2.135v-.4972c.02927-.7019.02927-1.5208.08783-2.3689.05855-.7604.14638-1.5501.23422-2.4859.32206-2.1642.73196-4.27 1.22966-6.2587.2342-.9066.4977-1.8717.8784-3.1293.1171-.4095.2635-.7897.4099-1.1991l.0878-.234c.2049-.5557.4099-1.1113.6441-1.667l.0585-.1755c.4392-1.0236.8784-1.9302 1.2883-2.8076s.9369-1.8133 1.4053-2.6907l.0586-.0877c.4392-.8189.9662-1.784 1.5517-2.6906.5856-.9067 1.1419-1.7841 1.8153-2.7784.7319-1.0821 1.581-2.2227 2.5471-3.5096l.0879-.0877c.4099-.5264.8198-1.0529 1.2589-1.55.5563-.6435 1.1126-1.2576 1.6689-1.8718l.0878-.117c.4685-.5264.9369-1.0528 1.4639-1.5793l.8198-.8189c.2342-.2339.4977-.4387.7612-.6434l.0293-.0292c.6148-.468 1.2297-.8774 1.8152-1.2576l.1464-.0877c.527-.3218.7027-1.0237.4099-1.5501-.2049-.3509-.5855-.5557-.9954-.5557-.527.0293-.7027.0878-.8491.1755zm45.498 32.8142-.0586.0584z"/><path d="m46.1537 36.6856c-.2927.0877-.527.2632-.7026.5264-.1171.1755-.1757.4095-.1464.6142 0 .0877.0293.1755.0293.2632.0878.3802.1756.7897.2342 1.1699l.0585.2632c.0586.2339.0879.4387.1172.6726v.0878c.0585.4679.0878.9651.1171 1.4623.0292.4094.0292.7896.0292 1.1991v.3509c.0293 1.0821.0293 2.0765 0 3.0709-.0585 1.9594-.2635 3.8604-.4684 5.9954 0 .1462-.0293.2925-.0586.4387v.0877l-.0292.2048c-.2343 1.667-.527 3.5095-.9077 5.586-.1756.9651-.3806 1.9887-.5855 3.0416-.205.9066-.4099 1.784-.6149 2.6614l-.0292.1462-.2342 1.0236c-.1757.7312-.3514 1.4623-.527 2.2227l-.0293.0877c-.0879.3802.1171.7604.4977.8482.1757.0585.3806.0292.527-.0585.1464-.0878.2635-.234.3221-.4095.3513-.9358.6441-1.901.9368-2.8368.2928-.9359.5856-1.901.8198-2.8369.527-1.901.9369-3.8312 1.3468-5.7615.205-.9651.4099-1.9302.5856-2.8954.1756-1.0528.322-2.1349.4391-3.217.1172-1.0821.2343-2.1057.2928-3.1878.0879-1.0237.0878-2.018.0878-3.0416 0-1.0821-.0292-2.1643-.1171-3.2464-.1171-1.2283-.322-2.4566-.6148-3.685-.1464-.4972-.6148-.8481-1.1418-.8481-.0293-.0585-.1172-.0293-.2343 0"/><path d="m40.6787 68.8563c.0292.6142.527 1.1406 1.1418 1.1406 1.4932.0293 3.0156.117 4.4795.1755l1.786.0877c2.0494.0878 4.1575.2047 6.2362.3802 1.3761.117 2.7229.2047 4.0989.2925l.7612.0585.7905.0585c.5271.0292 1.0248.0585 1.5518.117l.2049.0292c.7027.0585 1.4639.117 2.1959.117.322 0 .6148-.234.7027-.5557.0585-.2047.0292-.3802-.0879-.5557-.0878-.1754-.2635-.2924-.4391-.3509l-.1172-.0293c-.4391-.117-.8783-.1754-1.3175-.2339-.4684-.0585-.9662-.1463-1.4346-.234-.9662-.1462-1.9323-.2925-2.8985-.4095l.1171.0293c-2.1373-.2925-4.2746-.4972-6.4412-.7019-2.0201-.2047-4.0696-.2925-6.0898-.3802-1.1711-.0293-2.3715-.0877-3.5426-.117l-.5856-.0292c-.6148 0-1.0833.4971-1.1125 1.1113zm17.8595 6.1709c0 .1755.0586.351.205.468.1171.117.2928.1755.4684.2047l.2342.0292h.1757c.6734.0878 1.3468.234 1.9616.468.1171.0585.2635.117.3806.2047.0879.0585.1464.1462.205.2047l.0293.0293v.0877c-.0293.0293-.0293.0877-.0586.117l-.2635.2632c-.1757.117-.3806.234-.5855.351-.3514.0585-.7027.117-1.0248.2339-.1464.0585-.2927.117-.4684.1463h-.0293c-.1464.0585-.2635.1169-.3806.1754-.205.1463-.3514.3802-.3514.6142 0 .1755.0586.3217.1757.4387.1464.1462.3221.234.527.234.2635 0 .5563-.0585.8198-.1463h.0586c.2635-.0292.527-.0585.8197-.0585.205 0 .4099.0001.5856.0293l.3513.0877.0586.0293.0586.0585.0292.0292c0 .0293.0293.0585.0293.0878-.0293.1754-.0878.3802-.1757.5556-.2927.6142-.6441 1.1699-1.054 1.7256-.4391.5849-.849 1.0236-1.2296 1.4623-.4685.4679-.9662.9066-1.4932 1.316l-.1464.117c-.4099.2925-.7905.5557-1.1418.7604-.4099.234-.8198.468-1.259.6434-.4099.1755-.8198.2925-1.2297.4095-.4391.117-.9076.2047-1.4639.2924-.5563.0585-1.1125.0878-1.6688.117-.5563 0-1.1419-.0292-1.9031-.117l-.2342-.0292-.205-.0293c-.1756-.0292-.322-.0584-.4977-.1169l-.2342-.0585c-.3806-.0878-.7905-.2048-1.1419-.351l-.1756-.0585c-.1757-.0877-.3806-.1462-.5563-.2632-.3221-.1462-.6441-.3217-.9954-.5264-.2636-.1462-.5563-.3217-.8198-.4972l-.0879-.0585c-.1756-.117-.322-.234-.4977-.3509-.6441-.5557-1.2004-1.0529-1.6981-1.5209-.6734-.6141-1.3175-1.2868-1.9324-1.9887-.1756-.234-.3513-.4972-.4977-.7311-.1464-.2633-.2928-.5265-.4099-.7897-.1464-.3509-.2928-.7311-.3806-1.1113-.1171-.4095-.2049-.8482-.2635-1.2869-.0585-.2632-.2342-.4971-.4977-.6434-.4977-.2924-1.1711-.117-1.4639.3802-.1464.2632-.1757.5557-.1171.8189.1171.7019.2928 1.4038.527 2.1057.2635.7897.6148 1.5501 1.0247 2.252.4685.7019.9955 1.3453 1.5517 1.9595.7905.8774 1.5518 1.667 2.3423 2.3689.1171.117.2635.234.4099.351l.2049.1462c.2342.2047.4977.3802.732.5557l.2342.1462c.4099.2632.8198.4972 1.2297.7312l.2049.1169c.1464.0878.2928.1463.4392.2048l.2049.0877c.205.0877.3806.1462.5856.234h.0293l.1171.0585.2635.0877c.527.1755 1.054.2925 1.6103.3802l.2342.0292c.2928.0293.6148.0878.9369.117.3513.0293.6441.0293.9369.0585h.2635c.4391 0 .8783-.0292 1.4053-.0877 1.1711-.117 2.313-.351 3.3963-.7897.6148-.2339 1.2004-.4971 1.7566-.8189.4685-.2632.9369-.5849 1.3761-.9358 2.0787-1.6086 3.7769-3.685 4.8894-6.054.0879-.2047.1757-.4094.2343-.6434.1171-.3802.1463-.7604.0878-1.1406-.0293-.2047-.0878-.4094-.1757-.5849-.0878-.1755-.2049-.351-.3513-.4972-.1171-.117-.2342-.2047-.3514-.2925h-.0292c.1464-.2047.2635-.4386.3513-.6726l.0586-.4095c.0293-.1462-.0293-.2632-.0586-.4094-.0878-.3217-.2928-.6142-.527-.8189-.2342-.234-.527-.4094-.8198-.5264-.3513-.1463-.7026-.2632-1.054-.3217-.7319-.1463-1.4639-.234-2.1958-.2632-.3221.1754-.5856.4679-.6149.8188zm3.6891 1.6378.0292-.1462c0 .0585-.0292.117-.0292.1462zm-.0293.1463c0 .0292-.0293.0584-.0293.0877zm-.0586.0877c-.0293.0292-.0585.0877-.0878.117zm-34.6066-39.0436c-.2927.1463-.4977.4387-.5855.7604-.2342 1.0529-.3514 2.135-.3806 3.2171 0 .2047.0293.3802.0585.5849v.117l.0879.6142c.0585.2632.1756.5557.2927.7896.2635.5557.7027 1.0236 1.259 1.3161.2928.1755.6148.2925.9662.351.2049.0292.4391.0584.6441.0877h.0878c.1757 0 .3221-.0293.4977-.0585l.1172-.0292c.322-.0585.6441-.1755.9368-.3218.3221-.1462.6149-.3217.8784-.5556.6148-.468 1.1126-1.0821 1.4932-1.7548.2635-.4679.4684-.9359.6441-1.4331.1464-.4679.2635-.9066.3513-1.4038.0586-.2632-.0585-.5557-.2928-.7019-.0878-.0585-.2049-.0877-.322-.0877-.205 0-.4392.117-.527.2924-.1171.1755-.205.3802-.3221.5557l-.322.5557c-.1757.2925-.3807.5849-.5856.8774l-.0586.0585c-.1463.1755-.2927.3802-.4684.5556-.2049.2048-.4392.4095-.6441.6142-.205.1462-.4392.2925-.6734.4095-.1757.0585-.3513.1169-.527.1462h-.2635c-.0879-.0293-.1464-.0293-.2342-.0585-.0879-.0292-.1464-.0877-.205-.117-.0585-.0292-.0878-.0877-.1464-.1462-.0585-.0585-.0585-.0878-.0878-.117-.0586-.1755-.0878-.351-.1464-.5264-.0293-.2925-.0293-.585-.0293-.8774 0-.2925.0293-.5557.0586-.8189v-.117c.0585-.4387.1464-.8774.2342-1.3161.0878-.3217.0293-.6726-.1171-.9651-.3513-.6142-1.1126-.8189-1.6689-.4972zm-10.7743-.2339c-1.1125.0292-2.1958.0585-3.3084.1462-2.2836.1462-4.56734.3217-6.85102.6727-.55628.0877-1.11257.2047-1.66885.3217-.55628.1462-1.11255.3217-1.63956.5264-.527.2047-1.11257.4094-1.63958.6434-.23422.117-.43916.2047-.673386.3217-.204945.117-.409891.2632-.585559.4095-.14639.1462-.234217.3217-.3220509.4971-.087834.234-.0878447.468-.0292887.7019.1171116.3218.2635056.6142.4977296.8774s.497725.4972.790505.6727c.26351.2047.527.3509.81978.5264.46845.2632.90762.5265 1.40534.7604 1.05401.4972 2.10802.9067 3.22058 1.2284.58556.1754 1.2004.3509 1.81524.5264s1.22967.3509 1.84452.4972c.5563.117 1.1126.2339 1.6981.3802.6734.1754 1.3761.3217 2.0788.3802.527 0 .9661-.351 1.1125-.8482.1464-.6141-.2049-1.2283-.7905-1.4038-.1464-.0585-.2928-.0877-.4392-.117l-.3806-.0877-.4391-.0877c-.3514-.0878-.7027-.1755-1.0248-.2925l-.322-.0877c-.8784-.234-1.7567-.4387-2.60577-.6435l-1.22968-.2632c-.527-.117-1.08328-.2339-1.61029-.3509-.84906-.2047-1.66884-.468-2.48863-.7897-.58556-.2632-1.14183-.5556-1.69812-.9066l-.23422-.1462c.64412-.234 1.28824-.468 1.96163-.6434.73195-.2048 1.4639-.3802 2.19585-.4972 1.63957-.2048 3.30841-.3217 4.91873-.468l1.5224-.1169c1.6689-.1463 3.3963-.2925 5.0944-.3218h1.4346l.9662.0293c.5855 0 1.054-.4679 1.054-1.0529 0-.5849-.4685-1.0528-1.054-1.0528-.9076-.0293-1.786-.0293-2.6936-.0293h-.7905zm22.954 61.2706c0 .4972-.0293.9943-.0586 1.5209-.0292.38-.0585.76-.1171 1.17-.1464.936-.2928 1.871-.4684 2.778-.1757.907-.2928 1.872-.4392 2.778-.3221 1.931-.6734 3.861-.9076 5.82-.0293.293-.0878.615-.1171.907-.0879.527-.1464 1.082-.2343 1.609-.0585.292-.0878.585-.1463.848-.0293.204-.0586.409-.1172.614-.1171.058-.2342.117-.3513.146l-.4977.234c-.3221.146-.6441.293-.9955.439-.6441.263-1.2589.585-1.8738.906-.6148.322-1.2882.702-1.903 1.053-.2928.176-.5856.351-.8491.527-.3513.204-.6734.438-1.0247.702-.2928.292-.2928.731 0 1.023.0878.088.2049.146.322.176.1757.058.3806.029.5563-.059.3221-.146.6441-.321.9662-.468l.3513-.175.4977-.263.732-.381.5563-.292c.6441-.322 1.3175-.673 1.9909-.994l.1464-.088c.4099-.176.7905-.38 1.2004-.556.2049-.117.4099-.205.6148-.322.3514-.146.6441-.409.8491-.701.0878-.147.1464-.293.1756-.439.0293-.088.0586-.176.0879-.293.0585-.234.1171-.438.1756-.672.1171-.41.205-.819.2928-1.258.3806-1.842.7613-3.656 1.1419-5.498.2049-.936.3806-1.901.527-2.837s.2927-1.901.4391-2.866c.1171-.848.2343-1.696.3514-2.574.1171-.877.1464-1.696.1464-2.5149.0292-.5557-.4099-1.0529-.9662-1.0821-.5563-.0293-1.054.4094-1.0833.9651.0293.0585.0293.0877.0293.117z"/><path d="m36.9018 117.259c-.3514.672-.7027 1.345-1.054 1.988l-.0879.176c-.2928.497-.5856 1.111-.8783 1.755-.2928.643-.6441 1.374-.9076 2.105l-.0879.205c-.0585.146-.0878.293-.1464.439-.1756.497-.322.994-.3806 1.491-.1171.439.1464.907.5856 1.024.3513.088.7319-.059.9076-.38.0878-.117.1464-.263.2342-.41l.4392-.877c.1171-.234.2049-.439.3221-.644.2049-.409.4391-.818.6441-1.257l.322-.585 1.2004-2.281c.2928-.556.5856-1.082.8491-1.638.1464-.263.2049-.585.1171-.877-.1464-.498-.5856-.849-1.1126-.849-.3806.059-.7612.264-.9661.615"/><path d="m37.5751 116.557c-.5563.351-.7612 1.082-.4391 1.638.2635.467.527.965.7319 1.462.0586.146.1171.263.1464.409.3806.995.732 1.989 1.0247 2.925l.1464.409c.1171.381.2635.79.3806 1.17.0586.205.1172.41.1757.585l.1464.585c.0586.234.1464.468.2342.702.1172.38.4685.643.8491.643.2635 0 .4977-.117.6441-.292.1464-.176.2343-.38.2343-.585 0-.848-.0586-1.696-.2343-2.544-.1171-.732-.2927-1.463-.4977-2.165l-.0878-.292c-.1757-.614-.4099-1.228-.6734-1.813-.1757-.439-.3514-.849-.5856-1.258s-.4099-.76-.6148-1.141c-.205-.38-.6149-.585-1.0541-.585-.1464-.029-.3806.03-.527.147z"/><path d="m28.6747 121.178c-.0293.029-.0293.058-.0586.087-.1463.264-.2049.615-.1171.907.0879.292.2635.526.527.673.2343.146.4978.263.732.409.1756.117.322.234.4977.351l.0293.029c.2635.205.527.439.7905.673.2928.292.527.585.7612.877l.0293.059c.1757.263.3806.526.5563.789.0878.117.1464.264.2342.381.1171.175.2049.38.3221.555.1464.264.3806.439.6734.556.0878.029.1464.029.2342.029.1757 0 .3806-.029.5563-.087l.2049-.059c.3513-.088.732-.146 1.1419-.205.4099-.058.849-.087 1.2296-.087h.1757c.3513 0 .732.029 1.0247.058.6734.088 1.3175.263 1.9617.497l.4098.176c.1172.058.2636.087.3807.087.0585 0 .1171 0 .1756-.029.1757-.058.3514-.175.4392-.351.1171-.234.1171-.497.0293-.731-.0586-.117-.1757-.234-.2928-.292-.4685-.264-.9369-.498-1.4346-.673l-.3221-.117c-.6148-.205-1.2882-.322-1.9323-.351h-.205c-.2342 0-.4977 0-.7612.029-.3221.03-.6441.088-.9662.147l-.1464.029-.4684.088-.3806.087-.4685.117c-.0878-.292-.1464-.585-.2049-.877-.0879-.351-.2342-.673-.3806-.994-.1171-.234-.2635-.468-.4099-.673-.3806-.497-.8198-.965-1.3175-1.345-.1464-.117-.3221-.264-.4978-.381l-.4099-.292c-.2927-.176-.5855-.351-.8783-.497-.1757-.088-.3806-.147-.5856-.147-.322 0-.6733.205-.8783.498z"/><path d="m23.3754 96.026c0 .4971-.0293.9943-.0585 1.5208-.0293.3802-.0586.7604-.1171 1.1698-.1464.9359-.2928 1.8714-.4685 2.7784s-.2928 1.872-.4392 2.778c-.322 1.931-.6734 3.861-.9076 5.82-.0293.293-.0878.615-.1171.907-.0878.526-.1464 1.082-.2342 1.609-.0586.292-.0878.584-.1464.848-.0293.204-.0585.409-.1171.614-.1171.058-.2342.117-.3513.146l-.4978.234c-.322.146-.6441.292-.9954.439-.6441.263-1.259.585-1.8738.906-.6149.322-1.2882.702-1.9031 1.053-.2928.176-.5855.351-.849.527-.3514.204-.6734.438-1.0248.702-.2928.292-.2928.731 0 1.023.0879.088.205.146.3221.176.1757.058.3806.029.5563-.059.322-.146.6441-.322.9661-.468l.3514-.175.4977-.264.7319-.38.5563-.292c.6442-.322 1.3175-.673 1.9909-.995l.1464-.087c.4099-.176.7905-.38 1.2004-.556.205-.117.4099-.205.6149-.322.3513-.146.6441-.409.849-.702.0879-.146.1464-.292.1757-.438.0293-.088.0586-.176.0878-.293.0586-.234.1171-.438.1757-.672.1171-.41.2049-.819.2928-1.258.3806-1.842.7612-3.656 1.1418-5.498.205-.936.3806-1.901.527-2.837s.2928-1.901.4392-2.866c.1171-.848.2342-1.6965.3513-2.5739s.1464-1.6963.1464-2.5151c.0293-.5557-.4099-1.0529-.9662-1.0821-.5562-.0293-1.054.4094-1.0832.9651 0 .0585 0 .0877.0292.117z"/><path d="m20.5646 114.393c-.3513.672-.7027 1.345-1.054 1.988l-.0878.176c-.2928.497-.5856 1.111-.8784 1.755-.2928.643-.6441 1.374-.9076 2.105l-.0878.205c-.0586.146-.0879.292-.1464.439-.1757.497-.3221.994-.3806 1.491-.1171.439.1464.907.5855 1.024.3514.088.732-.059.9077-.38.0878-.117.1463-.264.2342-.41l.4391-.877c.1172-.234.205-.439.3221-.644.2049-.409.4392-.819.6441-1.257l.3221-.585 1.2004-2.281c.2928-.556.5855-1.082.849-1.638.1464-.263.205-.585.1171-.878-.1463-.497-.5855-.848-1.1125-.848-.3806.059-.7612.264-.9662.615"/><path d="m21.238 113.691c-.5563.351-.7613 1.082-.4392 1.637.2635.468.527.965.732 1.463.0585.146.1171.263.1463.409.3807.994.732 1.989 1.0248 2.925l.1464.409c.1171.38.2635.79.3806 1.17.0585.205.1171.409.1757.585l.1464.585c.0585.234.1463.468.2342.702.1171.38.4684.643.849.643.2635 0 .4978-.117.6442-.292.1463-.176.2342-.38.2342-.585 0-.848-.0586-1.696-.2342-2.545-.1172-.731-.2928-1.462-.4978-2.164l-.0878-.292c-.1757-.614-.4099-1.229-.6734-1.814-.1757-.438-.3513-.848-.5856-1.257-.2342-.41-.4099-.761-.6148-1.141s-.6149-.585-1.054-.585c-.1757-.029-.3806.03-.527.147z"/><path d="m12.3375 118.312c-.0292.029-.0292.058-.0585.087-.1464.263-.205.614-.1171.907.0878.292.2635.526.527.673.2342.146.4977.263.7319.409.1757.117.3221.234.4978.351l.0292.029c.2635.205.527.439.7905.673.2928.292.527.585.7613.877l.0292.059c.1757.263.3807.526.5563.789.0879.117.1464.264.2342.381.1172.175.205.38.3221.555.1464.263.3806.439.6734.556.0878.029.1464.029.2342.029.1757 0 .3806-.029.5563-.088l.2342-.087c.3514-.088.732-.147 1.1419-.205.4099-.059.849-.088 1.2296-.088h.1757c.3513 0 .732.029 1.0247.059.6734.087 1.3176.263 1.9617.497l.4099.175c.1171.059.2635.088.3806.088.0585 0 .1171 0 .1756-.029.1757-.059.3514-.176.4392-.351.1171-.234.1171-.497.0293-.731-.0586-.117-.1757-.234-.2928-.293-.4684-.263-.9369-.497-1.4346-.672l-.3221-.117c-.6148-.205-1.2882-.322-1.9323-.351h-.205c-.2342 0-.4977 0-.7612.029-.3221.029-.6441.088-.9662.146l-.1464.029-.4684.088-.3806.088-.4685.117c-.0878-.293-.1464-.585-.2049-.878-.0878-.35-.2342-.672-.3806-.994-.1171-.234-.2635-.468-.4099-.673-.3806-.497-.8198-.965-1.3175-1.345-.1464-.117-.3221-.263-.4978-.38l-.4098-.293c-.2928-.175-.5856-.35-.8784-.497-.1756-.087-.3806-.146-.5855-.146-.3221.029-.7027.205-.9077.527z"/></g></svg>