<svg fill="none" height="36" viewBox="0 0 365 36" width="365" xmlns="http://www.w3.org/2000/svg"><style>@media (prefers-color-scheme: dark){path{fill:hsla(43,26%,85%,1);}}</style><path fill="hsla(240,2%,25%,1)" d="m344.939.715379c-.936.029246-1.844.116953-2.752.263183-2.84.350958-5.621 1.111368-8.256 2.251968l-1.464.6434c-.468.20473-.937.46796-1.405.67269-.732.35095-1.435.76038-2.138 1.16983-.819.46793-1.668.96511-2.488 1.49154-1.552 1.02362-3.104 2.07647-4.685 3.10011-.82.5557-1.669 1.0821-2.488 1.6377-.82.5557-1.757 1.0822-2.665 1.6379-1.581.9651-3.191 1.8717-4.772 2.8076-.732.4387-1.493.8189-2.254 1.1991-.41.2047-.791.4094-1.201.6141l-1.317.5849-1.464.5557c-1.054.3802-2.137.6727-3.279.8482l-1.23.0877c-.673 0-1.317-.0292-1.991-.0877-.556-.0878-1.112-.2047-1.669-.3217-.468-.117-.937-.2925-1.376-.468l-.585-.2925c-.264-.1462-.527-.2924-.762-.4679-.175-.1462-.351-.3217-.497-.4972-.117-.1754-.235-.3509-.352-.5556l-.087-.351c-.03-.2339-.03-.4972 0-.7311.263-1.0529.585-2.1058.995-3.1001l.498-1.0821c.205-.4095.439-.8189.644-1.2284.205-.4094.468-.7896.702-1.1698.235-.3802.527-.78964.791-1.16984l.498-.64344c.234-.3217.527-.61417.79-.90663.264-.29246.586-.61415.879-.90661.351-.35096.731-.67267 1.112-1.02362.469-.40945 1.113-1.05286 1.025-1.75476 0-.32171-.088-.64344-.234-.9359-.176-.29246-.41-.49717-.732-.6434s-.674-.23397-1.025-.26322c-.234-.02924-.469-.05849-.673-.05849-.469-.02924-.937-.02923-1.406-.02923-3.689.08774-7.29.93585-10.628 2.4274-.38.17547-.761.32173-1.112.49721l-1.318.67263c-.439.23397-.878.49718-1.317.76039-.439.26322-.908.55569-1.376.84815-1.581.99437-3.075 2.04722-4.597 3.10008-1.522 1.05288-3.103 2.19348-4.684 3.27558-1.523 1.0236-3.075 1.9887-4.626 2.9246-.849.4972-1.699 1.0236-2.548 1.5208-.409.2632-.849.4972-1.259.7312-.849.4971-1.727.9358-2.605 1.316-.791.3217-1.611.6142-2.43.9359-.44.1755-.879.3217-1.347.4972-.469.1755-.878.2925-1.318.4387-.556.1462-1.112.2924-1.669.3509-1.288.1463-2.605.2048-3.923.117-.527-.0877-1.054-.2047-1.581-.3217-.468-.117-.937-.2924-1.405-.4679l-.264-.117c-.322-.1462-.644-.351-.937-.5557l-.263-.2339c-.176-.1463-.322-.3218-.468-.4972-.118-.1755-.235-.351-.323-.5264l-.058-.1463c-.029-.117-.088-.2632-.088-.3802v-.5264c.146-.7312.293-1.4331.498-2.135.175-.6726.41-1.3161.702-1.9595l.41-.8189c.147-.3217.322-.6434.527-.9359.205-.2924.352-.5849.527-.8773l.674-.9944.556-.70189c.498-.61416 1.025-1.19911 1.581-1.72554s1.142-1.02359 1.786-1.49153l.966-.70192c.381-.26321.732-.58493.996-.96513.146-.29246.205-.61417.205-.90663 0-.49719-.264-.9651-.703-1.22832l-.205-.11699c-.205-.11698-.439-.17547-.673-.17547l-.791-.08776c-.381-.02924-.79-.02923-1.171-.02923-.966 0-1.903.0585-2.869.14624-.966.08773-1.903.20471-2.87.3217-.966.11698-1.932.32172-2.869.52644-.82.20472-1.669.40942-2.459.67264l-1.405.46796c-.527.17547-1.054.3802-1.552.58493-.41.14623-.82.35092-1.23.52639-.351.14623-.703.29247-1.025.46794l-1.317.64344c-.498.23397-.966.52641-1.464.78962-.673.35096-1.347.7604-2.02 1.16985-.849.52643-1.728 1.02363-2.577 1.55006-1.639 1.0236-3.191 2.1642-4.743 3.3048l-4.391 3.2463c-.732.5265-1.494 1.0529-2.226 1.5501-.79.5556-1.581 1.1113-2.43 1.5793-.468.2632-.937.5556-1.405.8189l-1.171.6141c-.41.2047-.82.3802-1.23.5849-.761.2925-1.493.5557-2.283.7897-.908.2632-1.816.4387-2.723.5849-.644.0877-1.318.117-1.991.1462-.615.0293-1.201 0-1.786-.0877-.996-.1755-1.991-.4387-2.957-.7897l-.703-.3509c-.205-.117-.38-.234-.585-.3802-.235-.1755-.44-.3802-.615-.6142l-.117-.1462c-.088-.1462-.176-.2632-.235-.4095-.087-.2339-.146-.4679-.205-.7019v-.3801c0-.1463.03-.2925.03-.4387.146-.7312.322-1.4331.585-2.1058.088-.2339.205-.4972.293-.7311l.556-1.1991c.235-.468.498-.9066.732-1.3746.234-.4679.557-.9066.82-1.3453.264-.4387.586-.8481.878-1.2576l-.175.234c.322-.4094.644-.8481.966-1.2283.41-.49723.849-.96519 1.288-1.43312.351-.3802.703-.73114 1.083-1.0821.381-.35095.645-.64339.967-.93585.175-.20472.351-.40946.497-.64343.088-.17548.147-.35097.205-.5557.059-.26321.059-.52641 0-.78962-.117-.35096-.351-.67266-.673-.87738-.41-.23397-.878-.35094-1.376-.35094-.41 0-.82-.00001-1.23.02924-.878.05849-1.757.14624-2.635.26323-.82.08773-1.639.23393-2.43.4094-1.025.23397-2.049.52643-3.074.87738-1.243.46027-2.447 1.0177-3.601 1.66706-.352.17547-.674.38019-1.025.58491-.351.20473-.703.40944-1.025.6434-.849.55568-1.698 1.11137-2.547 1.69629-.732.49723-1.435 1.02363-2.137 1.52083-2.87 2.0764-5.885 3.9775-8.842 5.9077l-2.196 1.433c-.732.468-1.493.9359-2.225 1.3746-.439.2632-.937.4972-1.376.7604l-1.054.5265c-.732.3509-1.464.7019-2.225 1.0236l-1.464.5849c-1.259.4972-2.577.8189-3.924 1.0528-.439.0585-.907.0878-1.376.0878-.497 0-.966-.0293-1.464-.0585-.204-.0293-.38-.0585-.585-.0878-.586-.117-1.171-.2632-1.698-.4679-.234-.117-.439-.234-.674-.351-.175-.1169-.322-.2047-.497-.3217-.352-.2924-.703-.6434-.996-.9943-.205-.3217-.41-.6434-.585-.9944-.059-.1462-.088-.3217-.117-.4679v-.6435c0-.1169 0-.2339.029-.3509.058-.3802.146-.7604.205-1.1114.117-.5264.234-1.0236.38-1.55.235-.7896.527-1.5793.849-2.3397.352-.7604.732-1.4915 1.142-2.2227.527-.8481 1.054-1.6963 1.611-2.51517.556-.81889 1.171-1.63777 1.727-2.51515l.146-.35094c.147-.23397.205-.52645.235-.81891.058-.67266-.293-1.34531-.908-1.63777-.205-.08774-.381-.1755-.615-.23399l-.703-.08771c-.497-.02925-.966-.00002-1.463.05847-.498.02925-.967.08774-1.464.14623-.937.08774-1.874.23398-2.782.40945-.82.14623-1.639.35097-2.459.5557-.937.23397-1.815.55568-2.723.84814-.498.17548-.966.38017-1.464.55565-.439.17548-.849.35096-1.259.55568-.82.35095-1.639.73115-2.43 1.16984-1.698.90663-3.396 1.84252-5.036 2.89538-1.639 1.0529-3.132 2.1057-4.684 3.1878s-3.133 2.1935-4.655 3.3048c-.967.7019-1.903 1.3746-2.87 2.0765-.849.6142-1.727 1.2576-2.635 1.8133-.907.5556-1.756 1.0821-2.664 1.5792l-1.581.8482c-.527.2632-1.054.4972-1.61.7604l-1.259.5264c-1.142.4387-2.313.7604-3.514.9359-.439.0585-.878.0877-1.346.0877-.381 0-.762-.0292-1.142-.0585-.703-.117-1.376-.2924-2.05-.4971l-.292-.1463-.703-.4387c-.234-.1754-.439-.3802-.615-.6142-.117-.1754-.234-.3216-.322-.4971s-.205-.351-.264-.5557c-.087-.2047-.146-.4094-.175-.6142-.029-.5556-.029-1.0821.058-1.6377.176-.9652.352-1.901.586-2.8662.263-1.0528.615-2.0764 1.025-3.0708l.38-.9066c.147-.3802.352-.7312.527-1.0821.439-.8482.908-1.6671 1.435-2.4275.234-.3509.468-.7019.703-1.08206l.351-.49721c.205-.26321.351-.58492.498-.87738l.146-.35094c.029-.20472.059-.40944.059-.61416.029-.3802-.118-.76039-.381-1.02361-.205-.23397-.468-.40947-.761-.49721l-.615-.08772c-.234 0-.469-.00001-.703.02924-.907.08774-1.844.23398-2.752.4387-.995.20473-1.962.43869-2.8984.76039-.3514.11699-.7027.26322-1.0248.38021-.4684.17547-.9368.3802-1.376.58493-.9076.3802-1.786.78963-2.6643 1.19908-.8784.40944-1.6689.87738-2.4887 1.31604-.8197.4387-1.6981.9944-2.5471 1.5208-1.5811.9651-3.1035 2.018-4.6552 3.0709-1.4639.9943-2.8693 2.0764-4.3039 3.1-1.6396 1.1991-3.3084 2.3397-5.0065 3.4511-1.1419.7311-2.313 1.4623-3.5134 2.135-.6148.3509-1.259.7019-1.8738 1.0528-.6148.351-1.2004.5849-1.8445.8774-.6148.234-1.2004.4679-1.8153.6726-.4977.1755-.9661.3218-1.4639.4973-.9076.2924-1.8445.4971-2.8106.6434-.3221.0292-.6149.0585-.9369.0585-.4978.0292-.9955-.0001-1.4932-.0585-.2928-.0585-.5856-.117-.8784-.2048-.527-.1462-1.054-.3217-1.581-.5264-.2635-.117-.527-.2632-.7612-.4387l.3221.2632c-.2343-.1755-.4685-.3802-.7027-.5849-.1171-.117-.2342-.2339-.3221-.3509-.2635-.4095-.527-.8482-.7319-1.2869l-.1171-.2924c-.0293-.1463-.0879-.3217-.1171-.468-.0293-.4971-.0293-1.0236.0292-1.5208.1757-.9651.4099-1.901.7027-2.8368.2635-.7897.5563-1.5501.8491-2.3397.6441-1.4916 1.3468-2.9831 2.108-4.4162.4392-.8189.9076-1.6378 1.3761-2.45666.2342-.3802.4391-.78965.6733-1.16985.1757-.29246.3221-.61419.4685-.93589l.3221-.73116c.1171-.29246.1756-.58492.1756-.87738.0293-.14623.0293-.29246.0586-.43869-.0293-.26322-.0586-.55565-.1464-.81886-.1171-.35096-.3221-.67269-.6148-.9359-.2635-.26322-.5856-.43868-.9662-.52641-.3221-.11699-.6734-.20474-1.0248-.26323-.7026-.14623-1.4346-.17549-2.1372-.11699-.5856.05849-1.2004.14625-1.786.20474-.8491.11698-1.6396.29246-2.4886.46794-.2343.05849-.4978.14621-.732.2047-.1757.05849-.3513.08775-.527.14624-.5563.20472-1.0833.38019-1.6396.58491-1.7274.67266-3.4255 1.4623-5.065 2.36893-.7613.40945-1.4932.81891-2.2252 1.2576-.8783.52643-1.7567 1.0821-2.6057 1.66706-1.581 1.0528-3.1913 2.1057-4.7431 3.1585-.6441.4387-1.2882.8774-1.903 1.3161-.9076.6727-1.786 1.3454-2.6936 2.0473-1.1126.8773-2.1373 1.8425-3.1913 2.7783l-2.84 2.5152c-2.3715 2.1057-4.743 4.2407-7.2316 6.2002-1.0248.7604-2.0788 1.4915-3.1621 2.1642-1.0832.6726-2.2251 1.2575-3.3962 1.7547-.3513.1463-.732.2633-1.11257.3802-.52701.1755-1.05401.2925-1.58101.3803l-.32206.0292c-.32206.0293-.6734.0293-.99545 0l-.23423-.0292c-.35134-.0585-.70267-.1755-1.02473-.351l.35134.1462c-.23423-.117-.46845-.2632-.6734-.4094l-.40989-.351c-.20495-.2047-.38061-.4094-.55628-.6141-.527-.7897-.99545-1.6086-1.4639-2.4275-.32206-.7311-1.17112-1.0821-1.90307-.7896-.73195.3217-1.083287 1.1698-.790507 1.901.058556.117.117113.2339.204947.3217.234224.4387.497726.9066.76123 1.3453.38061.6434.81978 1.2576 1.28823 1.8425.32206.3802.70267.7312 1.11256 1.0236.29278.234.61484.4095.9369.585.29278.1169.55628.2339.84906.3509.46845.1462.9369.2047 1.43462.234.35134.0292.73195.0292 1.08329 0 .32206-.0293.64412-.0878.9369-.117.58556-.117 1.14184-.2632 1.69812-.4387.732-.234 1.4346-.5264 2.1373-.8481.6148-.2633 1.2297-.6142 1.8152-.9359.7905-.4387 1.5225-.9359 2.2837-1.4331 1.1711-.7896 2.313-1.6963 3.3963-2.5737.4684-.3509.8783-.7603 1.3468-1.1405.4684-.3802.8197-.7019 1.2296-1.0529 3.1913-2.8369 6.3826-5.703 9.7203-8.3644.732-.5264 1.4346-1.0528 2.1666-1.55.7027-.4679 1.4053-.9066 2.108-1.3746 1.5517-.9944 3.1328-1.9302 4.7138-2.8954 1.4346-.8773 2.8692-1.7255 4.3331-2.5151.7905-.40947 1.5517-.84814 2.3715-1.22834s1.581-.76042 2.4008-1.11138c.3221-.14623.6734-.29247 1.0248-.40945l.9954-.35094c.3221-.11698.6734-.20471 1.0247-.29245.4685-.14623.9662-.26321 1.4347-.3217.527-.08774 1.054-.17549 1.6102-.26323l.5856-.05847c.4099-.02924.7905-.02925 1.2004.02924-.4392.81889-.9662 1.63775-1.4639 2.4274-.4684.76039-.9076 1.49162-1.3175 2.28122-.8783 1.6378-1.6688 3.3048-2.3422 5.0011-.3221.8189-.6149 1.6085-.8784 2.4566-.322 1.1114-.5563 2.252-.6734 3.3926-.0878.8774-.0293 1.7548.1464 2.6029l.1171.4095c.1171.2924.2343.5849.3514.8481.2049.4094.4391.8189.7026 1.1991.4685.7019 1.054 1.316 1.7567 1.8132l.3806.2633c.2928.2047.6149.3801.9662.4971.7027.2925 1.4346.5557 2.1666.7019 1.054.234 2.1373.351 3.2498.2925.5563-.0293 1.0833-.0877 1.6396-.2047.6441-.117 1.259-.234 1.8738-.4095.732-.1754 1.4346-.4387 2.1373-.7019.4977-.1755.9954-.3509 1.4932-.5557.4391-.1754.849-.3217 1.2882-.5264l1.3175-.6141c.4685-.234.9076-.4972 1.3761-.7312.4684-.234.8783-.4972 1.3175-.7604 1.5517-.9067 3.0742-1.8717 4.5673-2.8953 1.6982-1.1406 3.3377-2.3398 4.9773-3.5681 2.4301-1.8133 4.9187-3.5095 7.4659-5.1765 1.2297-.8189 2.5179-1.5501 3.8061-2.2812 1.259-.6727 2.5472-1.2869 3.8647-1.8425l1.5807-.61423c.557-.20472 1.142-.38018 1.698-.52641.645-.17548 1.289-.29247 1.962-.40946-.117.14623-.205.29246-.293.43869-.527.78965-.995 1.60851-1.464 2.42741-.409.7019-.702 1.4623-1.024 2.2227-.41.9359-.732 1.8718-.996 2.8661-.234.8774-.4389 1.7841-.5853 2.6907-.0879.4679-.1464.9358-.205 1.4038-.0585.4094-.0878.8189-.0878 1.2283 0 .5265.0586 1.0821.1757 1.6086.1171.4387.2927.8481.4977 1.2575.2047.4387.4687.8482.7617 1.1992l.234.2924c.205.2632.468.4972.732.7019.38.3217.761.5849 1.171.8189s.82.4095 1.259.5557.907.2632 1.376.3509c1.083.234 2.225.2925 3.338.234.995-.0877 2.02-.2632 2.986-.5264.703-.2048 1.405-.4387 2.079-.7019.497-.2048.995-.3803 1.464-.585l1.581-.7311c.38-.1755.761-.3802 1.141-.5849.381-.2048.674-.351.996-.5265l1.347-.7604c.468-.2632.937-.5849 1.405-.8773.468-.2925.849-.585 1.259-.8774.263-.2047.556-.3802.82-.5849l2.635-1.901c1.522-1.1114 3.074-2.1935 4.626-3.2756 1.054-.7604 2.137-1.4916 3.22-2.252 1.113-.7604 2.225-1.4623 3.367-2.1349 1.142-.6727 2.255-1.2869 3.396-1.901.996-.5265 2.021-.9944 3.045-1.43309 1.376-.55568 2.782-1.05283 4.216-1.43303.791-.20473 1.581-.38022 2.372-.5557.615-.11698 1.23-.20471 1.874-.29245l1.229-.14624c-.205.26322-.41.52642-.614.81888-.615.81889-1.172 1.63778-1.728 2.48593-.995 1.6085-1.786 3.334-2.401 5.1181-.146.3802-.234.7896-.351 1.1698s-.176.7604-.263 1.1114c-.118.5264-.205 1.0821-.264 1.6377-.059.4972-.029.9944.029 1.4916.03.3509.117.7019.235 1.0236.117.2632.204.4972.322.7312.175.3509.38.7019.644 1.0236.263.3509.527.6434.819.9651.323.3217.645.6142 1.025.8481.381.2925.791.5265 1.23.7604.995.4972 2.108.8482 3.22.9652 1.142.1754 2.313.2339 3.485.1169 3.044-.2632 5.855-1.4915 8.607-2.7491.732-.3217 1.464-.7019 2.167-1.1113.38-.2048.79-.4095 1.171-.6435l1.698-1.0528c.673-.4095 1.318-.8774 1.991-1.2868l2.664-1.7548c1.552-1.0236 3.104-2.018 4.626-3.0708 1.815-1.2284 3.572-2.5152 5.358-3.7728 1.815-1.2868 3.748-2.3982 5.739-3.30483.585-.26321 1.2-.46791 1.815-.64338l1.317-.38022c.41-.11698.849-.20473 1.289-.29247.439-.08773.819-.14622 1.229-.20471l.644-.08775c-.556.58492-1.112 1.19911-1.639 1.84253-.293.3802-.615.7604-.908 1.16984l-.82 1.19909c-.292.4094-.527.8481-.79 1.2576-.264.4094-.498.9066-.732 1.3745-.439.8482-.82 1.7256-1.171 2.6322-.41 1.1113-.674 2.2812-.732 3.4803 0 .5264.058 1.0528.205 1.55.117.3802.263.7604.439 1.1114l.234.3802.498.6434c.322.3509.673.6434 1.025.9066l.439.2925c.293.2047.615.3802.966.5264.498.234.995.4387 1.493.5849.615.1755 1.259.351 1.874.4387 1.171.2047 2.371.2925 3.572.2047 2.284-.117 4.538-.6141 6.675-1.433.849-.2925 1.669-.6727 2.46-1.0529.497-.2632 1.024-.4971 1.522-.7896l1.347-.7897c.439-.2632.878-.5556 1.317-.8481.791-.4972 1.552-1.0528 2.343-1.6085 3.074-2.135 6.002-4.5039 9.164-6.5219 1.639-1.0821 3.337-2.0765 5.035-3.0416.732-.40947 1.494-.81892 2.255-1.16987.38-.17548.761-.38017 1.142-.5264l1.2-.52646c.644-.23396 1.259-.49718 1.903-.7019.849-.29246 1.698-.55566 2.547-.81888l1.054-.26321c.44-.08774.849-.20474 1.259-.26323.732-.14623 1.493-.26322 2.255-.38021.878-.08773 1.756-.17545 2.635-.23394-.41.35095-.82.70189-1.23 1.08209-.556.58492-1.083 1.1991-1.581 1.84251-.263.35096-.527.67266-.79 1.05286-.264.3802-.527.73114-.732 1.11134-.557.9066-1.025 1.8425-1.435 2.8076-.146.3802-.351.7897-.468 1.1699-.118.3802-.293.8774-.41 1.3161s-.235.8481-.322 1.2868c-.118.3802-.176.7604-.205 1.1698-.059.351-.03.7312.029 1.0821.029.2633.088.4972.146.7604l.147.3802c.088.2632.205.4972.351.7312.234.3802.468.7019.761 1.0236.293.351.644.6726 1.054.9359l.557.3509c.322.2048.673.3802 1.024.5264 1.025.4387 2.079.7605 3.192.9652 1.346.2047 2.722.234 4.069.117 1.142-.0878 2.284-.2925 3.367-.585.82-.2339 1.61-.4972 2.401-.8189 1.464-.5556 2.898-1.0821 4.333-1.7255 1.025-.4972 2.05-1.0528 3.016-1.667.937-.5557 1.844-1.0821 2.781-1.6378 1.552-.9358 3.074-1.8717 4.597-2.8953 1.522-1.0236 3.015-2.0765 4.538-3.1294 1.698-1.1698 3.396-2.3104 5.124-3.39253.761-.46794 1.551-.93588 2.371-1.34532l1.318-.67267c.351-.17548.732-.35095 1.112-.49718.966-.3802 1.962-.73115 2.957-.99437.615-.14623 1.23-.3217 1.874-.43869.468-.08773.966-.17549 1.435-.26323.468-.08773.878-.08771 1.346-.11695-.468.46793-.878.96512-1.288 1.46231-.585.73115-1.142 1.49151-1.639 2.31041-.235.3802-.469.78968-.703 1.19912-.264.5264-.527 1.0236-.791 1.55-.409.8774-.761 1.7548-1.054 2.6614-.205.6142-.38 1.2576-.527 1.901-.058.4095-.117.8189-.087 1.2576.029.2925.058.5557.087.8481.03.2633.118.5557.235.8189.351.9066.937 1.7256 1.668 2.369l.352.2632c.322.2632.673.4972 1.054.7019.527.2632 1.054.5264 1.61.7311 1.142.4387 2.342.702 3.572.8189.556.0585 1.113.0878 1.669.117.644 0 1.317-.0292 1.961-.117 1.113-.1462 2.196-.3802 3.25-.7311.586-.1755 1.142-.4095 1.728-.6434.41-.1463.79-.3217 1.2-.4972.498-.2047.996-.4095 1.464-.6434.937-.468 1.845-.9067 2.752-1.4038.761-.4095 1.523-.8482 2.284-1.2869 1.639-.9359 3.308-1.8425 4.889-2.8661 1.728-1.0821 3.426-2.1935 5.124-3.3048 1.61-1.0529 3.191-2.135 4.889-3.10008.849-.49718 1.728-.96513 2.577-1.43307.878-.49718 1.815-.90663 2.752-1.31607.527-.20472 1.025-.40945 1.552-.61417l1.171-.40945c.351-.11699.761-.20472 1.112-.3217 1.259-.35096 2.548-.61418 3.836-.78966l.527-.05849-.732.58493c-.586.49719-1.171.99438-1.728 1.55005-.556.55568-1.141 1.11133-1.668 1.7255l-.82.96513c-.293.32171-.527.7019-.82 1.05288-.439.5557-.849 1.1406-1.23 1.7548l-.614 1.0236c-.527.9358-.967 1.9302-1.289 2.9538-.234.7312-.41 1.4916-.468 2.252-.029.4094-.059.7896-.029 1.1991.029.4387.117.8773.263 1.316.088.2925.205.5557.322.8189l.176.4095c.146.2924.351.5849.556.8189.205.2924.439.5556.703.7896l.498.4094c.263.234.556.4387.849.6142.849.5264 1.756.9651 2.722 1.2576 1.084.3802 2.226.6142 3.397.7312.966.1169 1.903.1754 2.869.1754 1.23 0 2.459-.117 3.66-.3217 1.639-.2632 3.25-.7019 4.801-1.316.879-.351 1.728-.6727 2.577-1.0529.79-.351 1.551-.7019 2.342-1.0528.703-.2925 1.405-.6435 2.049-1.0529.703-.468 1.376-.9944 2.021-1.5501.351-.3509.439-.9066.175-1.316-.322-.5265-.966-.702-1.493-.3803-.908.5265-1.844.9944-2.811 1.3746-1.288.5265-2.576 1.0529-3.894 1.5793-.644.2632-1.317.4972-1.99.7312-1.435.4971-2.928.8773-4.451 1.1113-.79.0878-1.551.1462-2.342.1755-.966 0-1.932-.0585-2.869-.1755-.381-.0585-.791-.117-1.171-.2047-.849-.1755-1.64-.4387-2.43-.7604-.293-.1462-.615-.2925-.908-.4679-.293-.1755-.586-.351-.849-.5557-.264-.2048-.527-.4679-.761-.7019l-.117-.1755c-.088-.1462-.176-.2925-.264-.4679-.117-.3218-.205-.6434-.263-.9651 0-.2925 0-.585.029-.8774.146-.8482.38-1.6671.673-2.4567.41-.9066.879-1.784 1.406-2.6029.234-.351.439-.7019.702-1.0529l.674-.9066c.41-.4972.849-.9944 1.288-1.49158s.966-.99436 1.464-1.49155c.439-.43869.878-.81887 1.347-1.22831.468-.40945.907-.76041 1.376-1.11136l.937-.67264.614-.46797c.235-.17548.469-.32169.674-.52641l.263-.23398c.147-.17548.293-.38021.439-.58493.235-.35096.293-.78964.147-1.19908-.088-.32171-.264-.61418-.469-.84815-.38-.32171-.849-.49719-1.346-.555678-.44-.058492-.879-.087723-1.347-.087723-.381-.233968-.908-.204707-1.406-.17546zm-99.486 17.576921.029.2924c0-.0877-.029-.2047-.029-.2924zm-93.748.3509-.03.234c0-.0585.03-.1462.03-.234zm44.268.0878-.029.1754c0-.0585 0-.1169.029-.1754zm141.735.8774.146.3509c-.058-.117-.117-.234-.146-.3509zm-186.12 0 .058.3509c-.029-.117-.029-.234-.058-.3509zm44.385.6434.117.3217c-.058-.117-.088-.234-.117-.3217zm.79 1.2576.293.2339c-.088-.0877-.175-.1462-.293-.2339zm-94.392 1.2868.147.3217c-.059-.117-.118-.234-.147-.3217zm-47.1374.1754c0 .0878.0293.1755.0293.2925 0-.0877 0-.1755-.0293-.2925zm47.8984 1.2284.205.2632c-.087-.0877-.146-.1755-.205-.2632zm-47.1079.9066.1757.234c-.0586-.0585-.1171-.1463-.1757-.234z"/></svg>