<svg xmlns="http://www.w3.org/2000/svg" fill="none" viewBox="0 0 365 36"><style>@media (prefers-color-scheme:dark){path{fill:#e3ddcf}}</style><path fill="hsla(240,2%,25%,1)" d="M344.939.715c-.936.03-1.844.117-2.752.264a30.077 30.077 0 00-8.256 2.252l-1.464.643c-.468.205-.937.468-1.405.673-.732.35-1.435.76-2.138 1.17-.819.467-1.668.965-2.488 1.491-1.552 1.024-3.104 2.076-4.685 3.1-.82.556-1.669 1.082-2.488 1.638-.82.556-1.757 1.082-2.665 1.638-1.581.965-3.191 1.871-4.772 2.807-.732.439-1.493.82-2.254 1.2-.41.204-.791.409-1.201.614l-1.317.584-1.464.556c-1.054.38-2.137.673-3.279.848l-1.23.088c-.673 0-1.317-.03-1.991-.088-.556-.087-1.112-.204-1.669-.321a10.891 10.891 0 01-1.376-.468l-.585-.293a6.646 6.646 0 01-.762-.468 4.004 4.004 0 01-.497-.497c-.117-.175-.235-.35-.352-.556l-.087-.35a2.98 2.98 0 010-.732c.263-1.053.585-2.105.995-3.1l.498-1.082c.205-.41.439-.819.644-1.228.205-.41.468-.79.702-1.17.235-.38.527-.79.791-1.17l.498-.643c.234-.322.527-.615.79-.907.264-.292.586-.614.879-.907.351-.35.731-.672 1.112-1.023.469-.41 1.113-1.053 1.025-1.755 0-.322-.088-.643-.234-.936-.176-.292-.41-.497-.732-.643s-.674-.234-1.025-.264a5.73 5.73 0 00-.673-.058c-.469-.03-.937-.03-1.406-.03-3.689.089-7.29.937-10.628 2.428-.38.176-.761.322-1.112.497l-1.318.673c-.439.234-.878.497-1.317.76-.439.264-.908.556-1.376.849-1.581.994-3.075 2.047-4.597 3.1-1.522 1.053-3.103 2.193-4.684 3.275a112.085 112.085 0 01-4.626 2.925c-.849.497-1.699 1.023-2.548 1.52-.409.264-.849.498-1.259.732-.849.497-1.727.936-2.605 1.316-.791.322-1.611.614-2.43.936-.44.175-.879.321-1.347.497-.469.175-.878.292-1.318.439-.556.146-1.112.292-1.669.35a21.903 21.903 0 01-3.923.118 30.226 30.226 0 01-1.581-.322c-.468-.117-.937-.293-1.405-.468l-.264-.117a6.088 6.088 0 01-.937-.556l-.263-.234c-.176-.146-.322-.321-.468-.497a4.985 4.985 0 01-.323-.526l-.058-.147c-.029-.117-.088-.263-.088-.38v-.526a25 25 0 01.498-2.135c.175-.673.41-1.316.702-1.96l.41-.819a5.94 5.94 0 01.527-.935c.205-.293.352-.585.527-.878l.674-.994.556-.702c.498-.614 1.025-1.2 1.581-1.726s1.142-1.023 1.786-1.491l.966-.702c.381-.263.732-.585.996-.965.146-.293.205-.614.205-.907 0-.497-.264-.965-.703-1.228l-.205-.117a1.36 1.36 0 00-.673-.176l-.791-.087c-.381-.03-.79-.03-1.171-.03-.966 0-1.903.059-2.869.147-.966.087-1.903.204-2.87.321-.966.117-1.932.322-2.869.527-.82.204-1.669.41-2.459.672l-1.405.468c-.527.176-1.054.38-1.552.585-.41.147-.82.351-1.23.527-.351.146-.703.292-1.025.468l-1.317.643c-.498.234-.966.526-1.464.79-.673.35-1.347.76-2.02 1.17-.849.526-1.728 1.023-2.577 1.55-1.639 1.023-3.191 2.164-4.743 3.304l-4.391 3.247c-.732.526-1.494 1.053-2.226 1.55-.79.555-1.581 1.111-2.43 1.58-.468.262-.937.555-1.405.818l-1.171.614c-.41.205-.82.38-1.23.585-.761.293-1.493.556-2.283.79-.908.263-1.816.438-2.723.585-.644.087-1.318.117-1.991.146-.615.03-1.201 0-1.786-.088a17.644 17.644 0 01-2.957-.79l-.703-.35a6.63 6.63 0 01-.585-.38 3.021 3.021 0 01-.615-.615l-.117-.146c-.088-.146-.176-.263-.235-.41-.087-.233-.146-.467-.205-.701v-.38c0-.147.03-.293.03-.44.146-.73.322-1.432.585-2.105.088-.234.205-.497.293-.731l.556-1.2c.235-.467.498-.906.732-1.374.234-.468.557-.906.82-1.345.264-.439.586-.848.878-1.258l-.175.234c.322-.41.644-.848.966-1.228.41-.497.849-.965 1.288-1.433.351-.38.703-.731 1.083-1.082.381-.351.645-.644.967-.936.175-.205.351-.41.497-.644.088-.175.147-.35.205-.555a1.783 1.783 0 000-.79 1.667 1.667 0 00-.673-.877 2.751 2.751 0 00-1.376-.351c-.41 0-.82 0-1.23.029-.878.058-1.757.146-2.635.263-.82.088-1.639.234-2.43.41a30.302 30.302 0 00-3.074.877 25.155 25.155 0 00-3.601 1.667c-.352.176-.674.38-1.025.585-.351.205-.703.41-1.025.643-.849.556-1.698 1.112-2.547 1.697-.732.497-1.435 1.023-2.137 1.52-2.87 2.077-5.885 3.978-8.842 5.908l-2.196 1.433c-.732.468-1.493.936-2.225 1.375-.439.263-.937.497-1.376.76l-1.054.527c-.732.35-1.464.702-2.225 1.023l-1.464.585c-1.259.497-2.577.82-3.924 1.053a10.52 10.52 0 01-1.376.088c-.497 0-.966-.03-1.464-.059-.204-.029-.38-.058-.585-.087-.586-.117-1.171-.264-1.698-.468-.234-.117-.439-.234-.674-.351-.175-.117-.322-.205-.497-.322a7.962 7.962 0 01-.996-.994c-.205-.322-.41-.644-.585-.995-.059-.146-.088-.321-.117-.468v-.643c0-.117 0-.234.029-.351.058-.38.146-.76.205-1.111.117-.527.234-1.024.38-1.55.235-.79.527-1.58.849-2.34.352-.76.732-1.492 1.142-2.223.527-.848 1.054-1.696 1.611-2.515.556-.819 1.171-1.638 1.727-2.515l.146-.351c.147-.234.205-.527.235-.82.058-.672-.293-1.344-.908-1.637-.205-.088-.381-.175-.615-.234l-.703-.088c-.497-.029-.966 0-1.463.059-.498.03-.967.088-1.464.146-.937.088-1.874.234-2.782.41-.82.146-1.639.35-2.459.555-.937.234-1.815.556-2.723.848-.498.176-.966.38-1.464.556a16.42 16.42 0 00-1.259.556c-.82.35-1.639.73-2.43 1.17-1.698.906-3.396 1.842-5.036 2.895-1.639 1.053-3.132 2.106-4.684 3.188s-3.133 2.193-4.655 3.305c-.967.702-1.903 1.374-2.87 2.076-.849.614-1.727 1.258-2.635 1.813-.907.556-1.756 1.083-2.664 1.58l-1.581.848c-.527.263-1.054.497-1.61.76l-1.259.527c-1.142.438-2.313.76-3.514.936-.439.058-.878.087-1.346.087-.381 0-.762-.029-1.142-.058a16.128 16.128 0 01-2.05-.497l-.292-.147-.703-.438a3.07 3.07 0 01-.615-.615c-.117-.175-.234-.321-.322-.497s-.205-.35-.264-.555a2.446 2.446 0 01-.175-.615c-.029-.555-.029-1.082.058-1.637.176-.965.352-1.901.586-2.866a22.15 22.15 0 011.025-3.071l.38-.907c.147-.38.352-.731.527-1.082a22.03 22.03 0 011.435-2.427c.234-.351.468-.702.703-1.083l.351-.497c.205-.263.351-.585.498-.877l.146-.351c.029-.205.059-.41.059-.614.029-.38-.118-.76-.381-1.024a1.647 1.647 0 00-.761-.497l-.615-.088c-.234 0-.469 0-.703.03a22.46 22.46 0 00-2.752.438c-.995.205-1.962.439-2.898.76-.352.118-.703.264-1.025.38-.469.176-.937.381-1.376.586-.908.38-1.786.79-2.664 1.199-.879.41-1.67.877-2.49 1.316-.819.439-1.697.994-2.546 1.52-1.581.966-3.104 2.019-4.655 3.072-1.464.994-2.87 2.076-4.304 3.1-1.64 1.199-3.309 2.34-5.007 3.45a70.188 70.188 0 01-3.513 2.136c-.615.35-1.26.702-1.874 1.052-.615.351-1.2.585-1.845.878-.614.234-1.2.468-1.815.672-.498.176-.966.322-1.464.498-.907.292-1.844.497-2.81.643-.322.03-.615.059-.937.059-.498.029-.996 0-1.493-.059-.293-.058-.586-.117-.879-.205a16.685 16.685 0 01-1.58-.526 3.951 3.951 0 01-.762-.439l.322.263c-.234-.175-.468-.38-.703-.584-.117-.117-.234-.234-.322-.351-.263-.41-.527-.849-.732-1.287l-.117-.293c-.03-.146-.088-.321-.117-.468a8.802 8.802 0 01.03-1.52c.175-.966.41-1.901.702-2.837.264-.79.556-1.55.85-2.34a61.014 61.014 0 012.107-4.416c.44-.82.908-1.638 1.376-2.457.234-.38.44-.79.674-1.17.175-.292.322-.614.468-.936l.322-.73c.117-.293.176-.586.176-.878.029-.146.029-.293.058-.439-.029-.263-.058-.555-.146-.819a2.18 2.18 0 00-.615-.936 1.96 1.96 0 00-.966-.526 5.847 5.847 0 00-1.025-.263 7.508 7.508 0 00-2.137-.117c-.586.058-1.2.146-1.786.205-.85.117-1.64.292-2.489.467-.234.059-.497.147-.732.205-.175.059-.351.088-.527.146-.556.205-1.083.38-1.64.585a41.873 41.873 0 00-5.064 2.37c-.762.409-1.493.818-2.225 1.257a49.012 49.012 0 00-2.606 1.667c-1.581 1.053-3.191 2.106-4.743 3.158-.644.44-1.288.878-1.903 1.317-.908.672-1.786 1.345-2.694 2.047-1.112.877-2.137 1.842-3.191 2.778l-2.84 2.515c-2.372 2.106-4.743 4.241-7.232 6.2a46.449 46.449 0 01-3.162 2.165 24.867 24.867 0 01-3.396 1.754c-.351.147-.732.264-1.113.38-.527.176-1.054.293-1.58.38l-.323.03c-.322.03-.673.03-.995 0l-.234-.03a3.277 3.277 0 01-1.025-.35l.351.146a5.162 5.162 0 01-.673-.41l-.41-.35c-.205-.205-.38-.41-.556-.614-.527-.79-.996-1.609-1.464-2.428a1.49 1.49 0 00-1.903-.79 1.487 1.487 0 00-.79 1.902c.058.117.116.233.204.321.234.439.498.907.761 1.346.38.643.82 1.257 1.289 1.842.322.38.702.731 1.112 1.024.293.234.615.41.937.585.293.117.556.234.85.35.468.147.936.205 1.434.235.351.029.732.029 1.083 0 .322-.03.644-.088.937-.117a16.042 16.042 0 001.698-.44 19.107 19.107 0 002.137-.847c.615-.264 1.23-.614 1.816-.936.79-.439 1.522-.936 2.283-1.433 1.171-.79 2.313-1.697 3.397-2.574.468-.35.878-.76 1.346-1.14.469-.38.82-.702 1.23-1.053 3.191-2.837 6.383-5.703 9.72-8.365.732-.526 1.435-1.053 2.167-1.55.703-.468 1.405-.906 2.108-1.374 1.552-.995 3.133-1.93 4.714-2.896a92.412 92.412 0 014.333-2.515c.79-.41 1.551-.848 2.371-1.228s1.581-.76 2.401-1.112a10.68 10.68 0 011.025-.41l.995-.35c.322-.117.674-.205 1.025-.292a8.432 8.432 0 011.435-.322c.527-.088 1.054-.176 1.61-.263l.585-.059c.41-.03.79-.03 1.2.03-.438.818-.965 1.637-1.463 2.427-.468.76-.908 1.491-1.318 2.281a48.361 48.361 0 00-2.342 5.001 34.912 34.912 0 00-.878 2.457 19.334 19.334 0 00-.674 3.392 8.607 8.607 0 00.147 2.603l.117.41c.117.292.234.585.351.848.205.41.44.819.703 1.199a6.897 6.897 0 001.757 1.813l.38.263c.293.205.615.38.966.498.703.292 1.435.555 2.167.701 1.054.234 2.137.351 3.25.293.556-.03 1.083-.088 1.64-.205.644-.117 1.258-.234 1.873-.41.732-.175 1.435-.438 2.138-.701.497-.176.995-.351 1.493-.556.439-.175.849-.322 1.288-.526l1.317-.614c.469-.234.908-.498 1.377-.732.468-.234.878-.497 1.317-.76a74.944 74.944 0 004.567-2.895c1.699-1.14 3.338-2.34 4.978-3.568 2.43-1.814 4.918-3.51 7.466-5.177 1.23-.819 2.517-1.55 3.806-2.281a46.711 46.711 0 013.864-1.843l1.581-.614c.557-.205 1.142-.38 1.698-.526.645-.176 1.289-.293 1.962-.41-.117.147-.205.293-.293.439-.527.79-.995 1.609-1.464 2.427-.409.702-.702 1.463-1.024 2.223-.41.936-.732 1.872-.996 2.866a27.548 27.548 0 00-.585 2.69c-.088.469-.147.937-.205 1.405-.059.41-.088.819-.088 1.228 0 .527.059 1.082.176 1.609.117.438.292.848.497 1.257.205.439.469.848.762 1.2l.234.292c.205.263.468.497.732.702.38.321.761.585 1.171.819s.82.409 1.259.555.907.263 1.376.351c1.083.234 2.225.293 3.338.234.995-.088 2.02-.263 2.986-.526a24.854 24.854 0 002.079-.702c.497-.205.995-.38 1.464-.585l1.581-.731c.38-.176.761-.38 1.141-.585.381-.205.674-.351.996-.527l1.347-.76c.468-.263.937-.585 1.405-.877.468-.293.849-.585 1.259-.878.263-.204.556-.38.82-.585l2.635-1.9c1.522-1.112 3.074-2.194 4.626-3.276 1.054-.76 2.137-1.492 3.22-2.252a59.094 59.094 0 013.367-2.135 99.697 99.697 0 013.396-1.901 41.333 41.333 0 013.045-1.433c1.376-.556 2.782-1.053 4.216-1.433.791-.205 1.581-.38 2.372-.556.615-.117 1.23-.205 1.874-.292l1.229-.147c-.205.264-.41.527-.614.82a46.91 46.91 0 00-1.728 2.485 25.528 25.528 0 00-2.401 5.118c-.146.38-.234.79-.351 1.17s-.176.76-.263 1.111a14.595 14.595 0 00-.264 1.638c-.059.497-.029.995.029 1.492a4 4 0 00.235 1.023c.117.264.204.498.322.732.175.35.38.701.644 1.023.263.351.527.644.819.965.323.322.645.614 1.025.848.381.293.791.527 1.23.76.995.498 2.108.849 3.22.966 1.142.175 2.313.234 3.485.117 3.044-.263 5.855-1.492 8.607-2.75a21.677 21.677 0 002.167-1.11c.38-.205.79-.41 1.171-.644l1.698-1.053c.673-.41 1.318-.877 1.991-1.287l2.664-1.754c1.552-1.024 3.104-2.018 4.626-3.071 1.815-1.229 3.572-2.515 5.358-3.773a35.113 35.113 0 015.739-3.305c.585-.263 1.2-.468 1.815-.643l1.317-.38c.41-.118.849-.205 1.289-.293.439-.088.819-.146 1.229-.205l.644-.087c-.556.584-1.112 1.199-1.639 1.842-.293.38-.615.76-.908 1.17l-.82 1.199c-.292.41-.527.848-.79 1.258-.264.409-.498.906-.732 1.374-.439.848-.82 1.726-1.171 2.632a11.697 11.697 0 00-.732 3.48c0 .527.058 1.053.205 1.55.117.38.263.761.439 1.112l.234.38.498.644c.322.35.673.643 1.025.906l.439.293c.293.204.615.38.966.526.498.234.995.439 1.493.585.615.176 1.259.351 1.874.439 1.171.204 2.371.292 3.572.204a21.8 21.8 0 006.675-1.433c.849-.292 1.669-.672 2.46-1.052.497-.264 1.024-.498 1.522-.79l1.347-.79c.439-.263.878-.555 1.317-.848.791-.497 1.552-1.053 2.343-1.608 3.074-2.135 6.002-4.504 9.164-6.522 1.639-1.082 3.337-2.077 5.035-3.042.732-.41 1.494-.819 2.255-1.17.38-.175.761-.38 1.142-.526l1.2-.527c.644-.234 1.259-.497 1.903-.702.849-.292 1.698-.555 2.547-.818l1.054-.264c.44-.087.849-.204 1.259-.263a51.545 51.545 0 012.255-.38 79.853 79.853 0 012.635-.234c-.41.351-.82.702-1.23 1.082-.556.585-1.083 1.2-1.581 1.843-.263.35-.527.672-.79 1.052-.264.38-.527.732-.732 1.112a21.068 21.068 0 00-1.435 2.807c-.146.38-.351.79-.468 1.17-.118.38-.293.878-.41 1.316s-.235.849-.322 1.287c-.118.38-.176.76-.205 1.17-.059.351-.03.731.029 1.082.029.263.088.497.146.76l.147.38c.088.264.205.498.351.732.234.38.468.702.761 1.024.293.35.644.672 1.054.935l.557.351c.322.205.673.38 1.024.527 1.025.438 2.079.76 3.192.965 1.346.205 2.722.234 4.069.117a18.422 18.422 0 003.367-.585c.82-.234 1.61-.497 2.401-.819 1.464-.556 2.898-1.082 4.333-1.725a30.255 30.255 0 003.016-1.667c.937-.556 1.844-1.083 2.781-1.638 1.552-.936 3.074-1.872 4.597-2.896 1.522-1.023 3.015-2.076 4.538-3.129 1.698-1.17 3.396-2.31 5.124-3.393a30.98 30.98 0 012.371-1.345l1.318-.673a12.84 12.84 0 011.112-.497 27.03 27.03 0 012.957-.994c.615-.146 1.23-.322 1.874-.439.468-.087.966-.175 1.435-.263.468-.088.878-.088 1.346-.117-.468.468-.878.965-1.288 1.462a21.849 21.849 0 00-1.639 2.31c-.235.381-.469.79-.703 1.2-.264.526-.527 1.024-.791 1.55a23.051 23.051 0 00-1.054 2.661c-.205.615-.38 1.258-.527 1.901-.058.41-.117.82-.087 1.258l.087.848c.03.263.118.556.235.819a6.14 6.14 0 001.668 2.369l.352.263c.322.263.673.497 1.054.702.527.263 1.054.526 1.61.731 1.142.439 2.342.702 3.572.819a31.93 31.93 0 001.669.117c.644 0 1.317-.03 1.961-.117a17.434 17.434 0 003.25-.731c.586-.176 1.142-.41 1.728-.643.41-.147.79-.322 1.2-.498.498-.204.996-.41 1.464-.643.937-.468 1.845-.907 2.752-1.404.761-.41 1.523-.848 2.284-1.287 1.639-.936 3.308-1.842 4.889-2.866 1.728-1.082 3.426-2.193 5.124-3.305 1.61-1.053 3.191-2.135 4.889-3.1.849-.497 1.728-.965 2.577-1.433.878-.497 1.815-.906 2.752-1.316.527-.205 1.025-.41 1.552-.614l1.171-.41c.351-.117.761-.204 1.112-.321a28.802 28.802 0 013.836-.79l.527-.058-.732.585c-.586.497-1.171.994-1.728 1.55-.556.555-1.141 1.11-1.668 1.725l-.82.965c-.293.322-.527.702-.82 1.053-.439.556-.849 1.14-1.23 1.755l-.614 1.024c-.527.935-.967 1.93-1.289 2.953-.234.732-.41 1.492-.468 2.252-.029.41-.059.79-.029 1.2.029.438.117.877.263 1.315.088.293.205.556.322.82l.176.409c.146.292.351.585.556.819.205.292.439.555.703.79l.498.409c.263.234.556.438.849.614.849.526 1.756.965 2.722 1.258 1.084.38 2.226.614 3.397.73.966.118 1.903.176 2.869.176 1.23 0 2.459-.117 3.66-.322a22.907 22.907 0 004.801-1.316c.879-.35 1.728-.672 2.577-1.052.79-.351 1.551-.702 2.342-1.053a13.534 13.534 0 002.049-1.053 20.636 20.636 0 002.021-1.55c.351-.351.439-.907.175-1.316-.322-.527-.966-.702-1.493-.38-.908.526-1.844.994-2.811 1.374a517.75 517.75 0 01-3.894 1.58c-.644.263-1.317.497-1.99.73a25.416 25.416 0 01-4.451 1.112c-.79.088-1.551.146-2.342.175-.966 0-1.932-.058-2.869-.175-.381-.059-.791-.117-1.171-.205a13.78 13.78 0 01-2.43-.76c-.293-.146-.615-.293-.908-.468a8.406 8.406 0 01-.849-.556c-.264-.205-.527-.468-.761-.702l-.117-.175a6.7 6.7 0 01-.264-.468 5.872 5.872 0 01-.263-.965c0-.293 0-.585.029-.878.146-.848.38-1.667.673-2.456.41-.907.879-1.784 1.406-2.603.234-.351.439-.702.702-1.053l.674-.907c.41-.497.849-.994 1.288-1.491s.966-.995 1.464-1.492c.439-.439.878-.819 1.347-1.228.468-.41.907-.76 1.376-1.112l.937-.672.614-.468c.235-.176.469-.322.674-.527l.263-.234c.147-.175.293-.38.439-.585.235-.35.293-.79.147-1.199a2.188 2.188 0 00-.469-.848c-.38-.321-.849-.497-1.346-.555a10.1 10.1 0 00-1.347-.088c-.381-.234-.908-.205-1.406-.176zm-99.486 17.577l.029.293c0-.088-.029-.205-.029-.293zm-93.748.351l-.03.234c0-.058.03-.146.03-.234zm44.268.088l-.029.175c0-.058 0-.117.029-.175zm141.735.877l.146.351c-.058-.117-.117-.234-.146-.35zm-186.12 0l.058.351c-.029-.117-.029-.234-.058-.35zm44.385.644l.117.322c-.058-.118-.088-.235-.117-.322zm.79 1.257l.293.234c-.088-.087-.175-.146-.293-.234zm-94.392 1.287l.147.322c-.059-.117-.118-.234-.147-.322zm-47.137.176c0 .087.029.175.029.292 0-.088 0-.175-.03-.292zm47.898 1.228l.205.263c-.087-.088-.146-.175-.205-.263zm-47.108.907l.176.234c-.059-.059-.117-.147-.176-.234z"/></svg>