<svg xmlns="http://www.w3.org/2000/svg" fill="none" viewBox="0 0 84 128"><style>@media (prefers-color-scheme:dark){g{fill:#e3ddcf}}</style><g fill="hsla(240,2%,25%,1)"><path d="M10.493 69.938v2.37c0 .643 0 1.286.059 1.93.058.73.146 1.462.263 2.193l.088.585c.03.117.058.263.088.38l.029.176c.03.146.059.263.088.38l.029.146c.03.117.059.234.117.351l.059.146c.087.205.146.41.263.614s.264.527.41.82a.615.615 0 00.527.292c.059 0 .117 0 .146-.03a.545.545 0 00.352-.263.526.526 0 00.058-.468 14.672 14.672 0 01-.673-1.9c-.146-.615-.264-1.229-.38-1.814-.118-.877-.235-1.813-.264-2.749-.03-.877-.03-1.784-.03-2.661v-.556c-.029-.351-.321-.614-.702-.614-.234.087-.498.35-.527.672zm1.493-7.019c-.058.03-.117.117-.146.176a10.764 10.764 0 00-.469 1.58c-.117.584-.234 1.169-.351 1.812-.03.088 0 .205.03.293a.42.42 0 00.526.146.364.364 0 00.176-.234c.088-.585.205-1.17.351-1.813.059-.263.117-.497.147-.76l.175-.878a.335.335 0 00-.205-.38h-.088c-.058.03-.087.058-.146.058zm1.698 18.864a.605.605 0 00-.293.41.66.66 0 00.059.468c.322.467.673.935 1.025 1.374l.058.088c.322.41.674.819 1.054 1.199a.58.58 0 00.732.088.522.522 0 00.264-.351.537.537 0 00-.059-.468c-.38-.497-.761-.965-1.142-1.433l-.322-.41c-.175-.234-.351-.468-.527-.73a.628.628 0 00-.556-.323.655.655 0 00-.293.088zm-.03-5.79a.49.49 0 00-.321.263c-.088.117-.088.292-.059.438l.527 1.404.088.205.117.263c.059.146.117.263.176.38l.059.117.146.322.088.146c.058.117.117.205.175.322l.088.146c.176.322.38.614.586.907.058.117.176.175.293.234.029 0 .087.029.117.029a.462.462 0 00.468-.468.552.552 0 00-.058-.234 26.157 26.157 0 01-1.113-2.223l-.088-.234c-.205-.526-.41-1.023-.585-1.55a.49.49 0 00-.264-.321.495.495 0 00-.293-.088c-.029-.059-.087-.059-.146-.059zm4.627 10.353c0 .292.234.555.556.555a.538.538 0 00.556-.555.556.556 0 00-.556-.556.576.576 0 00-.556.555zm60.81-15.969l-.263.79-.088.263a3.568 3.568 0 01-.205.497l-.088.234c-.702 1.58-1.405 3.13-2.137 4.533-.03.088-.088.176-.146.263-.118.176-.06.44.146.527.058.03.117.058.205.058a.382.382 0 00.351-.204c.205-.38.44-.79.644-1.2.205-.409.41-.848.586-1.257.146-.322.263-.614.41-.936l.088-.234c.175-.41.35-.848.527-1.257.234-.556.439-1.141.702-1.93a.284.284 0 00-.03-.264.364.364 0 00-.233-.175c-.235-.03-.41.087-.469.292zM74.787 78.8c-.35.614-.732 1.258-1.083 1.872-.146.234-.058.555.176.672.088.059.176.059.263.059.059 0 .088 0 .147-.03a.465.465 0 00.293-.233c.38-.527.702-1.112 1.024-1.667l.117-.176a.53.53 0 00-.205-.731c-.088-.059-.175-.059-.263-.059-.176.059-.351.147-.469.293zm.088-2.632a50.338 50.338 0 00-1.142 2.076c-.058.117-.029.293.088.351s.293.03.352-.088c.38-.701.79-1.374 1.17-2.076.088-.117.03-.292-.087-.38-.03-.03-.088-.03-.147-.03-.087 0-.175.06-.234.147zm-2.957 7.575l-.41.468c-.644.73-1.317 1.491-1.99 2.251-.147.147-.147.38 0 .556.087.059.175.117.292.117.088 0 .205-.03.264-.117a41.341 41.341 0 002.371-2.778c.059-.059.088-.147.088-.234s-.03-.176-.088-.234a.371.371 0 00-.263-.117c-.117 0-.205.03-.264.088zM41.791 59.03a54.562 54.562 0 01-1.903 5.586.584.584 0 00.059.438c.087.117.205.234.35.263.06 0 .089.03.147.03.117 0 .205-.03.293-.088a.799.799 0 00.264-.35c.322-.82.702-1.785 1.024-2.78l.088-.292a6.38 6.38 0 00.293-.994v-.03c.059-.233.117-.438.146-.672.059-.263.088-.556.147-.819a.584.584 0 00-.059-.38c-.058-.117-.175-.176-.293-.205-.029 0-.087-.03-.117-.03-.234 0-.41.147-.439.323zm.79-6.054a.569.569 0 00-.263.321 53.84 53.84 0 01-.176 1.346c-.058.41-.058.79-.087 1.199v.117c0 .146.058.292.146.38a.623.623 0 00.44.205.579.579 0 00.41-.176.577.577 0 00.175-.41c.058-.73.117-1.608.205-2.485 0-.263-.176-.468-.41-.556-.059 0-.088-.03-.147-.03-.117.03-.205.06-.292.089zM40.855.099l-.263.175c-.674.41-1.23.936-1.67 1.58-.204.292-.438.584-.614.877-.41.643-.82 1.316-1.23 1.96-.82 1.345-1.522 2.748-2.225 4.152a93.793 93.793 0 00-1.815 3.89c-.761 1.725-1.552 3.451-2.313 5.177-.732 1.637-1.347 3.334-1.903 5.06-.556-.323-1.142-.615-1.698-.937-1.083-.585-2.137-1.199-3.191-1.813-1.142-.643-2.343-1.258-3.514-1.872a31.165 31.165 0 01-1.698-.906 19.392 19.392 0 00-1.727-.907c-.147-.059-.322-.146-.469-.176l-.439-.058h-.058c-.235.03-.469.088-.674.234-.205.117-.38.292-.556.439a4.85 4.85 0 00-.761 1.14c-.205.439-.41.907-.557 1.404-.175.468-.322.965-.468 1.462-.088.322-.059.673.088.965-.03.644.322 1.287.878 1.61 1.318.789 2.694 1.461 4.099 2.134 1.317.643 2.635 1.287 3.982 1.901 2.518 1.17 5.036 2.398 7.553 3.597l.059.03.293.146c1.493.702 3.015 1.345 4.48 1.988l1.17.498c1.142.497 2.284.965 3.426 1.403.761.322 1.522.615 2.313.936l.878.38c1.025.44 2.05.878 3.104 1.317l.351.146 2.284.877s1.493.614 2.225.907c1.23.526 2.489 1.053 3.718 1.608l1.845.82c.293.146.615.263.937.38.439.146.907.233 1.317-.03a3.29 3.29 0 00.85-1.053c.175-.263.321-.526.438-.79.088-.175.176-.38.235-.555.058-.146.087-.322.087-.468.03-.146 0-.292-.029-.439-.058-.175-.146-.321-.205-.467a1.867 1.867 0 00-.38-.44c-.147-.145-.293-.262-.44-.409-.497-.438-1.024-.819-1.522-1.228-.586-.468-1.171-.907-1.757-1.375-.849-.643-1.698-1.286-2.605-1.9-.615-.41-1.26-.82-1.874-1.229.205-.292.38-.614.585-.907.41-.643.82-1.257 1.23-1.9.761-1.229 1.552-2.428 2.284-3.656 1.522-2.574 2.898-5.235 4.45-7.809.732-1.258 1.522-2.486 2.225-3.773.44-.76.79-1.55 1.113-2.34.146-.38.234-.789.205-1.198a1.625 1.625 0 00-.586-1.17c-.322-.264-.673-.527-1.025-.702-1.23-.731-2.518-1.287-3.806-1.93-.673-.322-1.347-.702-2.02-1.053-.615-.322-1.2-.702-1.845-.995a41.39 41.39 0 00-5.152-2.105c-1.67-.527-3.338-1.053-4.978-1.667-.234-.088-.468-.205-.732-.322a3.423 3.423 0 00-.907-.585 1.15 1.15 0 00-.527-.117c-.176-.03-.352 0-.469.088z"/><path d="M28.587 29.14a33.28 33.28 0 00-2.87 1.989c-.848.702-1.639 1.433-2.4 2.223-.761.79-1.523 1.55-2.254 2.34-.732.789-1.377 1.608-2.05 2.456-.41.526-.82 1.053-1.2 1.58-.264.38-.527.73-.79 1.11l-.177.264c-.556.79-1.112 1.58-1.61 2.427-.38.585-.732 1.228-1.112 1.901a71.803 71.803 0 00-2.08 3.92c-.497.993-.936 2.046-1.375 3.07-.41.965-.79 1.96-1.113 2.954a58.6 58.6 0 00-1.58 6.317c-.206 1.024-.41 2.076-.528 3.13-.146 1.14-.322 2.28-.38 3.45a62.248 62.248 0 00-.088 3.305v1.492c0 .555 0 1.111.058 1.638.059.643.147 1.286.235 1.93.087.526.204 1.053.322 1.58.117.525.292 1.023.439 1.52s.322.965.497 1.433c.205.556.41 1.111.674 1.667.234.497.498.994.79 1.462.293.468.615.907.937 1.375.352.497.761.965 1.142 1.462.644.79 1.318 1.58 2.05 2.31.38.38.79.732 1.2 1.083.41.35.908.73 1.376 1.082.469.35.937.643 1.405.965.469.322.937.585 1.435.848.878.497 1.815.936 2.752 1.345 1.083.498 2.196.936 3.309 1.375.468.175.966.35 1.463.526.498.176.967.351 1.464.468a58.568 58.568 0 006.354 1.404c1.141.176 2.313.351 3.454.497 1.025.117 2.05.205 3.075.264 2.108.146 4.245.175 6.382.175s4.275 0 6.383-.205c2.254-.146 4.48-.526 6.646-1.053a20.44 20.44 0 003.22-1.257 16.697 16.697 0 002.636-1.52 34.237 34.237 0 005.006-4.417c.79-.848 1.552-1.726 2.225-2.662.644-.848 1.23-1.725 1.845-2.602a89.79 89.79 0 003.455-5.236c.556-.877 1.112-1.784 1.58-2.72.498-.994.967-2.017 1.406-3.04.38-.966.703-1.931.995-2.926.293-1.023.527-2.105.674-3.158.058-.527.117-1.024.117-1.55V66.4a5.615 5.615 0 00-.44-1.96c-.116-.234-.234-.468-.41-.673s-.35-.35-.585-.497a3.502 3.502 0 00-.468-.234l-.527-.175c-.38-.117-.761-.146-1.142-.117-.469.03-.937.146-1.376.322.058-.176.117-.38.146-.585.059-.293.088-.556.147-.849.029-.321.029-.614 0-.935-.03-.147-.059-.293-.088-.468a2.076 2.076 0 00-.234-.527c-.264-.497-.703-.906-1.26-1.082a3.52 3.52 0 00-2.195-.029 5.537 5.537 0 00-1.786 1.053 5.496 5.496 0 00-.732.702l-.147.175c-.058-.088-.087-.205-.146-.292-.234-.351-.556-.614-.908-.82-.644-.32-1.376-.409-2.049-.204-.293.088-.586.176-.849.322a4.393 4.393 0 00-.937.555 10.774 10.774 0 00-2.606 2.925c-.351.556-.702 1.14-1.054 1.696a14.989 14.989 0 00-.878 1.667c-.146.351-.293.732-.44 1.112-.087.292-.175.585-.263.906a39.91 39.91 0 00-.38 1.814c-.088.41.175.79.556.906a.733.733 0 00.878-.497c.088-.263.176-.526.264-.819.058-.205.146-.41.234-.585l.03-.058.087-.205c.147-.38.293-.731.44-1.111a27.622 27.622 0 012.751-4.767 9.47 9.47 0 011.406-1.463c.263-.204.556-.38.849-.526.175-.059.351-.117.556-.176h.41l.117.03c.117.058.234.117.322.204l.059.059.03.03c.028.058.028.116.058.175v.35a8.949 8.949 0 01-.586 1.697l-.264.41-.087.175-.03.029c-.38.585-.76 1.2-1.083 1.813-.205.38-.38.76-.527 1.14-.088.176-.146.352-.205.527a1.21 1.21 0 00-.088.468c0 .146.03.293.117.439.088.117.176.205.293.292l.03.03a.673.673 0 00.41.117c.234 0 .439-.088.614-.264.352-.438.644-.936.879-1.433l.146-.292c.322-.585.556-1.053.79-1.492l.06-.087.175-.264.088-.146a58.945 58.945 0 011.932-2.778c.38-.439.79-.848 1.23-1.229.263-.204.556-.38.849-.526.146-.059.322-.088.468-.117h.527c.088.03.146.03.234.058l.147.088.058.059c.059.058.088.146.147.234.029.058.029.117.058.204.03.234.03.468 0 .702-.058.38-.146.76-.263 1.14s-.264.79-.469 1.317c-.146.35-.351.702-.556 1.111-.38.468-.761.936-1.142 1.433-.322.44-.585.907-.849 1.316l-.351.615a3.183 3.183 0 01-.176.321l-.03.088-.029.059-.058.175-.059.146c-.029.088-.029.205-.029.293 0 .292.146.555.41.702.117.087.263.117.44.117.146 0 .292-.03.41-.117a2.52 2.52 0 00.409-.38l.03-.03.028-.058.03-.03a46.757 46.757 0 001.669-2.515l.087-.117.03-.058c.585-.82 1.288-1.55 2.05-2.223.204-.146.438-.292.702-.41.205-.087.44-.146.644-.175h.527c.263.059.498.117.732.205.058.03.146.058.205.117l.146.146.264.439c.117.292.175.585.234.877.03.673.03 1.375-.088 2.047a23.996 23.996 0 01-1.288 4.504c-.117.293-.234.585-.322.878l.03-.059.028-.088-.029.059.03-.059c-.41.966-.85 1.93-1.377 2.867s-1.112 1.813-1.668 2.661a87.118 87.118 0 01-3.66 5.147l-.03.059-.146.175-.03.03.06-.059-.03.058.03-.058-.06.088-.058.087-.029.03-.468.614-.235.322-.117.146.059-.059-.059.059.059-.059-.41.527a24.82 24.82 0 01-1.083 1.374c-.615.702-1.172 1.346-1.786 1.93a49.864 49.864 0 01-3.69 3.335c-.614.468-1.288.906-1.961 1.316-.673.38-1.376.73-2.108 1.053-.908.38-1.874.672-2.84.906-1.083.234-2.167.41-2.986.497a86.58 86.58 0 01-9.545.527c-.937 0-1.932 0-2.986-.03-1.054-.029-2.196-.058-3.367-.146a72.76 72.76 0 01-2.723-.234l-.556-.058h.087-.029.03l-.44-.059-.439-.058c-2.05-.263-4.099-.673-6.295-1.17a38.12 38.12 0 01-6.148-2.106c-1.2-.497-2.4-1.082-3.543-1.725a39 39 0 01-1.815-1.111 20.7 20.7 0 01-1.288-.936l-.088-.059c-.469-.38-.82-.702-1.171-.994-.352-.293-.644-.644-.966-.965-.644-.673-1.23-1.433-1.816-2.135l-.087-.117c-.293-.38-.674-.907-1.025-1.433a8.792 8.792 0 01-.556-.965c-.147-.293-.235-.498-.352-.732l-.058-.117a18.94 18.94 0 01-.498-1.286c-.146-.41-.293-.849-.44-1.346l-.029-.087a16.176 16.176 0 01-.38-1.404c-.117-.497-.205-.995-.293-1.492-.03-.35-.088-.731-.117-1.082-.03-.41-.059-.848-.059-1.287-.029-.702 0-1.433 0-2.135v-.497c.03-.702.03-1.52.088-2.369.059-.76.147-1.55.235-2.486.322-2.164.731-4.27 1.23-6.258a75.67 75.67 0 01.878-3.13c.117-.41.263-.79.41-1.199l.087-.234c.205-.556.41-1.111.644-1.667l.059-.175c.44-1.024.878-1.93 1.288-2.808s.937-1.813 1.405-2.69l.06-.088c.438-.82.965-1.784 1.55-2.691.586-.907 1.143-1.784 1.816-2.778.732-1.082 1.581-2.223 2.547-3.51l.088-.088c.41-.526.82-1.053 1.259-1.55.556-.643 1.113-1.257 1.669-1.871l.088-.117c.468-.527.937-1.053 1.464-1.58l.82-.819c.234-.234.497-.438.76-.643l.03-.03c.615-.467 1.23-.877 1.815-1.257l.146-.088a1.173 1.173 0 00.41-1.55 1.142 1.142 0 00-.995-.555c-.527.029-.703.087-.85.175zm45.498 32.814l-.059.059z"/><path d="M46.154 36.686a1.259 1.259 0 00-.703.526.919.919 0 00-.146.614c0 .088.029.176.029.263.088.38.176.79.234 1.17l.059.263c.058.234.088.44.117.673v.088c.058.468.088.965.117 1.462.03.41.03.79.03 1.2v.35a53.63 53.63 0 010 3.071c-.06 1.96-.264 3.86-.47 5.996 0 .146-.028.292-.058.438v.088l-.029.205c-.234 1.667-.527 3.51-.908 5.586-.175.965-.38 1.988-.585 3.041-.205.907-.41 1.784-.615 2.662l-.03.146-.233 1.023c-.176.732-.352 1.463-.528 2.223l-.029.088c-.088.38.117.76.498.848.176.059.38.03.527-.058a.757.757 0 00.322-.41c.351-.936.644-1.9.937-2.837.293-.936.585-1.9.82-2.837.527-1.9.937-3.83 1.346-5.761.205-.965.41-1.93.586-2.895.176-1.053.322-2.135.44-3.217.116-1.083.233-2.106.292-3.188.088-1.024.088-2.018.088-3.042 0-1.082-.03-2.164-.117-3.246a26.88 26.88 0 00-.615-3.685 1.194 1.194 0 00-1.142-.848c-.03-.059-.117-.03-.234 0"/><path d="M40.679 68.856c.029.615.527 1.14 1.141 1.14 1.494.03 3.016.118 4.48.176l1.786.088c2.05.088 4.157.205 6.236.38 1.376.117 2.723.205 4.1.293l.76.058.79.059c.528.029 1.026.058 1.553.117l.205.029c.702.059 1.463.117 2.195.117a.747.747 0 00.703-.556.626.626 0 00-.088-.555c-.088-.176-.263-.293-.439-.351l-.117-.03c-.44-.117-.878-.175-1.318-.233a24.443 24.443 0 01-1.434-.234c-.966-.147-1.932-.293-2.899-.41l.117.03c-2.137-.293-4.274-.498-6.44-.703-2.02-.204-4.07-.292-6.09-.38-1.172-.03-2.372-.087-3.543-.117l-.586-.029c-.615 0-1.083.497-1.112 1.111zm17.86 6.171c0 .176.058.351.204.468.117.117.293.176.469.205l.234.03h.176a8.73 8.73 0 011.961.467c.117.059.264.117.38.205.089.058.147.146.206.205l.029.029v.088c-.03.029-.03.087-.059.117l-.263.263c-.176.117-.38.234-.586.35-.351.06-.702.118-1.024.235-.147.058-.293.117-.469.146h-.03a4.765 4.765 0 00-.38.175c-.205.147-.351.38-.351.615 0 .175.058.321.176.438a.734.734 0 00.527.234c.263 0 .556-.058.82-.146h.058c.264-.03.527-.059.82-.059.205 0 .41 0 .585.03l.352.087.058.03.059.058.029.03c0 .029.03.058.03.087-.03.176-.089.38-.176.556-.293.614-.645 1.17-1.054 1.725-.44.585-.85 1.024-1.23 1.463-.469.468-.966.906-1.493 1.316l-.147.117c-.41.292-.79.555-1.141.76-.41.234-.82.468-1.26.644-.41.175-.82.292-1.23.409-.438.117-.907.205-1.463.292-.556.059-1.113.088-1.669.117-.556 0-1.142-.029-1.903-.117l-.234-.029-.205-.03a3.062 3.062 0 01-.498-.116l-.234-.058a7.398 7.398 0 01-1.142-.351l-.176-.059c-.175-.088-.38-.146-.556-.263a11.097 11.097 0 01-.995-.527 12.21 12.21 0 01-.82-.497l-.088-.058c-.176-.117-.322-.234-.498-.351a53.397 53.397 0 01-1.698-1.521 24.868 24.868 0 01-1.932-1.989 10.83 10.83 0 01-.498-.73c-.146-.264-.293-.527-.41-.79a7.095 7.095 0 01-.38-1.112 9.117 9.117 0 01-.264-1.287.987.987 0 00-.498-.643 1.088 1.088 0 00-1.463.38 1.161 1.161 0 00-.118.819c.118.702.293 1.404.527 2.106.264.79.615 1.55 1.025 2.252.469.702.996 1.345 1.552 1.96.79.877 1.552 1.666 2.342 2.368.117.117.264.234.41.351l.205.146c.234.205.498.38.732.556l.234.146c.41.263.82.497 1.23.731l.205.117c.146.088.293.147.439.205l.205.088c.205.087.38.146.585.234h.03l.117.058.263.088a9.916 9.916 0 001.61.38l.235.03c.293.029.615.087.937.116.351.03.644.03.937.059h.263c.44 0 .879-.03 1.406-.088 1.17-.117 2.312-.35 3.396-.79.615-.233 1.2-.497 1.756-.818.469-.264.937-.585 1.376-.936 2.08-1.609 3.777-3.685 4.89-6.054.088-.205.176-.41.234-.644.117-.38.146-.76.088-1.14a1.939 1.939 0 00-.176-.585 1.92 1.92 0 00-.351-.497c-.117-.117-.234-.205-.351-.293h-.03c.147-.205.264-.438.352-.672l.058-.41c.03-.146-.029-.263-.058-.41a1.73 1.73 0 00-.527-.818 2.456 2.456 0 00-.82-.527 4.833 4.833 0 00-1.054-.321 14.043 14.043 0 00-2.196-.264c-.322.176-.586.468-.615.82zm3.688 1.638l.03-.146c0 .058-.03.117-.03.146zm-.029.146c0 .03-.03.059-.03.088zm-.059.088c-.029.03-.058.088-.087.117zM27.533 37.855c-.293.147-.498.44-.586.76a16.937 16.937 0 00-.38 3.218c0 .205.029.38.058.585v.117l.088.614c.059.263.176.556.293.79a2.884 2.884 0 001.259 1.316c.293.175.615.292.966.35.205.03.44.06.644.088h.088c.176 0 .322-.029.498-.058l.117-.03a3.55 3.55 0 00.937-.321c.322-.146.615-.322.878-.556.615-.468 1.113-1.082 1.493-1.755.264-.467.469-.935.644-1.433.147-.468.264-.906.352-1.403a.67.67 0 00-.293-.702.59.59 0 00-.322-.088c-.205 0-.44.117-.527.292-.117.176-.205.38-.322.556l-.322.556c-.176.292-.381.585-.586.877l-.058.059c-.147.175-.293.38-.469.555-.205.205-.44.41-.644.614-.205.147-.44.293-.673.41a3.548 3.548 0 01-.527.146h-.264c-.088-.03-.146-.03-.234-.058-.088-.03-.146-.088-.205-.117-.059-.03-.088-.088-.146-.147-.059-.058-.059-.087-.088-.117-.059-.175-.088-.35-.147-.526-.029-.292-.029-.585-.029-.877 0-.293.03-.556.059-.82v-.116c.058-.439.146-.878.234-1.316a1.38 1.38 0 00-.117-.965c-.352-.615-1.113-.82-1.67-.498zm-10.774-.233c-1.113.029-2.196.058-3.309.146-2.283.146-4.567.321-6.85.672-.557.088-1.113.205-1.67.322-.556.146-1.112.322-1.64.527-.526.204-1.112.409-1.639.643-.234.117-.44.205-.673.322a4.18 4.18 0 00-.586.41c-.146.145-.234.32-.322.496a1.152 1.152 0 00-.03.702c.118.322.264.614.499.878s.497.497.79.672c.264.205.527.351.82.527.468.263.907.526 1.405.76a21.46 21.46 0 003.22 1.228c.586.176 1.201.351 1.816.527s1.23.35 1.845.497c.556.117 1.112.234 1.698.38a12.4 12.4 0 002.078.38 1.16 1.16 0 001.113-.848 1.174 1.174 0 00-.79-1.404c-.147-.058-.293-.087-.44-.117l-.38-.087-.44-.088c-.35-.088-.702-.175-1.024-.292l-.322-.088c-.879-.234-1.757-.439-2.606-.644l-1.23-.263c-.527-.117-1.083-.234-1.61-.35a18.9 18.9 0 01-2.489-.79 13.555 13.555 0 01-1.698-.907l-.234-.146c.644-.234 1.288-.468 1.962-.644.732-.204 1.464-.38 2.195-.497 1.64-.205 3.309-.322 4.92-.468l1.522-.117c1.669-.146 3.396-.292 5.094-.322h1.435l.966.03a1.05 1.05 0 001.054-1.053c0-.585-.469-1.053-1.054-1.053-.908-.03-1.786-.03-2.694-.03h-.79zm22.954 61.27c0 .497-.03.994-.06 1.521-.028.38-.058.76-.116 1.17a78.704 78.704 0 01-.469 2.778c-.175.907-.292 1.872-.439 2.778-.322 1.931-.673 3.861-.907 5.82-.03.293-.088.615-.117.907-.088.527-.147 1.082-.235 1.609-.058.292-.088.585-.146.848-.03.204-.059.409-.117.614-.117.058-.234.117-.352.146l-.497.234c-.322.146-.644.293-.996.439-.644.263-1.259.585-1.874.906-.614.322-1.288.702-1.903 1.053-.292.176-.585.351-.849.527-.351.204-.673.438-1.024.702a.706.706 0 00.322 1.199c.175.058.38.029.556-.059.322-.146.644-.321.966-.468l.351-.175.498-.263.732-.381.556-.292c.644-.322 1.318-.673 1.991-.994l.147-.088c.41-.176.79-.38 1.2-.556.205-.117.41-.205.615-.322.351-.146.644-.409.849-.701.088-.147.146-.293.176-.439.029-.088.058-.176.088-.293.058-.234.117-.438.175-.672.117-.41.205-.819.293-1.258.38-1.842.761-3.656 1.142-5.498.205-.936.38-1.901.527-2.837s.293-1.901.439-2.866c.117-.848.234-1.696.351-2.574.117-.877.147-1.696.147-2.515a1.039 1.039 0 00-.966-1.082 1.039 1.039 0 00-1.084.965.22.22 0 01.03.117z"/><path d="M36.902 117.259c-.352.672-.703 1.345-1.054 1.988l-.088.176c-.293.497-.586 1.111-.878 1.755-.293.643-.644 1.374-.908 2.105l-.088.205c-.058.146-.088.293-.146.439-.176.497-.322.994-.38 1.491a.842.842 0 00.585 1.024.809.809 0 00.907-.38c.088-.117.147-.263.235-.41l.439-.877c.117-.234.205-.439.322-.644.205-.409.439-.818.644-1.257l.322-.585 1.2-2.281c.293-.556.586-1.082.85-1.638a1.15 1.15 0 00.117-.877 1.16 1.16 0 00-1.113-.849c-.38.059-.761.264-.966.615"/><path d="M37.575 116.557c-.556.351-.761 1.082-.439 1.638.263.467.527.965.732 1.462.058.146.117.263.146.409.38.995.732 1.989 1.025 2.925l.146.409c.117.381.264.79.381 1.17.059.205.117.41.176.585l.146.585c.059.234.147.468.234.702.118.38.469.643.85.643a.84.84 0 00.644-.292.929.929 0 00.234-.585c0-.848-.059-1.696-.234-2.544a17.822 17.822 0 00-.498-2.165l-.088-.292a13.51 13.51 0 00-.673-1.813c-.176-.439-.352-.849-.586-1.258s-.41-.76-.615-1.141c-.205-.38-.615-.585-1.054-.585-.146-.029-.38.03-.527.147z"/><path d="M28.675 121.178c-.03.029-.03.058-.059.087-.146.264-.205.615-.117.907.088.292.264.526.527.673.234.146.498.263.732.409.176.117.322.234.498.351l.029.029c.264.205.527.439.79.673.293.292.528.585.762.877l.029.059c.176.263.38.526.556.789.088.117.147.264.235.381.117.175.204.38.322.555.146.264.38.439.673.556.088.029.146.029.234.029.176 0 .38-.029.556-.087l.205-.059c.352-.088.732-.146 1.142-.205.41-.058.85-.087 1.23-.087h.176c.35 0 .732.029 1.024.058a9.208 9.208 0 011.962.497l.41.176a.91.91 0 00.38.087c.059 0 .118 0 .176-.029a.744.744 0 00.44-.351.91.91 0 00.029-.731.702.702 0 00-.293-.292 9.02 9.02 0 00-1.435-.673l-.322-.117a7.24 7.24 0 00-1.932-.351h-.205c-.234 0-.498 0-.761.029-.322.03-.644.088-.967.147l-.146.029-.468.088-.381.087-.469.117c-.087-.292-.146-.585-.204-.877-.088-.351-.235-.673-.381-.994a5.168 5.168 0 00-.41-.673 7.17 7.17 0 00-1.317-1.345c-.147-.117-.323-.264-.498-.381l-.41-.292a12.98 12.98 0 00-.878-.497 1.331 1.331 0 00-.586-.147c-.322 0-.673.205-.878.498zM23.375 96.026c0 .497-.029.994-.058 1.52-.03.381-.059.761-.117 1.17-.147.936-.293 1.872-.469 2.779s-.293 1.872-.439 2.778c-.322 1.931-.673 3.861-.908 5.82-.029.293-.087.615-.117.907-.087.526-.146 1.082-.234 1.609-.058.292-.088.584-.146.848-.03.204-.059.409-.117.614-.117.058-.234.117-.352.146l-.497.234c-.322.146-.644.292-.996.439-.644.263-1.259.585-1.874.906-.614.322-1.288.702-1.903 1.053-.292.176-.585.351-.849.527-.351.204-.673.438-1.024.702a.706.706 0 00.322 1.199c.175.058.38.029.556-.059.322-.146.644-.322.966-.468l.351-.175.498-.264.732-.38.556-.292c.644-.322 1.318-.673 1.991-.995l.147-.087c.41-.176.79-.38 1.2-.556.205-.117.41-.205.615-.322.351-.146.644-.409.849-.702.088-.146.146-.292.176-.438.029-.088.058-.176.087-.293.059-.234.117-.438.176-.672.117-.41.205-.819.293-1.258.38-1.842.761-3.656 1.142-5.498.205-.936.38-1.901.527-2.837s.292-1.901.439-2.866c.117-.848.234-1.697.351-2.574s.147-1.696.147-2.515a1.038 1.038 0 00-.967-1.082 1.039 1.039 0 00-1.083.965c0 .058 0 .088.03.117z"/><path d="M20.565 114.393c-.352.672-.703 1.345-1.054 1.988l-.088.176c-.293.497-.586 1.111-.879 1.755-.292.643-.644 1.374-.907 2.105l-.088.205c-.059.146-.088.292-.146.439-.176.497-.322.994-.381 1.491a.842.842 0 00.586 1.024.809.809 0 00.907-.38c.088-.117.146-.264.234-.41l.44-.877c.117-.234.204-.439.322-.644.204-.409.439-.819.644-1.257l.322-.585 1.2-2.281c.293-.556.586-1.082.85-1.638.146-.263.204-.585.116-.878a1.16 1.16 0 00-1.112-.848c-.38.059-.761.264-.966.615"/><path d="M21.238 113.691c-.556.351-.761 1.082-.44 1.637.264.468.528.965.733 1.463.058.146.117.263.146.409.38.994.732 1.989 1.025 2.925l.146.409c.117.38.264.79.38 1.17.06.205.118.409.177.585l.146.585c.059.234.146.468.234.702.117.38.469.643.85.643a.84.84 0 00.643-.292.93.93 0 00.235-.585c0-.848-.059-1.696-.235-2.545a17.87 17.87 0 00-.497-2.164l-.088-.292a13.523 13.523 0 00-.674-1.814 9.819 9.819 0 00-.585-1.257c-.234-.41-.41-.761-.615-1.141s-.615-.585-1.054-.585a.7.7 0 00-.527.147z"/><path d="M12.338 118.312c-.03.029-.03.058-.059.087-.146.263-.205.614-.117.907.088.292.263.526.527.673.234.146.498.263.732.409.175.117.322.234.498.351l.029.029c.263.205.527.439.79.673.293.292.527.585.762.877l.029.059c.175.263.38.526.556.789.088.117.146.264.234.381.117.175.205.38.322.555.147.263.381.439.674.556.088.029.146.029.234.029.176 0 .38-.029.556-.088l.234-.087c.352-.088.733-.147 1.142-.205.41-.059.85-.088 1.23-.088h.176c.351 0 .732.029 1.024.059a9.147 9.147 0 011.962.497l.41.175a.895.895 0 00.38.088c.06 0 .118 0 .176-.029.176-.059.352-.176.44-.351a.91.91 0 00.029-.731.71.71 0 00-.293-.293 9.098 9.098 0 00-1.435-.672l-.322-.117a7.24 7.24 0 00-1.932-.351h-.205c-.234 0-.498 0-.761.029-.322.029-.644.088-.966.146l-.147.029-.468.088-.38.088-.47.117a9.501 9.501 0 01-.204-.878c-.088-.35-.234-.672-.38-.994a5.168 5.168 0 00-.41-.673 7.17 7.17 0 00-1.318-1.345c-.147-.117-.322-.263-.498-.38l-.41-.293c-.293-.175-.585-.35-.878-.497a1.343 1.343 0 00-.586-.146c-.322.029-.702.205-.907.527z"/></g></svg>