<svg enable-background="new 0 0 288 288" viewBox="0 0 288 288" xmlns="http://www.w3.org/2000/svg" xmlns:xlink="http://www.w3.org/1999/xlink"><clipPath id="a"><path d="m-43.6-43.6h375.2v375.2h-375.2z" transform="matrix(.9372 -.3487 .3487 .9372 -41.1742 59.2514)"/></clipPath><g clip-path="url(#a)"><path d="m392.3 264.1h3.1v13.4h-3.1z" fill="#fff" transform="matrix(.4161 -.9093 .9093 .4161 -16.2979 516.2455)"/><g fill="#fee04a"><path d="m-24.1 173.1h439.6v13.4h-439.6z" transform="matrix(.4161 -.9093 .9093 .4161 -49.2816 282.9452)"/><path d="m-137.7 121.2h439.6v13.4h-439.6z" transform="matrix(.4161 -.9093 .9093 .4161 -68.3958 149.3735)"/><path d="m-134.8 108.4h377.2v13.4h-377.2z" transform="matrix(.4161 -.9093 .9093 .4161 -73.2776 116.1306)"/></g><path d="m-117.8 30.6h3.1v13.4h-3.1z" fill="#fff" transform="matrix(.4161 -.9093 .9093 .4161 -101.7948 -83.9359)"/></g></svg>